<!-- Generator: Adobe Illustrator 23.0.0, SVG Export Plug-In  -->
<svg version="1.1" xmlns="http://www.w3.org/2000/svg" xmlns:xlink="http://www.w3.org/1999/xlink" x="0px" y="0px"
	 width="174.747px" height="176.797px" viewBox="0 0 174.747 176.797" style="enable-background:new 0 0 174.747 176.797;"
	 xml:space="preserve">
<style type="text/css">
	.st0{fill:none;stroke:#000000;stroke-width:1.7008;stroke-miterlimit:10;}
	.st1{fill:#3189C9;stroke:#000000;stroke-width:1.6936;stroke-miterlimit:10;}
	.st2{fill:none;stroke:#000000;stroke-width:1.6936;stroke-miterlimit:10;}
	.st3{font-family:'AgencyFB-Bold';}
	.st4{font-size:21px;}
	.st5{font-family:'ArialMT';}
	.st6{font-size:10.5px;}
	.st7{font-size:10px;}
</style>
<defs>
</defs>
<line class="st0" x1="100.727" y1="59.953" x2="100.727" y2="170.62"/>
<path class="st1" d="M103.303,5.307v40.617c0,0,0.354,7.784,7.819,7.359c7.465-0.425,6.899-6.227,6.899-6.227
	s5.897,2.095,8.963-2.986c3.066-5.081,0-7.487,0-7.487s5.627-2.389,4.736-7.28s-3.792-6.448-3.792-6.448s1.557-1.678,1.132-4.537
	c-0.425-2.858-4.812-5.394-4.812-5.394l-1.344-0.756c0,0,1.03-3.431-0.971-6.014c-2.001-2.583-6.742-1.274-6.742-1.274
	s-1.769-3.927-5.431-4.033C106.098,0.742,103.303,5.307,103.303,5.307z"/>
<path class="st2" d="M99.482,5.307v40.617c0,0-0.354,7.784-7.819,7.359c-7.465-0.425-6.899-6.227-6.899-6.227
	s-5.897,2.095-8.963-2.986s0-7.487,0-7.487s-5.627-2.389-4.736-7.28s3.792-6.448,3.792-6.448s-1.557-1.678-1.132-4.537
	c0.425-2.858,4.812-5.394,4.812-5.394l1.344-0.756c0,0-1.03-3.431,0.971-6.014c2.001-2.583,6.742-1.274,6.742-1.274
	s1.769-3.927,5.431-4.033C96.687,0.742,99.482,5.307,99.482,5.307z"/>
<path class="st2" d="M114.059,25.686c0,0-1.108,13.091,12.926,10.897"/>
<path class="st2" d="M110.22,41.254c0,0,1.621-5.649,8.072-5.867"/>
<path class="st2" d="M94.246,24.837c0,0-1.911-5.203-7.182-6.246"/>
<path class="st2" d="M84.764,47.056c0,0,8.173-2.547,5.891-10.225s-8.297-5.573-8.297-5.573"/>
<g>
	<path d="M112.649,82.324h-2.399V66.277h2.399V82.324z"/>
	<path d="M121.406,82.324h-2.358v-8.397l-2.204,0.041v8.356h-2.349V71.967h2.349v0.38c0.546-0.089,1.09-0.175,1.63-0.257
		c0.67-0.109,1.22-0.164,1.651-0.164c0.854,0,1.281,0.421,1.281,1.262V82.324z"/>
	<path d="M127.559,82.324h-2.604c-0.868,0-1.303-0.427-1.303-1.281v-7.075h-1.107v-2h1.107v-2.81h2.338v2.81h1.508v2h-1.508v6.357
		h1.569V82.324z"/>
	<path d="M135.557,81.043c0,0.854-0.441,1.281-1.323,1.281h-4.05c-0.883,0-1.323-0.427-1.323-1.281V73.25
		c0-0.854,0.44-1.282,1.323-1.282h4.05c0.882,0,1.323,0.428,1.323,1.282v3.804L134.91,77.7h-3.805v2.901h2.205v-1.723h2.246V81.043z
		 M133.311,76.172V73.69h-2.205v2.481H133.311z"/>
	<path d="M143.791,76.295h-2.328v-2.368l-1.855,0.041v8.356h-2.349V71.967h2.349v0.38c0.484-0.089,0.967-0.178,1.445-0.267
		c0.581-0.103,1.066-0.154,1.456-0.154c0.854,0,1.282,0.421,1.282,1.262V76.295z"/>
	<path d="M151.81,81.043c0,0.854-0.441,1.281-1.323,1.281h-4.05c-0.883,0-1.323-0.427-1.323-1.281V73.25
		c0-0.854,0.44-1.282,1.323-1.282h4.05c0.882,0,1.323,0.428,1.323,1.282v3.804l-0.646,0.646h-3.805v2.901h2.205v-1.723h2.246V81.043
		z M149.563,76.172V73.69h-2.205v2.481H149.563z"/>
	<path d="M160.021,81.043c0,0.854-0.434,1.281-1.302,1.281h-3.948c-0.868,0-1.302-0.427-1.302-1.281v-2.226h2.245v1.743h2.062V78.92
		l-3.599-2.122c-0.473-0.28-0.708-0.656-0.708-1.128v-2.42c0-0.854,0.44-1.282,1.323-1.282h3.906c0.868,0,1.303,0.428,1.303,1.282
		v2.081h-2.226v-1.6h-2.062v1.497l3.59,2.103c0.478,0.273,0.717,0.656,0.717,1.148V81.043z"/>
	<path d="M166.134,82.324h-2.604c-0.868,0-1.303-0.427-1.303-1.281v-7.075h-1.107v-2h1.107v-2.81h2.338v2.81h1.508v2h-1.508v6.357
		h1.569V82.324z"/>
	<path d="M173.947,81.043c0,0.854-0.434,1.281-1.302,1.281h-3.948c-0.868,0-1.302-0.427-1.302-1.281v-2.226h2.245v1.743h2.062V78.92
		l-3.599-2.122c-0.473-0.28-0.708-0.656-0.708-1.128v-2.42c0-0.854,0.44-1.282,1.323-1.282h3.906c0.868,0,1.303,0.428,1.303,1.282
		v2.081h-2.226v-1.6h-2.062v1.497l3.59,2.103c0.478,0.273,0.717,0.656,0.717,1.148V81.043z"/>
</g>
<g>
	<path d="M109.103,97.787v-7.516h2.589c0.584,0,1.03,0.035,1.338,0.107c0.431,0.1,0.798,0.278,1.103,0.538
		c0.396,0.335,0.692,0.764,0.89,1.284c0.196,0.521,0.294,1.117,0.294,1.787c0,0.571-0.066,1.076-0.199,1.518
		c-0.134,0.44-0.305,0.806-0.513,1.095c-0.209,0.289-0.437,0.516-0.685,0.682s-0.547,0.292-0.897,0.377
		c-0.351,0.086-0.753,0.128-1.207,0.128H109.103z M110.097,96.9h1.604c0.496,0,0.885-0.046,1.167-0.139
		c0.281-0.092,0.506-0.222,0.674-0.39c0.236-0.235,0.42-0.553,0.551-0.951c0.132-0.397,0.197-0.881,0.197-1.448
		c0-0.786-0.129-1.39-0.387-1.813c-0.258-0.422-0.571-0.705-0.94-0.849c-0.267-0.103-0.696-0.153-1.287-0.153h-1.579V96.9z"/>
	<path d="M120.12,97.115c-0.342,0.291-0.671,0.496-0.987,0.615c-0.315,0.12-0.655,0.18-1.018,0.18c-0.598,0-1.058-0.146-1.379-0.438
		c-0.321-0.292-0.482-0.665-0.482-1.12c0-0.267,0.062-0.51,0.183-0.73s0.28-0.397,0.477-0.53c0.196-0.134,0.418-0.234,0.664-0.303
		c0.181-0.048,0.454-0.094,0.82-0.139c0.745-0.089,1.294-0.194,1.646-0.317c0.004-0.127,0.006-0.207,0.006-0.241
		c0-0.376-0.088-0.641-0.262-0.795c-0.236-0.208-0.587-0.313-1.051-0.313c-0.435,0-0.755,0.076-0.962,0.229
		c-0.207,0.151-0.359,0.421-0.459,0.807l-0.902-0.123c0.082-0.386,0.217-0.697,0.405-0.936c0.188-0.237,0.46-0.42,0.815-0.548
		c0.355-0.129,0.767-0.192,1.235-0.192c0.465,0,0.843,0.055,1.133,0.164c0.291,0.109,0.504,0.247,0.641,0.412
		c0.137,0.166,0.232,0.376,0.287,0.628c0.031,0.158,0.047,0.441,0.047,0.852v1.23c0,0.858,0.02,1.4,0.059,1.628
		s0.117,0.445,0.233,0.653h-0.964C120.209,97.595,120.147,97.372,120.12,97.115z M120.043,95.054
		c-0.335,0.137-0.837,0.253-1.507,0.349c-0.38,0.055-0.648,0.116-0.806,0.185s-0.278,0.168-0.363,0.3
		c-0.086,0.132-0.129,0.278-0.129,0.438c0,0.246,0.094,0.451,0.28,0.615c0.186,0.164,0.458,0.246,0.817,0.246
		c0.355,0,0.672-0.078,0.948-0.233c0.277-0.155,0.48-0.368,0.61-0.639c0.099-0.208,0.148-0.516,0.148-0.923V95.054z"/>
	<path d="M122.406,97.787v-5.444h0.83v0.773c0.4-0.598,0.978-0.896,1.733-0.896c0.328,0,0.63,0.059,0.904,0.177
		c0.275,0.118,0.481,0.272,0.618,0.464s0.232,0.419,0.287,0.682c0.034,0.171,0.052,0.471,0.052,0.897v3.348h-0.924v-3.312
		c0-0.376-0.035-0.657-0.107-0.844c-0.071-0.187-0.199-0.335-0.382-0.446c-0.183-0.11-0.397-0.166-0.644-0.166
		c-0.393,0-0.732,0.125-1.018,0.374c-0.285,0.25-0.428,0.723-0.428,1.42v2.974H122.406z"/>
	<path d="M131.799,95.793l0.907,0.118c-0.099,0.625-0.353,1.115-0.761,1.469c-0.409,0.354-0.91,0.53-1.505,0.53
		c-0.745,0-1.345-0.243-1.797-0.73c-0.453-0.487-0.68-1.185-0.68-2.095c0-0.587,0.098-1.102,0.292-1.543
		c0.195-0.44,0.491-0.771,0.89-0.992c0.398-0.22,0.831-0.33,1.3-0.33c0.591,0,1.075,0.149,1.451,0.448s0.616,0.724,0.723,1.274
		l-0.897,0.138c-0.085-0.365-0.236-0.641-0.453-0.825c-0.218-0.185-0.479-0.276-0.787-0.276c-0.465,0-0.843,0.166-1.133,0.5
		c-0.291,0.333-0.437,0.86-0.437,1.581c0,0.731,0.141,1.264,0.421,1.595c0.28,0.332,0.646,0.497,1.097,0.497
		c0.362,0,0.665-0.11,0.907-0.333C131.58,96.596,131.733,96.254,131.799,95.793z"/>
	<path d="M133.501,91.332v-1.061h0.923v1.061H133.501z M133.501,97.787v-5.444h0.923v5.444H133.501z"/>
	<path d="M135.829,97.787v-5.444h0.83v0.773c0.4-0.598,0.978-0.896,1.733-0.896c0.328,0,0.63,0.059,0.904,0.177
		c0.275,0.118,0.481,0.272,0.618,0.464s0.232,0.419,0.287,0.682c0.034,0.171,0.052,0.471,0.052,0.897v3.348h-0.924v-3.312
		c0-0.376-0.035-0.657-0.107-0.844c-0.071-0.187-0.199-0.335-0.382-0.446c-0.183-0.11-0.397-0.166-0.644-0.166
		c-0.393,0-0.732,0.125-1.018,0.374c-0.285,0.25-0.428,0.723-0.428,1.42v2.974H135.829z"/>
	<path d="M141.5,98.238l0.896,0.134c0.038,0.276,0.142,0.479,0.313,0.604c0.229,0.171,0.542,0.257,0.938,0.257
		c0.428,0,0.757-0.086,0.989-0.257s0.391-0.41,0.473-0.718c0.047-0.188,0.069-0.582,0.066-1.185
		c-0.403,0.476-0.906,0.713-1.508,0.713c-0.748,0-1.328-0.27-1.738-0.81s-0.615-1.188-0.615-1.943c0-0.52,0.095-0.999,0.282-1.438
		c0.188-0.438,0.461-0.778,0.818-1.018c0.356-0.239,0.776-0.358,1.259-0.358c0.642,0,1.172,0.26,1.589,0.779v-0.656h0.851v4.706
		c0,0.848-0.086,1.448-0.259,1.803c-0.172,0.354-0.445,0.633-0.82,0.838c-0.374,0.205-0.835,0.308-1.382,0.308
		c-0.649,0-1.174-0.146-1.573-0.438C141.679,99.266,141.485,98.826,141.5,98.238z M142.264,94.967c0,0.714,0.142,1.235,0.426,1.563
		c0.283,0.328,0.639,0.492,1.066,0.492c0.423,0,0.779-0.163,1.066-0.489c0.287-0.327,0.43-0.839,0.43-1.536
		c0-0.666-0.147-1.169-0.443-1.507c-0.295-0.339-0.651-0.508-1.068-0.508c-0.41,0-0.759,0.167-1.046,0.5
		S142.264,94.311,142.264,94.967z"/>
	<path d="M109.103,110.387v-7.517h2.835c0.499,0,0.88,0.024,1.144,0.072c0.369,0.062,0.678,0.179,0.928,0.351
		c0.249,0.173,0.45,0.415,0.603,0.726c0.151,0.312,0.228,0.653,0.228,1.025c0,0.64-0.203,1.181-0.609,1.623
		c-0.407,0.442-1.143,0.664-2.205,0.664h-1.928v3.056H109.103z M110.097,106.445h1.943c0.643,0,1.099-0.12,1.369-0.359
		c0.27-0.239,0.404-0.576,0.404-1.01c0-0.314-0.079-0.584-0.238-0.808s-0.368-0.372-0.628-0.443
		c-0.168-0.045-0.477-0.066-0.928-0.066h-1.923V106.445z"/>
	<path d="M115.988,110.387v-7.517h0.923v2.697c0.431-0.499,0.974-0.749,1.63-0.749c0.403,0,0.754,0.08,1.052,0.238
		c0.297,0.159,0.51,0.379,0.638,0.659s0.192,0.688,0.192,1.221v3.45H119.5v-3.45c0-0.462-0.1-0.798-0.3-1.008
		s-0.483-0.315-0.849-0.315c-0.273,0-0.53,0.071-0.771,0.213s-0.413,0.334-0.516,0.577c-0.103,0.242-0.153,0.577-0.153,1.005v2.979
		H115.988z"/>
	<path d="M121.483,107.665c0-1.008,0.28-1.755,0.841-2.24c0.468-0.403,1.039-0.605,1.713-0.605c0.748,0,1.359,0.245,1.835,0.736
		c0.475,0.49,0.713,1.168,0.713,2.032c0,0.701-0.105,1.252-0.315,1.653c-0.21,0.402-0.517,0.714-0.918,0.937
		c-0.401,0.222-0.84,0.333-1.314,0.333c-0.763,0-1.379-0.244-1.849-0.733C121.719,109.289,121.483,108.585,121.483,107.665z
		 M122.432,107.665c0,0.697,0.152,1.22,0.457,1.566c0.304,0.347,0.687,0.521,1.148,0.521c0.457,0,0.839-0.175,1.143-0.523
		c0.305-0.349,0.457-0.88,0.457-1.594c0-0.674-0.153-1.184-0.459-1.531c-0.307-0.347-0.687-0.52-1.141-0.52
		c-0.462,0-0.845,0.172-1.148,0.518C122.584,106.446,122.432,106.967,122.432,107.665z"/>
	<path d="M129.682,109.562l0.133,0.814c-0.26,0.055-0.492,0.082-0.697,0.082c-0.335,0-0.594-0.053-0.779-0.158
		c-0.184-0.106-0.314-0.246-0.389-0.418c-0.076-0.173-0.113-0.536-0.113-1.09v-3.133h-0.677v-0.718h0.677v-1.348l0.918-0.554v1.901
		h0.928v0.718h-0.928v3.185c0,0.263,0.016,0.432,0.049,0.507c0.032,0.075,0.085,0.136,0.158,0.18
		c0.074,0.045,0.179,0.066,0.315,0.066C129.379,109.597,129.514,109.586,129.682,109.562z"/>
	<path d="M130.24,107.665c0-1.008,0.28-1.755,0.841-2.24c0.468-0.403,1.039-0.605,1.713-0.605c0.748,0,1.359,0.245,1.835,0.736
		c0.475,0.49,0.713,1.168,0.713,2.032c0,0.701-0.105,1.252-0.315,1.653c-0.21,0.402-0.517,0.714-0.918,0.937
		c-0.401,0.222-0.84,0.333-1.314,0.333c-0.763,0-1.379-0.244-1.849-0.733C130.476,109.289,130.24,108.585,130.24,107.665z
		 M131.188,107.665c0,0.697,0.152,1.22,0.457,1.566c0.304,0.347,0.687,0.521,1.148,0.521c0.457,0,0.839-0.175,1.143-0.523
		c0.305-0.349,0.457-0.88,0.457-1.594c0-0.674-0.153-1.184-0.459-1.531c-0.307-0.347-0.687-0.52-1.141-0.52
		c-0.462,0-0.845,0.172-1.148,0.518C131.341,106.446,131.188,106.967,131.188,107.665z"/>
	<path d="M136.255,110.839l0.896,0.133c0.038,0.277,0.142,0.479,0.313,0.605c0.229,0.171,0.542,0.256,0.938,0.256
		c0.428,0,0.757-0.085,0.989-0.256s0.391-0.41,0.473-0.718c0.047-0.188,0.069-0.583,0.066-1.185
		c-0.403,0.476-0.906,0.713-1.508,0.713c-0.748,0-1.328-0.271-1.738-0.811s-0.615-1.188-0.615-1.942c0-0.52,0.095-0.999,0.282-1.438
		c0.188-0.439,0.461-0.778,0.818-1.018c0.356-0.239,0.776-0.359,1.259-0.359c0.642,0,1.172,0.26,1.589,0.779v-0.656h0.851v4.707
		c0,0.848-0.086,1.448-0.259,1.802c-0.172,0.354-0.445,0.634-0.82,0.839c-0.374,0.205-0.835,0.308-1.382,0.308
		c-0.649,0-1.174-0.146-1.573-0.438C136.434,111.866,136.24,111.426,136.255,110.839z M137.019,107.567
		c0,0.715,0.142,1.236,0.426,1.564c0.283,0.328,0.639,0.492,1.066,0.492c0.423,0,0.779-0.164,1.066-0.49s0.43-0.838,0.43-1.535
		c0-0.667-0.147-1.169-0.443-1.508c-0.295-0.338-0.651-0.507-1.068-0.507c-0.41,0-0.759,0.166-1.046,0.499
		C137.162,106.417,137.019,106.911,137.019,107.567z"/>
	<path d="M142.253,110.387v-5.445h0.831v0.826c0.212-0.387,0.407-0.642,0.587-0.765s0.377-0.185,0.592-0.185
		c0.312,0,0.627,0.1,0.949,0.298l-0.318,0.856c-0.226-0.134-0.451-0.2-0.677-0.2c-0.202,0-0.383,0.061-0.544,0.182
		c-0.16,0.121-0.274,0.29-0.343,0.505c-0.103,0.328-0.154,0.688-0.154,1.077v2.851H142.253z"/>
	<path d="M149.313,109.715c-0.342,0.291-0.671,0.496-0.987,0.615c-0.315,0.119-0.655,0.18-1.018,0.18
		c-0.598,0-1.058-0.146-1.379-0.438s-0.482-0.666-0.482-1.12c0-0.267,0.062-0.511,0.183-0.73c0.121-0.221,0.28-0.397,0.477-0.531
		c0.196-0.133,0.418-0.233,0.664-0.302c0.181-0.048,0.454-0.095,0.82-0.139c0.745-0.089,1.294-0.195,1.646-0.318
		c0.004-0.126,0.006-0.206,0.006-0.24c0-0.376-0.088-0.642-0.262-0.795c-0.236-0.209-0.587-0.313-1.051-0.313
		c-0.435,0-0.755,0.075-0.962,0.228s-0.359,0.422-0.459,0.808l-0.902-0.123c0.082-0.386,0.217-0.698,0.405-0.936
		c0.188-0.237,0.46-0.421,0.815-0.549s0.767-0.192,1.235-0.192c0.465,0,0.843,0.055,1.133,0.164
		c0.291,0.109,0.504,0.247,0.641,0.413s0.232,0.375,0.287,0.628c0.031,0.157,0.047,0.441,0.047,0.852v1.23
		c0,0.857,0.02,1.4,0.059,1.627c0.039,0.228,0.117,0.445,0.233,0.654h-0.964C149.401,110.196,149.34,109.972,149.313,109.715z
		 M149.235,107.655c-0.335,0.137-0.837,0.253-1.507,0.349c-0.38,0.055-0.648,0.116-0.806,0.185s-0.278,0.168-0.363,0.3
		c-0.086,0.131-0.129,0.277-0.129,0.438c0,0.246,0.094,0.451,0.28,0.615c0.186,0.164,0.458,0.246,0.817,0.246
		c0.355,0,0.672-0.078,0.948-0.233c0.277-0.156,0.48-0.368,0.61-0.639c0.099-0.208,0.148-0.516,0.148-0.923V107.655z"/>
	<path d="M151.6,112.474v-7.532h0.841v0.708c0.198-0.277,0.422-0.484,0.672-0.623c0.249-0.139,0.552-0.208,0.907-0.208
		c0.465,0,0.875,0.12,1.23,0.359s0.623,0.576,0.805,1.013c0.181,0.436,0.271,0.913,0.271,1.433c0,0.558-0.1,1.059-0.3,1.505
		s-0.49,0.788-0.871,1.025c-0.382,0.237-0.782,0.356-1.203,0.356c-0.307,0-0.583-0.065-0.827-0.195
		c-0.245-0.13-0.445-0.294-0.603-0.492v2.651H151.6z M152.435,107.696c0,0.7,0.143,1.218,0.426,1.553
		c0.284,0.335,0.627,0.503,1.031,0.503c0.41,0,0.761-0.174,1.053-0.521c0.293-0.347,0.438-0.885,0.438-1.612
		c0-0.694-0.143-1.214-0.428-1.559c-0.285-0.346-0.627-0.518-1.022-0.518c-0.394,0-0.741,0.184-1.044,0.551
		S152.435,106.995,152.435,107.696z"/>
	<path d="M157.439,110.387v-7.517h0.923v2.697c0.431-0.499,0.974-0.749,1.63-0.749c0.403,0,0.754,0.08,1.052,0.238
		c0.297,0.159,0.51,0.379,0.638,0.659s0.192,0.688,0.192,1.221v3.45h-0.923v-3.45c0-0.462-0.1-0.798-0.3-1.008
		s-0.483-0.315-0.849-0.315c-0.273,0-0.53,0.071-0.771,0.213s-0.413,0.334-0.516,0.577c-0.103,0.242-0.153,0.577-0.153,1.005v2.979
		H157.439z"/>
	<path d="M163.238,112.484l-0.103-0.866c0.201,0.055,0.377,0.082,0.527,0.082c0.205,0,0.369-0.034,0.492-0.103
		s0.225-0.164,0.303-0.287c0.059-0.093,0.152-0.321,0.282-0.688c0.017-0.051,0.044-0.126,0.082-0.226l-2.066-5.455h0.995
		l1.133,3.153c0.146,0.4,0.278,0.82,0.395,1.262c0.106-0.424,0.232-0.838,0.38-1.241l1.163-3.174h0.924l-2.072,5.537
		c-0.222,0.599-0.395,1.011-0.518,1.236c-0.164,0.304-0.352,0.526-0.563,0.669c-0.212,0.142-0.465,0.213-0.759,0.213
		C163.655,112.597,163.457,112.559,163.238,112.484z"/>
	<path d="M112.619,120.039v-0.882l3.184-0.005v2.789c-0.488,0.39-0.993,0.683-1.513,0.88c-0.52,0.196-1.053,0.294-1.6,0.294
		c-0.738,0-1.408-0.157-2.012-0.474s-1.059-0.773-1.366-1.372c-0.308-0.598-0.462-1.266-0.462-2.004
		c0-0.731,0.153-1.414,0.459-2.049c0.306-0.634,0.746-1.104,1.32-1.412s1.235-0.462,1.984-0.462c0.543,0,1.034,0.089,1.474,0.265
		s0.783,0.421,1.033,0.735c0.249,0.314,0.439,0.725,0.569,1.23l-0.897,0.246c-0.112-0.383-0.253-0.684-0.421-0.902
		c-0.167-0.219-0.406-0.394-0.717-0.525c-0.312-0.132-0.656-0.197-1.036-0.197c-0.455,0-0.848,0.069-1.179,0.208
		c-0.332,0.138-0.6,0.32-0.803,0.546s-0.361,0.474-0.475,0.743c-0.191,0.465-0.287,0.969-0.287,1.513c0,0.67,0.115,1.23,0.347,1.682
		c0.23,0.451,0.566,0.786,1.007,1.005c0.441,0.219,0.909,0.328,1.405,0.328c0.431,0,0.851-0.083,1.261-0.249s0.722-0.343,0.934-0.53
		v-1.4H112.619z"/>
	<path d="M120.704,122.315c-0.342,0.291-0.671,0.496-0.987,0.615c-0.315,0.12-0.655,0.18-1.018,0.18
		c-0.598,0-1.058-0.146-1.379-0.438c-0.321-0.292-0.482-0.665-0.482-1.12c0-0.267,0.062-0.51,0.183-0.73s0.28-0.397,0.477-0.53
		c0.196-0.134,0.418-0.234,0.664-0.303c0.181-0.048,0.454-0.094,0.82-0.139c0.745-0.089,1.294-0.194,1.646-0.317
		c0.004-0.127,0.006-0.207,0.006-0.241c0-0.376-0.088-0.641-0.262-0.795c-0.236-0.208-0.587-0.313-1.051-0.313
		c-0.435,0-0.755,0.076-0.962,0.229c-0.207,0.151-0.359,0.421-0.459,0.807l-0.902-0.123c0.082-0.386,0.217-0.697,0.405-0.936
		c0.188-0.237,0.46-0.42,0.815-0.548c0.355-0.129,0.767-0.192,1.235-0.192c0.465,0,0.843,0.055,1.133,0.164
		c0.291,0.109,0.504,0.247,0.641,0.412c0.137,0.166,0.232,0.376,0.287,0.628c0.031,0.158,0.047,0.441,0.047,0.852v1.23
		c0,0.858,0.02,1.4,0.059,1.628s0.117,0.445,0.233,0.653h-0.964C120.793,122.796,120.731,122.572,120.704,122.315z M120.627,120.255
		c-0.335,0.137-0.837,0.253-1.507,0.349c-0.38,0.055-0.648,0.116-0.806,0.185s-0.278,0.168-0.363,0.3
		c-0.086,0.132-0.129,0.278-0.129,0.438c0,0.246,0.094,0.451,0.28,0.615c0.186,0.164,0.458,0.246,0.817,0.246
		c0.355,0,0.672-0.078,0.948-0.233c0.277-0.155,0.48-0.368,0.61-0.639c0.099-0.208,0.148-0.516,0.148-0.923V120.255z"/>
	<path d="M122.991,122.987v-5.444h0.825v0.764c0.171-0.267,0.398-0.481,0.682-0.644c0.284-0.162,0.606-0.243,0.969-0.243
		c0.403,0,0.734,0.084,0.992,0.251c0.259,0.168,0.44,0.401,0.547,0.702c0.43-0.636,0.99-0.953,1.682-0.953
		c0.539,0,0.955,0.149,1.245,0.448c0.291,0.299,0.437,0.76,0.437,1.382v3.737h-0.918v-3.43c0-0.369-0.03-0.635-0.09-0.797
		c-0.06-0.163-0.169-0.293-0.326-0.393c-0.157-0.099-0.342-0.148-0.553-0.148c-0.384,0-0.701,0.127-0.954,0.382
		s-0.38,0.662-0.38,1.223v3.163h-0.922v-3.537c0-0.41-0.076-0.718-0.227-0.923s-0.396-0.308-0.738-0.308
		c-0.26,0-0.499,0.068-0.72,0.205s-0.381,0.337-0.479,0.6c-0.1,0.264-0.148,0.643-0.148,1.138v2.825H122.991z"/>
	<path d="M135.466,121.234l0.953,0.117c-0.15,0.558-0.429,0.99-0.836,1.298c-0.406,0.308-0.926,0.461-1.559,0.461
		c-0.796,0-1.428-0.245-1.895-0.735c-0.466-0.49-0.699-1.179-0.699-2.063c0-0.916,0.235-1.627,0.707-2.133s1.084-0.759,1.836-0.759
		c0.728,0,1.322,0.248,1.784,0.743c0.461,0.496,0.692,1.193,0.692,2.092c0,0.055-0.002,0.137-0.006,0.246h-4.061
		c0.034,0.599,0.203,1.056,0.508,1.374c0.304,0.317,0.684,0.477,1.139,0.477c0.338,0,0.627-0.089,0.866-0.267
		S135.325,121.624,135.466,121.234z M132.436,119.742h3.04c-0.041-0.458-0.157-0.802-0.349-1.03
		c-0.294-0.355-0.675-0.533-1.144-0.533c-0.424,0-0.78,0.142-1.068,0.425C132.626,118.887,132.466,119.267,132.436,119.742z"/>
	<path d="M137.208,121.362l0.912-0.144c0.052,0.366,0.194,0.646,0.429,0.841c0.233,0.194,0.561,0.292,0.981,0.292
		c0.424,0,0.738-0.086,0.943-0.259s0.308-0.375,0.308-0.607c0-0.208-0.091-0.372-0.271-0.492c-0.127-0.082-0.441-0.187-0.943-0.313
		c-0.677-0.171-1.146-0.319-1.407-0.443c-0.262-0.125-0.46-0.298-0.595-0.519c-0.136-0.22-0.203-0.464-0.203-0.73
		c0-0.242,0.056-0.467,0.167-0.674s0.262-0.379,0.454-0.516c0.143-0.105,0.339-0.195,0.587-0.269c0.247-0.074,0.513-0.11,0.797-0.11
		c0.427,0,0.803,0.062,1.125,0.185c0.323,0.123,0.562,0.289,0.716,0.5c0.153,0.21,0.26,0.491,0.317,0.843l-0.902,0.123
		c-0.041-0.28-0.159-0.499-0.356-0.656c-0.196-0.157-0.474-0.235-0.833-0.235c-0.424,0-0.727,0.07-0.907,0.21
		c-0.182,0.141-0.271,0.305-0.271,0.492c0,0.12,0.037,0.228,0.112,0.323c0.075,0.099,0.193,0.181,0.354,0.246
		c0.092,0.034,0.363,0.112,0.814,0.235c0.653,0.175,1.108,0.317,1.366,0.429c0.259,0.11,0.461,0.272,0.608,0.484
		c0.146,0.212,0.22,0.475,0.22,0.789c0,0.308-0.09,0.598-0.269,0.869c-0.18,0.271-0.438,0.482-0.777,0.631
		c-0.338,0.148-0.721,0.223-1.148,0.223c-0.707,0-1.246-0.146-1.617-0.44S137.311,121.94,137.208,121.362z"/>
	<path d="M109.071,135.587v-7.516h1.497l1.779,5.321c0.164,0.496,0.283,0.866,0.358,1.112c0.086-0.272,0.219-0.675,0.4-1.204
		l1.799-5.229h1.339v7.516h-0.959v-6.291l-2.185,6.291h-0.896l-2.174-6.398v6.398H109.071z"/>
	<path d="M121.299,135.587v-0.8c-0.424,0.615-1,0.923-1.728,0.923c-0.322,0-0.622-0.062-0.9-0.185s-0.485-0.277-0.62-0.464
		s-0.23-0.414-0.284-0.685c-0.038-0.181-0.057-0.468-0.057-0.861v-3.373h0.923v3.02c0,0.481,0.019,0.807,0.056,0.974
		c0.059,0.243,0.182,0.434,0.369,0.572c0.188,0.139,0.421,0.207,0.697,0.207c0.277,0,0.537-0.07,0.779-0.212
		c0.243-0.143,0.415-0.335,0.516-0.58c0.101-0.244,0.151-0.599,0.151-1.063v-2.917h0.923v5.444H121.299z"/>
	<path d="M123.201,133.962l0.912-0.144c0.052,0.366,0.194,0.646,0.429,0.841c0.233,0.194,0.561,0.292,0.981,0.292
		c0.424,0,0.738-0.086,0.943-0.259s0.308-0.375,0.308-0.607c0-0.208-0.091-0.372-0.271-0.492c-0.127-0.082-0.441-0.187-0.943-0.313
		c-0.677-0.171-1.146-0.319-1.407-0.443c-0.262-0.125-0.46-0.298-0.595-0.519c-0.136-0.22-0.203-0.464-0.203-0.73
		c0-0.242,0.056-0.467,0.167-0.674s0.262-0.379,0.454-0.516c0.143-0.105,0.339-0.195,0.587-0.269c0.247-0.074,0.513-0.11,0.797-0.11
		c0.427,0,0.803,0.062,1.125,0.185c0.323,0.123,0.562,0.289,0.716,0.5c0.153,0.21,0.26,0.491,0.317,0.843l-0.902,0.123
		c-0.041-0.28-0.159-0.499-0.356-0.656c-0.196-0.157-0.474-0.235-0.833-0.235c-0.424,0-0.727,0.07-0.907,0.21
		c-0.182,0.141-0.271,0.305-0.271,0.492c0,0.12,0.037,0.228,0.112,0.323c0.075,0.099,0.193,0.181,0.354,0.246
		c0.092,0.034,0.363,0.112,0.814,0.235c0.653,0.175,1.108,0.317,1.366,0.429c0.259,0.11,0.461,0.272,0.608,0.484
		c0.146,0.212,0.22,0.475,0.22,0.789c0,0.308-0.09,0.598-0.269,0.869c-0.18,0.271-0.438,0.482-0.777,0.631
		c-0.338,0.148-0.721,0.223-1.148,0.223c-0.707,0-1.246-0.146-1.617-0.44S123.304,134.54,123.201,133.962z"/>
	<path d="M128.825,129.132v-1.061h0.923v1.061H128.825z M128.825,135.587v-5.444h0.923v5.444H128.825z"/>
	<path d="M134.706,133.592l0.907,0.118c-0.099,0.625-0.353,1.115-0.761,1.469c-0.409,0.354-0.91,0.53-1.505,0.53
		c-0.745,0-1.345-0.243-1.797-0.73c-0.453-0.487-0.68-1.185-0.68-2.095c0-0.587,0.098-1.102,0.292-1.543
		c0.195-0.44,0.491-0.771,0.89-0.992c0.398-0.22,0.831-0.33,1.3-0.33c0.591,0,1.075,0.149,1.451,0.448s0.616,0.724,0.723,1.274
		l-0.897,0.138c-0.085-0.365-0.236-0.641-0.453-0.825c-0.218-0.185-0.479-0.276-0.787-0.276c-0.465,0-0.843,0.166-1.133,0.5
		c-0.291,0.333-0.437,0.86-0.437,1.581c0,0.731,0.141,1.264,0.421,1.595c0.28,0.332,0.646,0.497,1.097,0.497
		c0.362,0,0.665-0.11,0.907-0.333C134.487,134.396,134.641,134.053,134.706,133.592z"/>
	<path d="M111.015,148.187v-6.629h-2.477v-0.888h5.957v0.888h-2.486v6.629H111.015z"/>
	<path d="M114.998,148.187v-5.445h0.831v0.826c0.212-0.387,0.407-0.642,0.587-0.765s0.377-0.185,0.592-0.185
		c0.312,0,0.627,0.1,0.949,0.298l-0.318,0.856c-0.226-0.134-0.451-0.2-0.677-0.2c-0.202,0-0.383,0.061-0.544,0.182
		c-0.16,0.121-0.274,0.29-0.343,0.505c-0.103,0.328-0.154,0.688-0.154,1.077v2.851H114.998z"/>
	<path d="M122.058,147.515c-0.342,0.291-0.671,0.496-0.987,0.615c-0.315,0.119-0.655,0.18-1.018,0.18
		c-0.598,0-1.058-0.146-1.379-0.438s-0.482-0.666-0.482-1.12c0-0.267,0.062-0.511,0.183-0.73c0.121-0.221,0.28-0.397,0.477-0.531
		c0.196-0.133,0.418-0.233,0.664-0.302c0.181-0.048,0.454-0.095,0.82-0.139c0.745-0.089,1.294-0.195,1.646-0.318
		c0.004-0.126,0.006-0.206,0.006-0.24c0-0.376-0.088-0.642-0.262-0.795c-0.236-0.209-0.587-0.313-1.051-0.313
		c-0.435,0-0.755,0.075-0.962,0.228s-0.359,0.422-0.459,0.808l-0.902-0.123c0.082-0.386,0.217-0.698,0.405-0.936
		c0.188-0.237,0.46-0.421,0.815-0.549s0.767-0.192,1.235-0.192c0.465,0,0.843,0.055,1.133,0.164
		c0.291,0.109,0.504,0.247,0.641,0.413s0.232,0.375,0.287,0.628c0.031,0.157,0.047,0.441,0.047,0.852v1.23
		c0,0.857,0.02,1.4,0.059,1.627c0.039,0.228,0.117,0.445,0.233,0.654h-0.964C122.146,147.996,122.085,147.772,122.058,147.515z
		 M121.98,145.455c-0.335,0.137-0.837,0.253-1.507,0.349c-0.38,0.055-0.648,0.116-0.806,0.185s-0.278,0.168-0.363,0.3
		c-0.086,0.131-0.129,0.277-0.129,0.438c0,0.246,0.094,0.451,0.28,0.615c0.186,0.164,0.458,0.246,0.817,0.246
		c0.355,0,0.672-0.078,0.948-0.233c0.277-0.156,0.48-0.368,0.61-0.639c0.099-0.208,0.148-0.516,0.148-0.923V145.455z"/>
	<path d="M125.857,148.187l-2.072-5.445h0.975l1.169,3.261c0.126,0.353,0.242,0.718,0.349,1.098
		c0.082-0.287,0.196-0.633,0.344-1.036l1.21-3.322h0.948l-2.061,5.445H125.857z"/>
	<path d="M133.322,146.433l0.953,0.118c-0.15,0.558-0.429,0.989-0.836,1.297c-0.406,0.308-0.926,0.462-1.559,0.462
		c-0.796,0-1.428-0.245-1.895-0.736c-0.466-0.49-0.699-1.178-0.699-2.063c0-0.916,0.235-1.627,0.707-2.133s1.084-0.759,1.836-0.759
		c0.728,0,1.322,0.248,1.784,0.744c0.461,0.495,0.692,1.192,0.692,2.092c0,0.055-0.002,0.137-0.006,0.246h-4.061
		c0.034,0.598,0.203,1.056,0.508,1.374c0.304,0.317,0.684,0.477,1.139,0.477c0.338,0,0.627-0.089,0.866-0.267
		S133.182,146.823,133.322,146.433z M130.292,144.942h3.04c-0.041-0.458-0.157-0.802-0.349-1.031
		c-0.294-0.355-0.675-0.533-1.144-0.533c-0.424,0-0.78,0.143-1.068,0.426C130.482,144.088,130.322,144.466,130.292,144.942z"/>
	<path d="M135.414,148.187v-7.517h0.923v7.517H135.414z"/>
	<path d="M109.153,160.787v-7.516h5.07v0.887h-4.076v2.327h3.527v0.888h-3.527v3.414H109.153z"/>
	<path d="M115.403,154.332v-1.061h0.923v1.061H115.403z M115.403,160.787v-5.444h0.923v5.444H115.403z"/>
	<path d="M117.71,160.787v-7.516h0.923v7.516H117.71z"/>
	<path d="M120.063,160.787v-5.444h0.825v0.764c0.171-0.267,0.398-0.481,0.682-0.644c0.284-0.162,0.606-0.243,0.969-0.243
		c0.403,0,0.734,0.084,0.992,0.251c0.259,0.168,0.44,0.401,0.547,0.702c0.43-0.636,0.99-0.953,1.682-0.953
		c0.539,0,0.955,0.149,1.245,0.448c0.291,0.299,0.437,0.76,0.437,1.382v3.737h-0.918v-3.43c0-0.369-0.03-0.635-0.09-0.797
		c-0.06-0.163-0.169-0.293-0.326-0.393c-0.157-0.099-0.342-0.148-0.553-0.148c-0.384,0-0.701,0.127-0.954,0.382
		s-0.38,0.662-0.38,1.223v3.163h-0.922v-3.537c0-0.41-0.076-0.718-0.227-0.923s-0.396-0.308-0.738-0.308
		c-0.26,0-0.499,0.068-0.72,0.205s-0.381,0.337-0.479,0.6c-0.1,0.264-0.148,0.643-0.148,1.138v2.825H120.063z"/>
</g>
<g>
	<path d="M44.504,81.173c0,0.978-0.485,1.466-1.456,1.466h-4.829c-0.965,0-1.446-0.488-1.446-1.466v-3.825h2.399v3.271h2.933v-3.148
		l-4.81-4.553c-0.348-0.335-0.522-0.762-0.522-1.281v-3.568c0-0.984,0.481-1.477,1.446-1.477h4.829c0.971,0,1.456,0.485,1.456,1.456
		v3.589h-2.399v-3.025h-2.933v2.902l4.809,4.532c0.35,0.328,0.523,0.762,0.523,1.302V81.173z"/>
	<path d="M53.2,82.639h-2.502l-2.061-4.747v4.747h-2.349V66.592h2.349v9.639l1.855-3.948h2.451v0.041l-2.39,4.707L53.2,82.639z"/>
	<path d="M56.594,70.797h-2.349v-2.42h2.349V70.797z M56.573,82.639h-2.307V72.283h2.307V82.639z"/>
	<path d="M60.684,82.639h-2.307V66.592h2.307V82.639z"/>
	<path d="M64.796,82.639H62.49V66.592h2.307V82.639z"/>
	<path d="M78.68,81.173c0,0.978-0.485,1.466-1.456,1.466h-4.829c-0.965,0-1.446-0.488-1.446-1.466v-3.825h2.399v3.271h2.933v-3.148
		l-4.81-4.553c-0.348-0.335-0.522-0.762-0.522-1.281v-3.568c0-0.984,0.481-1.477,1.446-1.477h4.829c0.971,0,1.456,0.485,1.456,1.456
		v3.589h-2.399v-3.025h-2.933v2.902l4.809,4.532c0.35,0.328,0.523,0.762,0.523,1.302V81.173z"/>
	<path d="M87.161,81.358c0,0.854-0.441,1.281-1.323,1.281h-4.05c-0.883,0-1.323-0.427-1.323-1.281v-7.793
		c0-0.854,0.44-1.282,1.323-1.282h4.05c0.882,0,1.323,0.428,1.323,1.282v3.804l-0.646,0.646h-3.805v2.901h2.205v-1.723h2.246V81.358
		z M84.915,76.487v-2.481h-2.205v2.481H84.915z"/>
	<path d="M93.333,82.639h-2.604c-0.868,0-1.303-0.427-1.303-1.281v-7.075h-1.107v-2h1.107v-2.81h2.338v2.81h1.508v2h-1.508v6.357
		h1.569V82.639z"/>
</g>
<g>
	<path d="M13.447,98.102l2.749-7.158h1.021l2.93,7.158h-1.079l-0.835-2.168h-2.993l-0.786,2.168H13.447z M15.513,95.163h2.427
		l-0.747-1.982c-0.228-0.602-0.397-1.097-0.508-1.484c-0.091,0.459-0.22,0.915-0.386,1.367L15.513,95.163z"/>
	<path d="M24.155,98.102v-0.654c-0.329,0.515-0.813,0.771-1.45,0.771c-0.413,0-0.794-0.113-1.14-0.342
		c-0.348-0.228-0.615-0.546-0.807-0.954c-0.189-0.409-0.285-0.878-0.285-1.409c0-0.518,0.086-0.987,0.259-1.408
		c0.173-0.422,0.432-0.745,0.776-0.97s0.73-0.337,1.157-0.337c0.313,0,0.591,0.066,0.835,0.198s0.442,0.304,0.596,0.515v-2.568
		h0.874v7.158H24.155z M21.377,95.514c0,0.664,0.14,1.161,0.42,1.489c0.28,0.329,0.61,0.493,0.991,0.493
		c0.384,0,0.711-0.157,0.979-0.471c0.27-0.314,0.403-0.794,0.403-1.438c0-0.709-0.137-1.23-0.41-1.563s-0.61-0.498-1.011-0.498
		c-0.391,0-0.717,0.16-0.979,0.479C21.508,94.325,21.377,94.828,21.377,95.514z"/>
	<path d="M26.025,95.509c0-0.96,0.267-1.671,0.801-2.134c0.446-0.384,0.989-0.576,1.631-0.576c0.713,0,1.296,0.233,1.748,0.701
		c0.452,0.467,0.679,1.112,0.679,1.936c0,0.668-0.101,1.192-0.3,1.575c-0.201,0.382-0.492,0.68-0.875,0.891
		c-0.382,0.212-0.8,0.317-1.252,0.317c-0.726,0-1.313-0.232-1.76-0.698C26.249,97.056,26.025,96.385,26.025,95.509z M26.929,95.509
		c0,0.664,0.145,1.161,0.435,1.492c0.29,0.33,0.654,0.495,1.094,0.495c0.437,0,0.799-0.166,1.089-0.498s0.435-0.838,0.435-1.519
		c0-0.641-0.146-1.127-0.438-1.457c-0.291-0.331-0.653-0.496-1.086-0.496c-0.439,0-0.804,0.165-1.094,0.493
		C27.073,94.349,26.929,94.845,26.929,95.509z"/>
	<path d="M32.725,98.102h-0.815v-7.158h0.879v2.554c0.371-0.465,0.845-0.698,1.421-0.698c0.319,0,0.621,0.064,0.905,0.193
		c0.285,0.128,0.52,0.309,0.703,0.542c0.185,0.232,0.328,0.514,0.433,0.842c0.104,0.329,0.156,0.681,0.156,1.055
		c0,0.889-0.22,1.576-0.659,2.061c-0.439,0.485-0.967,0.728-1.582,0.728c-0.612,0-1.092-0.255-1.44-0.767V98.102z M32.715,95.47
		c0,0.622,0.085,1.071,0.254,1.348c0.276,0.453,0.651,0.679,1.123,0.679c0.384,0,0.716-0.167,0.996-0.5
		c0.28-0.334,0.42-0.831,0.42-1.492c0-0.677-0.134-1.177-0.403-1.499c-0.268-0.322-0.593-0.483-0.974-0.483
		c-0.384,0-0.716,0.167-0.996,0.501C32.854,94.356,32.715,94.84,32.715,95.47z"/>
	<path d="M41.025,96.432l0.908,0.112c-0.144,0.531-0.408,0.942-0.796,1.235s-0.882,0.439-1.484,0.439c-0.759,0-1.36-0.233-1.804-0.7
		c-0.445-0.468-0.667-1.122-0.667-1.966c0-0.872,0.225-1.549,0.674-2.031c0.449-0.481,1.032-0.723,1.748-0.723
		c0.693,0,1.26,0.236,1.699,0.708c0.439,0.473,0.659,1.137,0.659,1.992c0,0.053-0.002,0.131-0.005,0.234h-3.867
		c0.032,0.57,0.193,1.006,0.483,1.309s0.651,0.454,1.084,0.454c0.322,0,0.598-0.084,0.825-0.254
		C40.711,97.074,40.892,96.803,41.025,96.432z M38.14,95.011h2.896c-0.039-0.436-0.149-0.763-0.332-0.981
		c-0.28-0.338-0.643-0.508-1.089-0.508c-0.403,0-0.743,0.136-1.019,0.405C38.321,94.198,38.169,94.559,38.14,95.011z"/>
	<path d="M45.928,98.102v-7.158h2.7c0.476,0,0.838,0.023,1.089,0.068c0.352,0.059,0.646,0.17,0.884,0.335
		c0.237,0.164,0.429,0.395,0.573,0.69c0.146,0.297,0.218,0.622,0.218,0.977c0,0.609-0.193,1.124-0.581,1.546
		c-0.388,0.421-1.087,0.632-2.1,0.632h-1.836v2.91H45.928z M46.875,94.347h1.851c0.612,0,1.047-0.113,1.304-0.342
		c0.257-0.228,0.386-0.548,0.386-0.962c0-0.299-0.075-0.556-0.228-0.769c-0.15-0.214-0.351-0.354-0.598-0.423
		c-0.159-0.042-0.454-0.063-0.884-0.063h-1.831V94.347z"/>
	<path d="M52.485,98.102v-7.158h0.879v2.568c0.41-0.475,0.928-0.713,1.553-0.713c0.384,0,0.718,0.076,1.001,0.228
		s0.486,0.36,0.607,0.627c0.123,0.268,0.184,0.654,0.184,1.162v3.286H55.83v-3.286c0-0.439-0.096-0.759-0.285-0.959
		c-0.191-0.2-0.46-0.301-0.809-0.301c-0.261,0-0.506,0.067-0.734,0.203c-0.23,0.135-0.394,0.318-0.491,0.549
		c-0.098,0.231-0.146,0.551-0.146,0.957v2.837H52.485z"/>
	<path d="M57.72,95.509c0-0.96,0.267-1.671,0.801-2.134c0.446-0.384,0.989-0.576,1.631-0.576c0.713,0,1.296,0.233,1.748,0.701
		c0.452,0.467,0.679,1.112,0.679,1.936c0,0.668-0.101,1.192-0.3,1.575c-0.201,0.382-0.492,0.68-0.875,0.891
		c-0.382,0.212-0.8,0.317-1.252,0.317c-0.726,0-1.313-0.232-1.76-0.698C57.943,97.056,57.72,96.385,57.72,95.509z M58.623,95.509
		c0,0.664,0.145,1.161,0.435,1.492c0.29,0.33,0.654,0.495,1.094,0.495c0.437,0,0.799-0.166,1.089-0.498s0.435-0.838,0.435-1.519
		c0-0.641-0.146-1.127-0.438-1.457c-0.291-0.331-0.653-0.496-1.086-0.496c-0.439,0-0.804,0.165-1.094,0.493
		C58.768,94.349,58.623,94.845,58.623,95.509z"/>
	<path d="M65.527,97.316l0.127,0.776c-0.247,0.053-0.469,0.078-0.664,0.078c-0.319,0-0.566-0.05-0.742-0.151
		c-0.176-0.101-0.3-0.233-0.371-0.397c-0.071-0.165-0.107-0.511-0.107-1.038V93.6h-0.645v-0.684h0.645v-1.284l0.874-0.527v1.812
		h0.884V93.6h-0.884v3.032c0,0.251,0.016,0.412,0.046,0.483c0.031,0.072,0.082,0.129,0.152,0.171c0.069,0.043,0.17,0.063,0.3,0.063
		C65.239,97.35,65.368,97.34,65.527,97.316z"/>
	<path d="M66.06,95.509c0-0.96,0.267-1.671,0.801-2.134c0.446-0.384,0.989-0.576,1.631-0.576c0.713,0,1.296,0.233,1.748,0.701
		c0.452,0.467,0.679,1.112,0.679,1.936c0,0.668-0.101,1.192-0.3,1.575c-0.201,0.382-0.492,0.68-0.875,0.891
		c-0.382,0.212-0.8,0.317-1.252,0.317c-0.726,0-1.313-0.232-1.76-0.698C66.283,97.056,66.06,96.385,66.06,95.509z M66.963,95.509
		c0,0.664,0.145,1.161,0.435,1.492c0.29,0.33,0.654,0.495,1.094,0.495c0.437,0,0.799-0.166,1.089-0.498s0.435-0.838,0.435-1.519
		c0-0.641-0.146-1.127-0.438-1.457c-0.291-0.331-0.653-0.496-1.086-0.496c-0.439,0-0.804,0.165-1.094,0.493
		C67.107,94.349,66.963,94.845,66.963,95.509z"/>
	<path d="M71.597,96.554l0.869-0.137c0.049,0.349,0.185,0.615,0.407,0.801c0.224,0.186,0.535,0.278,0.936,0.278
		c0.403,0,0.703-0.082,0.898-0.246C74.902,97.086,75,96.893,75,96.672c0-0.198-0.086-0.354-0.259-0.469
		c-0.12-0.078-0.42-0.177-0.898-0.298c-0.645-0.162-1.091-0.304-1.341-0.422c-0.248-0.119-0.438-0.283-0.566-0.493
		c-0.128-0.21-0.192-0.442-0.192-0.696c0-0.23,0.053-0.445,0.159-0.642c0.105-0.197,0.249-0.36,0.432-0.491
		c0.137-0.101,0.323-0.187,0.559-0.256c0.236-0.07,0.489-0.105,0.76-0.105c0.407,0,0.764,0.059,1.072,0.176
		c0.307,0.117,0.534,0.276,0.681,0.477s0.247,0.468,0.303,0.803l-0.859,0.117c-0.039-0.267-0.152-0.475-0.339-0.625
		c-0.188-0.149-0.452-0.225-0.794-0.225c-0.403,0-0.691,0.067-0.864,0.2c-0.173,0.134-0.259,0.29-0.259,0.469
		c0,0.114,0.036,0.217,0.107,0.308c0.071,0.095,0.184,0.173,0.337,0.234c0.088,0.033,0.347,0.107,0.776,0.225
		c0.622,0.166,1.056,0.302,1.302,0.408c0.245,0.105,0.438,0.26,0.578,0.461c0.14,0.202,0.21,0.453,0.21,0.752
		c0,0.293-0.085,0.569-0.257,0.828c-0.17,0.259-0.417,0.459-0.739,0.601s-0.687,0.212-1.094,0.212c-0.674,0-1.188-0.14-1.54-0.42
		C71.92,97.52,71.694,97.105,71.597,96.554z"/>
	<path d="M76.948,98.102v-7.158h0.879v2.568c0.41-0.475,0.928-0.713,1.553-0.713c0.384,0,0.718,0.076,1.001,0.228
		s0.486,0.36,0.607,0.627c0.123,0.268,0.184,0.654,0.184,1.162v3.286h-0.879v-3.286c0-0.439-0.096-0.759-0.285-0.959
		c-0.191-0.2-0.46-0.301-0.809-0.301c-0.261,0-0.506,0.067-0.734,0.203c-0.23,0.135-0.394,0.318-0.491,0.549
		c-0.098,0.231-0.146,0.551-0.146,0.957v2.837H76.948z"/>
	<path d="M82.183,95.509c0-0.96,0.267-1.671,0.801-2.134c0.446-0.384,0.989-0.576,1.631-0.576c0.713,0,1.296,0.233,1.748,0.701
		c0.452,0.467,0.679,1.112,0.679,1.936c0,0.668-0.101,1.192-0.3,1.575c-0.201,0.382-0.492,0.68-0.875,0.891
		c-0.382,0.212-0.8,0.317-1.252,0.317c-0.726,0-1.313-0.232-1.76-0.698C82.406,97.056,82.183,96.385,82.183,95.509z M83.086,95.509
		c0,0.664,0.145,1.161,0.435,1.492c0.29,0.33,0.654,0.495,1.094,0.495c0.437,0,0.799-0.166,1.089-0.498s0.435-0.838,0.435-1.519
		c0-0.641-0.146-1.127-0.438-1.457c-0.291-0.331-0.653-0.496-1.086-0.496c-0.439,0-0.804,0.165-1.094,0.493
		C83.23,94.349,83.086,94.845,83.086,95.509z"/>
	<path d="M88.071,100.09v-7.173h0.801v0.674c0.188-0.264,0.402-0.461,0.64-0.593s0.525-0.198,0.864-0.198
		c0.442,0,0.833,0.114,1.172,0.342c0.339,0.229,0.594,0.55,0.767,0.965s0.259,0.87,0.259,1.364c0,0.531-0.095,1.009-0.286,1.434
		c-0.189,0.425-0.467,0.75-0.83,0.977c-0.362,0.226-0.744,0.339-1.145,0.339c-0.293,0-0.556-0.062-0.789-0.186
		c-0.232-0.123-0.424-0.279-0.573-0.469v2.524H88.071z M88.867,95.539c0,0.668,0.135,1.161,0.405,1.479
		c0.271,0.319,0.598,0.479,0.981,0.479c0.391,0,0.725-0.165,1.004-0.495c0.277-0.331,0.417-0.843,0.417-1.536
		c0-0.66-0.136-1.155-0.407-1.484c-0.272-0.328-0.597-0.493-0.975-0.493c-0.374,0-0.705,0.175-0.994,0.525
		C89.012,94.363,88.867,94.872,88.867,95.539z"/>
	<path d="M20.142,110.102l2.749-7.158h1.021l2.93,7.158h-1.079l-0.835-2.168h-2.993l-0.786,2.168H20.142z M22.207,107.163h2.427
		l-0.747-1.982c-0.228-0.602-0.397-1.097-0.508-1.484c-0.091,0.459-0.22,0.915-0.386,1.367L22.207,107.163z"/>
	<path d="M30.85,110.102v-0.654c-0.329,0.515-0.813,0.771-1.45,0.771c-0.413,0-0.794-0.113-1.14-0.342
		c-0.348-0.228-0.615-0.546-0.807-0.954c-0.189-0.409-0.285-0.878-0.285-1.409c0-0.518,0.086-0.987,0.259-1.408
		c0.173-0.422,0.432-0.745,0.776-0.97s0.73-0.337,1.157-0.337c0.313,0,0.591,0.066,0.835,0.198s0.442,0.304,0.596,0.515v-2.568
		h0.874v7.158H30.85z M28.071,107.514c0,0.664,0.14,1.161,0.42,1.489c0.28,0.329,0.61,0.493,0.991,0.493
		c0.384,0,0.711-0.157,0.979-0.471c0.27-0.314,0.403-0.794,0.403-1.438c0-0.709-0.137-1.23-0.41-1.563s-0.61-0.498-1.011-0.498
		c-0.391,0-0.717,0.16-0.979,0.479C28.202,106.325,28.071,106.828,28.071,107.514z"/>
	<path d="M32.72,107.509c0-0.96,0.267-1.671,0.801-2.134c0.446-0.384,0.989-0.576,1.631-0.576c0.713,0,1.296,0.233,1.748,0.701
		c0.452,0.467,0.679,1.112,0.679,1.936c0,0.668-0.101,1.192-0.3,1.575c-0.201,0.382-0.492,0.68-0.875,0.891
		c-0.382,0.212-0.8,0.317-1.252,0.317c-0.726,0-1.313-0.232-1.76-0.698C32.943,109.056,32.72,108.385,32.72,107.509z
		 M33.623,107.509c0,0.664,0.145,1.161,0.435,1.492c0.29,0.33,0.654,0.495,1.094,0.495c0.437,0,0.799-0.166,1.089-0.498
		s0.435-0.838,0.435-1.519c0-0.641-0.146-1.127-0.438-1.457c-0.291-0.331-0.653-0.496-1.086-0.496c-0.439,0-0.804,0.165-1.094,0.493
		C33.768,106.349,33.623,106.845,33.623,107.509z"/>
	<path d="M39.419,110.102h-0.815v-7.158h0.879v2.554c0.371-0.465,0.845-0.698,1.421-0.698c0.319,0,0.621,0.064,0.905,0.193
		c0.285,0.128,0.52,0.309,0.703,0.542c0.185,0.232,0.328,0.514,0.433,0.842c0.104,0.329,0.156,0.681,0.156,1.055
		c0,0.889-0.22,1.576-0.659,2.061c-0.439,0.485-0.967,0.728-1.582,0.728c-0.612,0-1.092-0.255-1.44-0.767V110.102z M39.409,107.47
		c0,0.622,0.085,1.071,0.254,1.348c0.276,0.453,0.651,0.679,1.123,0.679c0.384,0,0.716-0.167,0.996-0.5
		c0.28-0.334,0.42-0.831,0.42-1.492c0-0.677-0.134-1.177-0.403-1.499c-0.268-0.322-0.593-0.483-0.974-0.483
		c-0.384,0-0.716,0.167-0.996,0.501C39.549,106.356,39.409,106.84,39.409,107.47z"/>
	<path d="M47.72,108.432l0.908,0.112c-0.144,0.531-0.408,0.942-0.796,1.235s-0.882,0.439-1.484,0.439c-0.759,0-1.36-0.233-1.804-0.7
		c-0.445-0.468-0.667-1.122-0.667-1.966c0-0.872,0.225-1.549,0.674-2.031c0.449-0.481,1.032-0.723,1.748-0.723
		c0.693,0,1.26,0.236,1.699,0.708c0.439,0.473,0.659,1.137,0.659,1.992c0,0.053-0.002,0.131-0.005,0.234h-3.867
		c0.032,0.57,0.193,1.006,0.483,1.309s0.651,0.454,1.084,0.454c0.322,0,0.598-0.084,0.825-0.254
		C47.405,109.074,47.586,108.803,47.72,108.432z M44.834,107.011h2.896c-0.039-0.436-0.149-0.763-0.332-0.981
		c-0.28-0.338-0.643-0.508-1.089-0.508c-0.403,0-0.743,0.136-1.019,0.405C45.016,106.198,44.863,106.559,44.834,107.011z"/>
	<path d="M52.783,110.102v-7.158h0.947v7.158H52.783z"/>
	<path d="M55.269,110.102v-7.158h0.879v7.158H55.269z"/>
	<path d="M57.49,110.102v-7.158h0.879v7.158H57.49z"/>
	<path d="M63.13,110.102v-0.762c-0.403,0.586-0.952,0.879-1.646,0.879c-0.306,0-0.592-0.059-0.857-0.176
		c-0.265-0.117-0.462-0.265-0.59-0.441c-0.129-0.178-0.22-0.395-0.271-0.652c-0.036-0.172-0.054-0.445-0.054-0.82v-3.213h0.879
		v2.876c0,0.459,0.018,0.769,0.054,0.928c0.056,0.231,0.173,0.413,0.352,0.545s0.4,0.197,0.664,0.197s0.511-0.067,0.742-0.202
		c0.231-0.136,0.395-0.319,0.49-0.552c0.097-0.233,0.145-0.57,0.145-1.014v-2.778h0.879v5.186H63.13z"/>
	<path d="M64.941,108.554l0.869-0.137c0.049,0.349,0.185,0.615,0.407,0.801c0.224,0.186,0.535,0.278,0.936,0.278
		c0.403,0,0.703-0.082,0.898-0.246c0.195-0.165,0.293-0.357,0.293-0.579c0-0.198-0.086-0.354-0.259-0.469
		c-0.12-0.078-0.42-0.177-0.898-0.298c-0.645-0.162-1.091-0.304-1.341-0.422c-0.248-0.119-0.438-0.283-0.566-0.493
		c-0.128-0.21-0.192-0.442-0.192-0.696c0-0.23,0.053-0.445,0.159-0.642c0.105-0.197,0.249-0.36,0.432-0.491
		c0.137-0.101,0.323-0.187,0.559-0.256c0.236-0.07,0.489-0.105,0.76-0.105c0.407,0,0.764,0.059,1.072,0.176
		c0.307,0.117,0.534,0.276,0.681,0.477s0.247,0.468,0.303,0.803l-0.859,0.117c-0.039-0.267-0.152-0.475-0.339-0.625
		c-0.188-0.149-0.452-0.225-0.794-0.225c-0.403,0-0.691,0.067-0.864,0.2c-0.173,0.134-0.259,0.29-0.259,0.469
		c0,0.114,0.036,0.217,0.107,0.308c0.071,0.095,0.184,0.173,0.337,0.234c0.088,0.033,0.347,0.107,0.776,0.225
		c0.622,0.166,1.056,0.302,1.302,0.408c0.245,0.105,0.438,0.26,0.578,0.461c0.14,0.202,0.21,0.453,0.21,0.752
		c0,0.293-0.085,0.569-0.257,0.828c-0.17,0.259-0.417,0.459-0.739,0.601s-0.687,0.212-1.094,0.212c-0.674,0-1.188-0.14-1.54-0.42
		C65.265,109.52,65.039,109.105,64.941,108.554z"/>
	<path d="M72.212,109.316l0.127,0.776c-0.247,0.053-0.469,0.078-0.664,0.078c-0.319,0-0.566-0.05-0.742-0.151
		c-0.176-0.101-0.3-0.233-0.371-0.397c-0.071-0.165-0.107-0.511-0.107-1.038V105.6H69.81v-0.684h0.645v-1.284l0.874-0.527v1.812
		h0.884v0.684h-0.884v3.032c0,0.251,0.016,0.412,0.046,0.483c0.031,0.072,0.082,0.129,0.152,0.171c0.069,0.043,0.17,0.063,0.3,0.063
		C71.924,109.35,72.053,109.34,72.212,109.316z"/>
	<path d="M73.062,110.102v-5.186h0.791v0.786c0.202-0.367,0.388-0.61,0.56-0.728c0.17-0.117,0.358-0.176,0.563-0.176
		c0.296,0,0.598,0.095,0.903,0.283l-0.303,0.815c-0.215-0.127-0.43-0.19-0.645-0.19c-0.192,0-0.364,0.058-0.518,0.174
		c-0.153,0.115-0.262,0.275-0.327,0.48c-0.098,0.313-0.146,0.654-0.146,1.025v2.715H73.062z"/>
	<path d="M79.785,109.463c-0.325,0.277-0.639,0.473-0.939,0.586c-0.302,0.114-0.625,0.171-0.97,0.171
		c-0.569,0-1.008-0.139-1.313-0.417s-0.459-0.634-0.459-1.067c0-0.254,0.058-0.485,0.174-0.695c0.115-0.21,0.267-0.379,0.453-0.506
		c0.188-0.127,0.398-0.223,0.633-0.288c0.173-0.045,0.433-0.089,0.781-0.132c0.71-0.084,1.232-0.186,1.567-0.303
		c0.003-0.12,0.005-0.196,0.005-0.229c0-0.357-0.083-0.61-0.249-0.757c-0.225-0.198-0.559-0.298-1.001-0.298
		c-0.413,0-0.719,0.072-0.916,0.218c-0.196,0.145-0.342,0.401-0.437,0.769l-0.859-0.117c0.078-0.367,0.207-0.665,0.386-0.891
		c0.179-0.227,0.438-0.4,0.776-0.522s0.73-0.184,1.177-0.184c0.442,0,0.803,0.053,1.079,0.156c0.276,0.104,0.48,0.235,0.61,0.394
		c0.13,0.157,0.222,0.357,0.273,0.598c0.029,0.15,0.044,0.42,0.044,0.811v1.172c0,0.817,0.019,1.334,0.056,1.551
		c0.038,0.216,0.112,0.424,0.223,0.622h-0.918C79.87,109.921,79.812,109.707,79.785,109.463z M79.712,107.5
		c-0.319,0.131-0.798,0.241-1.436,0.332c-0.361,0.053-0.617,0.111-0.767,0.176c-0.149,0.065-0.266,0.16-0.347,0.286
		c-0.081,0.125-0.122,0.265-0.122,0.417c0,0.234,0.089,0.43,0.266,0.586c0.178,0.156,0.438,0.234,0.779,0.234
		c0.339,0,0.64-0.074,0.903-0.222c0.264-0.148,0.457-0.351,0.581-0.608c0.095-0.198,0.142-0.491,0.142-0.879V107.5z"/>
	<path d="M83.882,109.316l0.127,0.776c-0.247,0.053-0.469,0.078-0.664,0.078c-0.319,0-0.566-0.05-0.742-0.151
		c-0.176-0.101-0.3-0.233-0.371-0.397c-0.071-0.165-0.107-0.511-0.107-1.038V105.6h-0.645v-0.684h0.645v-1.284l0.874-0.527v1.812
		h0.884v0.684h-0.884v3.032c0,0.251,0.016,0.412,0.046,0.483c0.031,0.072,0.082,0.129,0.152,0.171c0.069,0.043,0.17,0.063,0.3,0.063
		C83.594,109.35,83.723,109.34,83.882,109.316z"/>
	<path d="M84.414,107.509c0-0.96,0.267-1.671,0.801-2.134c0.446-0.384,0.989-0.576,1.631-0.576c0.713,0,1.296,0.233,1.748,0.701
		c0.452,0.467,0.679,1.112,0.679,1.936c0,0.668-0.101,1.192-0.3,1.575c-0.201,0.382-0.492,0.68-0.875,0.891
		c-0.382,0.212-0.8,0.317-1.252,0.317c-0.726,0-1.313-0.232-1.76-0.698C84.638,109.056,84.414,108.385,84.414,107.509z
		 M85.317,107.509c0,0.664,0.145,1.161,0.435,1.492c0.29,0.33,0.654,0.495,1.094,0.495c0.437,0,0.799-0.166,1.089-0.498
		s0.435-0.838,0.435-1.519c0-0.641-0.146-1.127-0.438-1.457c-0.291-0.331-0.653-0.496-1.086-0.496c-0.439,0-0.804,0.165-1.094,0.493
		C85.462,106.349,85.317,106.845,85.317,107.509z"/>
	<path d="M90.293,110.102v-5.186h0.791v0.786c0.202-0.367,0.388-0.61,0.56-0.728c0.17-0.117,0.358-0.176,0.563-0.176
		c0.296,0,0.598,0.095,0.903,0.283l-0.303,0.815c-0.215-0.127-0.43-0.19-0.645-0.19c-0.192,0-0.364,0.058-0.518,0.174
		c-0.153,0.115-0.262,0.275-0.327,0.48c-0.098,0.313-0.146,0.654-0.146,1.025v2.715H90.293z"/>
	<path d="M69.263,122.102v-7.158h1.426l1.694,5.068c0.156,0.473,0.271,0.825,0.342,1.06c0.081-0.26,0.208-0.643,0.381-1.147
		l1.714-4.98h1.274v7.158h-0.913v-5.991l-2.08,5.991h-0.854l-2.07-6.094v6.094H69.263z"/>
	<path d="M80.894,121.463c-0.325,0.277-0.639,0.473-0.939,0.586c-0.302,0.114-0.625,0.171-0.97,0.171
		c-0.569,0-1.008-0.139-1.313-0.417s-0.459-0.634-0.459-1.067c0-0.254,0.058-0.485,0.174-0.695c0.115-0.21,0.267-0.379,0.453-0.506
		c0.188-0.127,0.398-0.223,0.633-0.288c0.173-0.045,0.433-0.089,0.781-0.132c0.71-0.084,1.232-0.186,1.567-0.303
		c0.003-0.12,0.005-0.196,0.005-0.229c0-0.357-0.083-0.61-0.249-0.757c-0.225-0.198-0.559-0.298-1.001-0.298
		c-0.413,0-0.719,0.072-0.916,0.218c-0.196,0.145-0.342,0.401-0.437,0.769l-0.859-0.117c0.078-0.367,0.207-0.665,0.386-0.891
		c0.179-0.227,0.438-0.4,0.776-0.522s0.73-0.184,1.177-0.184c0.442,0,0.803,0.053,1.079,0.156c0.276,0.104,0.48,0.235,0.61,0.394
		c0.13,0.157,0.222,0.357,0.273,0.598c0.029,0.15,0.044,0.42,0.044,0.811v1.172c0,0.817,0.019,1.334,0.056,1.551
		c0.038,0.216,0.112,0.424,0.223,0.622h-0.918C80.979,121.921,80.92,121.707,80.894,121.463z M80.82,119.5
		c-0.319,0.131-0.798,0.241-1.436,0.332c-0.361,0.053-0.617,0.111-0.767,0.176c-0.149,0.065-0.266,0.16-0.347,0.286
		c-0.081,0.125-0.122,0.265-0.122,0.417c0,0.234,0.089,0.43,0.266,0.586c0.178,0.156,0.438,0.234,0.779,0.234
		c0.339,0,0.64-0.074,0.903-0.222c0.264-0.148,0.457-0.351,0.581-0.608c0.095-0.198,0.142-0.491,0.142-0.879V119.5z"/>
	<path d="M83.032,124.099l-0.098-0.825c0.192,0.053,0.359,0.078,0.503,0.078c0.195,0,0.352-0.032,0.469-0.098
		c0.117-0.064,0.213-0.156,0.288-0.273c0.056-0.088,0.145-0.306,0.269-0.654c0.017-0.049,0.042-0.12,0.078-0.215l-1.968-5.195h0.947
		l1.079,3.003c0.14,0.381,0.266,0.781,0.376,1.201c0.101-0.403,0.222-0.797,0.361-1.182l1.108-3.022h0.879l-1.973,5.273
		c-0.212,0.57-0.376,0.962-0.493,1.177c-0.156,0.29-0.335,0.502-0.537,0.638c-0.202,0.135-0.442,0.202-0.723,0.202
		C83.43,124.207,83.24,124.172,83.032,124.099z"/>
	<path d="M91.455,121.463c-0.325,0.277-0.639,0.473-0.939,0.586c-0.302,0.114-0.625,0.171-0.97,0.171
		c-0.569,0-1.008-0.139-1.313-0.417s-0.459-0.634-0.459-1.067c0-0.254,0.058-0.485,0.174-0.695c0.115-0.21,0.267-0.379,0.453-0.506
		c0.188-0.127,0.398-0.223,0.633-0.288c0.173-0.045,0.433-0.089,0.781-0.132c0.71-0.084,1.232-0.186,1.567-0.303
		c0.003-0.12,0.005-0.196,0.005-0.229c0-0.357-0.083-0.61-0.249-0.757c-0.225-0.198-0.559-0.298-1.001-0.298
		c-0.413,0-0.719,0.072-0.916,0.218c-0.196,0.145-0.342,0.401-0.437,0.769l-0.859-0.117c0.078-0.367,0.207-0.665,0.386-0.891
		c0.179-0.227,0.438-0.4,0.776-0.522s0.73-0.184,1.177-0.184c0.442,0,0.803,0.053,1.079,0.156c0.276,0.104,0.48,0.235,0.61,0.394
		c0.13,0.157,0.222,0.357,0.273,0.598c0.029,0.15,0.044,0.42,0.044,0.811v1.172c0,0.817,0.019,1.334,0.056,1.551
		c0.038,0.216,0.112,0.424,0.223,0.622h-0.918C91.54,121.921,91.481,121.707,91.455,121.463z M91.382,119.5
		c-0.319,0.131-0.798,0.241-1.436,0.332c-0.361,0.053-0.617,0.111-0.767,0.176c-0.149,0.065-0.266,0.16-0.347,0.286
		c-0.081,0.125-0.122,0.265-0.122,0.417c0,0.234,0.089,0.43,0.266,0.586c0.178,0.156,0.438,0.234,0.779,0.234
		c0.339,0,0.64-0.074,0.903-0.222c0.264-0.148,0.457-0.351,0.581-0.608c0.095-0.198,0.142-0.491,0.142-0.879V119.5z"/>
	<path d="M38.677,134.102l2.749-7.158h1.021l2.93,7.158h-1.079l-0.835-2.168h-2.993l-0.786,2.168H38.677z M40.742,131.163h2.427
		l-0.747-1.982c-0.228-0.602-0.397-1.097-0.508-1.484c-0.091,0.459-0.22,0.915-0.386,1.367L40.742,131.163z"/>
	<path d="M46.23,134.102V129.6h-0.776v-0.684h0.776v-0.552c0-0.348,0.031-0.606,0.093-0.776c0.085-0.228,0.233-0.412,0.446-0.554
		c0.214-0.142,0.513-0.213,0.896-0.213c0.247,0,0.521,0.029,0.82,0.088l-0.132,0.767c-0.183-0.032-0.354-0.049-0.518-0.049
		c-0.267,0-0.456,0.058-0.566,0.171c-0.11,0.114-0.166,0.327-0.166,0.64v0.479h1.011v0.684h-1.011v4.502H46.23z"/>
	<path d="M50.718,133.316l0.127,0.776c-0.247,0.053-0.469,0.078-0.664,0.078c-0.319,0-0.566-0.05-0.742-0.151
		c-0.176-0.101-0.3-0.233-0.371-0.397c-0.071-0.165-0.107-0.511-0.107-1.038V129.6h-0.645v-0.684h0.645v-1.284l0.874-0.527v1.812
		h0.884v0.684h-0.884v3.032c0,0.251,0.016,0.412,0.046,0.483c0.031,0.072,0.082,0.129,0.152,0.171c0.069,0.043,0.17,0.063,0.3,0.063
		C50.43,133.35,50.559,133.34,50.718,133.316z"/>
	<path d="M55.127,132.432l0.908,0.112c-0.144,0.531-0.408,0.942-0.796,1.235s-0.882,0.439-1.484,0.439
		c-0.759,0-1.36-0.233-1.804-0.7c-0.445-0.468-0.667-1.122-0.667-1.966c0-0.872,0.225-1.549,0.674-2.031
		c0.449-0.481,1.032-0.723,1.748-0.723c0.693,0,1.26,0.236,1.699,0.708c0.439,0.473,0.659,1.137,0.659,1.992
		c0,0.053-0.002,0.131-0.005,0.234h-3.867c0.032,0.57,0.193,1.006,0.483,1.309s0.651,0.454,1.084,0.454
		c0.322,0,0.598-0.084,0.825-0.254C54.813,133.074,54.993,132.803,55.127,132.432z M52.241,131.011h2.896
		c-0.039-0.436-0.149-0.763-0.332-0.981c-0.28-0.338-0.643-0.508-1.089-0.508c-0.403,0-0.743,0.136-1.019,0.405
		C52.423,130.198,52.271,130.559,52.241,131.011z"/>
	<path d="M57.129,134.102v-5.186h0.791v0.786c0.202-0.367,0.388-0.61,0.56-0.728c0.17-0.117,0.358-0.176,0.563-0.176
		c0.296,0,0.598,0.095,0.903,0.283l-0.303,0.815c-0.215-0.127-0.43-0.19-0.645-0.19c-0.192,0-0.364,0.058-0.518,0.174
		c-0.153,0.115-0.262,0.275-0.327,0.48c-0.098,0.313-0.146,0.654-0.146,1.025v2.715H57.129z"/>
	<path d="M63.379,134.102v-7.158h5.176v0.845h-4.229v2.192h3.96v0.84h-3.96v2.437h4.395v0.845H63.379z"/>
	<path d="M70.127,134.102V129.6h-0.776v-0.684h0.776v-0.552c0-0.348,0.031-0.606,0.093-0.776c0.085-0.228,0.233-0.412,0.446-0.554
		c0.214-0.142,0.513-0.213,0.896-0.213c0.247,0,0.521,0.029,0.82,0.088l-0.132,0.767c-0.183-0.032-0.354-0.049-0.518-0.049
		c-0.267,0-0.456,0.058-0.566,0.171c-0.11,0.114-0.166,0.327-0.166,0.64v0.479h1.011v0.684h-1.011v4.502H70.127z"/>
	<path d="M72.725,134.102V129.6h-0.776v-0.684h0.776v-0.552c0-0.348,0.031-0.606,0.093-0.776c0.085-0.228,0.233-0.412,0.446-0.554
		c0.214-0.142,0.513-0.213,0.896-0.213c0.247,0,0.521,0.029,0.82,0.088l-0.132,0.767c-0.183-0.032-0.354-0.049-0.518-0.049
		c-0.267,0-0.456,0.058-0.566,0.171c-0.11,0.114-0.166,0.327-0.166,0.64v0.479h1.011v0.684h-1.011v4.502H72.725z"/>
	<path d="M78.843,132.432l0.908,0.112c-0.144,0.531-0.408,0.942-0.796,1.235s-0.882,0.439-1.484,0.439
		c-0.759,0-1.36-0.233-1.804-0.7c-0.445-0.468-0.667-1.122-0.667-1.966c0-0.872,0.225-1.549,0.674-2.031
		c0.449-0.481,1.032-0.723,1.748-0.723c0.693,0,1.26,0.236,1.699,0.708c0.439,0.473,0.659,1.137,0.659,1.992
		c0,0.053-0.002,0.131-0.005,0.234h-3.867c0.032,0.57,0.193,1.006,0.483,1.309s0.651,0.454,1.084,0.454
		c0.322,0,0.598-0.084,0.825-0.254C78.528,133.074,78.709,132.803,78.843,132.432z M75.957,131.011h2.896
		c-0.039-0.436-0.149-0.763-0.332-0.981c-0.28-0.338-0.643-0.508-1.089-0.508c-0.403,0-0.743,0.136-1.019,0.405
		C76.139,130.198,75.986,130.559,75.957,131.011z"/>
	<path d="M84.238,132.203l0.864,0.112c-0.095,0.596-0.336,1.063-0.726,1.399c-0.389,0.337-0.866,0.505-1.433,0.505
		c-0.71,0-1.28-0.231-1.712-0.695c-0.431-0.464-0.646-1.129-0.646-1.995c0-0.56,0.093-1.05,0.278-1.47s0.468-0.734,0.847-0.944
		c0.38-0.21,0.792-0.315,1.238-0.315c0.563,0,1.023,0.143,1.382,0.428c0.358,0.284,0.588,0.689,0.688,1.213l-0.854,0.132
		c-0.081-0.348-0.226-0.61-0.433-0.786c-0.206-0.176-0.456-0.264-0.749-0.264c-0.442,0-0.803,0.159-1.079,0.477
		s-0.415,0.819-0.415,1.506c0,0.697,0.134,1.203,0.4,1.519c0.267,0.316,0.615,0.474,1.045,0.474c0.345,0,0.633-0.105,0.864-0.317
		C84.03,132.968,84.177,132.642,84.238,132.203z"/>
	<path d="M87.773,133.316l0.127,0.776c-0.247,0.053-0.469,0.078-0.664,0.078c-0.319,0-0.566-0.05-0.742-0.151
		c-0.176-0.101-0.3-0.233-0.371-0.397c-0.071-0.165-0.107-0.511-0.107-1.038V129.6h-0.645v-0.684h0.645v-1.284l0.874-0.527v1.812
		h0.884v0.684H86.89v3.032c0,0.251,0.016,0.412,0.046,0.483c0.031,0.072,0.082,0.129,0.152,0.171c0.069,0.043,0.17,0.063,0.3,0.063
		C87.485,133.35,87.614,133.34,87.773,133.316z"/>
	<path d="M88.281,132.554l0.869-0.137c0.049,0.349,0.185,0.615,0.407,0.801c0.224,0.186,0.535,0.278,0.936,0.278
		c0.403,0,0.703-0.082,0.898-0.246c0.195-0.165,0.293-0.357,0.293-0.579c0-0.198-0.086-0.354-0.259-0.469
		c-0.12-0.078-0.42-0.177-0.898-0.298c-0.645-0.162-1.091-0.304-1.341-0.422c-0.248-0.119-0.438-0.283-0.566-0.493
		c-0.128-0.21-0.192-0.442-0.192-0.696c0-0.23,0.053-0.445,0.159-0.642c0.105-0.197,0.249-0.36,0.432-0.491
		c0.137-0.101,0.323-0.187,0.559-0.256c0.236-0.07,0.489-0.105,0.76-0.105c0.407,0,0.764,0.059,1.072,0.176
		c0.307,0.117,0.534,0.276,0.681,0.477s0.247,0.468,0.303,0.803l-0.859,0.117c-0.039-0.267-0.152-0.475-0.339-0.625
		c-0.188-0.149-0.452-0.225-0.794-0.225c-0.403,0-0.691,0.067-0.864,0.2c-0.173,0.134-0.259,0.29-0.259,0.469
		c0,0.114,0.036,0.217,0.107,0.308c0.071,0.095,0.184,0.173,0.337,0.234c0.088,0.033,0.347,0.107,0.776,0.225
		c0.622,0.166,1.056,0.302,1.302,0.408c0.245,0.105,0.438,0.26,0.578,0.461c0.14,0.202,0.21,0.453,0.21,0.752
		c0,0.293-0.085,0.569-0.257,0.828c-0.17,0.259-0.417,0.459-0.739,0.601s-0.687,0.212-1.094,0.212c-0.674,0-1.188-0.14-1.54-0.42
		C88.604,133.52,88.379,133.105,88.281,132.554z"/>
	<path d="M25.132,146.102l2.749-7.158h1.021l2.93,7.158h-1.079l-0.835-2.168h-2.993l-0.786,2.168H25.132z M27.197,143.163h2.427
		l-0.747-1.982c-0.228-0.602-0.397-1.097-0.508-1.484c-0.091,0.459-0.22,0.915-0.386,1.367L27.197,143.163z"/>
	<path d="M35.84,146.102v-0.654c-0.329,0.515-0.813,0.771-1.45,0.771c-0.413,0-0.794-0.113-1.14-0.342
		c-0.348-0.228-0.615-0.546-0.807-0.954c-0.189-0.409-0.285-0.878-0.285-1.409c0-0.518,0.086-0.987,0.259-1.408
		c0.173-0.422,0.432-0.745,0.776-0.97s0.73-0.337,1.157-0.337c0.313,0,0.591,0.066,0.835,0.198s0.442,0.304,0.596,0.515v-2.568
		h0.874v7.158H35.84z M33.062,143.514c0,0.664,0.14,1.161,0.42,1.489c0.28,0.329,0.61,0.493,0.991,0.493
		c0.384,0,0.711-0.157,0.979-0.471c0.27-0.314,0.403-0.794,0.403-1.438c0-0.709-0.137-1.23-0.41-1.563s-0.61-0.498-1.011-0.498
		c-0.391,0-0.717,0.16-0.979,0.479C33.192,142.325,33.062,142.828,33.062,143.514z"/>
	<path d="M37.71,143.509c0-0.96,0.267-1.671,0.801-2.134c0.446-0.384,0.989-0.576,1.631-0.576c0.713,0,1.296,0.233,1.748,0.701
		c0.452,0.467,0.679,1.112,0.679,1.936c0,0.668-0.101,1.192-0.3,1.575c-0.201,0.382-0.492,0.68-0.875,0.891
		c-0.382,0.212-0.8,0.317-1.252,0.317c-0.726,0-1.313-0.232-1.76-0.698C37.934,145.056,37.71,144.385,37.71,143.509z
		 M38.613,143.509c0,0.664,0.145,1.161,0.435,1.492c0.29,0.33,0.654,0.495,1.094,0.495c0.437,0,0.799-0.166,1.089-0.498
		s0.435-0.838,0.435-1.519c0-0.641-0.146-1.127-0.438-1.457c-0.291-0.331-0.653-0.496-1.086-0.496c-0.439,0-0.804,0.165-1.094,0.493
		C38.758,142.349,38.613,142.845,38.613,143.509z"/>
	<path d="M44.409,146.102h-0.815v-7.158h0.879v2.554c0.371-0.465,0.845-0.698,1.421-0.698c0.319,0,0.621,0.064,0.905,0.193
		c0.285,0.128,0.52,0.309,0.703,0.542c0.185,0.232,0.328,0.514,0.433,0.842c0.104,0.329,0.156,0.681,0.156,1.055
		c0,0.889-0.22,1.576-0.659,2.061c-0.439,0.485-0.967,0.728-1.582,0.728c-0.612,0-1.092-0.255-1.44-0.767V146.102z M44.399,143.47
		c0,0.622,0.085,1.071,0.254,1.348c0.276,0.453,0.651,0.679,1.123,0.679c0.384,0,0.716-0.167,0.996-0.5
		c0.28-0.334,0.42-0.831,0.42-1.492c0-0.677-0.134-1.177-0.403-1.499c-0.268-0.322-0.593-0.483-0.974-0.483
		c-0.384,0-0.716,0.167-0.996,0.501C44.539,142.356,44.399,142.84,44.399,143.47z"/>
	<path d="M52.71,144.432l0.908,0.112c-0.144,0.531-0.408,0.942-0.796,1.235s-0.882,0.439-1.484,0.439c-0.759,0-1.36-0.233-1.804-0.7
		c-0.445-0.468-0.667-1.122-0.667-1.966c0-0.872,0.225-1.549,0.674-2.031c0.449-0.481,1.032-0.723,1.748-0.723
		c0.693,0,1.26,0.236,1.699,0.708c0.439,0.473,0.659,1.137,0.659,1.992c0,0.053-0.002,0.131-0.005,0.234h-3.867
		c0.032,0.57,0.193,1.006,0.483,1.309s0.651,0.454,1.084,0.454c0.322,0,0.598-0.084,0.825-0.254
		C52.396,145.074,52.576,144.803,52.71,144.432z M49.824,143.011h2.896c-0.039-0.436-0.149-0.763-0.332-0.981
		c-0.28-0.338-0.643-0.508-1.089-0.508c-0.403,0-0.743,0.136-1.019,0.405C50.006,142.198,49.854,142.559,49.824,143.011z"/>
	<path d="M56.274,146.102l2.749-7.158h1.021l2.93,7.158h-1.079l-0.835-2.168h-2.993l-0.786,2.168H56.274z M58.34,143.163h2.427
		l-0.747-1.982c-0.228-0.602-0.397-1.097-0.508-1.484c-0.091,0.459-0.22,0.915-0.386,1.367L58.34,143.163z"/>
	<path d="M63.618,146.102v-5.186h0.791v0.737c0.381-0.569,0.931-0.854,1.65-0.854c0.313,0,0.6,0.057,0.862,0.169
		c0.262,0.112,0.458,0.26,0.588,0.441c0.13,0.183,0.222,0.399,0.273,0.649c0.032,0.163,0.049,0.448,0.049,0.854v3.188h-0.879v-3.154
		c0-0.357-0.034-0.626-0.103-0.803c-0.068-0.178-0.189-0.319-0.364-0.425c-0.174-0.106-0.378-0.159-0.612-0.159
		c-0.374,0-0.697,0.119-0.97,0.356c-0.271,0.238-0.407,0.688-0.407,1.353v2.832H63.618z"/>
	<path d="M69.185,139.955v-1.011h0.879v1.011H69.185z M69.185,146.102v-5.186h0.879v5.186H69.185z"/>
	<path d="M71.401,146.102v-5.186h0.786v0.728c0.163-0.254,0.379-0.458,0.649-0.612c0.271-0.155,0.578-0.232,0.923-0.232
		c0.384,0,0.699,0.08,0.945,0.239c0.245,0.16,0.419,0.383,0.52,0.669c0.41-0.605,0.944-0.908,1.602-0.908
		c0.515,0,0.91,0.143,1.187,0.428c0.276,0.284,0.415,0.724,0.415,1.315v3.56h-0.874v-3.267c0-0.352-0.028-0.604-0.085-0.759
		c-0.058-0.155-0.161-0.279-0.311-0.374c-0.149-0.094-0.325-0.142-0.527-0.142c-0.364,0-0.667,0.121-0.908,0.364
		c-0.241,0.242-0.361,0.631-0.361,1.164v3.013h-0.879v-3.369c0-0.391-0.071-0.684-0.215-0.879s-0.378-0.293-0.703-0.293
		c-0.247,0-0.477,0.065-0.686,0.195c-0.211,0.131-0.362,0.321-0.457,0.571c-0.095,0.251-0.142,0.612-0.142,1.084v2.69H71.401z"/>
	<path d="M83.115,145.463c-0.325,0.277-0.639,0.473-0.939,0.586c-0.302,0.114-0.625,0.171-0.97,0.171
		c-0.569,0-1.008-0.139-1.313-0.417s-0.459-0.634-0.459-1.067c0-0.254,0.058-0.485,0.174-0.695c0.115-0.21,0.267-0.379,0.453-0.506
		c0.188-0.127,0.398-0.223,0.633-0.288c0.173-0.045,0.433-0.089,0.781-0.132c0.71-0.084,1.232-0.186,1.567-0.303
		c0.003-0.12,0.005-0.196,0.005-0.229c0-0.357-0.083-0.61-0.249-0.757c-0.225-0.198-0.559-0.298-1.001-0.298
		c-0.413,0-0.719,0.072-0.916,0.218c-0.196,0.145-0.342,0.401-0.437,0.769l-0.859-0.117c0.078-0.367,0.207-0.665,0.386-0.891
		c0.179-0.227,0.438-0.4,0.776-0.522s0.73-0.184,1.177-0.184c0.442,0,0.803,0.053,1.079,0.156c0.276,0.104,0.48,0.235,0.61,0.394
		c0.13,0.157,0.222,0.357,0.273,0.598c0.029,0.15,0.044,0.42,0.044,0.811v1.172c0,0.817,0.019,1.334,0.056,1.551
		c0.038,0.216,0.112,0.424,0.223,0.622h-0.918C83.2,145.921,83.142,145.707,83.115,145.463z M83.042,143.5
		c-0.319,0.131-0.798,0.241-1.436,0.332c-0.361,0.053-0.617,0.111-0.767,0.176c-0.149,0.065-0.266,0.16-0.347,0.286
		c-0.081,0.125-0.122,0.265-0.122,0.417c0,0.234,0.089,0.43,0.266,0.586c0.178,0.156,0.438,0.234,0.779,0.234
		c0.339,0,0.64-0.074,0.903-0.222c0.264-0.148,0.457-0.351,0.581-0.608c0.095-0.198,0.142-0.491,0.142-0.879V143.5z"/>
	<path d="M87.212,145.316l0.127,0.776c-0.247,0.053-0.469,0.078-0.664,0.078c-0.319,0-0.566-0.05-0.742-0.151
		c-0.176-0.101-0.3-0.233-0.371-0.397c-0.071-0.165-0.107-0.511-0.107-1.038V141.6H84.81v-0.684h0.645v-1.284l0.874-0.527v1.812
		h0.884v0.684h-0.884v3.032c0,0.251,0.016,0.412,0.046,0.483c0.031,0.072,0.082,0.129,0.152,0.171c0.069,0.043,0.17,0.063,0.3,0.063
		C86.924,145.35,87.053,145.34,87.212,145.316z"/>
	<path d="M91.621,144.432l0.908,0.112c-0.144,0.531-0.408,0.942-0.796,1.235s-0.882,0.439-1.484,0.439
		c-0.759,0-1.36-0.233-1.804-0.7c-0.445-0.468-0.667-1.122-0.667-1.966c0-0.872,0.225-1.549,0.674-2.031
		c0.449-0.481,1.032-0.723,1.748-0.723c0.693,0,1.26,0.236,1.699,0.708c0.439,0.473,0.659,1.137,0.659,1.992
		c0,0.053-0.002,0.131-0.005,0.234h-3.867c0.032,0.57,0.193,1.006,0.483,1.309s0.651,0.454,1.084,0.454
		c0.322,0,0.598-0.084,0.825-0.254C91.307,145.074,91.487,144.803,91.621,144.432z M88.735,143.011h2.896
		c-0.039-0.436-0.149-0.763-0.332-0.981c-0.28-0.338-0.643-0.508-1.089-0.508c-0.403,0-0.743,0.136-1.019,0.405
		C88.917,142.198,88.765,142.559,88.735,143.011z"/>
	<path d="M24.438,158.102v-7.158h1.426l1.694,5.068c0.156,0.473,0.271,0.825,0.342,1.06c0.081-0.26,0.208-0.643,0.381-1.147
		l1.714-4.98h1.274v7.158h-0.913v-5.991l-2.08,5.991h-0.854l-2.07-6.094v6.094H24.438z"/>
	<path d="M32.69,151.955v-1.011h0.879v1.011H32.69z M32.69,158.102v-5.186h0.879v5.186H32.69z"/>
	<path d="M38.291,156.203l0.864,0.112c-0.095,0.596-0.336,1.063-0.726,1.399c-0.389,0.337-0.866,0.505-1.433,0.505
		c-0.71,0-1.28-0.231-1.712-0.695c-0.431-0.464-0.646-1.129-0.646-1.995c0-0.56,0.093-1.05,0.278-1.47s0.468-0.734,0.847-0.944
		c0.38-0.21,0.792-0.315,1.238-0.315c0.563,0,1.023,0.143,1.382,0.428c0.358,0.284,0.588,0.689,0.688,1.213l-0.854,0.132
		c-0.081-0.348-0.226-0.61-0.433-0.786c-0.206-0.176-0.456-0.264-0.749-0.264c-0.442,0-0.803,0.159-1.079,0.477
		s-0.415,0.819-0.415,1.506c0,0.697,0.134,1.203,0.4,1.519c0.267,0.316,0.615,0.474,1.045,0.474c0.345,0,0.633-0.105,0.864-0.317
		C38.083,156.968,38.229,156.642,38.291,156.203z"/>
	<path d="M39.897,158.102v-5.186h0.791v0.786c0.202-0.367,0.388-0.61,0.56-0.728c0.17-0.117,0.358-0.176,0.563-0.176
		c0.296,0,0.598,0.095,0.903,0.283l-0.303,0.815c-0.215-0.127-0.43-0.19-0.645-0.19c-0.192,0-0.364,0.058-0.518,0.174
		c-0.153,0.115-0.262,0.275-0.327,0.48c-0.098,0.313-0.146,0.654-0.146,1.025v2.715H39.897z"/>
	<path d="M42.91,155.509c0-0.96,0.267-1.671,0.801-2.134c0.446-0.384,0.989-0.576,1.631-0.576c0.713,0,1.296,0.233,1.748,0.701
		c0.452,0.467,0.679,1.112,0.679,1.936c0,0.668-0.101,1.192-0.3,1.575c-0.201,0.382-0.492,0.68-0.875,0.891
		c-0.382,0.212-0.8,0.317-1.252,0.317c-0.726,0-1.313-0.232-1.76-0.698C43.134,157.056,42.91,156.385,42.91,155.509z
		 M43.813,155.509c0,0.664,0.145,1.161,0.435,1.492c0.29,0.33,0.654,0.495,1.094,0.495c0.437,0,0.799-0.166,1.089-0.498
		s0.435-0.838,0.435-1.519c0-0.641-0.146-1.127-0.438-1.457c-0.291-0.331-0.653-0.496-1.086-0.496c-0.439,0-0.804,0.165-1.094,0.493
		C43.958,154.349,43.813,154.845,43.813,155.509z"/>
	<path d="M48.447,156.554l0.869-0.137c0.049,0.349,0.185,0.615,0.407,0.801c0.224,0.186,0.535,0.278,0.936,0.278
		c0.403,0,0.703-0.082,0.898-0.246c0.195-0.165,0.293-0.357,0.293-0.579c0-0.198-0.086-0.354-0.259-0.469
		c-0.12-0.078-0.42-0.177-0.898-0.298c-0.645-0.162-1.091-0.304-1.341-0.422c-0.248-0.119-0.438-0.283-0.566-0.493
		c-0.128-0.21-0.192-0.442-0.192-0.696c0-0.23,0.053-0.445,0.159-0.642c0.105-0.197,0.249-0.36,0.432-0.491
		c0.137-0.101,0.323-0.187,0.559-0.256c0.236-0.07,0.489-0.105,0.76-0.105c0.407,0,0.764,0.059,1.072,0.176
		c0.307,0.117,0.534,0.276,0.681,0.477s0.247,0.468,0.303,0.803l-0.859,0.117c-0.039-0.267-0.152-0.475-0.339-0.625
		c-0.188-0.149-0.452-0.225-0.794-0.225c-0.403,0-0.691,0.067-0.864,0.2c-0.173,0.134-0.259,0.29-0.259,0.469
		c0,0.114,0.036,0.217,0.107,0.308c0.071,0.095,0.184,0.173,0.337,0.234c0.088,0.033,0.347,0.107,0.776,0.225
		c0.622,0.166,1.056,0.302,1.302,0.408c0.245,0.105,0.438,0.26,0.578,0.461c0.14,0.202,0.21,0.453,0.21,0.752
		c0,0.293-0.085,0.569-0.257,0.828c-0.17,0.259-0.417,0.459-0.739,0.601s-0.687,0.212-1.094,0.212c-0.674,0-1.188-0.14-1.54-0.42
		C48.771,157.52,48.545,157.105,48.447,156.554z"/>
	<path d="M53.472,155.509c0-0.96,0.267-1.671,0.801-2.134c0.446-0.384,0.989-0.576,1.631-0.576c0.713,0,1.296,0.233,1.748,0.701
		c0.452,0.467,0.679,1.112,0.679,1.936c0,0.668-0.101,1.192-0.3,1.575c-0.201,0.382-0.492,0.68-0.875,0.891
		c-0.382,0.212-0.8,0.317-1.252,0.317c-0.726,0-1.313-0.232-1.76-0.698C53.695,157.056,53.472,156.385,53.472,155.509z
		 M54.375,155.509c0,0.664,0.145,1.161,0.435,1.492c0.29,0.33,0.654,0.495,1.094,0.495c0.437,0,0.799-0.166,1.089-0.498
		s0.435-0.838,0.435-1.519c0-0.641-0.146-1.127-0.438-1.457c-0.291-0.331-0.653-0.496-1.086-0.496c-0.439,0-0.804,0.165-1.094,0.493
		C54.52,154.349,54.375,154.845,54.375,155.509z"/>
	<path d="M59.57,158.102V153.6h-0.776v-0.684h0.776v-0.552c0-0.348,0.031-0.606,0.093-0.776c0.085-0.228,0.233-0.412,0.446-0.554
		c0.214-0.142,0.513-0.213,0.896-0.213c0.247,0,0.521,0.029,0.82,0.088l-0.132,0.767c-0.183-0.032-0.354-0.049-0.518-0.049
		c-0.267,0-0.456,0.058-0.566,0.171c-0.11,0.114-0.166,0.327-0.166,0.64v0.479h1.011v0.684h-1.011v4.502H59.57z"/>
	<path d="M64.058,157.316l0.127,0.776c-0.247,0.053-0.469,0.078-0.664,0.078c-0.319,0-0.566-0.05-0.742-0.151
		c-0.176-0.101-0.3-0.233-0.371-0.397c-0.071-0.165-0.107-0.511-0.107-1.038V153.6h-0.645v-0.684H62.3v-1.284l0.874-0.527v1.812
		h0.884v0.684h-0.884v3.032c0,0.251,0.016,0.412,0.046,0.483c0.031,0.072,0.082,0.129,0.152,0.171c0.069,0.043,0.17,0.063,0.3,0.063
		C63.77,157.35,63.898,157.34,64.058,157.316z"/>
	<path d="M67.52,154.616c0-1.188,0.319-2.118,0.957-2.79c0.638-0.673,1.462-1.009,2.471-1.009c0.661,0,1.257,0.158,1.787,0.474
		c0.53,0.316,0.935,0.756,1.214,1.321c0.277,0.564,0.417,1.205,0.417,1.921c0,0.727-0.146,1.376-0.439,1.948
		c-0.293,0.573-0.708,1.007-1.245,1.302c-0.537,0.294-1.116,0.441-1.738,0.441c-0.674,0-1.276-0.162-1.807-0.488
		c-0.53-0.325-0.933-0.77-1.206-1.333C67.656,155.84,67.52,155.245,67.52,154.616z M68.496,154.631c0,0.863,0.231,1.542,0.696,2.039
		c0.463,0.496,1.045,0.744,1.745,0.744c0.713,0,1.3-0.25,1.761-0.752c0.46-0.501,0.69-1.212,0.69-2.134
		c0-0.582-0.099-1.091-0.296-1.525c-0.196-0.435-0.484-0.771-0.863-1.011c-0.38-0.239-0.806-0.359-1.277-0.359
		c-0.671,0-1.248,0.23-1.73,0.691C68.737,152.784,68.496,153.553,68.496,154.631z"/>
	<path d="M75.684,158.102V153.6h-0.776v-0.684h0.776v-0.552c0-0.348,0.031-0.606,0.093-0.776c0.085-0.228,0.233-0.412,0.446-0.554
		c0.214-0.142,0.513-0.213,0.896-0.213c0.247,0,0.521,0.029,0.82,0.088l-0.132,0.767c-0.183-0.032-0.354-0.049-0.518-0.049
		c-0.267,0-0.456,0.058-0.566,0.171c-0.11,0.114-0.166,0.327-0.166,0.64v0.479h1.011v0.684h-1.011v4.502H75.684z"/>
	<path d="M78.281,158.102V153.6h-0.776v-0.684h0.776v-0.552c0-0.348,0.031-0.606,0.093-0.776c0.085-0.228,0.233-0.412,0.446-0.554
		c0.214-0.142,0.513-0.213,0.896-0.213c0.247,0,0.521,0.029,0.82,0.088l-0.132,0.767c-0.183-0.032-0.354-0.049-0.518-0.049
		c-0.267,0-0.456,0.058-0.566,0.171c-0.11,0.114-0.166,0.327-0.166,0.64v0.479h1.011v0.684h-1.011v4.502H78.281z"/>
	<path d="M80.854,151.955v-1.011h0.879v1.011H80.854z M80.854,158.102v-5.186h0.879v5.186H80.854z"/>
	<path d="M86.455,156.203l0.864,0.112c-0.095,0.596-0.336,1.063-0.726,1.399c-0.389,0.337-0.866,0.505-1.433,0.505
		c-0.71,0-1.28-0.231-1.712-0.695c-0.431-0.464-0.646-1.129-0.646-1.995c0-0.56,0.093-1.05,0.278-1.47s0.468-0.734,0.847-0.944
		c0.38-0.21,0.792-0.315,1.238-0.315c0.563,0,1.023,0.143,1.382,0.428c0.358,0.284,0.588,0.689,0.688,1.213l-0.854,0.132
		c-0.081-0.348-0.226-0.61-0.433-0.786c-0.206-0.176-0.456-0.264-0.749-0.264c-0.442,0-0.803,0.159-1.079,0.477
		s-0.415,0.819-0.415,1.506c0,0.697,0.134,1.203,0.4,1.519c0.267,0.316,0.615,0.474,1.045,0.474c0.345,0,0.633-0.105,0.864-0.317
		C86.247,156.968,86.394,156.642,86.455,156.203z"/>
	<path d="M91.621,156.432l0.908,0.112c-0.144,0.531-0.408,0.942-0.796,1.235s-0.882,0.439-1.484,0.439
		c-0.759,0-1.36-0.233-1.804-0.7c-0.445-0.468-0.667-1.122-0.667-1.966c0-0.872,0.225-1.549,0.674-2.031
		c0.449-0.481,1.032-0.723,1.748-0.723c0.693,0,1.26,0.236,1.699,0.708c0.439,0.473,0.659,1.137,0.659,1.992
		c0,0.053-0.002,0.131-0.005,0.234h-3.867c0.032,0.57,0.193,1.006,0.483,1.309s0.651,0.454,1.084,0.454
		c0.322,0,0.598-0.084,0.825-0.254C91.307,157.074,91.487,156.803,91.621,156.432z M88.735,155.011h2.896
		c-0.039-0.436-0.149-0.763-0.332-0.981c-0.28-0.338-0.643-0.508-1.089-0.508c-0.403,0-0.743,0.136-1.019,0.405
		C88.917,154.198,88.765,154.559,88.735,155.011z"/>
	<path d="M0.801,170.102v-7.158h0.947v2.939h3.721v-2.939h0.947v7.158H5.469v-3.374H1.748v3.374H0.801z"/>
	<path d="M9.814,170.102v-6.313H7.456v-0.845h5.674v0.845h-2.368v6.313H9.814z"/>
	<path d="M14.072,170.102v-7.158h1.426l1.694,5.068c0.156,0.473,0.271,0.825,0.342,1.06c0.081-0.26,0.208-0.643,0.381-1.147
		l1.714-4.98h1.274v7.158H19.99v-5.991l-2.08,5.991h-0.854l-2.07-6.094v6.094H14.072z"/>
	<path d="M22.393,170.102v-7.158h0.947v6.313h3.525v0.845H22.393z"/>
	<path d="M34.38,169.257c-0.29,0.322-0.605,0.564-0.947,0.726s-0.711,0.241-1.108,0.241c-0.732,0-1.313-0.247-1.743-0.742
		c-0.349-0.403-0.522-0.854-0.522-1.353c0-0.442,0.143-0.842,0.428-1.198c0.284-0.356,0.71-0.67,1.276-0.94
		c-0.322-0.371-0.537-0.672-0.645-0.903c-0.107-0.23-0.161-0.454-0.161-0.669c0-0.43,0.168-0.803,0.506-1.12
		c0.336-0.317,0.761-0.477,1.271-0.477c0.488,0,0.888,0.15,1.199,0.449c0.311,0.3,0.466,0.659,0.466,1.079
		c0,0.681-0.451,1.262-1.353,1.743l1.284,1.636c0.146-0.286,0.261-0.618,0.342-0.996l0.913,0.195
		c-0.156,0.625-0.368,1.14-0.635,1.543c0.329,0.437,0.701,0.803,1.118,1.099l-0.591,0.698
		C35.124,170.041,34.758,169.704,34.38,169.257z M33.828,168.564l-1.611-1.997c-0.476,0.283-0.796,0.546-0.962,0.789
		c-0.166,0.242-0.249,0.482-0.249,0.72c0,0.29,0.115,0.591,0.347,0.903s0.559,0.469,0.981,0.469c0.264,0,0.536-0.082,0.818-0.246
		C33.434,169.037,33.659,168.825,33.828,168.564z M32.593,165.527c0.381-0.225,0.628-0.421,0.739-0.591
		c0.113-0.169,0.169-0.356,0.169-0.562c0-0.244-0.077-0.443-0.231-0.598c-0.155-0.155-0.348-0.232-0.579-0.232
		c-0.237,0-0.436,0.077-0.593,0.229c-0.158,0.153-0.237,0.341-0.237,0.562c0,0.111,0.028,0.228,0.085,0.35
		c0.058,0.122,0.143,0.251,0.257,0.388L32.593,165.527z"/>
	<path d="M42.178,167.592l0.947,0.239c-0.198,0.778-0.556,1.371-1.072,1.78c-0.516,0.408-1.146,0.612-1.892,0.612
		c-0.771,0-1.399-0.157-1.882-0.471c-0.484-0.314-0.852-0.77-1.104-1.365c-0.253-0.596-0.379-1.235-0.379-1.919
		c0-0.745,0.143-1.396,0.428-1.95c0.284-0.556,0.689-0.977,1.215-1.265c0.526-0.288,1.104-0.433,1.736-0.433
		c0.716,0,1.318,0.183,1.807,0.547c0.488,0.365,0.828,0.878,1.021,1.538l-0.933,0.22c-0.166-0.521-0.407-0.899-0.723-1.138
		c-0.315-0.237-0.713-0.356-1.191-0.356c-0.55,0-1.01,0.132-1.379,0.396c-0.37,0.264-0.63,0.618-0.779,1.063
		s-0.225,0.902-0.225,1.374c0,0.609,0.089,1.141,0.266,1.595c0.178,0.454,0.454,0.793,0.828,1.018s0.779,0.337,1.216,0.337
		c0.53,0,0.979-0.152,1.348-0.459C41.799,168.649,42.048,168.195,42.178,167.592z"/>
	<path d="M43.97,167.802l0.894-0.078c0.042,0.358,0.141,0.652,0.296,0.882c0.154,0.229,0.395,0.415,0.72,0.557
		s0.691,0.212,1.099,0.212c0.361,0,0.681-0.054,0.957-0.161s0.482-0.255,0.617-0.441c0.136-0.188,0.203-0.392,0.203-0.613
		c0-0.225-0.065-0.421-0.195-0.588c-0.13-0.168-0.345-0.309-0.645-0.423c-0.192-0.074-0.617-0.191-1.274-0.349
		c-0.657-0.158-1.118-0.307-1.382-0.447c-0.342-0.179-0.597-0.401-0.764-0.666c-0.168-0.266-0.252-0.563-0.252-0.892
		c0-0.361,0.103-0.699,0.308-1.013c0.205-0.314,0.505-0.553,0.898-0.716c0.394-0.162,0.832-0.244,1.313-0.244
		c0.53,0,0.998,0.086,1.404,0.257c0.404,0.171,0.717,0.422,0.935,0.754s0.335,0.708,0.352,1.128l-0.908,0.068
		c-0.049-0.452-0.214-0.794-0.495-1.025c-0.282-0.23-0.698-0.347-1.248-0.347c-0.573,0-0.99,0.105-1.252,0.315
		c-0.263,0.21-0.394,0.463-0.394,0.759c0,0.258,0.093,0.469,0.278,0.635c0.183,0.166,0.658,0.336,1.428,0.511
		c0.771,0.174,1.299,0.326,1.585,0.456c0.417,0.192,0.725,0.436,0.923,0.73c0.198,0.294,0.298,0.634,0.298,1.018
		c0,0.381-0.109,0.74-0.327,1.077s-0.531,0.599-0.939,0.786c-0.409,0.187-0.869,0.28-1.38,0.28c-0.647,0-1.19-0.094-1.628-0.283
		c-0.438-0.188-0.781-0.473-1.031-0.852C44.114,168.71,43.982,168.281,43.97,167.802z"/>
	<path d="M50.64,167.802l0.894-0.078c0.042,0.358,0.141,0.652,0.296,0.882c0.154,0.229,0.395,0.415,0.72,0.557
		s0.691,0.212,1.099,0.212c0.361,0,0.681-0.054,0.957-0.161s0.482-0.255,0.617-0.441c0.136-0.188,0.203-0.392,0.203-0.613
		c0-0.225-0.065-0.421-0.195-0.588c-0.13-0.168-0.345-0.309-0.645-0.423c-0.192-0.074-0.617-0.191-1.274-0.349
		c-0.657-0.158-1.118-0.307-1.382-0.447c-0.342-0.179-0.597-0.401-0.764-0.666c-0.168-0.266-0.252-0.563-0.252-0.892
		c0-0.361,0.103-0.699,0.308-1.013c0.205-0.314,0.505-0.553,0.898-0.716c0.394-0.162,0.832-0.244,1.313-0.244
		c0.53,0,0.998,0.086,1.404,0.257c0.404,0.171,0.717,0.422,0.935,0.754s0.335,0.708,0.352,1.128l-0.908,0.068
		c-0.049-0.452-0.214-0.794-0.495-1.025c-0.282-0.23-0.698-0.347-1.248-0.347c-0.573,0-0.99,0.105-1.252,0.315
		c-0.263,0.21-0.394,0.463-0.394,0.759c0,0.258,0.093,0.469,0.278,0.635c0.183,0.166,0.658,0.336,1.428,0.511
		c0.771,0.174,1.299,0.326,1.585,0.456c0.417,0.192,0.725,0.436,0.923,0.73c0.198,0.294,0.298,0.634,0.298,1.018
		c0,0.381-0.109,0.74-0.327,1.077s-0.531,0.599-0.939,0.786c-0.409,0.187-0.869,0.28-1.38,0.28c-0.647,0-1.19-0.094-1.628-0.283
		c-0.438-0.188-0.781-0.473-1.031-0.852C50.784,168.71,50.652,168.281,50.64,167.802z"/>
	<path d="M59.199,172.207c-0.485-0.611-0.896-1.328-1.23-2.148s-0.503-1.67-0.503-2.549c0-0.774,0.125-1.517,0.376-2.227
		c0.293-0.823,0.745-1.644,1.357-2.461h0.63c-0.394,0.678-0.654,1.161-0.781,1.45c-0.198,0.449-0.354,0.918-0.469,1.406
		c-0.14,0.609-0.21,1.221-0.21,1.836c0,1.566,0.486,3.13,1.46,4.692H59.199z"/>
	<path d="M60.923,170.102v-7.158h2.686c0.547,0,0.985,0.072,1.316,0.218c0.33,0.145,0.589,0.367,0.775,0.669
		c0.188,0.301,0.281,0.616,0.281,0.944c0,0.307-0.083,0.595-0.249,0.864c-0.166,0.271-0.417,0.488-0.752,0.654
		c0.433,0.127,0.766,0.344,0.999,0.649c0.232,0.307,0.349,0.668,0.349,1.084c0,0.336-0.071,0.647-0.212,0.936
		c-0.143,0.288-0.317,0.51-0.525,0.666s-0.47,0.274-0.783,0.354c-0.314,0.079-0.699,0.119-1.155,0.119H60.923z M61.87,165.952h1.548
		c0.42,0,0.721-0.027,0.903-0.083c0.241-0.071,0.422-0.19,0.545-0.356c0.121-0.166,0.183-0.374,0.183-0.625
		c0-0.237-0.057-0.446-0.171-0.627s-0.276-0.305-0.488-0.371c-0.212-0.067-0.574-0.101-1.089-0.101H61.87V165.952z M61.87,169.257
		h1.782c0.306,0,0.521-0.011,0.645-0.034c0.218-0.039,0.4-0.104,0.547-0.195c0.146-0.091,0.267-0.224,0.361-0.397
		c0.095-0.175,0.142-0.375,0.142-0.604c0-0.267-0.068-0.499-0.205-0.695c-0.137-0.197-0.326-0.336-0.568-0.415
		c-0.243-0.08-0.592-0.12-1.048-0.12H61.87V169.257z"/>
	<path d="M70.903,169.463c-0.325,0.277-0.639,0.473-0.939,0.586c-0.302,0.114-0.625,0.171-0.97,0.171
		c-0.569,0-1.008-0.139-1.313-0.417s-0.459-0.634-0.459-1.067c0-0.254,0.058-0.485,0.174-0.695c0.115-0.21,0.267-0.379,0.453-0.506
		c0.188-0.127,0.398-0.223,0.633-0.288c0.173-0.045,0.433-0.089,0.781-0.132c0.71-0.084,1.232-0.186,1.567-0.303
		c0.003-0.12,0.005-0.196,0.005-0.229c0-0.357-0.083-0.61-0.249-0.757c-0.225-0.198-0.559-0.298-1.001-0.298
		c-0.413,0-0.719,0.072-0.916,0.218c-0.196,0.145-0.342,0.401-0.437,0.769l-0.859-0.117c0.078-0.367,0.207-0.665,0.386-0.891
		c0.179-0.227,0.438-0.4,0.776-0.522s0.73-0.184,1.177-0.184c0.442,0,0.803,0.053,1.079,0.156c0.276,0.104,0.48,0.235,0.61,0.394
		c0.13,0.157,0.222,0.357,0.273,0.598c0.029,0.15,0.044,0.42,0.044,0.811v1.172c0,0.817,0.019,1.334,0.056,1.551
		c0.038,0.216,0.112,0.424,0.223,0.622h-0.918C70.988,169.921,70.93,169.707,70.903,169.463z M70.83,167.5
		c-0.319,0.131-0.798,0.241-1.436,0.332c-0.361,0.053-0.617,0.111-0.767,0.176c-0.149,0.065-0.266,0.16-0.347,0.286
		c-0.081,0.125-0.122,0.265-0.122,0.417c0,0.234,0.089,0.43,0.266,0.586c0.178,0.156,0.438,0.234,0.779,0.234
		c0.339,0,0.64-0.074,0.903-0.222c0.264-0.148,0.457-0.351,0.581-0.608c0.095-0.198,0.142-0.491,0.142-0.879V167.5z"/>
	<path d="M72.729,168.554l0.869-0.137c0.049,0.349,0.185,0.615,0.407,0.801c0.224,0.186,0.535,0.278,0.936,0.278
		c0.403,0,0.703-0.082,0.898-0.246c0.195-0.165,0.293-0.357,0.293-0.579c0-0.198-0.086-0.354-0.259-0.469
		c-0.12-0.078-0.42-0.177-0.898-0.298c-0.645-0.162-1.091-0.304-1.341-0.422c-0.248-0.119-0.438-0.283-0.566-0.493
		c-0.128-0.21-0.192-0.442-0.192-0.696c0-0.23,0.053-0.445,0.159-0.642c0.105-0.197,0.249-0.36,0.432-0.491
		c0.137-0.101,0.323-0.187,0.559-0.256c0.236-0.07,0.489-0.105,0.76-0.105c0.407,0,0.764,0.059,1.072,0.176
		c0.307,0.117,0.534,0.276,0.681,0.477s0.247,0.468,0.303,0.803l-0.859,0.117c-0.039-0.267-0.152-0.475-0.339-0.625
		c-0.188-0.149-0.452-0.225-0.794-0.225c-0.403,0-0.691,0.067-0.864,0.2c-0.173,0.134-0.259,0.29-0.259,0.469
		c0,0.114,0.036,0.217,0.107,0.308c0.071,0.095,0.184,0.173,0.337,0.234c0.088,0.033,0.347,0.107,0.776,0.225
		c0.622,0.166,1.056,0.302,1.302,0.408c0.245,0.105,0.438,0.26,0.578,0.461c0.14,0.202,0.21,0.453,0.21,0.752
		c0,0.293-0.085,0.569-0.257,0.828c-0.17,0.259-0.417,0.459-0.739,0.601s-0.687,0.212-1.094,0.212c-0.674,0-1.188-0.14-1.54-0.42
		C73.053,169.52,72.827,169.105,72.729,168.554z"/>
	<path d="M78.086,163.955v-1.011h0.879v1.011H78.086z M78.086,170.102v-5.186h0.879v5.186H78.086z"/>
	<path d="M83.687,168.203l0.864,0.112c-0.095,0.596-0.336,1.063-0.726,1.399c-0.389,0.337-0.866,0.505-1.433,0.505
		c-0.71,0-1.28-0.231-1.712-0.695c-0.431-0.464-0.646-1.129-0.646-1.995c0-0.56,0.093-1.05,0.278-1.47s0.468-0.734,0.847-0.944
		c0.38-0.21,0.792-0.315,1.238-0.315c0.563,0,1.023,0.143,1.382,0.428c0.358,0.284,0.588,0.689,0.688,1.213l-0.854,0.132
		c-0.081-0.348-0.226-0.61-0.433-0.786c-0.206-0.176-0.456-0.264-0.749-0.264c-0.442,0-0.803,0.159-1.079,0.477
		s-0.415,0.819-0.415,1.506c0,0.697,0.134,1.203,0.4,1.519c0.267,0.316,0.615,0.474,1.045,0.474c0.345,0,0.633-0.105,0.864-0.317
		C83.479,168.968,83.625,168.642,83.687,168.203z"/>
	<path d="M84.951,168.554l0.869-0.137c0.049,0.349,0.185,0.615,0.407,0.801c0.224,0.186,0.535,0.278,0.936,0.278
		c0.403,0,0.703-0.082,0.898-0.246c0.195-0.165,0.293-0.357,0.293-0.579c0-0.198-0.086-0.354-0.259-0.469
		c-0.12-0.078-0.42-0.177-0.898-0.298c-0.645-0.162-1.091-0.304-1.341-0.422c-0.248-0.119-0.438-0.283-0.566-0.493
		c-0.128-0.21-0.192-0.442-0.192-0.696c0-0.23,0.053-0.445,0.159-0.642c0.105-0.197,0.249-0.36,0.432-0.491
		c0.137-0.101,0.323-0.187,0.559-0.256c0.236-0.07,0.489-0.105,0.76-0.105c0.407,0,0.764,0.059,1.072,0.176
		c0.307,0.117,0.534,0.276,0.681,0.477s0.247,0.468,0.303,0.803l-0.859,0.117c-0.039-0.267-0.152-0.475-0.339-0.625
		c-0.188-0.149-0.452-0.225-0.794-0.225c-0.403,0-0.691,0.067-0.864,0.2c-0.173,0.134-0.259,0.29-0.259,0.469
		c0,0.114,0.036,0.217,0.107,0.308c0.071,0.095,0.184,0.173,0.337,0.234c0.088,0.033,0.347,0.107,0.776,0.225
		c0.622,0.166,1.056,0.302,1.302,0.408c0.245,0.105,0.438,0.26,0.578,0.461c0.14,0.202,0.21,0.453,0.21,0.752
		c0,0.293-0.085,0.569-0.257,0.828c-0.17,0.259-0.417,0.459-0.739,0.601s-0.687,0.212-1.094,0.212c-0.674,0-1.188-0.14-1.54-0.42
		C85.274,169.52,85.049,169.105,84.951,168.554z"/>
	<path d="M90.879,172.207h-0.63c0.974-1.563,1.46-3.126,1.46-4.692c0-0.611-0.07-1.219-0.21-1.821
		c-0.11-0.488-0.266-0.957-0.464-1.406c-0.127-0.293-0.389-0.781-0.786-1.465h0.63c0.612,0.817,1.064,1.638,1.357,2.461
		c0.251,0.71,0.376,1.452,0.376,2.227c0,0.879-0.168,1.729-0.506,2.549C91.771,170.879,91.36,171.595,90.879,172.207z"/>
</g>
</svg>