<!-- Generator: Adobe Illustrator 22.1.0, SVG Export Plug-In  -->
<svg version="1.1"
	 xmlns="http://www.w3.org/2000/svg" xmlns:xlink="http://www.w3.org/1999/xlink" xmlns:a="http://ns.adobe.com/AdobeSVGViewerExtensions/3.0/"
	 x="0px" y="0px" width="380.608px" height="80.513px" viewBox="0 0 380.608 80.513"
	 style="enable-background:new 0 0 380.608 80.513;" xml:space="preserve">
<style type="text/css">
	.st0{fill:#1B1464;}
	.st1{fill:#FFFFFF;}
</style>
<defs>
</defs>
<rect class="st0" width="380.608" height="80.513"/>
<g>
	<path class="st1" d="M69.431,21.134h2.416l5.816,10.397l-0.223,0.242v-10.64h2.155v13.501h-2.435l-5.798-10.239l0.223-0.242v10.481
		h-2.155V21.134z"/>
	<path class="st1" d="M82.756,21.134h2.221v13.511h-2.221V21.134z M83.676,21.134h7.944v2.128h-7.944V21.134z M83.676,26.876h6.922
		v2.119h-6.922V26.876z M83.676,32.516h7.944v2.128h-7.944V32.516z"/>
	<path class="st1" d="M94.129,21.134h2.221v13.511h-2.221V21.134z M95.049,21.134h7.944v2.128h-7.944V21.134z M95.049,26.876h6.922
		v2.119h-6.922V26.876z M95.049,32.516h7.944v2.128h-7.944V32.516z"/>
	<path class="st1" d="M103.645,21.134h9.719v2.128h-9.719V21.134z M107.398,22.239h2.211v12.405h-2.211V22.239z"/>
	<path class="st1" d="M115.51,33.534c-0.563-1.483-0.845-3.121-0.845-4.911s0.281-3.427,0.845-4.911
		c0.564-1.483,1.413-2.823,2.547-4.019l1.394,1.505c-0.893,0.998-1.559,2.113-1.998,3.346s-0.659,2.593-0.659,4.079
		c0,1.487,0.22,2.847,0.659,4.079c0.439,1.233,1.105,2.352,1.998,3.354l-1.394,1.496C116.923,36.357,116.074,35.017,115.51,33.534z"
		/>
	<path class="st1" d="M123.157,34.194c-0.725-0.394-1.275-0.967-1.653-1.72s-0.567-1.658-0.567-2.718v-8.623h2.221v8.688
		c0,0.879,0.229,1.561,0.684,2.044s1.098,0.725,1.928,0.725c0.837,0,1.483-0.241,1.942-0.725c0.458-0.483,0.688-1.165,0.688-2.044
		v-8.688h2.221v8.623c0,1.06-0.19,1.965-0.571,2.718s-0.934,1.326-1.659,1.72c-0.725,0.393-1.598,0.59-2.62,0.59
		C124.753,34.784,123.883,34.587,123.157,34.194z"/>
	<path class="st1" d="M143.016,27.229v2.499c0,1.004-0.2,1.889-0.6,2.653c-0.399,0.766-0.963,1.356-1.69,1.774
		c-0.729,0.419-1.572,0.628-2.532,0.628c-0.967,0-1.818-0.197-2.556-0.59c-0.737-0.394-1.309-0.95-1.715-1.668
		c-0.405-0.719-0.608-1.553-0.608-2.5V26.04c0-1.004,0.2-1.887,0.6-2.648s0.963-1.352,1.691-1.771
		c0.728-0.418,1.571-0.627,2.532-0.627c0.786,0,1.515,0.166,2.184,0.497c0.669,0.332,1.227,0.801,1.672,1.408
		c0.446,0.607,0.75,1.31,0.911,2.109h-2.397c-0.105-0.372-0.277-0.691-0.516-0.957c-0.238-0.267-0.521-0.47-0.846-0.609
		c-0.325-0.139-0.661-0.209-1.008-0.209c-0.509,0-0.953,0.116-1.334,0.349s-0.677,0.561-0.888,0.985
		c-0.21,0.424-0.315,0.915-0.315,1.473v3.986c0,0.502,0.106,0.943,0.32,1.324s0.518,0.675,0.911,0.883
		c0.393,0.207,0.847,0.312,1.361,0.312c0.508,0,0.953-0.11,1.338-0.33c0.384-0.22,0.68-0.539,0.888-0.957
		c0.207-0.418,0.311-0.916,0.311-1.491v-0.409h-2.397v-2.128H143.016z"/>
	<path class="st1" d="M144.409,36.057c0.893-1.003,1.558-2.121,1.998-3.354c0.439-1.232,0.66-2.592,0.66-4.079
		c0-1.486-0.221-2.847-0.66-4.079c-0.44-1.232-1.105-2.348-1.998-3.346l1.394-1.505c1.134,1.195,1.982,2.535,2.547,4.019
		c0.563,1.484,0.845,3.121,0.845,4.911s-0.281,3.428-0.845,4.911c-0.564,1.483-1.413,2.823-2.547,4.019L144.409,36.057z"/>
	<path class="st1" d="M155.606,21.134h2.221v13.511h-2.221V21.134z M156.526,21.134h7.944v2.128h-7.944V21.134z M156.526,26.876
		h6.922v2.119h-6.922V26.876z M156.526,32.516h7.944v2.128h-7.944V32.516z"/>
	<path class="st1" d="M169.396,29.32l1.208,1.747l-2.342,3.577h-2.397L169.396,29.32z M169.656,30.454l-3.643-5.455h2.453
		l2.546,4.107l3.717,5.538h-2.443L169.656,30.454z M170.177,28.419l1.951-3.42h2.453l-3.262,5.204L170.177,28.419z"/>
	<path class="st1" d="M176.996,34.045c-0.551-0.492-0.826-1.24-0.826-2.244c0-0.953,0.278-1.669,0.836-2.146
		c0.558-0.477,1.394-0.715,2.509-0.715h2.583l0.13,1.728h-2.703c-0.44,0-0.771,0.094-0.99,0.279s-0.33,0.471-0.33,0.854
		c0,0.403,0.143,0.702,0.428,0.897c0.285,0.194,0.716,0.292,1.292,0.292c0.706,0,1.23-0.077,1.574-0.232
		c0.345-0.154,0.517-0.396,0.517-0.725l0.194,1.375c-0.105,0.304-0.289,0.558-0.553,0.763c-0.263,0.204-0.58,0.357-0.952,0.46
		c-0.372,0.102-0.777,0.153-1.218,0.153C178.378,34.784,177.548,34.538,176.996,34.045z M182.015,28.53
		c0-0.539-0.16-0.957-0.479-1.255c-0.319-0.297-0.771-0.445-1.353-0.445c-0.372,0-0.737,0.059-1.097,0.176
		c-0.359,0.118-0.682,0.282-0.966,0.493l-1.478-1.245c0.378-0.44,0.873-0.782,1.486-1.027c0.613-0.244,1.295-0.367,2.045-0.367
		c0.817,0,1.518,0.142,2.1,0.423c0.582,0.282,1.026,0.691,1.333,1.227c0.307,0.536,0.46,1.183,0.46,1.938v6.198h-2.053V28.53z"/>
	<path class="st1" d="M186.763,24.999h2.221v9.646h-2.221V24.999z M192.459,28.939c0-0.626-0.153-1.107-0.46-1.445
		s-0.742-0.507-1.306-0.507c-0.545,0-0.966,0.147-1.264,0.441c-0.297,0.295-0.446,0.711-0.446,1.25l-0.194-1.998
		c0.291-0.588,0.662-1.039,1.114-1.352s0.97-0.47,1.552-0.47c0.676,0,1.255,0.158,1.738,0.475c0.483,0.315,0.85,0.779,1.101,1.389
		c0.251,0.61,0.377,1.347,0.377,2.207v5.715h-2.212V28.939z M198.145,28.939c0-0.626-0.154-1.107-0.464-1.445
		c-0.311-0.338-0.75-0.507-1.32-0.507c-0.538,0-0.955,0.163-1.249,0.488c-0.295,0.325-0.441,0.788-0.441,1.39l-0.428-2.045
		c0.304-0.625,0.701-1.108,1.194-1.449c0.492-0.341,1.039-0.512,1.64-0.512c0.694,0,1.287,0.158,1.779,0.475
		c0.493,0.315,0.867,0.779,1.125,1.389c0.257,0.61,0.386,1.347,0.386,2.207v5.715h-2.222V28.939z"/>
	<path class="st1" d="M206.5,21.124h2.221v13.521H206.5V21.124z M207.42,26.941h4.655c0.31,0,0.584-0.076,0.822-0.228
		c0.238-0.152,0.423-0.367,0.553-0.646c0.13-0.278,0.198-0.604,0.204-0.976c0-0.365-0.064-0.688-0.195-0.966
		c-0.13-0.279-0.314-0.494-0.553-0.646c-0.238-0.151-0.516-0.228-0.831-0.228h-4.655v-2.128h4.72c0.763,0,1.432,0.165,2.008,0.493
		s1.023,0.793,1.343,1.394c0.318,0.601,0.479,1.295,0.479,2.081c0,0.793-0.16,1.49-0.479,2.091
		c-0.319,0.602-0.769,1.065-1.348,1.395c-0.579,0.328-1.247,0.492-2.003,0.492h-4.72V26.941z M210.681,28.651l2.305-0.428
		l3.55,6.421h-2.667L210.681,28.651z"/>
	<path class="st1" d="M221.023,34.784c0,0-0.322-0.168-0.967-0.502c-0.645-0.335-1.137-0.825-1.478-1.473s-0.511-1.43-0.511-2.347
		v-1.087c0-0.954,0.162-1.769,0.487-2.444c0.325-0.675,0.8-1.189,1.422-1.542c0.623-0.354,1.371-0.53,2.244-0.53
		c0.824,0,1.528,0.206,2.114,0.618c0.585,0.412,1.031,1.009,1.338,1.789s0.46,1.723,0.46,2.825v0.632h-6.551v-1.627h4.488
		l-0.01-0.102c-0.062-0.676-0.251-1.199-0.566-1.57c-0.316-0.372-0.74-0.558-1.273-0.558c-0.669,0-1.187,0.209-1.552,0.627
		s-0.548,1.012-0.548,1.779V30.5c0,0.731,0.198,1.293,0.595,1.687s0.953,0.59,1.672,0.59c0.366,0,0.727-0.069,1.083-0.209
		c0.356-0.139,0.677-0.333,0.962-0.58l1.449,1.356c-0.489,0.458-1.039,0.813-1.649,1.063s-1.225,0.377-1.845,0.377
		C221.479,34.784,221.023,34.784,221.023,34.784z"/>
	<path class="st1" d="M231.235,34.784c0,0-0.26-0.055-0.78-0.163s-1.009-0.268-1.464-0.479c-0.455-0.21-0.865-0.468-1.231-0.771
		l1.348-1.672c0.489,0.347,0.99,0.61,1.501,0.789c0.511,0.181,1.008,0.27,1.491,0.27c0.675,0,1.188-0.091,1.538-0.273
		c0.35-0.183,0.524-0.448,0.524-0.795c0-0.267-0.086-0.466-0.26-0.6c-0.174-0.133-0.392-0.224-0.655-0.273
		c-0.263-0.05-0.633-0.097-1.11-0.14c-0.08-0.006-0.164-0.013-0.251-0.019s-0.17-0.016-0.251-0.028c-0.024,0-0.05-0.001-0.074-0.004
		s-0.05-0.005-0.074-0.005c-0.675-0.074-1.229-0.178-1.663-0.312c-0.434-0.133-0.798-0.389-1.092-0.767
		c-0.295-0.378-0.441-0.92-0.441-1.626c0-0.663,0.146-1.222,0.441-1.678c0.294-0.455,0.727-0.799,1.296-1.031
		c0.57-0.232,1.271-0.349,2.101-0.349c0.495,0,0.979,0.049,1.449,0.145s0.922,0.235,1.352,0.418c0.431,0.183,0.838,0.41,1.223,0.684
		l-1.329,1.616c-0.452-0.272-0.909-0.479-1.37-0.622c-0.462-0.143-0.909-0.214-1.343-0.214c-0.583,0-1.025,0.083-1.329,0.251
		c-0.304,0.167-0.455,0.415-0.455,0.743c0,0.211,0.083,0.372,0.251,0.483c0.167,0.111,0.376,0.188,0.627,0.228
		s0.614,0.082,1.092,0.125c0.05,0.007,0.098,0.011,0.144,0.015c0.047,0.003,0.095,0.008,0.145,0.014c0.019,0,0.04,0,0.064,0
		c0.025,0,0.05,0.003,0.075,0.009c0.712,0.068,1.304,0.171,1.774,0.307c0.471,0.137,0.87,0.408,1.198,0.813
		c0.329,0.405,0.493,0.996,0.493,1.771c0,0.681-0.155,1.256-0.465,1.724s-0.77,0.82-1.38,1.059c-0.61,0.239-1.358,0.358-2.244,0.358
		C231.523,34.784,231.235,34.784,231.235,34.784z"/>
	<path class="st1" d="M240.639,30.862c0,0.57,0.152,1.012,0.456,1.324c0.303,0.313,0.73,0.47,1.282,0.47
		c0.551,0,0.976-0.147,1.272-0.441c0.298-0.294,0.446-0.717,0.446-1.269l0.13,2.063c-0.186,0.502-0.495,0.924-0.929,1.264
		c-0.434,0.341-0.964,0.512-1.589,0.512c-1.047,0-1.857-0.338-2.431-1.013c-0.572-0.676-0.859-1.63-0.859-2.862v-5.91h2.221V30.862z
		 M244.096,24.999h2.212v9.646h-2.212V24.999z"/>
	<path class="st1" d="M251.223,31.81c0,0.235,0.06,0.417,0.177,0.544c0.118,0.127,0.285,0.19,0.502,0.19h0.66v2.128h-1.208
		c-0.744,0-1.321-0.224-1.733-0.67c-0.412-0.445-0.618-1.074-0.618-1.886V21.134h2.221V31.81z"/>
	<path class="st1" d="M253.769,24.999h4.534v1.942h-4.534V24.999z M255.33,34.045c-0.378-0.431-0.567-1.066-0.567-1.909v-9.942
		h2.221v9.636c0,0.235,0.047,0.417,0.14,0.544s0.229,0.19,0.409,0.19h0.771v2.128h-1.188
		C256.302,34.691,255.707,34.475,255.33,34.045z"/>
	<path class="st1" d="M263.404,34.784c0,0-0.26-0.055-0.78-0.163s-1.009-0.268-1.464-0.479c-0.455-0.21-0.865-0.468-1.231-0.771
		l1.348-1.672c0.489,0.347,0.99,0.61,1.501,0.789c0.511,0.181,1.008,0.27,1.491,0.27c0.675,0,1.188-0.091,1.538-0.273
		c0.35-0.183,0.524-0.448,0.524-0.795c0-0.267-0.086-0.466-0.26-0.6c-0.174-0.133-0.392-0.224-0.655-0.273
		c-0.263-0.05-0.633-0.097-1.11-0.14c-0.08-0.006-0.164-0.013-0.251-0.019s-0.17-0.016-0.251-0.028c-0.024,0-0.05-0.001-0.074-0.004
		s-0.05-0.005-0.074-0.005c-0.675-0.074-1.229-0.178-1.663-0.312c-0.434-0.133-0.798-0.389-1.092-0.767
		c-0.295-0.378-0.441-0.92-0.441-1.626c0-0.663,0.146-1.222,0.441-1.678c0.294-0.455,0.727-0.799,1.296-1.031
		c0.57-0.232,1.271-0.349,2.101-0.349c0.495,0,0.979,0.049,1.449,0.145s0.922,0.235,1.352,0.418c0.431,0.183,0.838,0.41,1.223,0.684
		l-1.329,1.616c-0.452-0.272-0.909-0.479-1.37-0.622c-0.462-0.143-0.909-0.214-1.343-0.214c-0.583,0-1.025,0.083-1.329,0.251
		c-0.304,0.167-0.455,0.415-0.455,0.743c0,0.211,0.083,0.372,0.251,0.483c0.167,0.111,0.376,0.188,0.627,0.228
		s0.614,0.082,1.092,0.125c0.05,0.007,0.098,0.011,0.144,0.015c0.047,0.003,0.095,0.008,0.145,0.014c0.019,0,0.04,0,0.064,0
		c0.025,0,0.05,0.003,0.075,0.009c0.712,0.068,1.304,0.171,1.774,0.307c0.471,0.137,0.87,0.408,1.198,0.813
		c0.329,0.405,0.493,0.996,0.493,1.771c0,0.681-0.155,1.256-0.465,1.724s-0.77,0.82-1.38,1.059c-0.61,0.239-1.358,0.358-2.244,0.358
		C263.692,34.784,263.404,34.784,263.404,34.784z"/>
	<path class="st1" d="M277.018,28.744v2.118h-6.431v-2.118H277.018z"/>
	<path class="st1" d="M279.415,32.675l4.674-6.188c0.241-0.316,0.429-0.643,0.563-0.98c0.133-0.338,0.199-0.652,0.199-0.943v-0.019
		c0-0.452-0.138-0.802-0.413-1.05c-0.276-0.248-0.668-0.372-1.176-0.372c-0.489,0-0.884,0.15-1.185,0.451
		c-0.301,0.3-0.481,0.726-0.544,1.277v0.009h-2.285V24.85c0.086-0.812,0.303-1.505,0.65-2.081c0.347-0.576,0.805-1.017,1.375-1.32
		c0.569-0.303,1.227-0.455,1.97-0.455c0.824,0,1.527,0.138,2.109,0.414c0.582,0.275,1.026,0.677,1.333,1.203s0.46,1.161,0.46,1.904
		v0.01c0,0.545-0.104,1.098-0.311,1.658c-0.208,0.562-0.494,1.086-0.859,1.575l-3.624,4.758h4.869v2.128h-7.806V32.675z"/>
	<path class="st1" d="M290.46,33.771c-0.673-0.676-1.009-1.617-1.009-2.825v-6.143c0-1.214,0.338-2.157,1.013-2.829
		c0.676-0.672,1.654-1.008,2.937-1.008c1.288,0,2.269,0.334,2.941,1.003c0.672,0.669,1.008,1.614,1.008,2.834v6.143
		c0,1.214-0.338,2.157-1.013,2.829c-0.676,0.673-1.654,1.009-2.937,1.009C292.112,34.784,291.132,34.446,290.46,33.771z
		 M294.711,32.131c0.278-0.35,0.418-0.854,0.418-1.51v-5.492c0-0.656-0.14-1.159-0.418-1.51c-0.279-0.35-0.716-0.524-1.311-0.524
		s-1.031,0.175-1.311,0.524c-0.278,0.351-0.418,0.854-0.418,1.51v5.492c0,0.656,0.14,1.16,0.418,1.51
		c0.279,0.351,0.716,0.525,1.311,0.525S294.432,32.481,294.711,32.131z"/>
	<path class="st1" d="M303.398,34.644h-2.221V23.661l-1.784,0.901V22.23l1.97-1.097h2.035V34.644z"/>
	<path class="st1" d="M308.129,34.319c-0.632-0.31-1.122-0.748-1.469-1.314c-0.347-0.567-0.521-1.226-0.521-1.975v-0.224
		c0-0.675,0.179-1.31,0.535-1.904c0.355-0.595,0.828-1.044,1.417-1.348c-0.502-0.261-0.906-0.635-1.213-1.124
		s-0.46-1.007-0.46-1.552v-0.335c0-0.706,0.162-1.327,0.487-1.863c0.325-0.535,0.782-0.951,1.371-1.245
		c0.588-0.294,1.272-0.441,2.054-0.441c0.78,0,1.465,0.147,2.054,0.441c0.588,0.294,1.045,0.71,1.37,1.245
		c0.325,0.536,0.488,1.157,0.488,1.863v0.335c0,0.557-0.157,1.079-0.47,1.565s-0.724,0.856-1.231,1.11
		c0.595,0.31,1.073,0.761,1.436,1.352c0.363,0.592,0.544,1.226,0.544,1.9v0.224c0,0.749-0.174,1.407-0.521,1.975
		c-0.347,0.566-0.836,1.005-1.468,1.314s-1.366,0.465-2.202,0.465C309.494,34.784,308.761,34.629,308.129,34.319z M311.367,32.414
		c0.3-0.154,0.532-0.374,0.696-0.659s0.247-0.61,0.247-0.976v-0.131c0-0.358-0.083-0.675-0.247-0.947s-0.395-0.484-0.692-0.637
		c-0.297-0.151-0.644-0.228-1.04-0.228s-0.743,0.076-1.041,0.228c-0.297,0.152-0.528,0.365-0.692,0.642
		c-0.164,0.275-0.246,0.593-0.246,0.952v0.14c0,0.365,0.082,0.688,0.246,0.971s0.396,0.499,0.697,0.65
		c0.3,0.152,0.646,0.228,1.036,0.228C310.721,32.646,311.066,32.569,311.367,32.414z M311.218,26.481
		c0.258-0.146,0.456-0.354,0.595-0.623c0.14-0.27,0.21-0.58,0.21-0.934v-0.13c0-0.328-0.07-0.619-0.21-0.874
		c-0.139-0.254-0.337-0.448-0.595-0.585c-0.257-0.136-0.553-0.204-0.887-0.204c-0.335,0-0.631,0.068-0.888,0.204
		c-0.257,0.137-0.455,0.331-0.595,0.585c-0.14,0.255-0.209,0.549-0.209,0.883v0.14c0,0.347,0.069,0.653,0.209,0.92
		s0.338,0.473,0.595,0.618s0.553,0.218,0.888,0.218C310.665,26.699,310.961,26.627,311.218,26.481z"/>
	<path class="st1" d="M79.647,43.971h1.616l5.074,13.511h-2.389l-3.493-10.063l-3.494,10.063h-2.389L79.647,43.971z M76.962,52.789
		h7.108v2.128h-7.108V52.789z"/>
	<path class="st1" d="M88.01,47.836h2.221v9.646H88.01V47.836z M93.725,51.637c0-0.576-0.155-1.022-0.465-1.338
		c-0.31-0.316-0.749-0.475-1.319-0.475c-0.545,0-0.966,0.147-1.264,0.441c-0.297,0.295-0.446,0.711-0.446,1.25l-0.194-1.998
		c0.291-0.595,0.658-1.046,1.101-1.356c0.443-0.31,0.965-0.465,1.565-0.465c1.028,0,1.826,0.343,2.394,1.027
		c0.566,0.685,0.85,1.652,0.85,2.903v5.854h-2.221V51.637z"/>
	<path class="st1" d="M98.641,47.836h2.221v9.646h-2.221V47.836z M104.355,51.637c0-0.576-0.155-1.022-0.465-1.338
		c-0.31-0.316-0.749-0.475-1.319-0.475c-0.545,0-0.966,0.147-1.264,0.441c-0.297,0.295-0.446,0.711-0.446,1.25l-0.194-1.998
		c0.291-0.595,0.658-1.046,1.101-1.356c0.443-0.31,0.965-0.465,1.565-0.465c1.028,0,1.826,0.343,2.394,1.027
		c0.566,0.685,0.85,1.652,0.85,2.903v5.854h-2.221V51.637z"/>
	<path class="st1" d="M110.864,57.128c-0.61-0.328-1.075-0.807-1.394-1.436c-0.319-0.628-0.479-1.386-0.479-2.271v-1.57
		c0-0.874,0.159-1.622,0.479-2.244c0.318-0.623,0.783-1.097,1.394-1.422s1.343-0.488,2.197-0.488c0.855,0,1.588,0.163,2.198,0.488
		s1.074,0.799,1.394,1.422c0.319,0.622,0.479,1.37,0.479,2.244v1.598c0,0.88-0.159,1.631-0.479,2.254
		c-0.319,0.622-0.783,1.098-1.394,1.426c-0.61,0.329-1.343,0.493-2.198,0.493C112.207,57.621,111.475,57.457,110.864,57.128z
		 M114.428,54.959c0.322-0.356,0.483-0.86,0.483-1.511V51.85c0-0.645-0.161-1.144-0.483-1.496c-0.322-0.354-0.777-0.53-1.366-0.53
		c-0.588,0-1.043,0.177-1.365,0.53c-0.322,0.353-0.483,0.852-0.483,1.496v1.598c0,0.65,0.159,1.154,0.479,1.511
		c0.319,0.355,0.776,0.534,1.37,0.534C113.65,55.493,114.105,55.314,114.428,54.959z"/>
	<path class="st1" d="M121.629,53.699c0,0.57,0.152,1.012,0.456,1.324c0.303,0.313,0.73,0.47,1.282,0.47
		c0.551,0,0.976-0.147,1.272-0.441c0.298-0.294,0.446-0.717,0.446-1.269l0.13,2.063c-0.186,0.502-0.495,0.924-0.929,1.264
		c-0.434,0.341-0.964,0.512-1.589,0.512c-1.047,0-1.857-0.338-2.431-1.013c-0.572-0.676-0.859-1.63-0.859-2.862v-5.91h2.221V53.699z
		 M125.086,47.836h2.212v9.646h-2.212V47.836z"/>
	<path class="st1" d="M129.992,47.836h2.221v9.646h-2.221V47.836z M135.707,51.637c0-0.576-0.155-1.022-0.465-1.338
		c-0.31-0.316-0.749-0.475-1.319-0.475c-0.545,0-0.966,0.147-1.264,0.441c-0.297,0.295-0.446,0.711-0.446,1.25l-0.194-1.998
		c0.291-0.595,0.658-1.046,1.101-1.356c0.443-0.31,0.965-0.465,1.565-0.465c1.028,0,1.826,0.343,2.394,1.027
		c0.566,0.685,0.85,1.652,0.85,2.903v5.854h-2.221V51.637z"/>
	<path class="st1" d="M143.262,57.621c0,0-0.319-0.169-0.957-0.507c-0.639-0.338-1.125-0.83-1.459-1.478
		c-0.335-0.647-0.502-1.429-0.502-2.346V51.98c0-0.904,0.167-1.677,0.502-2.318c0.334-0.642,0.82-1.129,1.459-1.464
		c0.638-0.334,1.405-0.502,2.304-0.502c0.515,0,0.999,0.061,1.454,0.182c0.456,0.121,0.864,0.296,1.227,0.525
		c0.363,0.229,0.665,0.508,0.906,0.836l-1.505,1.412c-0.254-0.266-0.552-0.471-0.893-0.613s-0.696-0.214-1.068-0.214
		c-0.688,0-1.221,0.188-1.599,0.563s-0.566,0.906-0.566,1.594v1.311c0,0.706,0.188,1.249,0.563,1.631
		c0.374,0.381,0.908,0.571,1.603,0.571c0.378,0,0.737-0.077,1.078-0.232s0.635-0.375,0.883-0.66l1.505,1.506
		c-0.248,0.322-0.553,0.596-0.915,0.822c-0.362,0.226-0.771,0.398-1.227,0.516s-0.938,0.177-1.445,0.177
		C143.71,57.621,143.262,57.621,143.262,57.621z"/>
	<path class="st1" d="M152.777,57.621c0,0-0.322-0.168-0.967-0.502c-0.645-0.335-1.137-0.825-1.478-1.473s-0.511-1.43-0.511-2.347
		v-1.087c0-0.954,0.162-1.769,0.487-2.444c0.325-0.675,0.8-1.189,1.422-1.542c0.623-0.354,1.371-0.53,2.244-0.53
		c0.824,0,1.528,0.206,2.114,0.618c0.585,0.412,1.031,1.009,1.338,1.789s0.46,1.723,0.46,2.825v0.632h-6.551v-1.627h4.488
		l-0.01-0.102c-0.062-0.676-0.251-1.199-0.566-1.57c-0.316-0.372-0.74-0.558-1.273-0.558c-0.669,0-1.187,0.209-1.552,0.627
		s-0.548,1.012-0.548,1.779v1.227c0,0.731,0.198,1.293,0.595,1.687s0.953,0.59,1.672,0.59c0.366,0,0.727-0.069,1.083-0.209
		c0.356-0.139,0.677-0.333,0.962-0.58l1.449,1.356c-0.489,0.458-1.039,0.813-1.649,1.063s-1.225,0.377-1.845,0.377
		C153.232,57.621,152.777,57.621,152.777,57.621z"/>
	<path class="st1" d="M161.534,57.161c-0.492-0.319-0.867-0.781-1.124-1.385c-0.258-0.604-0.386-1.333-0.386-2.188v-1.84
		c0-0.854,0.127-1.587,0.381-2.197s0.624-1.075,1.11-1.395c0.486-0.318,1.07-0.479,1.752-0.479c0.545,0,1.042,0.152,1.491,0.456
		s0.81,0.73,1.082,1.282l-0.194,2.054c0-0.372-0.065-0.688-0.195-0.948c-0.131-0.26-0.319-0.458-0.567-0.595
		c-0.248-0.136-0.548-0.204-0.901-0.204c-0.551,0-0.979,0.18-1.282,0.539s-0.455,0.86-0.455,1.505v1.821
		c0,0.639,0.151,1.132,0.455,1.482c0.304,0.35,0.731,0.524,1.282,0.524c0.354,0,0.653-0.069,0.901-0.209
		c0.248-0.139,0.437-0.339,0.567-0.599c0.13-0.261,0.195-0.573,0.195-0.938l0.13,2.118c-0.192,0.502-0.501,0.906-0.925,1.213
		c-0.425,0.307-0.938,0.46-1.538,0.46C162.62,57.64,162.026,57.48,161.534,57.161z M165.646,43.971h2.221v13.511h-2.221V43.971z"/>
	<path class="st1" d="M175.408,57.128c-0.61-0.328-1.075-0.807-1.394-1.436c-0.319-0.628-0.479-1.386-0.479-2.271v-1.57
		c0-0.874,0.159-1.622,0.479-2.244c0.318-0.623,0.783-1.097,1.394-1.422s1.343-0.488,2.197-0.488c0.855,0,1.588,0.163,2.198,0.488
		s1.074,0.799,1.394,1.422c0.319,0.622,0.479,1.37,0.479,2.244v1.598c0,0.88-0.159,1.631-0.479,2.254
		c-0.319,0.622-0.783,1.098-1.394,1.426c-0.61,0.329-1.343,0.493-2.198,0.493C176.751,57.621,176.019,57.457,175.408,57.128z
		 M178.972,54.959c0.322-0.356,0.483-0.86,0.483-1.511V51.85c0-0.645-0.161-1.144-0.483-1.496c-0.322-0.354-0.777-0.53-1.366-0.53
		c-0.588,0-1.043,0.177-1.365,0.53c-0.322,0.353-0.483,0.852-0.483,1.496v1.598c0,0.65,0.159,1.154,0.479,1.511
		c0.319,0.355,0.776,0.534,1.37,0.534C178.194,55.493,178.649,55.314,178.972,54.959z"/>
	<path class="st1" d="M184.185,47.836h2.221v9.646h-2.221V47.836z M189.899,51.637c0-0.576-0.155-1.022-0.465-1.338
		c-0.31-0.316-0.749-0.475-1.319-0.475c-0.545,0-0.966,0.147-1.264,0.441c-0.297,0.295-0.446,0.711-0.446,1.25l-0.194-1.998
		c0.291-0.595,0.658-1.046,1.101-1.356c0.443-0.31,0.965-0.465,1.565-0.465c1.028,0,1.826,0.343,2.394,1.027
		c0.566,0.685,0.85,1.652,0.85,2.903v5.854h-2.221V51.637z"/>
	<path class="st1" d="M197.788,53.421l4.349-9.441h2.416l-4.237,9.33h6.347v2.1h-8.874V53.421z M203.429,49.536h2.192v7.955h-2.192
		V49.536z"/>
	<path class="st1" d="M208.148,47.836h4.534v1.942h-4.534V47.836z M209.71,56.882c-0.378-0.431-0.567-1.066-0.567-1.909V45.03h2.221
		v9.636c0,0.235,0.047,0.417,0.14,0.544s0.229,0.19,0.409,0.19h0.771v2.128h-1.188C210.682,57.528,210.087,57.312,209.71,56.882z"/>
	<path class="st1" d="M215.1,43.971h2.221v13.511H215.1V43.971z M220.814,51.637c0-0.576-0.155-1.022-0.465-1.338
		c-0.31-0.316-0.749-0.475-1.319-0.475c-0.545,0-0.966,0.146-1.264,0.438c-0.297,0.291-0.446,0.703-0.446,1.235l-0.194-1.998
		c0.291-0.582,0.658-1.027,1.101-1.338c0.443-0.31,0.965-0.465,1.565-0.465c1.028,0,1.826,0.343,2.394,1.027
		c0.566,0.685,0.85,1.652,0.85,2.903v5.854h-2.221V51.637z"/>
	<path class="st1" d="M229.265,57.161c-0.622-0.307-1.119-0.739-1.491-1.297l1.813-1.31c0.198,0.291,0.458,0.517,0.78,0.678
		s0.675,0.242,1.06,0.242c0.619,0,1.097-0.2,1.431-0.6c0.335-0.399,0.502-0.965,0.502-1.696v-9.208h2.268v9.218
		c0,0.936-0.168,1.734-0.502,2.397c-0.335,0.663-0.821,1.168-1.459,1.515s-1.406,0.521-2.305,0.521
		C230.586,57.621,229.888,57.468,229.265,57.161z"/>
	<path class="st1" d="M240.82,53.699c0,0.57,0.152,1.012,0.456,1.324c0.303,0.313,0.73,0.47,1.282,0.47
		c0.551,0,0.976-0.147,1.272-0.441c0.298-0.294,0.446-0.717,0.446-1.269l0.13,2.063c-0.186,0.502-0.495,0.924-0.929,1.264
		c-0.434,0.341-0.964,0.512-1.589,0.512c-1.047,0-1.857-0.338-2.431-1.013c-0.572-0.676-0.859-1.63-0.859-2.862v-5.91h2.221V53.699z
		 M244.277,47.836h2.212v9.646h-2.212V47.836z"/>
	<path class="st1" d="M249.183,47.836h2.221v9.646h-2.221V47.836z M254.897,51.637c0-0.576-0.155-1.022-0.465-1.338
		c-0.31-0.316-0.749-0.475-1.319-0.475c-0.545,0-0.966,0.147-1.264,0.441c-0.297,0.295-0.446,0.711-0.446,1.25l-0.194-1.998
		c0.291-0.595,0.658-1.046,1.101-1.356c0.443-0.31,0.965-0.465,1.565-0.465c1.028,0,1.826,0.343,2.394,1.027
		c0.566,0.685,0.85,1.652,0.85,2.903v5.854h-2.221V51.637z"/>
	<path class="st1" d="M262.49,57.621c0,0-0.322-0.168-0.967-0.502c-0.645-0.335-1.137-0.825-1.478-1.473s-0.511-1.43-0.511-2.347
		v-1.087c0-0.954,0.162-1.769,0.487-2.444c0.325-0.675,0.8-1.189,1.422-1.542c0.623-0.354,1.371-0.53,2.244-0.53
		c0.824,0,1.528,0.206,2.114,0.618c0.585,0.412,1.031,1.009,1.338,1.789s0.46,1.723,0.46,2.825v0.632h-6.551v-1.627h4.488
		l-0.01-0.102c-0.062-0.676-0.251-1.199-0.566-1.57c-0.316-0.372-0.74-0.558-1.273-0.558c-0.669,0-1.187,0.209-1.552,0.627
		s-0.548,1.012-0.548,1.779v1.227c0,0.731,0.198,1.293,0.595,1.687s0.953,0.59,1.672,0.59c0.366,0,0.727-0.069,1.083-0.209
		c0.356-0.139,0.677-0.333,0.962-0.58l1.449,1.356c-0.489,0.458-1.039,0.813-1.649,1.063s-1.225,0.377-1.845,0.377
		C262.945,57.621,262.49,57.621,262.49,57.621z"/>
	<path class="st1" d="M272.972,55.512l4.674-6.188c0.241-0.316,0.429-0.643,0.563-0.98c0.133-0.338,0.199-0.652,0.199-0.943v-0.019
		c0-0.452-0.138-0.802-0.413-1.05c-0.276-0.248-0.668-0.372-1.176-0.372c-0.489,0-0.884,0.15-1.185,0.451
		c-0.301,0.3-0.481,0.726-0.544,1.277v0.009h-2.285v-0.009c0.086-0.812,0.303-1.505,0.65-2.081c0.347-0.576,0.805-1.017,1.375-1.32
		c0.569-0.303,1.227-0.455,1.97-0.455c0.824,0,1.527,0.138,2.109,0.414c0.582,0.275,1.026,0.677,1.333,1.203s0.46,1.161,0.46,1.904
		v0.01c0,0.545-0.104,1.098-0.311,1.658c-0.208,0.562-0.494,1.086-0.859,1.575l-3.624,4.758h4.869v2.128h-7.806V55.512z"/>
	<path class="st1" d="M284.016,56.608c-0.673-0.676-1.009-1.617-1.009-2.825v-6.143c0-1.214,0.338-2.157,1.013-2.829
		c0.676-0.672,1.654-1.008,2.937-1.008c1.288,0,2.269,0.334,2.941,1.003c0.672,0.669,1.008,1.614,1.008,2.834v6.143
		c0,1.214-0.338,2.157-1.013,2.829c-0.676,0.673-1.654,1.009-2.937,1.009C285.668,57.621,284.687,57.283,284.016,56.608z
		 M288.267,54.968c0.278-0.35,0.418-0.854,0.418-1.51v-5.492c0-0.656-0.14-1.159-0.418-1.51c-0.279-0.35-0.716-0.524-1.311-0.524
		s-1.031,0.175-1.311,0.524c-0.278,0.351-0.418,0.854-0.418,1.51v5.492c0,0.656,0.14,1.16,0.418,1.51
		c0.279,0.351,0.716,0.525,1.311,0.525S287.987,55.318,288.267,54.968z"/>
	<path class="st1" d="M296.954,57.481h-2.221V46.498l-1.784,0.901v-2.332l1.97-1.097h2.035V57.481z"/>
	<path class="st1" d="M301.685,57.156c-0.632-0.31-1.122-0.748-1.469-1.314c-0.347-0.567-0.521-1.226-0.521-1.975v-0.224
		c0-0.675,0.179-1.31,0.535-1.904c0.355-0.595,0.828-1.044,1.417-1.348c-0.502-0.261-0.906-0.635-1.213-1.124
		s-0.46-1.007-0.46-1.552v-0.335c0-0.706,0.162-1.327,0.487-1.863c0.325-0.535,0.782-0.951,1.371-1.245
		c0.588-0.294,1.272-0.441,2.054-0.441c0.78,0,1.465,0.147,2.054,0.441c0.588,0.294,1.045,0.71,1.37,1.245
		c0.325,0.536,0.488,1.157,0.488,1.863v0.335c0,0.557-0.157,1.079-0.47,1.565s-0.724,0.856-1.231,1.11
		c0.595,0.31,1.073,0.761,1.436,1.352c0.363,0.592,0.544,1.226,0.544,1.9v0.224c0,0.749-0.174,1.407-0.521,1.975
		c-0.347,0.566-0.836,1.005-1.468,1.314s-1.366,0.465-2.202,0.465C303.05,57.621,302.316,57.466,301.685,57.156z M304.923,55.251
		c0.3-0.154,0.532-0.374,0.696-0.659s0.247-0.61,0.247-0.976v-0.131c0-0.358-0.083-0.675-0.247-0.947s-0.395-0.484-0.692-0.637
		c-0.297-0.151-0.644-0.228-1.04-0.228s-0.743,0.076-1.041,0.228c-0.297,0.152-0.528,0.365-0.692,0.642
		c-0.164,0.275-0.246,0.593-0.246,0.952v0.14c0,0.365,0.082,0.688,0.246,0.971s0.396,0.499,0.697,0.65
		c0.3,0.152,0.646,0.228,1.036,0.228C304.276,55.483,304.622,55.406,304.923,55.251z M304.773,49.318
		c0.258-0.146,0.456-0.354,0.595-0.623c0.14-0.27,0.21-0.58,0.21-0.934v-0.13c0-0.328-0.07-0.619-0.21-0.874
		c-0.139-0.254-0.337-0.448-0.595-0.585c-0.257-0.136-0.553-0.204-0.887-0.204c-0.335,0-0.631,0.068-0.888,0.204
		c-0.257,0.137-0.455,0.331-0.595,0.585c-0.14,0.255-0.209,0.549-0.209,0.883v0.14c0,0.347,0.069,0.653,0.209,0.92
		s0.338,0.473,0.595,0.618s0.553,0.218,0.888,0.218C304.221,49.536,304.517,49.464,304.773,49.318z"/>
</g>
</svg>