<!-- Generator: Adobe Illustrator 22.1.0, SVG Export Plug-In  -->
<svg version="1.1"
	 xmlns="http://www.w3.org/2000/svg" xmlns:xlink="http://www.w3.org/1999/xlink" xmlns:a="http://ns.adobe.com/AdobeSVGViewerExtensions/3.0/"
	 x="0px" y="0px" width="219px" height="55px" viewBox="0 0 219 55" style="enable-background:new 0 0 219 55;"
	 xml:space="preserve">
<style type="text/css">
	.st0{fill:#1B1464;}
	.st1{fill:#FFFFFF;}
</style>
<defs>
</defs>
<rect class="st0" width="219" height="55"/>
<g>
	<path class="st1" d="M37.046,32.095c0,0-0.247-0.139-0.739-0.416c-0.493-0.277-0.872-0.674-1.137-1.19
		c-0.264-0.516-0.396-1.128-0.396-1.834v-2.533c0-0.707,0.133-1.318,0.396-1.834c0.265-0.516,0.644-0.914,1.137-1.193
		c0.492-0.279,1.074-0.419,1.742-0.419c0.555,0,1.057,0.119,1.508,0.355c0.45,0.237,0.825,0.579,1.123,1.025
		c0.299,0.447,0.503,0.975,0.613,1.584H39.73c-0.076-0.296-0.196-0.556-0.361-0.777c-0.165-0.223-0.361-0.393-0.587-0.511
		c-0.227-0.119-0.472-0.178-0.733-0.178c-0.352,0-0.654,0.08-0.911,0.238c-0.256,0.159-0.454,0.384-0.593,0.676
		c-0.141,0.292-0.21,0.637-0.21,1.035v2.533c0,0.398,0.069,0.743,0.21,1.035c0.139,0.292,0.337,0.516,0.593,0.673
		c0.257,0.157,0.56,0.235,0.911,0.235c0.267,0,0.514-0.057,0.739-0.171c0.227-0.114,0.423-0.281,0.587-0.501
		c0.166-0.22,0.284-0.484,0.355-0.793h1.563c-0.115,0.609-0.321,1.137-0.619,1.584c-0.299,0.446-0.673,0.788-1.124,1.025
		c-0.45,0.237-0.95,0.355-1.501,0.355C37.381,32.095,37.046,32.095,37.046,32.095z"/>
	<path class="st1" d="M45.178,32.095c0,0-0.205-0.043-0.613-0.13c-0.408-0.086-0.791-0.214-1.148-0.384s-0.685-0.379-0.98-0.628
		l0.806-1.212c0.355,0.3,0.755,0.528,1.196,0.683c0.442,0.154,0.911,0.231,1.406,0.231c0.617,0,1.098-0.11,1.438-0.33
		c0.341-0.22,0.512-0.531,0.512-0.933v-0.006c0-0.284-0.076-0.509-0.229-0.676c-0.152-0.167-0.352-0.29-0.598-0.368
		c-0.245-0.079-0.561-0.151-0.945-0.219c-0.013-0.004-0.025-0.006-0.038-0.006s-0.025-0.002-0.038-0.006l-0.114-0.019
		c-0.618-0.102-1.126-0.222-1.523-0.362s-0.736-0.389-1.016-0.749s-0.419-0.87-0.419-1.53v-0.006c0-0.584,0.131-1.083,0.394-1.498
		s0.644-0.73,1.143-0.946s1.101-0.324,1.803-0.324c0.33,0,0.661,0.037,0.993,0.111c0.332,0.074,0.658,0.182,0.979,0.324
		c0.318,0.142,0.629,0.318,0.93,0.53l-0.736,1.25c-0.355-0.254-0.718-0.446-1.086-0.578s-0.729-0.197-1.079-0.197
		c-0.584,0-1.036,0.107-1.354,0.32c-0.32,0.214-0.48,0.516-0.48,0.905v0.006c0,0.292,0.083,0.522,0.248,0.692
		s0.371,0.293,0.619,0.372c0.248,0.078,0.594,0.162,1.037,0.25c0.018,0.004,0.033,0.007,0.049,0.009
		c0.014,0.002,0.029,0.005,0.047,0.01c0.021,0.004,0.045,0.008,0.07,0.013s0.049,0.008,0.069,0.013
		c0.571,0.114,1.048,0.252,1.431,0.413c0.384,0.161,0.704,0.419,0.963,0.774c0.258,0.355,0.387,0.84,0.387,1.454v0.013
		c0,0.576-0.135,1.068-0.406,1.479s-0.664,0.723-1.181,0.936c-0.517,0.214-1.138,0.321-1.866,0.321
		C45.399,32.095,45.178,32.095,45.178,32.095z"/>
	<path class="st1" d="M51.011,22.771h1.511V32h-1.511V22.771z M51.772,30.565h2.724c0.528,0,0.922-0.111,1.18-0.333
		c0.259-0.223,0.388-0.532,0.388-0.93v-0.019c0-0.275-0.051-0.51-0.152-0.705s-0.259-0.344-0.47-0.448
		c-0.211-0.104-0.475-0.155-0.787-0.155h-2.882v-1.422h2.882c0.419,0,0.738-0.102,0.959-0.305c0.22-0.203,0.33-0.497,0.33-0.882
		c0-0.381-0.117-0.669-0.35-0.867c-0.232-0.196-0.576-0.295-1.028-0.295h-2.793v-1.435h2.938c0.598,0,1.102,0.101,1.515,0.302
		c0.412,0.201,0.724,0.487,0.933,0.86c0.21,0.373,0.314,0.819,0.314,1.339c0,0.338-0.066,0.646-0.2,0.924
		c-0.133,0.277-0.33,0.509-0.59,0.695c-0.261,0.186-0.579,0.313-0.956,0.381c0.39,0.055,0.725,0.183,1.004,0.384
		c0.279,0.201,0.492,0.457,0.641,0.768c0.148,0.312,0.223,0.659,0.223,1.044v0.019c0,0.512-0.111,0.958-0.334,1.336
		c-0.222,0.379-0.541,0.67-0.958,0.873S55.391,32,54.819,32h-3.047V30.565z"/>
	<path class="st1" d="M59.402,22.771h1.518V32h-1.518V22.771z M60.031,22.771h5.427v1.454h-5.427V22.771z M60.031,26.693h4.729
		v1.447h-4.729V26.693z M60.031,30.546h5.427V32h-5.427V30.546z"/>
	<path class="st1" d="M71.476,32.095c0,0-0.247-0.139-0.739-0.416c-0.493-0.277-0.872-0.674-1.137-1.19
		c-0.264-0.516-0.396-1.128-0.396-1.834v-2.533c0-0.707,0.133-1.318,0.396-1.834c0.265-0.516,0.644-0.914,1.137-1.193
		c0.492-0.279,1.074-0.419,1.742-0.419c0.555,0,1.057,0.119,1.508,0.355c0.45,0.237,0.825,0.579,1.123,1.025
		c0.299,0.447,0.503,0.975,0.613,1.584H74.16c-0.076-0.296-0.196-0.556-0.361-0.777c-0.165-0.223-0.361-0.393-0.587-0.511
		c-0.227-0.119-0.472-0.178-0.733-0.178c-0.352,0-0.654,0.08-0.911,0.238c-0.256,0.159-0.454,0.384-0.593,0.676
		c-0.141,0.292-0.21,0.637-0.21,1.035v2.533c0,0.398,0.069,0.743,0.21,1.035c0.139,0.292,0.337,0.516,0.593,0.673
		c0.257,0.157,0.56,0.235,0.911,0.235c0.267,0,0.514-0.057,0.739-0.171c0.227-0.114,0.423-0.281,0.587-0.501
		c0.166-0.22,0.284-0.484,0.355-0.793h1.563c-0.115,0.609-0.321,1.137-0.619,1.584c-0.299,0.446-0.673,0.788-1.124,1.025
		c-0.45,0.237-0.95,0.355-1.501,0.355C71.811,32.095,71.476,32.095,71.476,32.095z"/>
	<path class="st1" d="M78.826,30.064c0,0.161,0.04,0.285,0.121,0.372c0.08,0.086,0.194,0.13,0.342,0.13h0.451v1.454h-0.825
		c-0.508,0-0.902-0.152-1.185-0.457c-0.281-0.305-0.422-0.734-0.422-1.289v-7.503h1.518V30.064z"/>
	<path class="st1" d="M81.258,31.591c-0.377-0.337-0.565-0.848-0.565-1.533c0-0.652,0.19-1.141,0.571-1.466s0.952-0.489,1.714-0.489
		h1.765l0.089,1.181h-1.847c-0.301,0-0.526,0.063-0.677,0.19c-0.149,0.127-0.226,0.322-0.226,0.584c0,0.275,0.098,0.479,0.293,0.612
		c0.194,0.134,0.488,0.2,0.882,0.2c0.482,0,0.841-0.053,1.076-0.159c0.234-0.106,0.353-0.271,0.353-0.495l0.133,0.939
		c-0.072,0.208-0.197,0.381-0.378,0.521c-0.18,0.14-0.396,0.245-0.65,0.314c-0.254,0.07-0.531,0.105-0.831,0.105
		C82.201,32.095,81.634,31.927,81.258,31.591z M84.686,27.823c0-0.368-0.109-0.654-0.327-0.857s-0.526-0.305-0.924-0.305
		c-0.254,0-0.503,0.04-0.749,0.121s-0.465,0.192-0.66,0.336l-1.01-0.851c0.259-0.3,0.598-0.534,1.016-0.702
		c0.42-0.167,0.885-0.25,1.396-0.25c0.559,0,1.037,0.096,1.436,0.289c0.397,0.193,0.701,0.472,0.91,0.838
		c0.21,0.366,0.314,0.808,0.314,1.324V32h-1.402V27.823z"/>
	<path class="st1" d="M89.764,32.095c0,0-0.178-0.037-0.533-0.111c-0.355-0.074-0.689-0.183-1-0.327
		c-0.312-0.144-0.592-0.319-0.842-0.527l0.921-1.143c0.335,0.237,0.676,0.417,1.025,0.54c0.349,0.123,0.688,0.184,1.019,0.184
		c0.461,0,0.812-0.063,1.051-0.187c0.238-0.125,0.358-0.306,0.358-0.543c0-0.182-0.06-0.318-0.178-0.409
		c-0.118-0.091-0.268-0.154-0.447-0.188c-0.181-0.034-0.433-0.065-0.759-0.095c-0.055-0.004-0.112-0.008-0.172-0.013
		c-0.059-0.004-0.115-0.011-0.171-0.019c-0.017,0-0.034-0.001-0.051-0.003c-0.017-0.002-0.034-0.003-0.051-0.003
		c-0.462-0.051-0.84-0.122-1.136-0.212c-0.297-0.091-0.545-0.266-0.746-0.524s-0.302-0.628-0.302-1.111
		c0-0.453,0.101-0.835,0.302-1.146c0.201-0.312,0.496-0.546,0.885-0.705c0.39-0.158,0.868-0.238,1.436-0.238
		c0.338,0,0.668,0.033,0.99,0.098c0.321,0.066,0.629,0.161,0.923,0.286c0.294,0.125,0.573,0.28,0.835,0.466l-0.908,1.104
		c-0.309-0.186-0.621-0.328-0.936-0.425c-0.315-0.097-0.621-0.146-0.918-0.146c-0.397,0-0.699,0.057-0.907,0.171
		s-0.312,0.284-0.312,0.508c0,0.144,0.058,0.254,0.172,0.33s0.257,0.128,0.429,0.155c0.171,0.028,0.42,0.056,0.745,0.086
		c0.034,0.004,0.067,0.007,0.099,0.01c0.032,0.002,0.065,0.005,0.099,0.009c0.013,0,0.027,0,0.045,0
		c0.017,0,0.033,0.002,0.051,0.006c0.486,0.046,0.891,0.116,1.212,0.209s0.595,0.278,0.819,0.555
		c0.224,0.277,0.336,0.681,0.336,1.209c0,0.465-0.105,0.858-0.317,1.177c-0.212,0.32-0.526,0.561-0.942,0.724
		c-0.417,0.163-0.928,0.245-1.533,0.245C89.96,32.095,89.764,32.095,89.764,32.095z"/>
	<path class="st1" d="M96.504,32.095c0,0-0.178-0.037-0.533-0.111c-0.355-0.074-0.688-0.183-0.999-0.327
		c-0.312-0.144-0.592-0.319-0.841-0.527l0.92-1.143c0.334,0.237,0.676,0.417,1.025,0.54c0.349,0.123,0.688,0.184,1.019,0.184
		c0.462,0,0.812-0.063,1.051-0.187c0.239-0.125,0.358-0.306,0.358-0.543c0-0.182-0.059-0.318-0.178-0.409
		c-0.119-0.091-0.268-0.154-0.447-0.188s-0.434-0.065-0.759-0.095c-0.056-0.004-0.112-0.008-0.171-0.013
		c-0.06-0.004-0.117-0.011-0.172-0.019c-0.018,0-0.033-0.001-0.051-0.003c-0.018-0.002-0.033-0.003-0.051-0.003
		c-0.461-0.051-0.84-0.122-1.137-0.212c-0.296-0.091-0.545-0.266-0.745-0.524c-0.201-0.258-0.302-0.628-0.302-1.111
		c0-0.453,0.101-0.835,0.302-1.146c0.2-0.312,0.496-0.546,0.886-0.705c0.389-0.158,0.867-0.238,1.434-0.238
		c0.339,0,0.669,0.033,0.99,0.098c0.322,0.066,0.63,0.161,0.924,0.286c0.295,0.125,0.572,0.28,0.835,0.466l-0.907,1.104
		c-0.31-0.186-0.621-0.328-0.937-0.425S97.397,26.7,97.102,26.7c-0.398,0-0.701,0.057-0.908,0.171s-0.311,0.284-0.311,0.508
		c0,0.144,0.057,0.254,0.171,0.33s0.257,0.128,0.429,0.155c0.171,0.028,0.42,0.056,0.746,0.086c0.033,0.004,0.066,0.007,0.098,0.01
		c0.032,0.002,0.064,0.005,0.099,0.009c0.013,0,0.027,0,0.044,0c0.018,0,0.034,0.002,0.051,0.006
		c0.487,0.046,0.891,0.116,1.213,0.209s0.595,0.278,0.818,0.555c0.225,0.277,0.337,0.681,0.337,1.209
		c0,0.465-0.106,0.858-0.317,1.177c-0.211,0.32-0.525,0.561-0.942,0.724c-0.417,0.163-0.929,0.245-1.533,0.245
		C96.701,32.095,96.504,32.095,96.504,32.095z"/>
	<path class="st1" d="M106.014,26.522l2.195-3.751h1.645l-3.053,5.104L104.389,32h-1.645L106.014,26.522z M106.032,28.083
		l-0.185-0.311l-3.027-5.002h1.645l2.145,3.631l0.229,0.375L109.993,32h-1.644L106.032,28.083z"/>
	<path class="st1" d="M113.357,22.771h1.518V32h-1.518V22.771z M113.986,22.771h5.427v1.454h-5.427V22.771z M113.986,26.693h4.729
		v1.447h-4.729V26.693z M113.986,30.546h5.427V32h-5.427V30.546z"/>
	<path class="st1" d="M122.777,28.363l0.825,1.193l-1.6,2.444h-1.638L122.777,28.363z M122.955,29.137l-2.488-3.726h1.676
		l1.739,2.806L126.421,32h-1.669L122.955,29.137z M123.311,27.747l1.333-2.336h1.676l-2.228,3.555L123.311,27.747z"/>
	<path class="st1" d="M127.97,31.591c-0.376-0.337-0.565-0.848-0.565-1.533c0-0.652,0.191-1.141,0.572-1.466
		s0.951-0.489,1.713-0.489h1.766l0.088,1.181h-1.847c-0.3,0-0.526,0.063-0.677,0.19c-0.149,0.127-0.225,0.322-0.225,0.584
		c0,0.275,0.098,0.479,0.292,0.612c0.194,0.134,0.489,0.2,0.882,0.2c0.482,0,0.842-0.053,1.076-0.159s0.353-0.271,0.353-0.495
		l0.134,0.939c-0.072,0.208-0.198,0.381-0.379,0.521c-0.18,0.14-0.396,0.245-0.65,0.314c-0.254,0.07-0.531,0.105-0.831,0.105
		C128.914,32.095,128.346,31.927,127.97,31.591z M131.397,27.823c0-0.368-0.108-0.654-0.327-0.857
		c-0.218-0.203-0.525-0.305-0.924-0.305c-0.254,0-0.503,0.04-0.748,0.121c-0.246,0.081-0.466,0.192-0.66,0.336l-1.01-0.851
		c0.258-0.3,0.597-0.534,1.016-0.702c0.419-0.167,0.885-0.25,1.396-0.25c0.559,0,1.037,0.096,1.435,0.289
		c0.397,0.193,0.702,0.472,0.911,0.838c0.209,0.366,0.314,0.808,0.314,1.324V32h-1.403V27.823z"/>
	<path class="st1" d="M134.641,25.411h1.518V32h-1.518V25.411z M138.532,28.103c0-0.427-0.104-0.756-0.313-0.987
		c-0.211-0.23-0.508-0.346-0.893-0.346c-0.373,0-0.66,0.101-0.863,0.302c-0.203,0.201-0.305,0.485-0.305,0.854l-0.133-1.365
		c0.198-0.402,0.452-0.71,0.762-0.923c0.309-0.214,0.662-0.321,1.06-0.321c0.462,0,0.856,0.108,1.187,0.324s0.582,0.532,0.752,0.949
		c0.172,0.417,0.258,0.919,0.258,1.507V32h-1.511V28.103z M142.417,28.103c0-0.427-0.106-0.756-0.317-0.987
		c-0.211-0.23-0.512-0.346-0.901-0.346c-0.368,0-0.653,0.111-0.854,0.333c-0.2,0.223-0.301,0.539-0.301,0.949l-0.292-1.396
		c0.208-0.427,0.479-0.757,0.815-0.99s0.71-0.349,1.121-0.349c0.474,0,0.879,0.108,1.215,0.324s0.593,0.532,0.768,0.949
		c0.176,0.417,0.264,0.919,0.264,1.507V32h-1.517V28.103z"/>
	<path class="st1" d="M145.73,22.771h1.511v1.517h-1.511V22.771z M145.73,25.411h1.511V32h-1.511V25.411z"/>
	<path class="st1" d="M149.285,31.591c-0.377-0.337-0.564-0.848-0.564-1.533c0-0.652,0.189-1.141,0.57-1.466
		s0.953-0.489,1.715-0.489h1.764l0.09,1.181h-1.848c-0.301,0-0.525,0.063-0.676,0.19s-0.226,0.322-0.226,0.584
		c0,0.275,0.097,0.479,0.292,0.612c0.195,0.134,0.488,0.2,0.883,0.2c0.482,0,0.84-0.053,1.076-0.159
		c0.234-0.106,0.352-0.271,0.352-0.495l0.133,0.939c-0.071,0.208-0.197,0.381-0.377,0.521s-0.396,0.245-0.65,0.314
		c-0.254,0.07-0.531,0.105-0.832,0.105C150.229,32.095,149.662,31.927,149.285,31.591z M152.713,27.823
		c0-0.368-0.109-0.654-0.326-0.857c-0.219-0.203-0.526-0.305-0.924-0.305c-0.254,0-0.504,0.04-0.75,0.121
		c-0.245,0.081-0.465,0.192-0.66,0.336l-1.009-0.851c0.259-0.3,0.597-0.534,1.016-0.702c0.419-0.167,0.884-0.25,1.396-0.25
		c0.559,0,1.036,0.096,1.435,0.289c0.398,0.193,0.701,0.472,0.91,0.838c0.211,0.366,0.314,0.808,0.314,1.324V32h-1.402V27.823z"/>
	<path class="st1" d="M155.957,25.411h1.517V32h-1.517V25.411z M159.86,28.007c0-0.394-0.106-0.698-0.317-0.914
		s-0.512-0.324-0.901-0.324c-0.372,0-0.66,0.101-0.863,0.302c-0.203,0.201-0.305,0.485-0.305,0.854l-0.134-1.365
		c0.199-0.406,0.45-0.715,0.752-0.927c0.303-0.211,0.66-0.317,1.07-0.317c0.703,0,1.248,0.234,1.635,0.702
		c0.387,0.467,0.58,1.128,0.58,1.983V32h-1.517V28.007z"/>
	<path class="st1" d="M162.711,25.411h3.098v1.327h-3.098V25.411z M163.777,31.591c-0.259-0.294-0.388-0.729-0.388-1.305v-6.792
		h1.517v6.583c0,0.161,0.032,0.285,0.096,0.372c0.063,0.086,0.156,0.13,0.279,0.13h0.527v1.454h-0.813
		C164.441,32.032,164.035,31.885,163.777,31.591z"/>
	<path class="st1" d="M167.414,22.771h1.511v1.517h-1.511V22.771z M167.414,25.411h1.511V32h-1.511V25.411z"/>
	<path class="st1" d="M171.811,31.759c-0.418-0.224-0.734-0.551-0.953-0.98c-0.218-0.43-0.326-0.947-0.326-1.552v-1.073
		c0-0.597,0.108-1.107,0.326-1.533c0.219-0.425,0.535-0.749,0.953-0.971c0.416-0.223,0.916-0.333,1.5-0.333s1.085,0.111,1.502,0.333
		c0.416,0.222,0.734,0.546,0.951,0.971c0.219,0.426,0.328,0.937,0.328,1.533v1.092c0,0.601-0.109,1.114-0.328,1.539
		c-0.217,0.426-0.535,0.75-0.951,0.975c-0.417,0.224-0.918,0.336-1.502,0.336S172.227,31.983,171.811,31.759z M174.244,30.276
		c0.221-0.243,0.33-0.587,0.33-1.031v-1.092c0-0.44-0.109-0.781-0.33-1.022s-0.531-0.362-0.934-0.362
		c-0.401,0-0.713,0.121-0.933,0.362s-0.33,0.582-0.33,1.022v1.092c0,0.444,0.108,0.788,0.327,1.031
		c0.218,0.244,0.529,0.365,0.936,0.365C173.713,30.642,174.023,30.52,174.244,30.276z"/>
	<path class="st1" d="M177.805,25.411h1.518V32h-1.518V25.411z M181.709,28.007c0-0.394-0.105-0.698-0.317-0.914
		s-0.513-0.324-0.901-0.324c-0.373,0-0.66,0.101-0.863,0.302c-0.203,0.201-0.305,0.485-0.305,0.854l-0.133-1.365
		c0.198-0.406,0.449-0.715,0.752-0.927s0.658-0.317,1.069-0.317c0.702,0,1.247,0.234,1.634,0.702
		c0.389,0.467,0.582,1.128,0.582,1.983V32h-1.518V28.007z"/>
</g>
</svg>