<!-- Generator: Adobe Illustrator 22.1.0, SVG Export Plug-In  -->
<svg version="1.1"
	 xmlns="http://www.w3.org/2000/svg" xmlns:xlink="http://www.w3.org/1999/xlink" xmlns:a="http://ns.adobe.com/AdobeSVGViewerExtensions/3.0/"
	 x="0px" y="0px" width="219px" height="55px" viewBox="0 0 219 55" style="enable-background:new 0 0 219 55;"
	 xml:space="preserve">
<style type="text/css">
	.st0{fill:#1B1464;}
	.st1{fill:#FFFFFF;}
</style>
<defs>
</defs>
<rect class="st0" width="219" height="55"/>
<g>
	<path class="st1" d="M39.896,24.095c0,0-0.204-0.043-0.612-0.13c-0.409-0.086-0.792-0.214-1.149-0.384s-0.684-0.379-0.98-0.628
		l0.807-1.212c0.355,0.3,0.754,0.528,1.196,0.683c0.442,0.154,0.911,0.231,1.405,0.231c0.618,0,1.098-0.11,1.438-0.33
		s0.511-0.531,0.511-0.933v-0.006c0-0.284-0.076-0.509-0.229-0.676c-0.152-0.167-0.352-0.29-0.597-0.368
		c-0.245-0.079-0.561-0.151-0.946-0.219c-0.012-0.004-0.025-0.006-0.037-0.006c-0.014,0-0.025-0.002-0.039-0.006l-0.113-0.019
		c-0.618-0.102-1.126-0.222-1.523-0.362c-0.398-0.14-0.736-0.389-1.016-0.749s-0.42-0.87-0.42-1.53v-0.006
		c0-0.584,0.132-1.083,0.395-1.498c0.262-0.415,0.643-0.73,1.143-0.946c0.499-0.216,1.1-0.324,1.803-0.324
		c0.33,0,0.66,0.037,0.993,0.111c0.332,0.074,0.657,0.182,0.978,0.324c0.319,0.142,0.629,0.318,0.93,0.53l-0.736,1.25
		c-0.355-0.254-0.717-0.446-1.086-0.578c-0.367-0.131-0.728-0.197-1.078-0.197c-0.584,0-1.036,0.107-1.355,0.32
		c-0.32,0.214-0.479,0.516-0.479,0.905v0.006c0,0.292,0.083,0.522,0.247,0.692c0.166,0.169,0.372,0.293,0.619,0.372
		c0.248,0.078,0.594,0.162,1.038,0.25c0.017,0.004,0.032,0.007,0.048,0.009c0.015,0.002,0.03,0.005,0.047,0.01
		c0.021,0.004,0.045,0.008,0.07,0.013s0.049,0.008,0.07,0.013c0.57,0.114,1.048,0.252,1.431,0.413
		c0.384,0.161,0.704,0.419,0.962,0.774s0.387,0.84,0.387,1.454v0.013c0,0.576-0.135,1.068-0.406,1.479
		c-0.271,0.411-0.664,0.723-1.18,0.936c-0.517,0.214-1.139,0.321-1.867,0.321C40.119,24.095,39.896,24.095,39.896,24.095z"/>
	<path class="st1" d="M47.432,24.095c0,0-0.221-0.114-0.66-0.343c-0.44-0.229-0.777-0.564-1.01-1.006
		c-0.232-0.442-0.35-0.976-0.35-1.603v-0.743c0-0.652,0.111-1.208,0.334-1.669s0.545-0.813,0.971-1.054s0.937-0.362,1.533-0.362
		c0.563,0,1.045,0.141,1.443,0.422c0.4,0.281,0.705,0.688,0.914,1.222c0.211,0.533,0.314,1.176,0.314,1.93v0.432h-4.475V20.21h3.066
		l-0.007-0.07c-0.042-0.461-0.171-0.819-0.388-1.073c-0.215-0.254-0.506-0.381-0.869-0.381c-0.457,0-0.811,0.143-1.061,0.428
		c-0.249,0.286-0.374,0.691-0.374,1.216v0.838c0,0.5,0.136,0.883,0.406,1.152c0.271,0.269,0.651,0.403,1.143,0.403
		c0.249,0,0.496-0.047,0.739-0.143c0.244-0.095,0.463-0.227,0.657-0.396l0.99,0.927c-0.335,0.313-0.71,0.556-1.126,0.727
		c-0.418,0.172-0.838,0.257-1.261,0.257C47.742,24.095,47.432,24.095,47.432,24.095z"/>
	<path class="st1" d="M52.572,17.411h1.518V24h-1.518V17.411z M56.477,20.007c0-0.394-0.105-0.698-0.317-0.914
		s-0.513-0.324-0.901-0.324c-0.373,0-0.66,0.101-0.863,0.302c-0.203,0.201-0.305,0.485-0.305,0.854l-0.133-1.365
		c0.198-0.406,0.449-0.715,0.752-0.927s0.658-0.317,1.069-0.317c0.702,0,1.247,0.234,1.634,0.702
		c0.389,0.467,0.582,1.128,0.582,1.983V24h-1.518V20.007z"/>
	<path class="st1" d="M59.79,14.771h1.511v1.517H59.79V14.771z M59.79,17.411h1.511V24H59.79V17.411z"/>
	<path class="st1" d="M64.186,23.759c-0.416-0.224-0.734-0.551-0.951-0.98c-0.219-0.43-0.328-0.947-0.328-1.552v-1.073
		c0-0.597,0.109-1.107,0.328-1.533c0.217-0.425,0.535-0.749,0.951-0.971c0.417-0.223,0.918-0.333,1.502-0.333s1.084,0.111,1.5,0.333
		c0.418,0.222,0.734,0.546,0.953,0.971c0.218,0.426,0.326,0.937,0.326,1.533v1.092c0,0.601-0.108,1.114-0.326,1.539
		c-0.219,0.426-0.535,0.75-0.953,0.975c-0.416,0.224-0.916,0.336-1.5,0.336S64.603,23.983,64.186,23.759z M66.62,22.276
		c0.22-0.243,0.33-0.587,0.33-1.031v-1.092c0-0.44-0.11-0.781-0.33-1.022s-0.531-0.362-0.933-0.362
		c-0.402,0-0.713,0.121-0.934,0.362s-0.33,0.582-0.33,1.022v1.092c0,0.444,0.109,0.788,0.326,1.031
		c0.219,0.244,0.531,0.365,0.938,0.365C66.089,22.642,66.4,22.52,66.62,22.276z"/>
	<path class="st1" d="M70.182,17.411h1.58V24h-1.58V17.411z M73.476,18.855c-0.147-0.058-0.319-0.086-0.515-0.086
		c-0.381,0-0.676,0.113-0.885,0.34c-0.209,0.226-0.314,0.541-0.314,0.942l-0.133-1.492c0.189-0.394,0.438-0.699,0.746-0.917
		c0.307-0.218,0.644-0.327,1.012-0.327c0.287,0,0.548,0.043,0.781,0.13c0.232,0.086,0.436,0.214,0.609,0.384l-0.928,1.276
		C73.748,18.996,73.623,18.912,73.476,18.855z"/>
	<path class="st1" d="M80.248,24.095c0,0-0.203-0.043-0.611-0.13c-0.409-0.086-0.792-0.214-1.15-0.384
		c-0.357-0.169-0.684-0.379-0.98-0.628l0.807-1.212c0.355,0.3,0.754,0.528,1.197,0.683c0.441,0.154,0.91,0.231,1.405,0.231
		c0.618,0,1.097-0.11,1.438-0.33c0.34-0.22,0.51-0.531,0.51-0.933v-0.006c0-0.284-0.076-0.509-0.229-0.676
		c-0.152-0.167-0.351-0.29-0.596-0.368c-0.246-0.079-0.561-0.151-0.946-0.219c-0.013-0.004-0.025-0.006-0.038-0.006
		s-0.025-0.002-0.038-0.006l-0.114-0.019c-0.617-0.102-1.125-0.222-1.523-0.362s-0.736-0.389-1.016-0.749s-0.419-0.87-0.419-1.53
		v-0.006c0-0.584,0.132-1.083,0.394-1.498s0.643-0.73,1.143-0.946s1.1-0.324,1.803-0.324c0.33,0,0.661,0.037,0.994,0.111
		c0.332,0.074,0.657,0.182,0.977,0.324c0.32,0.142,0.63,0.318,0.93,0.53l-0.736,1.25c-0.355-0.254-0.717-0.446-1.085-0.578
		s-0.728-0.197-1.079-0.197c-0.584,0-1.035,0.107-1.355,0.32c-0.319,0.214-0.479,0.516-0.479,0.905v0.006
		c0,0.292,0.082,0.522,0.247,0.692s0.372,0.293,0.618,0.372c0.248,0.078,0.594,0.162,1.039,0.25
		c0.017,0.004,0.032,0.007,0.047,0.009c0.016,0.002,0.031,0.005,0.048,0.01c0.021,0.004,0.044,0.008,0.069,0.013
		s0.049,0.008,0.07,0.013c0.571,0.114,1.049,0.252,1.432,0.413s0.703,0.419,0.961,0.774c0.259,0.355,0.388,0.84,0.388,1.454v0.013
		c0,0.576-0.136,1.068-0.406,1.479s-0.665,0.723-1.181,0.936c-0.516,0.214-1.139,0.321-1.866,0.321
		C80.471,24.095,80.248,24.095,80.248,24.095z"/>
	<path class="st1" d="M87.758,24.095c0,0-0.218-0.115-0.654-0.346c-0.436-0.23-0.768-0.567-0.996-1.009
		c-0.229-0.442-0.343-0.977-0.343-1.603v-0.895c0-0.618,0.114-1.146,0.343-1.584c0.229-0.438,0.561-0.771,0.996-1
		c0.437-0.229,0.961-0.343,1.574-0.343c0.352,0,0.683,0.042,0.994,0.124c0.311,0.083,0.59,0.202,0.838,0.359
		c0.247,0.157,0.453,0.347,0.619,0.571L90.1,19.334c-0.173-0.182-0.376-0.322-0.609-0.419c-0.232-0.097-0.476-0.146-0.729-0.146
		c-0.47,0-0.833,0.128-1.092,0.384c-0.259,0.256-0.388,0.619-0.388,1.089v0.895c0,0.482,0.129,0.854,0.385,1.114
		c0.256,0.261,0.621,0.391,1.095,0.391c0.259,0,0.503-0.053,0.736-0.159s0.434-0.256,0.603-0.451l1.029,1.028
		c-0.17,0.22-0.378,0.407-0.626,0.562c-0.247,0.155-0.526,0.272-0.838,0.353c-0.311,0.081-0.64,0.121-0.987,0.121
		C88.064,24.095,87.758,24.095,87.758,24.095z"/>
	<path class="st1" d="M92.43,14.771h1.518V24H92.43V14.771z M96.334,20.007c0-0.394-0.106-0.698-0.318-0.914
		c-0.211-0.216-0.512-0.324-0.9-0.324c-0.373,0-0.66,0.1-0.863,0.298s-0.305,0.48-0.305,0.844l-0.134-1.365
		c0.198-0.398,0.45-0.703,0.752-0.914c0.303-0.211,0.659-0.317,1.069-0.317c0.703,0,1.248,0.234,1.635,0.702
		c0.388,0.467,0.581,1.128,0.581,1.983V24h-1.517V20.007z"/>
	<path class="st1" d="M100.78,23.759c-0.417-0.224-0.734-0.551-0.952-0.98c-0.219-0.43-0.327-0.947-0.327-1.552v-1.073
		c0-0.597,0.108-1.107,0.327-1.533c0.218-0.425,0.535-0.749,0.952-0.971c0.417-0.223,0.917-0.333,1.501-0.333
		s1.084,0.111,1.501,0.333c0.417,0.222,0.734,0.546,0.952,0.971c0.219,0.426,0.327,0.937,0.327,1.533v1.092
		c0,0.601-0.108,1.114-0.327,1.539c-0.218,0.426-0.535,0.75-0.952,0.975s-0.917,0.336-1.501,0.336S101.197,23.983,100.78,23.759z
		 M103.215,22.276c0.22-0.243,0.33-0.587,0.33-1.031v-1.092c0-0.44-0.11-0.781-0.33-1.022c-0.221-0.241-0.531-0.362-0.934-0.362
		s-0.713,0.121-0.934,0.362c-0.22,0.241-0.33,0.582-0.33,1.022v1.092c0,0.444,0.109,0.788,0.327,1.031
		c0.218,0.244,0.53,0.365,0.937,0.365C102.684,22.642,102.994,22.52,103.215,22.276z"/>
	<path class="st1" d="M107.864,23.759c-0.417-0.224-0.734-0.551-0.952-0.98c-0.219-0.43-0.327-0.947-0.327-1.552v-1.073
		c0-0.597,0.108-1.107,0.327-1.533c0.218-0.425,0.535-0.749,0.952-0.971c0.417-0.223,0.917-0.333,1.501-0.333
		s1.084,0.111,1.501,0.333c0.417,0.222,0.734,0.546,0.952,0.971c0.219,0.426,0.327,0.937,0.327,1.533v1.092
		c0,0.601-0.108,1.114-0.327,1.539c-0.218,0.426-0.535,0.75-0.952,0.975s-0.917,0.336-1.501,0.336S108.281,23.983,107.864,23.759z
		 M110.299,22.276c0.22-0.243,0.33-0.587,0.33-1.031v-1.092c0-0.44-0.11-0.781-0.33-1.022c-0.221-0.241-0.531-0.362-0.934-0.362
		s-0.713,0.121-0.934,0.362c-0.22,0.241-0.33,0.582-0.33,1.022v1.092c0,0.444,0.109,0.788,0.327,1.031
		c0.218,0.244,0.53,0.365,0.937,0.365C109.768,22.642,110.078,22.52,110.299,22.276z"/>
	<path class="st1" d="M115.377,22.064c0,0.161,0.039,0.285,0.12,0.372c0.081,0.086,0.194,0.13,0.343,0.13h0.451v1.454h-0.826
		c-0.508,0-0.902-0.152-1.184-0.457s-0.422-0.734-0.422-1.289v-7.503h1.518V22.064z"/>
	<path class="st1" d="M122.055,24.095c0,0-0.247-0.139-0.74-0.416c-0.492-0.277-0.871-0.674-1.137-1.19
		c-0.264-0.516-0.396-1.128-0.396-1.834v-2.533c0-0.707,0.133-1.318,0.396-1.834c0.266-0.516,0.645-0.914,1.137-1.193
		c0.493-0.279,1.074-0.419,1.742-0.419c0.555,0,1.057,0.119,1.508,0.355s0.826,0.579,1.123,1.025
		c0.299,0.447,0.504,0.975,0.613,1.584h-1.562c-0.076-0.296-0.196-0.556-0.362-0.777c-0.164-0.223-0.36-0.393-0.586-0.511
		c-0.227-0.119-0.472-0.178-0.734-0.178c-0.351,0-0.654,0.08-0.91,0.238c-0.256,0.159-0.454,0.384-0.594,0.676
		s-0.209,0.637-0.209,1.035v2.533c0,0.398,0.069,0.743,0.209,1.035s0.338,0.516,0.594,0.673s0.56,0.235,0.91,0.235
		c0.268,0,0.514-0.057,0.74-0.171s0.422-0.281,0.587-0.501s0.284-0.484,0.355-0.793h1.562c-0.114,0.609-0.32,1.137-0.619,1.584
		c-0.299,0.446-0.672,0.788-1.123,1.025s-0.951,0.355-1.502,0.355C122.389,24.095,122.055,24.095,122.055,24.095z"/>
	<path class="st1" d="M129.716,24.095c0,0-0.22-0.114-0.66-0.343s-0.776-0.564-1.009-1.006c-0.233-0.442-0.35-0.976-0.35-1.603
		v-0.743c0-0.652,0.111-1.208,0.333-1.669c0.223-0.461,0.546-0.813,0.972-1.054c0.425-0.241,0.936-0.362,1.533-0.362
		c0.563,0,1.044,0.141,1.443,0.422c0.4,0.281,0.705,0.688,0.914,1.222c0.21,0.533,0.314,1.176,0.314,1.93v0.432h-4.475V20.21h3.065
		l-0.007-0.07c-0.042-0.461-0.171-0.819-0.387-1.073s-0.506-0.381-0.869-0.381c-0.457,0-0.811,0.143-1.061,0.428
		c-0.25,0.286-0.375,0.691-0.375,1.216v0.838c0,0.5,0.136,0.883,0.406,1.152c0.271,0.269,0.652,0.403,1.143,0.403
		c0.25,0,0.496-0.047,0.74-0.143c0.243-0.095,0.462-0.227,0.656-0.396l0.99,0.927c-0.334,0.313-0.709,0.556-1.126,0.727
		c-0.417,0.172-0.837,0.257-1.261,0.257C130.027,24.095,129.716,24.095,129.716,24.095z"/>
	<path class="st1" d="M134.857,17.411h1.58V24h-1.58V17.411z M138.152,18.855c-0.148-0.058-0.32-0.086-0.515-0.086
		c-0.381,0-0.676,0.113-0.886,0.34c-0.209,0.226-0.314,0.541-0.314,0.942l-0.133-1.492c0.19-0.394,0.439-0.699,0.746-0.917
		c0.307-0.218,0.645-0.327,1.012-0.327c0.288,0,0.549,0.043,0.781,0.13c0.232,0.086,0.436,0.214,0.609,0.384l-0.927,1.276
		C138.425,18.996,138.3,18.912,138.152,18.855z"/>
	<path class="st1" d="M139.897,17.411h3.098v1.327h-3.098V17.411z M140.964,23.591c-0.259-0.294-0.388-0.729-0.388-1.305v-6.792
		h1.518v6.583c0,0.161,0.031,0.285,0.096,0.372c0.063,0.086,0.156,0.13,0.279,0.13h0.526v1.454h-0.813
		C141.629,24.032,141.223,23.885,140.964,23.591z"/>
	<path class="st1" d="M144.602,14.771h1.51v1.517h-1.51V14.771z M144.602,17.411h1.51V24h-1.51V17.411z"/>
	<path class="st1" d="M147.4,17.411h3.422v1.295H147.4V17.411z M148.099,16.516c0-0.584,0.134-1.021,0.403-1.311
		c0.269-0.29,0.682-0.435,1.24-0.435h1.08v1.39h-0.832c-0.123,0-0.216,0.046-0.279,0.14s-0.096,0.214-0.096,0.362V24h-1.517V16.516z
		"/>
	<path class="st1" d="M152.174,14.771h1.511v1.517h-1.511V14.771z M152.174,17.411h1.511V24h-1.511V17.411z"/>
	<path class="st1" d="M157.283,24.095c0,0-0.217-0.115-0.653-0.346c-0.437-0.23-0.769-0.567-0.997-1.009
		c-0.229-0.442-0.342-0.977-0.342-1.603v-0.895c0-0.618,0.113-1.146,0.342-1.584c0.229-0.438,0.561-0.771,0.997-1
		s0.96-0.343,1.574-0.343c0.351,0,0.683,0.042,0.993,0.124c0.311,0.083,0.59,0.202,0.838,0.359s0.454,0.347,0.619,0.571
		l-1.028,0.965c-0.173-0.182-0.376-0.322-0.609-0.419s-0.476-0.146-0.729-0.146c-0.471,0-0.834,0.128-1.092,0.384
		c-0.259,0.256-0.388,0.619-0.388,1.089v0.895c0,0.482,0.128,0.854,0.384,1.114c0.256,0.261,0.621,0.391,1.096,0.391
		c0.258,0,0.503-0.053,0.736-0.159c0.232-0.106,0.434-0.256,0.603-0.451l1.028,1.028c-0.17,0.22-0.377,0.407-0.625,0.562
		c-0.248,0.155-0.527,0.272-0.838,0.353s-0.641,0.121-0.987,0.121C157.59,24.095,157.283,24.095,157.283,24.095z"/>
	<path class="st1" d="M162.203,23.591c-0.377-0.337-0.564-0.848-0.564-1.533c0-0.652,0.189-1.141,0.57-1.466
		s0.953-0.489,1.715-0.489h1.764l0.09,1.181h-1.848c-0.301,0-0.525,0.063-0.676,0.19s-0.226,0.322-0.226,0.584
		c0,0.275,0.097,0.479,0.292,0.612c0.195,0.134,0.488,0.2,0.883,0.2c0.482,0,0.84-0.053,1.076-0.159
		c0.234-0.106,0.352-0.271,0.352-0.495l0.133,0.939c-0.071,0.208-0.197,0.381-0.377,0.521s-0.396,0.245-0.65,0.314
		c-0.254,0.07-0.531,0.105-0.832,0.105C163.146,24.095,162.58,23.927,162.203,23.591z M165.631,19.823
		c0-0.368-0.109-0.654-0.326-0.857c-0.219-0.203-0.526-0.305-0.924-0.305c-0.254,0-0.504,0.04-0.75,0.121
		c-0.245,0.081-0.465,0.192-0.66,0.336l-1.009-0.851c0.259-0.3,0.597-0.534,1.016-0.702c0.419-0.167,0.884-0.25,1.396-0.25
		c0.559,0,1.036,0.096,1.435,0.289c0.398,0.193,0.701,0.472,0.91,0.838c0.211,0.366,0.314,0.808,0.314,1.324V24h-1.402V19.823z"/>
	<path class="st1" d="M168.367,17.411h3.098v1.327h-3.098V17.411z M169.434,23.591c-0.259-0.294-0.388-0.729-0.388-1.305v-6.792
		h1.517v6.583c0,0.161,0.032,0.285,0.096,0.372c0.063,0.086,0.156,0.13,0.279,0.13h0.527v1.454h-0.813
		C170.098,24.032,169.691,23.885,169.434,23.591z"/>
	<path class="st1" d="M174.943,24.095c0,0-0.221-0.114-0.66-0.343c-0.44-0.229-0.777-0.564-1.01-1.006
		c-0.232-0.442-0.35-0.976-0.35-1.603v-0.743c0-0.652,0.111-1.208,0.334-1.669s0.545-0.813,0.971-1.054s0.937-0.362,1.533-0.362
		c0.563,0,1.045,0.141,1.443,0.422c0.4,0.281,0.705,0.688,0.914,1.222c0.211,0.533,0.314,1.176,0.314,1.93v0.432h-4.475V20.21h3.066
		l-0.007-0.07c-0.042-0.461-0.171-0.819-0.388-1.073c-0.215-0.254-0.506-0.381-0.869-0.381c-0.457,0-0.811,0.143-1.061,0.428
		c-0.249,0.286-0.374,0.691-0.374,1.216v0.838c0,0.5,0.136,0.883,0.406,1.152c0.271,0.269,0.651,0.403,1.143,0.403
		c0.249,0,0.496-0.047,0.739-0.143c0.244-0.095,0.463-0.227,0.657-0.396l0.99,0.927c-0.335,0.313-0.71,0.556-1.126,0.727
		c-0.418,0.172-0.838,0.257-1.261,0.257C175.254,24.095,174.943,24.095,174.943,24.095z"/>
	<path class="st1" d="M31.168,30.371h1.518V39.6h-1.518V30.371z M31.797,30.371h5.427v1.454h-5.427V30.371z M31.797,34.293h4.729
		v1.447h-4.729V34.293z M31.797,38.146h5.427V39.6h-5.427V38.146z"/>
	<path class="st1" d="M40.588,35.963l0.825,1.193l-1.6,2.444h-1.638L40.588,35.963z M40.766,36.737l-2.488-3.726h1.676l1.739,2.806
		l2.539,3.783h-1.669L40.766,36.737z M41.121,35.347l1.333-2.336h1.676l-2.228,3.555L41.121,35.347z"/>
	<path class="st1" d="M45.78,39.191c-0.376-0.337-0.565-0.848-0.565-1.533c0-0.652,0.191-1.141,0.572-1.466s0.951-0.489,1.713-0.489
		h1.766l0.088,1.181h-1.847c-0.3,0-0.526,0.063-0.677,0.19c-0.149,0.127-0.225,0.322-0.225,0.584c0,0.275,0.098,0.479,0.292,0.612
		c0.194,0.134,0.489,0.2,0.882,0.2c0.482,0,0.842-0.053,1.076-0.159s0.353-0.271,0.353-0.495l0.134,0.939
		c-0.072,0.208-0.198,0.381-0.379,0.521c-0.18,0.14-0.396,0.245-0.65,0.314c-0.254,0.07-0.531,0.105-0.831,0.105
		C46.725,39.695,46.156,39.527,45.78,39.191z M49.208,35.423c0-0.368-0.108-0.654-0.327-0.857c-0.218-0.203-0.525-0.305-0.924-0.305
		c-0.254,0-0.503,0.04-0.748,0.121c-0.246,0.081-0.466,0.192-0.66,0.336l-1.01-0.851c0.258-0.3,0.597-0.534,1.016-0.702
		c0.419-0.167,0.885-0.25,1.396-0.25c0.559,0,1.037,0.096,1.435,0.289c0.397,0.193,0.702,0.472,0.911,0.838
		c0.209,0.366,0.314,0.808,0.314,1.324V39.6h-1.403V35.423z"/>
	<path class="st1" d="M52.451,33.011h1.518V39.6h-1.518V33.011z M56.343,35.703c0-0.427-0.104-0.756-0.313-0.987
		c-0.211-0.23-0.508-0.346-0.893-0.346c-0.373,0-0.66,0.101-0.863,0.302c-0.203,0.201-0.305,0.485-0.305,0.854l-0.133-1.365
		c0.198-0.402,0.452-0.71,0.762-0.923c0.309-0.214,0.662-0.321,1.06-0.321c0.462,0,0.856,0.108,1.187,0.324s0.582,0.532,0.752,0.949
		c0.172,0.417,0.258,0.919,0.258,1.507V39.6h-1.511V35.703z M60.228,35.703c0-0.427-0.106-0.756-0.317-0.987
		c-0.211-0.23-0.512-0.346-0.901-0.346c-0.368,0-0.653,0.111-0.854,0.333c-0.2,0.223-0.301,0.539-0.301,0.949l-0.292-1.396
		c0.208-0.427,0.479-0.757,0.815-0.99s0.71-0.349,1.121-0.349c0.474,0,0.879,0.108,1.215,0.324s0.593,0.532,0.768,0.949
		c0.176,0.417,0.264,0.919,0.264,1.507V39.6h-1.517V35.703z"/>
	<path class="st1" d="M63.541,30.371h1.511v1.517h-1.511V30.371z M63.541,33.011h1.511V39.6h-1.511V33.011z"/>
	<path class="st1" d="M66.848,33.011h1.518V39.6h-1.518V33.011z M70.752,35.607c0-0.394-0.105-0.698-0.317-0.914
		s-0.513-0.324-0.901-0.324c-0.373,0-0.66,0.101-0.863,0.302c-0.203,0.201-0.305,0.485-0.305,0.854l-0.133-1.365
		c0.198-0.406,0.449-0.715,0.752-0.927s0.658-0.317,1.069-0.317c0.702,0,1.247,0.234,1.634,0.702
		c0.389,0.467,0.582,1.128,0.582,1.983V39.6h-1.518V35.607z"/>
	<path class="st1" d="M74.357,39.191c-0.377-0.337-0.564-0.848-0.564-1.533c0-0.652,0.189-1.141,0.57-1.466s0.953-0.489,1.715-0.489
		h1.764l0.09,1.181h-1.848c-0.301,0-0.525,0.063-0.676,0.19s-0.226,0.322-0.226,0.584c0,0.275,0.097,0.479,0.292,0.612
		c0.195,0.134,0.488,0.2,0.883,0.2c0.482,0,0.84-0.053,1.076-0.159c0.234-0.106,0.352-0.271,0.352-0.495l0.133,0.939
		c-0.071,0.208-0.197,0.381-0.377,0.521s-0.396,0.245-0.65,0.314c-0.254,0.07-0.531,0.105-0.832,0.105
		C75.301,39.695,74.734,39.527,74.357,39.191z M77.785,35.423c0-0.368-0.109-0.654-0.326-0.857
		c-0.219-0.203-0.526-0.305-0.924-0.305c-0.254,0-0.504,0.04-0.75,0.121c-0.245,0.081-0.465,0.192-0.66,0.336l-1.009-0.851
		c0.259-0.3,0.597-0.534,1.016-0.702c0.419-0.167,0.884-0.25,1.396-0.25c0.559,0,1.036,0.096,1.435,0.289
		c0.398,0.193,0.701,0.472,0.91,0.838c0.211,0.366,0.314,0.808,0.314,1.324V39.6h-1.402V35.423z"/>
	<path class="st1" d="M80.521,33.011h3.098v1.327h-3.098V33.011z M81.588,39.191c-0.259-0.294-0.388-0.729-0.388-1.305v-6.792h1.517
		v6.583c0,0.161,0.032,0.285,0.096,0.372c0.063,0.086,0.156,0.13,0.279,0.13h0.527v1.454h-0.813
		C82.252,39.632,81.846,39.485,81.588,39.191z"/>
	<path class="st1" d="M85.225,30.371h1.511v1.517h-1.511V30.371z M85.225,33.011h1.511V39.6h-1.511V33.011z"/>
	<path class="st1" d="M89.621,39.359c-0.418-0.224-0.734-0.551-0.953-0.98c-0.218-0.43-0.326-0.947-0.326-1.552v-1.073
		c0-0.597,0.108-1.107,0.326-1.533c0.219-0.425,0.535-0.749,0.953-0.971c0.416-0.223,0.916-0.333,1.5-0.333s1.085,0.111,1.502,0.333
		c0.416,0.222,0.734,0.546,0.951,0.971c0.219,0.426,0.328,0.937,0.328,1.533v1.092c0,0.601-0.109,1.114-0.328,1.539
		c-0.217,0.426-0.535,0.75-0.951,0.975c-0.417,0.224-0.918,0.336-1.502,0.336S90.037,39.583,89.621,39.359z M92.055,37.876
		c0.221-0.243,0.33-0.587,0.33-1.031v-1.092c0-0.44-0.109-0.781-0.33-1.022s-0.531-0.362-0.934-0.362
		c-0.401,0-0.713,0.121-0.933,0.362s-0.33,0.582-0.33,1.022v1.092c0,0.444,0.108,0.788,0.327,1.031
		c0.218,0.244,0.529,0.365,0.936,0.365C91.523,38.242,91.834,38.12,92.055,37.876z"/>
	<path class="st1" d="M95.615,33.011h1.518V39.6h-1.518V33.011z M99.52,35.607c0-0.394-0.105-0.698-0.317-0.914
		s-0.513-0.324-0.901-0.324c-0.373,0-0.66,0.101-0.863,0.302c-0.203,0.201-0.305,0.485-0.305,0.854L97,34.16
		c0.198-0.406,0.449-0.715,0.752-0.927s0.658-0.317,1.069-0.317c0.702,0,1.247,0.234,1.634,0.702
		c0.389,0.467,0.582,1.128,0.582,1.983V39.6H99.52V35.607z"/>
	<path class="st1" d="M103.582,38.841c-0.385-1.013-0.578-2.131-0.578-3.354s0.193-2.341,0.578-3.354
		c0.385-1.014,0.965-1.929,1.739-2.746l0.952,1.028c-0.609,0.681-1.064,1.443-1.365,2.285c-0.3,0.842-0.45,1.771-0.45,2.787
		s0.15,1.944,0.45,2.787c0.301,0.842,0.756,1.606,1.365,2.292l-0.952,1.022C104.547,40.77,103.967,39.855,103.582,38.841z"/>
	<path class="st1" d="M109.498,39.695c0,0-0.246-0.139-0.739-0.416c-0.493-0.277-0.872-0.674-1.137-1.19s-0.396-1.128-0.396-1.834
		v-2.533c0-0.707,0.132-1.318,0.396-1.834s0.644-0.914,1.137-1.193s1.073-0.419,1.742-0.419c0.554,0,1.057,0.119,1.508,0.355
		c0.45,0.237,0.825,0.579,1.123,1.025c0.299,0.447,0.503,0.975,0.612,1.584h-1.561c-0.076-0.296-0.197-0.556-0.362-0.777
		c-0.165-0.223-0.36-0.393-0.587-0.511s-0.471-0.178-0.733-0.178c-0.351,0-0.655,0.08-0.911,0.238
		c-0.256,0.159-0.453,0.384-0.594,0.676c-0.139,0.292-0.209,0.637-0.209,1.035v2.533c0,0.398,0.07,0.743,0.209,1.035
		c0.141,0.292,0.338,0.516,0.594,0.673s0.561,0.235,0.911,0.235c0.267,0,0.513-0.057,0.739-0.171s0.422-0.281,0.588-0.501
		c0.164-0.22,0.283-0.484,0.355-0.793h1.561c-0.113,0.609-0.32,1.137-0.618,1.584c-0.299,0.446-0.673,0.788-1.124,1.025
		c-0.45,0.237-0.951,0.355-1.501,0.355C109.832,39.695,109.498,39.695,109.498,39.695z"/>
	<path class="st1" d="M116.849,37.664c0,0.161,0.04,0.285,0.12,0.372c0.081,0.086,0.195,0.13,0.344,0.13h0.45v1.454h-0.825
		c-0.508,0-0.902-0.152-1.184-0.457s-0.422-0.734-0.422-1.289v-7.503h1.517V37.664z"/>
	<path class="st1" d="M119.279,39.191c-0.376-0.337-0.564-0.848-0.564-1.533c0-0.652,0.19-1.141,0.571-1.466
		s0.952-0.489,1.714-0.489h1.765l0.089,1.181h-1.848c-0.3,0-0.525,0.063-0.676,0.19s-0.225,0.322-0.225,0.584
		c0,0.275,0.097,0.479,0.291,0.612c0.195,0.134,0.489,0.2,0.883,0.2c0.482,0,0.841-0.053,1.076-0.159
		c0.234-0.106,0.352-0.271,0.352-0.495l0.134,0.939c-0.071,0.208-0.198,0.381-0.378,0.521s-0.396,0.245-0.65,0.314
		c-0.254,0.07-0.531,0.105-0.832,0.105C120.224,39.695,119.656,39.527,119.279,39.191z M122.707,35.423
		c0-0.368-0.108-0.654-0.326-0.857c-0.219-0.203-0.525-0.305-0.924-0.305c-0.254,0-0.504,0.04-0.749,0.121s-0.466,0.192-0.66,0.336
		l-1.009-0.851c0.258-0.3,0.596-0.534,1.016-0.702c0.418-0.167,0.884-0.25,1.396-0.25c0.559,0,1.036,0.096,1.434,0.289
		c0.398,0.193,0.702,0.472,0.911,0.838c0.21,0.366,0.314,0.808,0.314,1.324V39.6h-1.403V35.423z"/>
	<path class="st1" d="M127.785,39.695c0,0-0.178-0.037-0.533-0.111c-0.355-0.074-0.688-0.183-0.999-0.327
		c-0.312-0.144-0.592-0.319-0.841-0.527l0.92-1.143c0.334,0.237,0.676,0.417,1.025,0.54c0.349,0.123,0.688,0.184,1.019,0.184
		c0.462,0,0.812-0.063,1.051-0.187c0.239-0.125,0.358-0.306,0.358-0.543c0-0.182-0.059-0.318-0.178-0.409
		c-0.119-0.091-0.268-0.154-0.447-0.188s-0.434-0.065-0.759-0.095c-0.056-0.004-0.112-0.008-0.171-0.013
		c-0.06-0.004-0.117-0.011-0.172-0.019c-0.018,0-0.033-0.001-0.051-0.003c-0.018-0.002-0.033-0.003-0.051-0.003
		c-0.461-0.051-0.84-0.122-1.137-0.212c-0.296-0.091-0.545-0.266-0.745-0.524c-0.201-0.258-0.302-0.628-0.302-1.111
		c0-0.453,0.101-0.835,0.302-1.146c0.2-0.312,0.496-0.546,0.886-0.705c0.389-0.158,0.867-0.238,1.434-0.238
		c0.339,0,0.669,0.033,0.99,0.098c0.322,0.066,0.63,0.161,0.924,0.286c0.295,0.125,0.572,0.28,0.835,0.466l-0.907,1.104
		c-0.31-0.186-0.621-0.328-0.937-0.425s-0.621-0.146-0.917-0.146c-0.398,0-0.701,0.057-0.908,0.171s-0.311,0.284-0.311,0.508
		c0,0.144,0.057,0.254,0.171,0.33s0.257,0.128,0.429,0.155c0.171,0.028,0.42,0.056,0.746,0.086c0.033,0.004,0.066,0.007,0.098,0.01
		c0.032,0.002,0.064,0.005,0.099,0.009c0.013,0,0.027,0,0.044,0c0.018,0,0.034,0.002,0.051,0.006
		c0.487,0.046,0.891,0.116,1.213,0.209s0.595,0.278,0.818,0.555c0.225,0.277,0.337,0.681,0.337,1.209
		c0,0.465-0.106,0.858-0.317,1.177c-0.211,0.32-0.525,0.561-0.942,0.724c-0.417,0.163-0.929,0.245-1.533,0.245
		C127.982,39.695,127.785,39.695,127.785,39.695z"/>
	<path class="st1" d="M134.527,39.695c0,0-0.178-0.037-0.533-0.111c-0.355-0.074-0.689-0.183-1-0.327
		c-0.312-0.144-0.592-0.319-0.842-0.527l0.921-1.143c0.335,0.237,0.676,0.417,1.025,0.54c0.349,0.123,0.688,0.184,1.019,0.184
		c0.461,0,0.812-0.063,1.051-0.187c0.238-0.125,0.358-0.306,0.358-0.543c0-0.182-0.06-0.318-0.178-0.409
		c-0.118-0.091-0.268-0.154-0.447-0.188c-0.181-0.034-0.433-0.065-0.759-0.095c-0.055-0.004-0.112-0.008-0.172-0.013
		c-0.059-0.004-0.115-0.011-0.171-0.019c-0.017,0-0.034-0.001-0.051-0.003c-0.017-0.002-0.034-0.003-0.051-0.003
		c-0.462-0.051-0.84-0.122-1.136-0.212c-0.297-0.091-0.545-0.266-0.746-0.524s-0.302-0.628-0.302-1.111
		c0-0.453,0.101-0.835,0.302-1.146c0.201-0.312,0.496-0.546,0.885-0.705c0.39-0.158,0.868-0.238,1.436-0.238
		c0.338,0,0.668,0.033,0.99,0.098c0.321,0.066,0.629,0.161,0.923,0.286c0.294,0.125,0.573,0.28,0.835,0.466l-0.908,1.104
		c-0.309-0.186-0.621-0.328-0.936-0.425c-0.315-0.097-0.621-0.146-0.918-0.146c-0.397,0-0.699,0.057-0.907,0.171
		s-0.312,0.284-0.312,0.508c0,0.144,0.058,0.254,0.172,0.33s0.257,0.128,0.429,0.155c0.171,0.028,0.42,0.056,0.745,0.086
		c0.034,0.004,0.067,0.007,0.099,0.01c0.032,0.002,0.065,0.005,0.099,0.009c0.013,0,0.027,0,0.045,0
		c0.017,0,0.033,0.002,0.051,0.006c0.486,0.046,0.891,0.116,1.212,0.209s0.595,0.278,0.819,0.555
		c0.224,0.277,0.336,0.681,0.336,1.209c0,0.465-0.105,0.858-0.317,1.177c-0.212,0.32-0.526,0.561-0.942,0.724
		c-0.417,0.163-0.928,0.245-1.533,0.245C134.724,39.695,134.527,39.695,134.527,39.695z"/>
	<path class="st1" d="M143.947,39.6h-1.518v-7.503l-1.219,0.616V31.12l1.346-0.749h1.391V39.6z"/>
	<path class="st1" d="M145.775,38.254l3.192-4.228c0.165-0.216,0.293-0.439,0.384-0.67c0.092-0.23,0.137-0.445,0.137-0.644V32.7
		c0-0.309-0.094-0.548-0.283-0.717c-0.188-0.169-0.455-0.254-0.803-0.254c-0.334,0-0.604,0.103-0.809,0.308
		c-0.205,0.206-0.329,0.497-0.371,0.873v0.006h-1.563V32.91c0.06-0.554,0.208-1.028,0.445-1.422c0.236-0.394,0.55-0.694,0.939-0.901
		c0.389-0.208,0.838-0.311,1.346-0.311c0.563,0,1.043,0.094,1.44,0.283c0.397,0.188,0.702,0.462,0.911,0.822
		s0.314,0.793,0.314,1.301v0.006c0,0.373-0.071,0.75-0.213,1.133c-0.143,0.383-0.338,0.741-0.588,1.076l-2.475,3.25h3.326V39.6
		h-5.332V38.254z"/>
	<path class="st1" d="M151.805,40.565c0.609-0.686,1.064-1.449,1.365-2.292s0.451-1.771,0.451-2.787s-0.15-1.944-0.451-2.787
		s-0.756-1.604-1.365-2.285l0.953-1.028c0.773,0.817,1.354,1.732,1.738,2.746c0.386,1.013,0.578,2.131,0.578,3.354
		s-0.192,2.341-0.578,3.354c-0.385,1.014-0.965,1.929-1.738,2.746L151.805,40.565z"/>
	<path class="st1" d="M161.498,35.569v1.447h-4.393v-1.447H161.498z"/>
	<path class="st1" d="M163.136,38.254l3.192-4.228c0.166-0.216,0.293-0.439,0.385-0.67c0.091-0.23,0.137-0.445,0.137-0.644V32.7
		c0-0.309-0.095-0.548-0.283-0.717c-0.188-0.169-0.455-0.254-0.803-0.254c-0.334,0-0.604,0.103-0.81,0.308
		c-0.205,0.206-0.329,0.497-0.371,0.873v0.006h-1.562V32.91c0.059-0.554,0.207-1.028,0.444-1.422s0.55-0.694,0.939-0.901
		s0.838-0.311,1.346-0.311c0.563,0,1.043,0.094,1.44,0.283c0.398,0.188,0.702,0.462,0.911,0.822c0.21,0.36,0.314,0.793,0.314,1.301
		v0.006c0,0.373-0.071,0.75-0.213,1.133c-0.142,0.383-0.337,0.741-0.587,1.076l-2.476,3.25h3.326V39.6h-5.332V38.254z"/>
	<path class="st1" d="M170.68,39.003c-0.459-0.461-0.688-1.104-0.688-1.93v-4.196c0-0.83,0.23-1.474,0.692-1.933
		c0.461-0.459,1.129-0.688,2.006-0.688c0.88,0,1.549,0.229,2.009,0.686c0.459,0.457,0.688,1.103,0.688,1.936v4.196
		c0,0.83-0.23,1.474-0.691,1.933c-0.462,0.459-1.131,0.689-2.006,0.689C171.809,39.695,171.139,39.465,170.68,39.003z
		 M173.584,37.883c0.19-0.239,0.285-0.583,0.285-1.032V33.1c0-0.449-0.095-0.792-0.285-1.031c-0.19-0.239-0.488-0.359-0.895-0.359
		s-0.705,0.12-0.896,0.359c-0.19,0.239-0.286,0.583-0.286,1.031v3.751c0,0.449,0.096,0.792,0.286,1.032
		c0.19,0.239,0.489,0.358,0.896,0.358S173.394,38.122,173.584,37.883z"/>
	<path class="st1" d="M179.52,39.6h-1.518v-7.503l-1.219,0.616V31.12l1.346-0.749h1.391V39.6z"/>
	<path class="st1" d="M182.75,39.378c-0.432-0.211-0.766-0.511-1.003-0.898c-0.237-0.388-0.355-0.837-0.355-1.349v-0.152
		c0-0.461,0.122-0.895,0.364-1.301c0.244-0.406,0.566-0.713,0.969-0.92c-0.343-0.178-0.619-0.434-0.828-0.768
		s-0.314-0.688-0.314-1.06V32.7c0-0.482,0.111-0.907,0.334-1.273c0.221-0.366,0.533-0.649,0.936-0.851
		c0.402-0.201,0.869-0.301,1.402-0.301s1.002,0.101,1.403,0.301c0.401,0.201,0.714,0.485,0.937,0.851
		c0.223,0.366,0.333,0.791,0.333,1.273v0.229c0,0.381-0.106,0.737-0.321,1.07c-0.213,0.332-0.493,0.585-0.84,0.758
		c0.406,0.211,0.732,0.52,0.98,0.923c0.248,0.404,0.371,0.837,0.371,1.298v0.152c0,0.512-0.119,0.961-0.355,1.349
		c-0.236,0.387-0.571,0.687-1.003,0.898s-0.933,0.317-1.505,0.317C183.684,39.695,183.182,39.589,182.75,39.378z M184.963,38.077
		c0.205-0.106,0.363-0.256,0.475-0.451c0.113-0.195,0.169-0.417,0.169-0.667v-0.089c0-0.246-0.056-0.461-0.169-0.647
		c-0.111-0.186-0.27-0.331-0.473-0.435c-0.203-0.104-0.439-0.156-0.711-0.156c-0.271,0-0.508,0.052-0.711,0.156
		c-0.203,0.104-0.36,0.25-0.473,0.438c-0.111,0.188-0.168,0.405-0.168,0.651v0.095c0,0.25,0.057,0.471,0.168,0.663
		c0.112,0.193,0.271,0.341,0.477,0.444c0.205,0.104,0.441,0.156,0.707,0.156C184.521,38.235,184.757,38.183,184.963,38.077z
		 M184.861,34.024c0.175-0.1,0.311-0.241,0.406-0.426c0.094-0.184,0.143-0.396,0.143-0.638v-0.089c0-0.224-0.049-0.423-0.143-0.597
		c-0.096-0.173-0.231-0.307-0.406-0.4c-0.176-0.093-0.379-0.14-0.607-0.14s-0.43,0.046-0.605,0.14s-0.311,0.227-0.406,0.4
		s-0.143,0.375-0.143,0.603v0.095c0,0.237,0.047,0.446,0.143,0.628s0.23,0.323,0.406,0.422c0.176,0.099,0.377,0.149,0.605,0.149
		S184.686,34.123,184.861,34.024z"/>
</g>
</svg>