<!-- Generator: Adobe Illustrator 22.1.0, SVG Export Plug-In  -->
<svg version="1.1"
	 xmlns="http://www.w3.org/2000/svg" xmlns:xlink="http://www.w3.org/1999/xlink" xmlns:a="http://ns.adobe.com/AdobeSVGViewerExtensions/3.0/"
	 x="0px" y="0px" width="385px" height="80.513px" viewBox="0 0 385 80.513" style="enable-background:new 0 0 385 80.513;"
	 xml:space="preserve">
<style type="text/css">
	.st0{fill:#1B1464;}
	.st1{fill:#FFFFFF;}
</style>
<defs>
</defs>
<rect class="st0" width="385" height="80.513"/>
<g>
	<path class="st1" d="M78.686,36.737c0,0-0.361-0.203-1.083-0.609c-0.722-0.405-1.276-0.986-1.663-1.742
		c-0.388-0.755-0.581-1.65-0.581-2.686v-3.707c0-1.034,0.193-1.93,0.581-2.686c0.387-0.756,0.941-1.338,1.663-1.747
		s1.572-0.613,2.551-0.613c0.812,0,1.547,0.174,2.207,0.521c0.659,0.347,1.208,0.848,1.645,1.501s0.735,1.426,0.896,2.318h-2.285
		c-0.112-0.434-0.288-0.813-0.53-1.139c-0.241-0.325-0.528-0.574-0.859-0.748c-0.331-0.173-0.689-0.26-1.073-0.26
		c-0.515,0-0.959,0.116-1.333,0.349c-0.375,0.231-0.665,0.562-0.869,0.989s-0.307,0.933-0.307,1.515V31.7
		c0,0.583,0.103,1.088,0.307,1.515c0.204,0.428,0.494,0.756,0.869,0.985c0.374,0.229,0.818,0.344,1.333,0.344
		c0.391,0,0.751-0.083,1.082-0.251c0.332-0.167,0.618-0.412,0.86-0.733c0.241-0.322,0.415-0.71,0.521-1.162h2.285
		c-0.167,0.893-0.469,1.665-0.905,2.318c-0.438,0.654-0.985,1.154-1.646,1.501c-0.659,0.347-1.392,0.521-2.197,0.521
		C79.175,36.737,78.686,36.737,78.686,36.737z"/>
	<path class="st1" d="M90.589,36.737c0,0-0.299-0.063-0.896-0.19c-0.599-0.127-1.159-0.314-1.683-0.563s-1.002-0.555-1.436-0.92
		l1.181-1.774c0.521,0.439,1.104,0.772,1.751,0.998c0.647,0.227,1.334,0.34,2.059,0.34c0.904,0,1.605-0.161,2.104-0.483
		s0.748-0.777,0.748-1.366v-0.009c0-0.415-0.111-0.745-0.334-0.99c-0.224-0.244-0.515-0.424-0.874-0.539
		c-0.359-0.114-0.821-0.221-1.385-0.32c-0.019-0.006-0.037-0.009-0.056-0.009s-0.037-0.003-0.056-0.01l-0.167-0.027
		c-0.904-0.149-1.648-0.325-2.23-0.53c-0.582-0.204-1.078-0.569-1.486-1.097c-0.409-0.526-0.613-1.272-0.613-2.239v-0.009
		c0-0.855,0.191-1.586,0.576-2.193c0.384-0.606,0.941-1.068,1.672-1.385c0.731-0.315,1.611-0.474,2.64-0.474
		c0.483,0,0.968,0.055,1.454,0.163s0.963,0.266,1.431,0.474s0.922,0.466,1.361,0.775l-1.078,1.831
		c-0.52-0.372-1.05-0.653-1.589-0.846c-0.539-0.191-1.065-0.288-1.579-0.288c-0.855,0-1.517,0.156-1.984,0.47
		c-0.468,0.313-0.701,0.754-0.701,1.324v0.009c0,0.428,0.121,0.766,0.362,1.013c0.241,0.248,0.544,0.43,0.906,0.544
		s0.868,0.236,1.519,0.367c0.025,0.006,0.048,0.011,0.07,0.014c0.021,0.003,0.045,0.008,0.069,0.014
		c0.031,0.007,0.065,0.013,0.103,0.019c0.037,0.007,0.071,0.013,0.102,0.019c0.837,0.168,1.535,0.369,2.096,0.604
		s1.03,0.613,1.408,1.134s0.566,1.229,0.566,2.128v0.019c0,0.842-0.198,1.563-0.595,2.165c-0.396,0.601-0.973,1.058-1.729,1.37
		c-0.756,0.313-1.666,0.47-2.731,0.47C90.914,36.737,90.589,36.737,90.589,36.737z"/>
	<path class="st1" d="M99.128,23.087h2.211v13.511h-2.211V23.087z M100.242,34.498h3.986c0.774,0,1.351-0.163,1.729-0.488
		s0.567-0.779,0.567-1.361V32.62c0-0.402-0.074-0.746-0.224-1.031c-0.148-0.284-0.378-0.503-0.688-0.655
		c-0.31-0.151-0.693-0.228-1.152-0.228h-4.219v-2.081h4.219c0.613,0,1.081-0.148,1.403-0.446c0.322-0.297,0.483-0.728,0.483-1.291
		c0-0.558-0.171-0.98-0.511-1.269c-0.341-0.288-0.843-0.433-1.506-0.433h-4.089v-2.1h4.303c0.873,0,1.612,0.147,2.216,0.441
		c0.604,0.294,1.06,0.714,1.366,1.259s0.46,1.199,0.46,1.961c0,0.495-0.098,0.946-0.293,1.352c-0.194,0.406-0.482,0.745-0.864,1.018
		c-0.381,0.272-0.847,0.459-1.398,0.558c0.57,0.081,1.06,0.269,1.469,0.563c0.408,0.294,0.722,0.669,0.938,1.124
		s0.325,0.965,0.325,1.528v0.028c0,0.75-0.163,1.401-0.488,1.956s-0.793,0.98-1.402,1.277c-0.61,0.298-1.334,0.446-2.17,0.446
		h-4.461V34.498z"/>
	<path class="st1" d="M111.413,23.087h2.221v13.511h-2.221V23.087z M112.333,23.087h7.944v2.128h-7.944V23.087z M112.333,28.829
		h6.922v2.119h-6.922V28.829z M112.333,34.469h7.944v2.128h-7.944V34.469z"/>
	<path class="st1" d="M129.03,30.697v2.118H122.6v-2.118H129.03z"/>
	<path class="st1" d="M133.945,36.147c-0.725-0.394-1.275-0.967-1.653-1.72s-0.567-1.658-0.567-2.718v-8.623h2.221v8.688
		c0,0.879,0.229,1.561,0.684,2.044s1.098,0.725,1.928,0.725c0.837,0,1.483-0.241,1.942-0.725c0.458-0.483,0.688-1.165,0.688-2.044
		v-8.688h2.221v8.623c0,1.06-0.19,1.965-0.571,2.718s-0.934,1.326-1.659,1.72c-0.725,0.393-1.598,0.59-2.62,0.59
		C135.541,36.737,134.671,36.54,133.945,36.147z"/>
	<path class="st1" d="M153.803,29.182v2.499c0,1.004-0.2,1.889-0.6,2.653c-0.399,0.766-0.963,1.356-1.69,1.774
		c-0.729,0.419-1.572,0.628-2.532,0.628c-0.967,0-1.818-0.197-2.556-0.59c-0.737-0.394-1.309-0.95-1.715-1.668
		c-0.405-0.719-0.608-1.553-0.608-2.5v-3.986c0-1.004,0.2-1.887,0.6-2.648s0.963-1.352,1.691-1.771
		c0.728-0.418,1.571-0.627,2.532-0.627c0.786,0,1.515,0.166,2.184,0.497c0.669,0.332,1.227,0.801,1.672,1.408
		c0.446,0.607,0.75,1.31,0.911,2.109h-2.397c-0.105-0.372-0.277-0.691-0.516-0.957c-0.238-0.267-0.521-0.47-0.846-0.609
		c-0.325-0.139-0.661-0.209-1.008-0.209c-0.509,0-0.953,0.116-1.334,0.349s-0.677,0.561-0.888,0.985
		c-0.21,0.424-0.315,0.915-0.315,1.473v3.986c0,0.502,0.106,0.943,0.32,1.324s0.518,0.675,0.911,0.883
		c0.393,0.207,0.847,0.312,1.361,0.312c0.508,0,0.953-0.11,1.338-0.33c0.384-0.22,0.68-0.539,0.888-0.957
		c0.207-0.418,0.311-0.916,0.311-1.491V31.31h-2.397v-2.128H153.803z"/>
	<path class="st1" d="M159.732,36.737c0,0-0.361-0.203-1.083-0.609c-0.722-0.405-1.276-0.986-1.663-1.742
		c-0.388-0.755-0.581-1.65-0.581-2.686v-3.707c0-1.034,0.193-1.93,0.581-2.686c0.387-0.756,0.941-1.338,1.663-1.747
		s1.572-0.613,2.551-0.613c0.812,0,1.547,0.174,2.207,0.521c0.659,0.347,1.208,0.848,1.645,1.501s0.735,1.426,0.896,2.318h-2.285
		c-0.112-0.434-0.288-0.813-0.53-1.139c-0.241-0.325-0.528-0.574-0.859-0.748c-0.331-0.173-0.689-0.26-1.073-0.26
		c-0.515,0-0.959,0.116-1.333,0.349c-0.375,0.231-0.665,0.562-0.869,0.989s-0.307,0.933-0.307,1.515V31.7
		c0,0.583,0.103,1.088,0.307,1.515c0.204,0.428,0.494,0.756,0.869,0.985c0.374,0.229,0.818,0.344,1.333,0.344
		c0.391,0,0.751-0.083,1.082-0.251c0.332-0.167,0.618-0.412,0.86-0.733c0.241-0.322,0.415-0.71,0.521-1.162h2.285
		c-0.167,0.893-0.469,1.665-0.905,2.318c-0.438,0.654-0.985,1.154-1.646,1.501c-0.659,0.347-1.392,0.521-2.197,0.521
		C160.222,36.737,159.732,36.737,159.732,36.737z"/>
	<path class="st1" d="M171.71,23.087h2.416l5.816,10.397l-0.223,0.242v-10.64h2.155v13.501h-2.435l-5.798-10.239l0.223-0.242v10.481
		h-2.155V23.087z"/>
	<path class="st1" d="M185.035,23.087h2.221v13.511h-2.221V23.087z M185.955,23.087h7.944v2.128h-7.944V23.087z M185.955,28.829
		h6.922v2.119h-6.922V28.829z M185.955,34.469h7.944v2.128h-7.944V34.469z"/>
	<path class="st1" d="M194.55,23.087h9.719v2.128h-9.719V23.087z M198.304,24.192h2.211v12.405h-2.211V24.192z"/>
	<path class="st1" d="M208.822,23.087h2.221v13.511h-2.221V23.087z M209.742,23.087h7.944v2.128h-7.944V23.087z M209.742,28.829
		h6.922v2.119h-6.922V28.829z M209.742,34.469h7.944v2.128h-7.944V34.469z"/>
	<path class="st1" d="M222.612,31.273l1.208,1.747l-2.342,3.577h-2.397L222.612,31.273z M222.872,32.407l-3.643-5.455h2.453
		l2.546,4.107l3.717,5.538h-2.443L222.872,32.407z M223.393,30.372l1.951-3.42h2.453l-3.262,5.204L223.393,30.372z"/>
	<path class="st1" d="M230.213,35.998c-0.551-0.492-0.826-1.24-0.826-2.244c0-0.953,0.278-1.669,0.836-2.146
		c0.558-0.477,1.394-0.715,2.509-0.715h2.583l0.13,1.728h-2.703c-0.44,0-0.771,0.094-0.99,0.279s-0.33,0.471-0.33,0.854
		c0,0.403,0.143,0.702,0.428,0.897c0.285,0.194,0.716,0.292,1.292,0.292c0.706,0,1.23-0.077,1.574-0.232
		c0.345-0.154,0.517-0.396,0.517-0.725l0.194,1.375c-0.105,0.304-0.289,0.558-0.553,0.763c-0.263,0.204-0.58,0.357-0.952,0.46
		c-0.372,0.102-0.777,0.153-1.218,0.153C231.595,36.737,230.765,36.491,230.213,35.998z M235.231,30.483
		c0-0.539-0.16-0.957-0.479-1.255c-0.319-0.297-0.771-0.445-1.353-0.445c-0.372,0-0.737,0.059-1.097,0.176
		c-0.359,0.118-0.682,0.282-0.966,0.493l-1.478-1.245c0.378-0.44,0.873-0.782,1.486-1.027c0.613-0.244,1.295-0.367,2.045-0.367
		c0.817,0,1.518,0.142,2.1,0.423c0.582,0.282,1.026,0.691,1.333,1.227c0.307,0.536,0.46,1.183,0.46,1.938v6.198h-2.053V30.483z"/>
	<path class="st1" d="M239.979,26.952h2.221v9.646h-2.221V26.952z M245.675,30.892c0-0.626-0.153-1.107-0.46-1.445
		s-0.742-0.507-1.306-0.507c-0.545,0-0.966,0.147-1.264,0.441c-0.297,0.295-0.446,0.711-0.446,1.25l-0.194-1.998
		c0.291-0.588,0.662-1.039,1.114-1.352s0.97-0.47,1.552-0.47c0.676,0,1.255,0.158,1.738,0.475c0.483,0.315,0.85,0.779,1.101,1.389
		c0.251,0.61,0.377,1.347,0.377,2.207v5.715h-2.212V30.892z M251.361,30.892c0-0.626-0.154-1.107-0.464-1.445
		c-0.311-0.338-0.75-0.507-1.32-0.507c-0.538,0-0.955,0.163-1.249,0.488c-0.295,0.325-0.441,0.788-0.441,1.39l-0.428-2.045
		c0.304-0.625,0.701-1.108,1.194-1.449c0.492-0.341,1.039-0.512,1.64-0.512c0.694,0,1.287,0.158,1.779,0.475
		c0.493,0.315,0.867,0.779,1.125,1.389c0.257,0.61,0.386,1.347,0.386,2.207v5.715h-2.222V30.892z"/>
	<path class="st1" d="M256.213,23.087h2.211v2.221h-2.211V23.087z M256.213,26.952h2.211v9.646h-2.211V26.952z"/>
	<path class="st1" d="M261.054,26.952h2.221v9.646h-2.221V26.952z M266.769,30.753c0-0.576-0.155-1.022-0.465-1.338
		c-0.31-0.316-0.749-0.475-1.319-0.475c-0.545,0-0.966,0.147-1.264,0.441c-0.297,0.295-0.446,0.711-0.446,1.25l-0.194-1.998
		c0.291-0.595,0.658-1.046,1.101-1.356c0.443-0.31,0.965-0.465,1.565-0.465c1.028,0,1.826,0.343,2.394,1.027
		c0.566,0.685,0.85,1.652,0.85,2.903v5.854h-2.221V30.753z"/>
	<path class="st1" d="M272.046,35.998c-0.551-0.492-0.826-1.24-0.826-2.244c0-0.953,0.278-1.669,0.836-2.146
		c0.558-0.477,1.394-0.715,2.509-0.715h2.583l0.13,1.728h-2.703c-0.44,0-0.771,0.094-0.99,0.279s-0.33,0.471-0.33,0.854
		c0,0.403,0.143,0.702,0.428,0.897c0.285,0.194,0.716,0.292,1.292,0.292c0.706,0,1.23-0.077,1.574-0.232
		c0.345-0.154,0.517-0.396,0.517-0.725l0.194,1.375c-0.105,0.304-0.289,0.558-0.553,0.763c-0.263,0.204-0.58,0.357-0.952,0.46
		c-0.372,0.102-0.777,0.153-1.218,0.153C273.428,36.737,272.598,36.491,272.046,35.998z M277.064,30.483
		c0-0.539-0.16-0.957-0.479-1.255c-0.319-0.297-0.771-0.445-1.353-0.445c-0.372,0-0.737,0.059-1.097,0.176
		c-0.359,0.118-0.682,0.282-0.966,0.493l-1.478-1.245c0.378-0.44,0.873-0.782,1.486-1.027c0.613-0.244,1.295-0.367,2.045-0.367
		c0.817,0,1.518,0.142,2.1,0.423c0.582,0.282,1.026,0.691,1.333,1.227c0.307,0.536,0.46,1.183,0.46,1.938v6.198h-2.053V30.483z"/>
	<path class="st1" d="M281.069,26.952h4.534v1.942h-4.534V26.952z M282.631,35.998c-0.378-0.431-0.567-1.066-0.567-1.909v-9.942
		h2.221v9.636c0,0.235,0.047,0.417,0.14,0.544s0.229,0.19,0.409,0.19h0.771v2.128h-1.188
		C283.603,36.644,283.008,36.428,282.631,35.998z"/>
	<path class="st1" d="M287.955,23.087h2.211v2.221h-2.211V23.087z M287.955,26.952h2.211v9.646h-2.211V26.952z"/>
	<path class="st1" d="M294.39,36.244c-0.61-0.328-1.075-0.807-1.394-1.436c-0.319-0.628-0.479-1.386-0.479-2.271v-1.57
		c0-0.874,0.159-1.622,0.479-2.244c0.318-0.623,0.783-1.097,1.394-1.422s1.343-0.488,2.197-0.488c0.855,0,1.588,0.163,2.198,0.488
		s1.074,0.799,1.394,1.422c0.319,0.622,0.479,1.37,0.479,2.244v1.598c0,0.88-0.159,1.631-0.479,2.254
		c-0.319,0.622-0.783,1.098-1.394,1.426c-0.61,0.329-1.343,0.493-2.198,0.493C295.732,36.737,295,36.573,294.39,36.244z
		 M297.953,34.075c0.322-0.356,0.483-0.86,0.483-1.511v-1.598c0-0.645-0.161-1.144-0.483-1.496c-0.322-0.354-0.777-0.53-1.366-0.53
		c-0.588,0-1.043,0.177-1.365,0.53c-0.322,0.353-0.483,0.852-0.483,1.496v1.598c0,0.65,0.159,1.154,0.479,1.511
		c0.319,0.355,0.776,0.534,1.37,0.534C297.176,34.609,297.631,34.43,297.953,34.075z"/>
	<path class="st1" d="M303.166,26.952h2.221v9.646h-2.221V26.952z M308.881,30.753c0-0.576-0.155-1.022-0.465-1.338
		c-0.31-0.316-0.749-0.475-1.319-0.475c-0.545,0-0.966,0.147-1.264,0.441c-0.297,0.295-0.446,0.711-0.446,1.25l-0.194-1.998
		c0.291-0.595,0.658-1.046,1.101-1.356c0.443-0.31,0.965-0.465,1.565-0.465c1.028,0,1.826,0.343,2.394,1.027
		c0.566,0.685,0.85,1.652,0.85,2.903v5.854h-2.221V30.753z"/>
	<path class="st1" d="M158.873,53.534v2.118h-6.431v-2.118H158.873z"/>
	<path class="st1" d="M161.571,59.114c-0.622-0.307-1.119-0.739-1.491-1.297l1.813-1.31c0.198,0.291,0.458,0.517,0.78,0.678
		s0.675,0.242,1.06,0.242c0.619,0,1.097-0.2,1.431-0.6c0.335-0.399,0.502-0.965,0.502-1.696v-9.208h2.268v9.218
		c0,0.936-0.168,1.734-0.502,2.397c-0.335,0.663-0.821,1.168-1.459,1.515s-1.406,0.521-2.305,0.521
		C162.893,59.574,162.194,59.42,161.571,59.114z"/>
	<path class="st1" d="M173.127,55.652c0,0.57,0.152,1.012,0.456,1.324c0.303,0.313,0.73,0.47,1.282,0.47
		c0.551,0,0.976-0.147,1.272-0.441c0.298-0.294,0.446-0.717,0.446-1.269l0.13,2.063c-0.186,0.502-0.495,0.924-0.929,1.264
		c-0.434,0.341-0.964,0.512-1.589,0.512c-1.047,0-1.857-0.338-2.431-1.013c-0.572-0.676-0.859-1.63-0.859-2.862v-5.91h2.221V55.652z
		 M176.584,49.789h2.212v9.646h-2.212V49.789z"/>
	<path class="st1" d="M183.711,56.6c0,0.235,0.06,0.417,0.177,0.544c0.118,0.127,0.285,0.19,0.502,0.19h0.66v2.128h-1.208
		c-0.744,0-1.321-0.224-1.733-0.67c-0.412-0.445-0.618-1.074-0.618-1.886V45.923h2.221V56.6z"/>
	<path class="st1" d="M185.979,49.789h2.165l3.104,8.382l-1.329,2.054L185.979,49.789z M194.703,49.789l-4.199,11.903
		c-0.155,0.44-0.353,0.788-0.591,1.046c-0.238,0.257-0.534,0.441-0.887,0.553c-0.354,0.111-0.787,0.167-1.302,0.167h-0.474v-2.146
		h0.474c0.316,0,0.572-0.065,0.767-0.195c0.195-0.13,0.355-0.35,0.479-0.659l3.567-10.668H194.703z"/>
	<path class="st1" d="M199.146,57.464l4.674-6.188c0.241-0.316,0.429-0.643,0.563-0.98c0.133-0.338,0.199-0.652,0.199-0.943v-0.019
		c0-0.452-0.138-0.802-0.413-1.05c-0.276-0.248-0.668-0.372-1.176-0.372c-0.489,0-0.884,0.15-1.185,0.451
		c-0.301,0.3-0.481,0.726-0.544,1.277v0.009h-2.285V49.64c0.086-0.812,0.303-1.505,0.65-2.081c0.347-0.576,0.805-1.017,1.375-1.32
		c0.569-0.303,1.227-0.455,1.97-0.455c0.824,0,1.527,0.138,2.109,0.414c0.582,0.275,1.026,0.677,1.333,1.203s0.46,1.161,0.46,1.904
		v0.01c0,0.545-0.104,1.098-0.311,1.658c-0.208,0.562-0.494,1.086-0.859,1.575l-3.624,4.758h4.869v2.128h-7.806V57.464z"/>
	<path class="st1" d="M210.189,58.561c-0.673-0.676-1.009-1.617-1.009-2.825v-6.143c0-1.214,0.338-2.157,1.013-2.829
		c0.676-0.672,1.654-1.008,2.937-1.008c1.288,0,2.269,0.334,2.941,1.003c0.672,0.669,1.008,1.614,1.008,2.834v6.143
		c0,1.214-0.338,2.157-1.013,2.829c-0.676,0.673-1.654,1.009-2.937,1.009C211.842,59.574,210.861,59.236,210.189,58.561z
		 M214.44,56.92c0.278-0.35,0.418-0.854,0.418-1.51v-5.492c0-0.656-0.14-1.159-0.418-1.51c-0.279-0.35-0.716-0.524-1.311-0.524
		s-1.031,0.175-1.311,0.524c-0.278,0.351-0.418,0.854-0.418,1.51v5.492c0,0.656,0.14,1.16,0.418,1.51
		c0.279,0.351,0.716,0.525,1.311,0.525S214.161,57.271,214.44,56.92z"/>
	<path class="st1" d="M223.128,59.434h-2.221V48.451l-1.784,0.901V47.02l1.97-1.097h2.035V59.434z"/>
	<path class="st1" d="M227.858,59.109c-0.632-0.31-1.122-0.748-1.469-1.314c-0.347-0.567-0.521-1.226-0.521-1.975v-0.224
		c0-0.675,0.179-1.31,0.535-1.904c0.355-0.595,0.828-1.044,1.417-1.348c-0.502-0.261-0.906-0.635-1.213-1.124
		s-0.46-1.007-0.46-1.552v-0.335c0-0.706,0.162-1.327,0.487-1.863c0.325-0.535,0.782-0.951,1.371-1.245
		c0.588-0.294,1.272-0.441,2.054-0.441c0.78,0,1.465,0.147,2.054,0.441c0.588,0.294,1.045,0.71,1.37,1.245
		c0.325,0.536,0.488,1.157,0.488,1.863v0.335c0,0.557-0.157,1.079-0.47,1.565s-0.724,0.856-1.231,1.11
		c0.595,0.31,1.073,0.761,1.436,1.352c0.363,0.592,0.544,1.226,0.544,1.9v0.224c0,0.749-0.174,1.407-0.521,1.975
		c-0.347,0.566-0.836,1.005-1.468,1.314s-1.366,0.465-2.202,0.465C229.224,59.574,228.49,59.419,227.858,59.109z M231.097,57.204
		c0.3-0.154,0.532-0.374,0.696-0.659s0.247-0.61,0.247-0.976v-0.131c0-0.358-0.083-0.675-0.247-0.947s-0.395-0.484-0.692-0.637
		c-0.297-0.151-0.644-0.228-1.04-0.228s-0.743,0.076-1.041,0.228c-0.297,0.152-0.528,0.365-0.692,0.642
		c-0.164,0.275-0.246,0.593-0.246,0.952v0.14c0,0.365,0.082,0.688,0.246,0.971s0.396,0.499,0.697,0.65
		c0.3,0.152,0.646,0.228,1.036,0.228C230.45,57.436,230.796,57.359,231.097,57.204z M230.947,51.271
		c0.258-0.146,0.456-0.354,0.595-0.623c0.14-0.27,0.21-0.58,0.21-0.934v-0.13c0-0.328-0.07-0.619-0.21-0.874
		c-0.139-0.254-0.337-0.448-0.595-0.585c-0.257-0.136-0.553-0.204-0.887-0.204c-0.335,0-0.631,0.068-0.888,0.204
		c-0.257,0.137-0.455,0.331-0.595,0.585c-0.14,0.255-0.209,0.549-0.209,0.883v0.14c0,0.347,0.069,0.653,0.209,0.92
		s0.338,0.473,0.595,0.618s0.553,0.218,0.888,0.218C230.395,51.489,230.69,51.417,230.947,51.271z"/>
</g>
</svg>