<!-- Generator: Adobe Illustrator 22.1.0, SVG Export Plug-In  -->
<svg version="1.1"
	 xmlns="http://www.w3.org/2000/svg" xmlns:xlink="http://www.w3.org/1999/xlink" xmlns:a="http://ns.adobe.com/AdobeSVGViewerExtensions/3.0/"
	 x="0px" y="0px" width="260px" height="55px" viewBox="0 0 260 55" style="enable-background:new 0 0 260 55;"
	 xml:space="preserve">
<style type="text/css">
	.st0{fill:#1B1464;}
	.st1{fill:#FFFFFF;}
</style>
<defs>
</defs>
<rect class="st0" width="260" height="55"/>
<g>
	<path class="st1" d="M34.375,24.448c-0.425-0.21-0.765-0.505-1.019-0.886l1.238-0.895c0.135,0.199,0.313,0.354,0.533,0.463
		s0.461,0.165,0.724,0.165c0.423,0,0.749-0.137,0.978-0.409c0.229-0.273,0.343-0.659,0.343-1.159v-6.291h1.549v6.297
		c0,0.639-0.114,1.185-0.343,1.638s-0.561,0.798-0.997,1.035s-0.96,0.355-1.574,0.355C35.278,24.762,34.801,24.657,34.375,24.448z"
		/>
	<path class="st1" d="M41.841,24.425c-0.417-0.224-0.734-0.551-0.952-0.98c-0.218-0.43-0.327-0.947-0.327-1.552V20.82
		c0-0.597,0.109-1.107,0.327-1.533c0.218-0.425,0.535-0.749,0.952-0.971c0.417-0.223,0.917-0.333,1.501-0.333
		s1.084,0.111,1.501,0.333c0.417,0.222,0.734,0.546,0.952,0.971c0.218,0.426,0.327,0.937,0.327,1.533v1.092
		c0,0.601-0.109,1.114-0.327,1.539c-0.218,0.426-0.535,0.75-0.952,0.975c-0.417,0.224-0.917,0.336-1.501,0.336
		S42.257,24.649,41.841,24.425z M44.275,22.943c0.22-0.243,0.33-0.587,0.33-1.031V20.82c0-0.44-0.11-0.781-0.33-1.022
		s-0.531-0.362-0.933-0.362s-0.713,0.121-0.933,0.362s-0.33,0.582-0.33,1.022v1.092c0,0.444,0.109,0.788,0.327,1.031
		c0.218,0.244,0.53,0.365,0.937,0.365C43.744,23.308,44.055,23.187,44.275,22.943z"/>
	<path class="st1" d="M47.792,15.437h1.511v1.517h-1.511V15.437z M47.792,18.078h1.511v6.589h-1.511V18.078z"/>
	<path class="st1" d="M51.099,18.078h1.517v6.589h-1.517V18.078z M55.002,20.674c0-0.394-0.106-0.698-0.317-0.914
		s-0.512-0.324-0.901-0.324c-0.373,0-0.66,0.101-0.863,0.302c-0.203,0.201-0.305,0.485-0.305,0.854l-0.133-1.365
		c0.199-0.406,0.45-0.715,0.752-0.927c0.303-0.211,0.659-0.317,1.07-0.317c0.703,0,1.248,0.234,1.634,0.702
		c0.388,0.467,0.581,1.128,0.581,1.983v3.999h-1.517V20.674z"/>
	<path class="st1" d="M57.853,18.078h3.098v1.327h-3.098V18.078z M58.919,24.257c-0.258-0.294-0.387-0.729-0.387-1.305v-6.792h1.517
		v6.583c0,0.161,0.032,0.285,0.095,0.372c0.063,0.086,0.157,0.13,0.279,0.13h0.527v1.454h-0.813
		C59.583,24.698,59.177,24.551,58.919,24.257z"/>
	<path class="st1" d="M64.949,15.437h1.517v9.229h-1.517V15.437z M65.578,15.437h5.427v1.454h-5.427V15.437z M65.578,19.36h4.729
		v1.447h-4.729V19.36z M65.578,23.213h5.427v1.454h-5.427V23.213z"/>
	<path class="st1" d="M72.592,18.078h1.517v6.589h-1.517V18.078z M76.496,20.674c0-0.394-0.106-0.698-0.317-0.914
		s-0.512-0.324-0.901-0.324c-0.373,0-0.66,0.101-0.863,0.302c-0.203,0.201-0.305,0.485-0.305,0.854l-0.133-1.365
		c0.199-0.406,0.45-0.715,0.752-0.927c0.303-0.211,0.659-0.317,1.07-0.317c0.703,0,1.248,0.234,1.634,0.702
		c0.388,0.467,0.581,1.128,0.581,1.983v3.999h-1.517V20.674z"/>
	<path class="st1" d="M79.346,18.078h3.098v1.327h-3.098V18.078z M80.412,24.257c-0.258-0.294-0.387-0.729-0.387-1.305v-6.792h1.517
		v6.583c0,0.161,0.032,0.285,0.095,0.372c0.063,0.086,0.157,0.13,0.279,0.13h0.527v1.454h-0.813
		C81.077,24.698,80.67,24.551,80.412,24.257z"/>
	<path class="st1" d="M84.094,18.078h1.581v6.589h-1.581V18.078z M87.388,19.522c-0.148-0.058-0.319-0.086-0.514-0.086
		c-0.381,0-0.676,0.113-0.886,0.34c-0.209,0.226-0.314,0.541-0.314,0.942l-0.133-1.492c0.19-0.394,0.439-0.699,0.746-0.917
		c0.307-0.218,0.644-0.327,1.012-0.327c0.288,0,0.548,0.043,0.781,0.13c0.233,0.086,0.436,0.214,0.609,0.384l-0.927,1.276
		C87.661,19.663,87.536,19.579,87.388,19.522z"/>
	<path class="st1" d="M89.889,24.257c-0.376-0.337-0.565-0.848-0.565-1.533c0-0.652,0.19-1.141,0.571-1.466s0.952-0.489,1.714-0.489
		h1.765l0.089,1.181h-1.847c-0.3,0-0.526,0.063-0.676,0.19c-0.15,0.127-0.225,0.322-0.225,0.584c0,0.275,0.097,0.479,0.292,0.612
		c0.195,0.134,0.489,0.2,0.882,0.2c0.482,0,0.841-0.053,1.076-0.159c0.234-0.106,0.352-0.271,0.352-0.495l0.133,0.939
		c-0.072,0.208-0.198,0.381-0.378,0.521c-0.18,0.14-0.396,0.245-0.65,0.314c-0.254,0.07-0.531,0.105-0.832,0.105
		C90.833,24.762,90.266,24.593,89.889,24.257z M93.317,20.49c0-0.368-0.109-0.654-0.327-0.857c-0.218-0.203-0.526-0.305-0.924-0.305
		c-0.254,0-0.503,0.04-0.749,0.121s-0.465,0.192-0.66,0.336l-1.009-0.851c0.258-0.3,0.597-0.534,1.016-0.702
		c0.419-0.167,0.884-0.25,1.396-0.25c0.559,0,1.037,0.096,1.435,0.289c0.398,0.193,0.702,0.472,0.911,0.838
		c0.21,0.366,0.314,0.808,0.314,1.324v4.234h-1.403V20.49z"/>
	<path class="st1" d="M96.561,18.078h1.517v6.589h-1.517V18.078z M100.464,20.674c0-0.394-0.106-0.698-0.317-0.914
		s-0.512-0.324-0.901-0.324c-0.373,0-0.66,0.101-0.863,0.302c-0.203,0.201-0.305,0.485-0.305,0.854l-0.133-1.365
		c0.199-0.406,0.45-0.715,0.752-0.927c0.303-0.211,0.659-0.317,1.07-0.317c0.703,0,1.248,0.234,1.634,0.702
		c0.388,0.467,0.581,1.128,0.581,1.983v3.999h-1.517V20.674z"/>
	<path class="st1" d="M105.625,24.762c0,0-0.218-0.115-0.654-0.346c-0.436-0.23-0.768-0.567-0.997-1.009
		c-0.229-0.442-0.343-0.977-0.343-1.603v-0.895c0-0.618,0.114-1.146,0.343-1.584c0.229-0.438,0.561-0.771,0.997-1
		s0.96-0.343,1.574-0.343c0.351,0,0.682,0.042,0.994,0.124c0.311,0.083,0.59,0.202,0.838,0.359c0.247,0.157,0.454,0.347,0.619,0.571
		l-1.028,0.965c-0.173-0.182-0.376-0.322-0.609-0.419s-0.476-0.146-0.73-0.146c-0.47,0-0.833,0.128-1.092,0.384
		c-0.258,0.256-0.387,0.619-0.387,1.089v0.895c0,0.482,0.128,0.854,0.384,1.114c0.256,0.261,0.621,0.391,1.095,0.391
		c0.258,0,0.503-0.053,0.736-0.159s0.434-0.256,0.603-0.451l1.028,1.028c-0.169,0.22-0.377,0.407-0.625,0.562
		c-0.247,0.155-0.526,0.272-0.838,0.353c-0.311,0.081-0.64,0.121-0.987,0.121C105.932,24.762,105.625,24.762,105.625,24.762z"/>
	<path class="st1" d="M112.125,24.762c0,0-0.22-0.114-0.66-0.343s-0.776-0.564-1.009-1.006c-0.233-0.442-0.349-0.976-0.349-1.603
		v-0.743c0-0.652,0.111-1.208,0.333-1.669c0.223-0.461,0.546-0.813,0.972-1.054c0.425-0.241,0.936-0.362,1.533-0.362
		c0.563,0,1.044,0.141,1.444,0.422c0.4,0.281,0.705,0.688,0.914,1.222c0.21,0.533,0.314,1.176,0.314,1.93v0.432h-4.475v-1.111h3.066
		l-0.006-0.07c-0.042-0.461-0.171-0.819-0.387-1.073s-0.506-0.381-0.87-0.381c-0.457,0-0.811,0.143-1.06,0.428
		c-0.25,0.286-0.375,0.691-0.375,1.216v0.838c0,0.5,0.135,0.883,0.406,1.152c0.271,0.269,0.652,0.403,1.143,0.403
		c0.25,0,0.496-0.047,0.74-0.143c0.243-0.095,0.462-0.227,0.657-0.396l0.99,0.927c-0.334,0.313-0.71,0.556-1.126,0.727
		c-0.417,0.172-0.837,0.257-1.26,0.257C112.436,24.762,112.125,24.762,112.125,24.762z"/>
	<path class="st1" d="M119.615,15.437h1.517v9.229h-1.517V15.437z M120.244,15.437h5.427v1.454h-5.427V15.437z M120.244,19.36h4.729
		v1.447h-4.729V19.36z M120.244,23.213h5.427v1.454h-5.427V23.213z"/>
	<path class="st1" d="M129.035,21.029l0.825,1.193l-1.6,2.444h-1.638L129.035,21.029z M129.213,21.804l-2.488-3.726h1.676
		l1.739,2.806l2.539,3.783h-1.669L129.213,21.804z M129.568,20.414l1.333-2.336h1.676l-2.228,3.555L129.568,20.414z"/>
	<path class="st1" d="M134.228,24.257c-0.376-0.337-0.565-0.848-0.565-1.533c0-0.652,0.19-1.141,0.571-1.466
		s0.952-0.489,1.714-0.489h1.765l0.089,1.181h-1.847c-0.3,0-0.526,0.063-0.676,0.19c-0.15,0.127-0.225,0.322-0.225,0.584
		c0,0.275,0.097,0.479,0.292,0.612c0.195,0.134,0.489,0.2,0.882,0.2c0.482,0,0.841-0.053,1.076-0.159
		c0.234-0.106,0.352-0.271,0.352-0.495l0.133,0.939c-0.072,0.208-0.198,0.381-0.378,0.521c-0.18,0.14-0.396,0.245-0.65,0.314
		c-0.254,0.07-0.531,0.105-0.832,0.105C135.171,24.762,134.604,24.593,134.228,24.257z M137.655,20.49
		c0-0.368-0.109-0.654-0.327-0.857c-0.218-0.203-0.526-0.305-0.924-0.305c-0.254,0-0.503,0.04-0.749,0.121s-0.465,0.192-0.66,0.336
		l-1.009-0.851c0.258-0.3,0.597-0.534,1.016-0.702c0.419-0.167,0.884-0.25,1.396-0.25c0.559,0,1.037,0.096,1.435,0.289
		c0.398,0.193,0.702,0.472,0.911,0.838c0.21,0.366,0.314,0.808,0.314,1.324v4.234h-1.403V20.49z"/>
	<path class="st1" d="M140.899,18.078h1.517v6.589h-1.517V18.078z M144.79,20.769c0-0.427-0.105-0.756-0.314-0.987
		c-0.21-0.23-0.507-0.346-0.892-0.346c-0.373,0-0.66,0.101-0.863,0.302c-0.203,0.201-0.305,0.485-0.305,0.854l-0.133-1.365
		c0.199-0.402,0.453-0.71,0.762-0.923c0.309-0.214,0.662-0.321,1.06-0.321c0.461,0,0.857,0.108,1.187,0.324s0.581,0.532,0.752,0.949
		c0.172,0.417,0.257,0.919,0.257,1.507v3.904h-1.511V20.769z M148.675,20.769c0-0.427-0.106-0.756-0.317-0.987
		c-0.211-0.23-0.512-0.346-0.901-0.346c-0.368,0-0.653,0.111-0.854,0.333c-0.201,0.223-0.301,0.539-0.301,0.949l-0.292-1.396
		c0.208-0.427,0.479-0.757,0.816-0.99c0.336-0.233,0.709-0.349,1.12-0.349c0.474,0,0.879,0.108,1.216,0.324
		c0.336,0.216,0.592,0.532,0.768,0.949c0.176,0.417,0.264,0.919,0.264,1.507v3.904h-1.517V20.769z"/>
	<path class="st1" d="M151.988,15.437h1.511v1.517h-1.511V15.437z M151.988,18.078h1.511v6.589h-1.511V18.078z"/>
	<path class="st1" d="M155.295,18.078h1.517v6.589h-1.517V18.078z M159.199,20.674c0-0.394-0.106-0.698-0.317-0.914
		s-0.512-0.324-0.901-0.324c-0.373,0-0.66,0.101-0.863,0.302c-0.203,0.201-0.305,0.485-0.305,0.854l-0.133-1.365
		c0.199-0.406,0.45-0.715,0.752-0.927c0.303-0.211,0.659-0.317,1.07-0.317c0.703,0,1.248,0.234,1.634,0.702
		c0.388,0.467,0.581,1.128,0.581,1.983v3.999h-1.517V20.674z"/>
	<path class="st1" d="M162.805,24.257c-0.376-0.337-0.565-0.848-0.565-1.533c0-0.652,0.19-1.141,0.571-1.466
		s0.952-0.489,1.714-0.489h1.765l0.089,1.181h-1.847c-0.3,0-0.526,0.063-0.676,0.19c-0.15,0.127-0.225,0.322-0.225,0.584
		c0,0.275,0.097,0.479,0.292,0.612c0.195,0.134,0.489,0.2,0.882,0.2c0.482,0,0.841-0.053,1.076-0.159
		c0.234-0.106,0.352-0.271,0.352-0.495l0.133,0.939c-0.072,0.208-0.198,0.381-0.378,0.521c-0.18,0.14-0.396,0.245-0.65,0.314
		c-0.254,0.07-0.531,0.105-0.832,0.105C163.749,24.762,163.181,24.593,162.805,24.257z M166.232,20.49
		c0-0.368-0.109-0.654-0.327-0.857c-0.218-0.203-0.526-0.305-0.924-0.305c-0.254,0-0.503,0.04-0.749,0.121s-0.465,0.192-0.66,0.336
		l-1.009-0.851c0.258-0.3,0.597-0.534,1.016-0.702c0.419-0.167,0.884-0.25,1.396-0.25c0.559,0,1.037,0.096,1.435,0.289
		c0.398,0.193,0.702,0.472,0.911,0.838c0.21,0.366,0.314,0.808,0.314,1.324v4.234h-1.403V20.49z"/>
	<path class="st1" d="M168.968,18.078h3.098v1.327h-3.098V18.078z M170.035,24.257c-0.258-0.294-0.387-0.729-0.387-1.305v-6.792
		h1.517v6.583c0,0.161,0.032,0.285,0.095,0.372c0.063,0.086,0.157,0.13,0.279,0.13h0.527v1.454h-0.813
		C170.699,24.698,170.293,24.551,170.035,24.257z"/>
	<path class="st1" d="M173.672,15.437h1.511v1.517h-1.511V15.437z M173.672,18.078h1.511v6.589h-1.511V18.078z"/>
	<path class="st1" d="M178.068,24.425c-0.417-0.224-0.734-0.551-0.952-0.98c-0.218-0.43-0.327-0.947-0.327-1.552V20.82
		c0-0.597,0.109-1.107,0.327-1.533c0.218-0.425,0.535-0.749,0.952-0.971c0.417-0.223,0.917-0.333,1.501-0.333
		s1.084,0.111,1.501,0.333c0.417,0.222,0.734,0.546,0.952,0.971c0.218,0.426,0.327,0.937,0.327,1.533v1.092
		c0,0.601-0.109,1.114-0.327,1.539c-0.218,0.426-0.535,0.75-0.952,0.975c-0.417,0.224-0.917,0.336-1.501,0.336
		S178.484,24.649,178.068,24.425z M180.502,22.943c0.22-0.243,0.33-0.587,0.33-1.031V20.82c0-0.44-0.11-0.781-0.33-1.022
		s-0.531-0.362-0.933-0.362s-0.713,0.121-0.933,0.362s-0.33,0.582-0.33,1.022v1.092c0,0.444,0.109,0.788,0.327,1.031
		c0.218,0.244,0.53,0.365,0.937,0.365C179.971,23.308,180.282,23.187,180.502,22.943z"/>
	<path class="st1" d="M184.063,18.078h1.517v6.589h-1.517V18.078z M187.967,20.674c0-0.394-0.106-0.698-0.317-0.914
		s-0.512-0.324-0.901-0.324c-0.373,0-0.66,0.101-0.863,0.302c-0.203,0.201-0.305,0.485-0.305,0.854l-0.133-1.365
		c0.199-0.406,0.45-0.715,0.752-0.927c0.303-0.211,0.659-0.317,1.07-0.317c0.703,0,1.248,0.234,1.634,0.702
		c0.388,0.467,0.581,1.128,0.581,1.983v3.999h-1.517V20.674z"/>
	<path class="st1" d="M192.029,23.908c-0.385-1.013-0.578-2.131-0.578-3.354s0.192-2.341,0.578-3.354
		c0.385-1.014,0.965-1.929,1.739-2.746l0.952,1.028c-0.609,0.681-1.064,1.443-1.365,2.285s-0.451,1.771-0.451,2.787
		s0.15,1.944,0.451,2.787s0.755,1.606,1.365,2.292l-0.952,1.022C192.994,25.836,192.415,24.921,192.029,23.908z"/>
	<path class="st1" d="M202.084,15.437h1.752v9.229h-1.422v-7.04l0.063,0.406l-2.019,5.478h-1.219l-2.019-5.351l0.063-0.533v7.04
		h-1.422v-9.229h1.752l2.234,6.157L202.084,15.437z"/>
	<path class="st1" d="M206.115,24.257c-0.376-0.337-0.565-0.848-0.565-1.533c0-0.652,0.19-1.141,0.571-1.466
		s0.952-0.489,1.714-0.489h1.765l0.089,1.181h-1.847c-0.3,0-0.526,0.063-0.676,0.19c-0.15,0.127-0.225,0.322-0.225,0.584
		c0,0.275,0.097,0.479,0.292,0.612c0.195,0.134,0.489,0.2,0.882,0.2c0.482,0,0.841-0.053,1.076-0.159
		c0.234-0.106,0.352-0.271,0.352-0.495l0.133,0.939c-0.072,0.208-0.198,0.381-0.378,0.521c-0.18,0.14-0.396,0.245-0.65,0.314
		c-0.254,0.07-0.531,0.105-0.832,0.105C207.059,24.762,206.491,24.593,206.115,24.257z M209.542,20.49
		c0-0.368-0.109-0.654-0.327-0.857c-0.218-0.203-0.526-0.305-0.924-0.305c-0.254,0-0.503,0.04-0.749,0.121s-0.465,0.192-0.66,0.336
		l-1.009-0.851c0.258-0.3,0.597-0.534,1.016-0.702c0.419-0.167,0.884-0.25,1.396-0.25c0.559,0,1.037,0.096,1.435,0.289
		c0.398,0.193,0.702,0.472,0.911,0.838c0.21,0.366,0.314,0.808,0.314,1.324v4.234h-1.403V20.49z"/>
	<path class="st1" d="M212.742,15.437h1.511v1.517h-1.511V15.437z M212.742,18.078h1.511v6.589h-1.511V18.078z"/>
	<path class="st1" d="M216.049,18.078h1.518v6.589h-1.518V18.078z M219.953,20.674c0-0.394-0.106-0.698-0.318-0.914
		c-0.211-0.216-0.512-0.324-0.9-0.324c-0.373,0-0.66,0.101-0.863,0.302c-0.203,0.201-0.305,0.485-0.305,0.854l-0.134-1.365
		c0.198-0.406,0.45-0.715,0.752-0.927c0.303-0.211,0.659-0.317,1.069-0.317c0.703,0,1.248,0.234,1.635,0.702
		c0.388,0.467,0.581,1.128,0.581,1.983v3.999h-1.517V20.674z"/>
	<path class="st1" d="M222.422,25.631c0.609-0.686,1.064-1.449,1.365-2.292c0.3-0.842,0.45-1.771,0.45-2.787s-0.15-1.944-0.45-2.787
		c-0.301-0.842-0.756-1.604-1.365-2.285l0.952-1.028c0.774,0.817,1.354,1.732,1.739,2.746c0.385,1.013,0.578,2.131,0.578,3.354
		s-0.193,2.341-0.578,3.354c-0.385,1.014-0.965,1.929-1.739,2.746L222.422,25.631z"/>
	<path class="st1" d="M31.053,38.921l3.193-4.228c0.165-0.216,0.293-0.439,0.384-0.67c0.091-0.23,0.136-0.445,0.136-0.644v-0.013
		c0-0.309-0.094-0.548-0.283-0.717c-0.188-0.169-0.456-0.254-0.803-0.254c-0.334,0-0.604,0.103-0.81,0.308
		c-0.205,0.206-0.329,0.497-0.371,0.873v0.006h-1.562v-0.006c0.059-0.554,0.208-1.028,0.444-1.422s0.55-0.694,0.939-0.901
		s0.838-0.311,1.346-0.311c0.563,0,1.043,0.094,1.441,0.283c0.398,0.188,0.702,0.462,0.911,0.822c0.21,0.36,0.314,0.793,0.314,1.301
		v0.006c0,0.373-0.071,0.75-0.213,1.133c-0.142,0.383-0.337,0.741-0.587,1.076l-2.476,3.25h3.326v1.454h-5.332V38.921z"/>
	<path class="st1" d="M38.597,39.67c-0.459-0.461-0.688-1.104-0.688-1.93v-4.196c0-0.83,0.23-1.474,0.692-1.933
		c0.461-0.459,1.13-0.688,2.006-0.688c0.88,0,1.55,0.229,2.009,0.686c0.459,0.457,0.688,1.103,0.688,1.936v4.196
		c0,0.83-0.23,1.474-0.692,1.933c-0.461,0.459-1.13,0.689-2.006,0.689C39.726,40.362,39.056,40.131,38.597,39.67z M41.501,38.55
		c0.19-0.239,0.286-0.583,0.286-1.032v-3.751c0-0.449-0.095-0.792-0.286-1.031c-0.19-0.239-0.489-0.359-0.895-0.359
		s-0.705,0.12-0.895,0.359c-0.19,0.239-0.286,0.583-0.286,1.031v3.751c0,0.449,0.095,0.792,0.286,1.032
		c0.19,0.239,0.489,0.358,0.895,0.358S41.311,38.789,41.501,38.55z"/>
	<path class="st1" d="M47.436,40.267h-1.517v-7.503L44.7,33.379v-1.593l1.346-0.749h1.39V40.267z"/>
	<path class="st1" d="M50.667,40.044c-0.432-0.211-0.766-0.511-1.003-0.898c-0.237-0.388-0.355-0.837-0.355-1.349v-0.152
		c0-0.461,0.122-0.895,0.365-1.301c0.244-0.406,0.566-0.713,0.968-0.92c-0.343-0.178-0.619-0.434-0.829-0.768
		c-0.209-0.334-0.314-0.688-0.314-1.06v-0.229c0-0.482,0.111-0.907,0.333-1.273c0.222-0.366,0.534-0.649,0.936-0.851
		c0.402-0.201,0.87-0.301,1.403-0.301s1.001,0.101,1.403,0.301c0.402,0.201,0.714,0.485,0.936,0.851
		c0.223,0.366,0.333,0.791,0.333,1.273v0.229c0,0.381-0.107,0.737-0.321,1.07c-0.213,0.332-0.494,0.585-0.841,0.758
		c0.406,0.211,0.733,0.52,0.98,0.923c0.248,0.404,0.372,0.837,0.372,1.298v0.152c0,0.512-0.119,0.961-0.355,1.349
		c-0.237,0.387-0.571,0.687-1.003,0.898s-0.933,0.317-1.504,0.317S51.099,40.256,50.667,40.044z M52.879,38.743
		c0.205-0.106,0.364-0.256,0.476-0.451c0.112-0.195,0.168-0.417,0.168-0.667v-0.089c0-0.246-0.056-0.461-0.168-0.647
		c-0.112-0.186-0.27-0.331-0.473-0.435c-0.203-0.104-0.44-0.156-0.711-0.156s-0.508,0.052-0.711,0.156
		c-0.203,0.104-0.361,0.25-0.473,0.438c-0.112,0.188-0.168,0.405-0.168,0.651v0.095c0,0.25,0.056,0.471,0.168,0.663
		c0.112,0.193,0.271,0.341,0.476,0.444c0.206,0.104,0.441,0.156,0.708,0.156S52.674,38.849,52.879,38.743z M52.778,34.69
		c0.175-0.1,0.311-0.241,0.406-0.426c0.095-0.184,0.143-0.396,0.143-0.638v-0.089c0-0.224-0.048-0.423-0.143-0.597
		c-0.096-0.173-0.231-0.307-0.406-0.4c-0.176-0.093-0.378-0.14-0.606-0.14s-0.431,0.046-0.606,0.14
		c-0.175,0.093-0.311,0.227-0.406,0.4c-0.095,0.173-0.143,0.375-0.143,0.603v0.095c0,0.237,0.048,0.446,0.143,0.628
		c0.096,0.182,0.231,0.323,0.406,0.422c0.176,0.099,0.378,0.149,0.606,0.149S52.602,34.79,52.778,34.69z"/>
	<path class="st1" d="M61.172,36.236v1.447H56.78v-1.447H61.172z"/>
	<path class="st1" d="M66.803,31.037h1.143l1.828,6.697l1.409-6.697h1.568l-2.19,9.229h-1.479l-1.669-6.449l-1.746,6.449h-1.479
		l-2.19-9.229h1.568l1.409,6.697L66.803,31.037z"/>
	<path class="st1" d="M73.785,31.037h1.511v1.517h-1.511V31.037z M73.785,33.678h1.511v6.589h-1.511V33.678z"/>
	<path class="st1" d="M76.584,33.678h3.098v1.327h-3.098V33.678z M77.651,39.857c-0.258-0.294-0.387-0.729-0.387-1.305v-6.792h1.517
		v6.583c0,0.161,0.032,0.285,0.095,0.372c0.063,0.086,0.157,0.13,0.279,0.13h0.527v1.454H78.87
		C78.315,40.298,77.909,40.151,77.651,39.857z"/>
	<path class="st1" d="M81.333,31.037h1.517v9.229h-1.517V31.037z M85.236,36.274c0-0.394-0.106-0.698-0.317-0.914
		s-0.512-0.324-0.901-0.324c-0.373,0-0.66,0.1-0.863,0.298s-0.305,0.48-0.305,0.844l-0.133-1.365
		c0.199-0.398,0.45-0.703,0.752-0.914c0.303-0.211,0.659-0.317,1.07-0.317c0.703,0,1.248,0.234,1.634,0.702
		c0.388,0.467,0.581,1.128,0.581,1.983v3.999h-1.517V36.274z"/>
	<path class="st1" d="M90.943,31.031h1.517v9.236h-1.517V31.031z M91.571,35.004h3.18c0.211,0,0.399-0.052,0.562-0.156
		c0.163-0.104,0.289-0.25,0.378-0.441s0.135-0.413,0.14-0.667c0-0.25-0.044-0.47-0.133-0.66s-0.215-0.337-0.377-0.441
		c-0.163-0.104-0.353-0.155-0.568-0.155h-3.18v-1.454h3.225c0.521,0,0.978,0.112,1.371,0.336s0.699,0.542,0.917,0.952
		c0.218,0.411,0.327,0.884,0.327,1.422c0,0.542-0.109,1.018-0.327,1.428c-0.218,0.411-0.525,0.728-0.921,0.952
		c-0.396,0.224-0.852,0.336-1.368,0.336h-3.225V35.004z M93.799,36.172l1.574-0.292l2.425,4.386h-1.822L93.799,36.172z"/>
	<path class="st1" d="M99.347,39.857c-0.376-0.337-0.565-0.848-0.565-1.533c0-0.652,0.19-1.141,0.571-1.466s0.952-0.489,1.714-0.489
		h1.765l0.089,1.181h-1.847c-0.3,0-0.526,0.063-0.676,0.19c-0.15,0.127-0.225,0.322-0.225,0.584c0,0.275,0.097,0.479,0.292,0.612
		c0.195,0.134,0.489,0.2,0.882,0.2c0.482,0,0.841-0.053,1.076-0.159c0.234-0.106,0.352-0.271,0.352-0.495l0.133,0.939
		c-0.072,0.208-0.198,0.381-0.378,0.521c-0.18,0.14-0.396,0.245-0.65,0.314c-0.254,0.07-0.531,0.105-0.832,0.105
		C100.291,40.362,99.724,40.193,99.347,39.857z M102.775,36.09c0-0.368-0.109-0.654-0.327-0.857
		c-0.218-0.203-0.526-0.305-0.924-0.305c-0.254,0-0.503,0.04-0.749,0.121s-0.465,0.192-0.66,0.336l-1.009-0.851
		c0.258-0.3,0.597-0.534,1.016-0.702c0.419-0.167,0.884-0.25,1.396-0.25c0.559,0,1.037,0.096,1.435,0.289
		c0.398,0.193,0.702,0.472,0.911,0.838c0.21,0.366,0.314,0.808,0.314,1.324v4.234h-1.403V36.09z"/>
	<path class="st1" d="M106.019,33.678h1.517v6.589h-1.517V33.678z M109.922,36.274c0-0.394-0.106-0.698-0.317-0.914
		s-0.512-0.324-0.901-0.324c-0.373,0-0.66,0.101-0.863,0.302c-0.203,0.201-0.305,0.485-0.305,0.854l-0.133-1.365
		c0.199-0.406,0.45-0.715,0.752-0.927c0.303-0.211,0.659-0.317,1.07-0.317c0.703,0,1.248,0.234,1.634,0.702
		c0.388,0.467,0.581,1.128,0.581,1.983v3.999h-1.517V36.274z"/>
	<path class="st1" d="M113.28,31.037h1.517v9.229h-1.517V31.037z M113.966,37.829l3.231-4.151h1.682l-4.837,5.878L113.966,37.829z
		 M115.508,36.661l1.136-0.863l2.558,4.469h-1.708L115.508,36.661z"/>
	<path class="st1" d="M120.859,39.508c-0.385-1.013-0.578-2.131-0.578-3.354s0.192-2.341,0.578-3.354
		c0.385-1.014,0.965-1.929,1.739-2.746l0.952,1.028c-0.609,0.681-1.064,1.443-1.365,2.285s-0.451,1.771-0.451,2.787
		s0.15,1.944,0.451,2.787s0.755,1.606,1.365,2.292l-0.952,1.022C121.824,41.437,121.245,40.521,120.859,39.508z"/>
	<path class="st1" d="M124.693,31.037h1.511v9.229h-1.511V31.037z M125.455,38.832h2.723c0.529,0,0.922-0.111,1.181-0.333
		c0.258-0.223,0.387-0.532,0.387-0.93V37.55c0-0.275-0.051-0.51-0.152-0.705s-0.258-0.344-0.47-0.448
		c-0.211-0.104-0.474-0.155-0.787-0.155h-2.882V34.82h2.882c0.419,0,0.738-0.102,0.958-0.305s0.33-0.497,0.33-0.882
		c0-0.381-0.116-0.669-0.349-0.867c-0.233-0.196-0.576-0.295-1.028-0.295h-2.793v-1.435h2.939c0.597,0,1.101,0.101,1.514,0.302
		c0.412,0.201,0.724,0.487,0.933,0.86c0.21,0.373,0.314,0.819,0.314,1.339c0,0.338-0.066,0.646-0.2,0.924
		c-0.133,0.277-0.33,0.509-0.59,0.695c-0.261,0.186-0.579,0.313-0.956,0.381c0.389,0.055,0.724,0.183,1.003,0.384
		c0.279,0.201,0.493,0.457,0.641,0.768c0.148,0.312,0.222,0.659,0.222,1.044v0.019c0,0.512-0.111,0.958-0.333,1.336
		c-0.222,0.379-0.542,0.67-0.958,0.873c-0.417,0.203-0.911,0.305-1.482,0.305h-3.047V38.832z"/>
	<path class="st1" d="M134.047,40.025c-0.417-0.224-0.734-0.551-0.952-0.98c-0.218-0.43-0.327-0.947-0.327-1.552V36.42
		c0-0.597,0.109-1.107,0.327-1.533c0.218-0.425,0.535-0.749,0.952-0.971c0.417-0.223,0.917-0.333,1.501-0.333
		s1.084,0.111,1.501,0.333c0.417,0.222,0.734,0.546,0.952,0.971c0.218,0.426,0.327,0.937,0.327,1.533v1.092
		c0,0.601-0.109,1.114-0.327,1.539c-0.218,0.426-0.535,0.75-0.952,0.975c-0.417,0.224-0.917,0.336-1.501,0.336
		S134.463,40.25,134.047,40.025z M136.481,38.543c0.22-0.243,0.33-0.587,0.33-1.031V36.42c0-0.44-0.11-0.781-0.33-1.022
		s-0.531-0.362-0.933-0.362s-0.713,0.121-0.933,0.362s-0.33,0.582-0.33,1.022v1.092c0,0.444,0.109,0.788,0.327,1.031
		c0.218,0.244,0.53,0.365,0.937,0.365C135.95,38.908,136.261,38.787,136.481,38.543z"/>
	<path class="st1" d="M139.534,33.678h3.098v1.327h-3.098V33.678z M140.601,39.857c-0.258-0.294-0.387-0.729-0.387-1.305v-6.792
		h1.517v6.583c0,0.161,0.032,0.285,0.095,0.372c0.063,0.086,0.157,0.13,0.279,0.13h0.527v1.454h-0.813
		C141.265,40.298,140.859,40.151,140.601,39.857z"/>
	<path class="st1" d="M144.282,31.037h1.517v9.229h-1.517V31.037z M148.186,36.274c0-0.394-0.106-0.698-0.317-0.914
		s-0.512-0.324-0.901-0.324c-0.373,0-0.66,0.1-0.863,0.298s-0.305,0.48-0.305,0.844l-0.133-1.365
		c0.199-0.398,0.45-0.703,0.752-0.914c0.303-0.211,0.659-0.317,1.07-0.317c0.703,0,1.248,0.234,1.634,0.702
		c0.388,0.467,0.581,1.128,0.581,1.983v3.999h-1.517V36.274z"/>
	<path class="st1" d="M153.766,33.678h1.517v9.268h-1.517V33.678z M155.841,40.066c-0.292-0.196-0.508-0.475-0.647-0.834
		l0.089-1.441c0,0.25,0.044,0.462,0.133,0.638c0.089,0.176,0.218,0.31,0.387,0.403s0.375,0.14,0.616,0.14
		c0.376,0,0.668-0.119,0.876-0.355s0.311-0.573,0.311-1.009v-1.238c0-0.444-0.104-0.788-0.311-1.031
		c-0.208-0.244-0.5-0.365-0.876-0.365c-0.241,0-0.446,0.045-0.616,0.137c-0.169,0.091-0.298,0.225-0.387,0.403
		s-0.133,0.392-0.133,0.641l-0.133-1.365c0.186-0.385,0.433-0.682,0.739-0.892c0.307-0.209,0.646-0.314,1.019-0.314
		c0.465,0,0.864,0.108,1.197,0.324c0.332,0.216,0.585,0.532,0.758,0.949c0.173,0.417,0.26,0.919,0.26,1.507v1.244
		c0,0.58-0.088,1.076-0.264,1.489c-0.175,0.412-0.433,0.727-0.771,0.942s-0.743,0.324-1.212,0.324
		C156.478,40.362,156.133,40.264,155.841,40.066z"/>
	<path class="st1" d="M161.084,39.857c-0.376-0.337-0.565-0.848-0.565-1.533c0-0.652,0.19-1.141,0.571-1.466
		s0.952-0.489,1.714-0.489h1.765l0.089,1.181h-1.847c-0.3,0-0.526,0.063-0.676,0.19c-0.15,0.127-0.225,0.322-0.225,0.584
		c0,0.275,0.097,0.479,0.292,0.612c0.195,0.134,0.489,0.2,0.882,0.2c0.482,0,0.841-0.053,1.076-0.159
		c0.234-0.106,0.352-0.271,0.352-0.495l0.133,0.939c-0.072,0.208-0.198,0.381-0.378,0.521c-0.18,0.14-0.396,0.245-0.65,0.314
		c-0.254,0.07-0.531,0.105-0.832,0.105C162.028,40.362,161.461,40.193,161.084,39.857z M164.512,36.09
		c0-0.368-0.109-0.654-0.327-0.857c-0.218-0.203-0.526-0.305-0.924-0.305c-0.254,0-0.503,0.04-0.749,0.121s-0.465,0.192-0.66,0.336
		l-1.009-0.851c0.258-0.3,0.597-0.534,1.016-0.702c0.419-0.167,0.884-0.25,1.396-0.25c0.559,0,1.037,0.096,1.435,0.289
		c0.398,0.193,0.702,0.472,0.911,0.838c0.21,0.366,0.314,0.808,0.314,1.324v4.234h-1.403V36.09z"/>
	<path class="st1" d="M167.756,33.678h1.517v9.268h-1.517V33.678z M169.832,40.066c-0.292-0.196-0.508-0.475-0.647-0.834
		l0.089-1.441c0,0.25,0.044,0.462,0.133,0.638c0.089,0.176,0.218,0.31,0.387,0.403s0.375,0.14,0.616,0.14
		c0.376,0,0.668-0.119,0.876-0.355s0.311-0.573,0.311-1.009v-1.238c0-0.444-0.104-0.788-0.311-1.031
		c-0.208-0.244-0.5-0.365-0.876-0.365c-0.241,0-0.446,0.045-0.616,0.137c-0.169,0.091-0.298,0.225-0.387,0.403
		s-0.133,0.392-0.133,0.641l-0.133-1.365c0.186-0.385,0.433-0.682,0.739-0.892c0.307-0.209,0.646-0.314,1.019-0.314
		c0.465,0,0.864,0.108,1.197,0.324c0.332,0.216,0.585,0.532,0.758,0.949c0.173,0.417,0.26,0.919,0.26,1.507v1.244
		c0,0.58-0.088,1.076-0.264,1.489c-0.175,0.412-0.433,0.727-0.771,0.942s-0.743,0.324-1.212,0.324
		C170.468,40.362,170.124,40.264,169.832,40.066z"/>
	<path class="st1" d="M176.655,40.362c0,0-0.22-0.114-0.66-0.343s-0.776-0.564-1.009-1.006c-0.233-0.442-0.349-0.976-0.349-1.603
		v-0.743c0-0.652,0.111-1.208,0.333-1.669c0.223-0.461,0.546-0.813,0.972-1.054c0.425-0.241,0.936-0.362,1.533-0.362
		c0.563,0,1.044,0.141,1.444,0.422c0.4,0.281,0.705,0.688,0.914,1.222c0.21,0.533,0.314,1.176,0.314,1.93v0.432h-4.475v-1.111h3.066
		l-0.006-0.07c-0.042-0.461-0.171-0.819-0.387-1.073s-0.506-0.381-0.87-0.381c-0.457,0-0.811,0.143-1.06,0.428
		c-0.25,0.286-0.375,0.691-0.375,1.216v0.838c0,0.5,0.135,0.883,0.406,1.152c0.271,0.269,0.652,0.403,1.143,0.403
		c0.25,0,0.496-0.047,0.74-0.143c0.243-0.095,0.462-0.227,0.657-0.396l0.99,0.927c-0.334,0.313-0.71,0.556-1.126,0.727
		c-0.417,0.172-0.837,0.257-1.26,0.257C176.966,40.362,176.655,40.362,176.655,40.362z"/>
	<path class="st1" d="M181.797,33.678h1.581v6.589h-1.581V33.678z M185.091,35.122c-0.148-0.058-0.319-0.086-0.514-0.086
		c-0.381,0-0.676,0.113-0.886,0.34c-0.209,0.226-0.314,0.541-0.314,0.942l-0.133-1.492c0.19-0.394,0.439-0.699,0.746-0.917
		c0.307-0.218,0.644-0.327,1.012-0.327c0.288,0,0.548,0.043,0.781,0.13c0.233,0.086,0.436,0.214,0.609,0.384l-0.927,1.276
		C185.364,35.263,185.239,35.179,185.091,35.122z"/>
	<path class="st1" d="M191.858,40.267h-1.517v-7.503l-1.219,0.616v-1.593l1.346-0.749h1.39V40.267z"/>
	<path class="st1" d="M196.358,39.857c-0.376-0.337-0.565-0.848-0.565-1.533c0-0.652,0.19-1.141,0.571-1.466
		s0.952-0.489,1.714-0.489h1.765l0.089,1.181h-1.847c-0.3,0-0.526,0.063-0.676,0.19c-0.15,0.127-0.225,0.322-0.225,0.584
		c0,0.275,0.097,0.479,0.292,0.612c0.195,0.134,0.489,0.2,0.882,0.2c0.482,0,0.841-0.053,1.076-0.159
		c0.234-0.106,0.352-0.271,0.352-0.495l0.133,0.939c-0.072,0.208-0.198,0.381-0.378,0.521c-0.18,0.14-0.396,0.245-0.65,0.314
		c-0.254,0.07-0.531,0.105-0.832,0.105C197.302,40.362,196.735,40.193,196.358,39.857z M199.786,36.09
		c0-0.368-0.109-0.654-0.327-0.857c-0.218-0.203-0.526-0.305-0.924-0.305c-0.254,0-0.503,0.04-0.749,0.121s-0.465,0.192-0.66,0.336
		l-1.009-0.851c0.258-0.3,0.597-0.534,1.016-0.702c0.419-0.167,0.884-0.25,1.396-0.25c0.559,0,1.037,0.096,1.435,0.289
		c0.398,0.193,0.702,0.472,0.911,0.838c0.21,0.366,0.314,0.808,0.314,1.324v4.234h-1.403V36.09z"/>
	<path class="st1" d="M203.03,33.678h1.517v6.589h-1.517V33.678z M206.934,36.274c0-0.394-0.106-0.698-0.317-0.914
		s-0.512-0.324-0.901-0.324c-0.373,0-0.66,0.101-0.863,0.302c-0.203,0.201-0.305,0.485-0.305,0.854l-0.133-1.365
		c0.199-0.406,0.45-0.715,0.752-0.927c0.303-0.211,0.659-0.317,1.07-0.317c0.703,0,1.248,0.234,1.634,0.702
		c0.388,0.467,0.581,1.128,0.581,1.983v3.999h-1.517V36.274z"/>
	<path class="st1" d="M211.132,40.048c-0.336-0.218-0.592-0.533-0.768-0.946c-0.176-0.412-0.264-0.911-0.264-1.495V36.35
		c0-0.584,0.087-1.084,0.26-1.501c0.173-0.417,0.426-0.734,0.758-0.952c0.333-0.218,0.731-0.327,1.197-0.327
		c0.373,0,0.712,0.104,1.019,0.311c0.307,0.208,0.553,0.5,0.739,0.876l-0.133,1.403c0-0.254-0.044-0.47-0.133-0.647
		s-0.218-0.313-0.387-0.406s-0.375-0.14-0.616-0.14c-0.376,0-0.668,0.123-0.876,0.368s-0.311,0.588-0.311,1.028v1.244
		c0,0.436,0.104,0.773,0.311,1.012c0.208,0.239,0.5,0.359,0.876,0.359c0.241,0,0.446-0.047,0.616-0.143
		c0.169-0.095,0.298-0.231,0.387-0.409s0.133-0.392,0.133-0.641l0.089,1.447c-0.131,0.343-0.342,0.619-0.631,0.829
		c-0.29,0.209-0.64,0.314-1.051,0.314C211.874,40.375,211.469,40.266,211.132,40.048z M213.941,31.037h1.517v9.229h-1.517V31.037z"
		/>
	<path class="st1" d="M219.318,38.921l3.192-4.228c0.165-0.216,0.293-0.439,0.384-0.67c0.092-0.23,0.137-0.445,0.137-0.644v-0.013
		c0-0.309-0.094-0.548-0.283-0.717c-0.188-0.169-0.455-0.254-0.803-0.254c-0.334,0-0.604,0.103-0.809,0.308
		c-0.205,0.206-0.329,0.497-0.371,0.873v0.006h-1.563v-0.006c0.06-0.554,0.208-1.028,0.445-1.422
		c0.236-0.394,0.55-0.694,0.939-0.901c0.389-0.208,0.838-0.311,1.346-0.311c0.563,0,1.043,0.094,1.44,0.283
		c0.397,0.188,0.702,0.462,0.911,0.822s0.314,0.793,0.314,1.301v0.006c0,0.373-0.071,0.75-0.213,1.133
		c-0.143,0.383-0.338,0.741-0.588,1.076l-2.475,3.25h3.326v1.454h-5.332V38.921z"/>
	<path class="st1" d="M225.348,41.231c0.609-0.686,1.064-1.449,1.365-2.292s0.451-1.771,0.451-2.787s-0.15-1.944-0.451-2.787
		s-0.756-1.604-1.365-2.285l0.953-1.028c0.773,0.817,1.354,1.732,1.738,2.746c0.386,1.013,0.578,2.131,0.578,3.354
		s-0.192,2.341-0.578,3.354c-0.385,1.014-0.965,1.929-1.738,2.746L225.348,41.231z"/>
</g>
</svg>