<!-- Generator: Adobe Illustrator 22.1.0, SVG Export Plug-In  -->
<svg version="1.1"
	 xmlns="http://www.w3.org/2000/svg" xmlns:xlink="http://www.w3.org/1999/xlink" xmlns:a="http://ns.adobe.com/AdobeSVGViewerExtensions/3.0/"
	 x="0px" y="0px" width="382.072px" height="80.513px" viewBox="0 0 382.072 80.513"
	 style="enable-background:new 0 0 382.072 80.513;" xml:space="preserve">
<style type="text/css">
	.st0{fill:#1B1464;}
	.st1{fill:#FFFFFF;}
</style>
<defs>
</defs>
<rect class="st0" width="382.072" height="80.513"/>
<g>
	<path class="st1" d="M89.144,25.025c0,0-0.299-0.063-0.896-0.19c-0.599-0.127-1.159-0.314-1.683-0.562
		c-0.523-0.248-1.002-0.554-1.436-0.92l1.181-1.775c0.521,0.44,1.104,0.773,1.751,0.999s1.334,0.339,2.059,0.339
		c0.904,0,1.605-0.161,2.104-0.483s0.748-0.777,0.748-1.366v-0.009c0-0.415-0.111-0.745-0.334-0.989
		c-0.224-0.245-0.515-0.424-0.874-0.539s-0.821-0.221-1.385-0.321c-0.019-0.006-0.037-0.009-0.056-0.009s-0.037-0.003-0.056-0.009
		l-0.167-0.028c-0.904-0.148-1.648-0.325-2.23-0.529c-0.582-0.205-1.078-0.57-1.486-1.097c-0.409-0.526-0.613-1.273-0.613-2.239
		v-0.009c0-0.855,0.191-1.586,0.576-2.193c0.384-0.607,0.941-1.068,1.672-1.384c0.731-0.316,1.611-0.474,2.64-0.474
		c0.483,0,0.968,0.055,1.454,0.163c0.486,0.108,0.963,0.267,1.431,0.474s0.922,0.466,1.361,0.776l-1.078,1.831
		c-0.52-0.372-1.05-0.653-1.589-0.846c-0.539-0.192-1.065-0.288-1.579-0.288c-0.855,0-1.517,0.157-1.984,0.469
		c-0.468,0.313-0.701,0.754-0.701,1.324v0.009c0,0.428,0.121,0.765,0.362,1.013c0.241,0.248,0.544,0.429,0.906,0.544
		s0.868,0.237,1.519,0.367c0.025,0.006,0.048,0.011,0.07,0.014c0.021,0.003,0.045,0.008,0.069,0.014
		c0.031,0.006,0.065,0.012,0.103,0.019c0.037,0.006,0.071,0.012,0.102,0.019c0.837,0.167,1.535,0.369,2.096,0.604
		s1.03,0.613,1.408,1.133c0.378,0.521,0.566,1.23,0.566,2.128v0.019c0,0.843-0.198,1.564-0.595,2.165
		c-0.396,0.601-0.973,1.058-1.729,1.371c-0.756,0.313-1.666,0.469-2.731,0.469C89.469,25.025,89.144,25.025,89.144,25.025z"/>
	<path class="st1" d="M100.174,25.025c0,0-0.322-0.167-0.967-0.501s-1.137-0.826-1.478-1.473c-0.341-0.647-0.511-1.429-0.511-2.346
		v-1.087c0-0.954,0.162-1.769,0.487-2.444s0.8-1.189,1.422-1.542c0.623-0.353,1.371-0.53,2.244-0.53
		c0.824,0,1.528,0.206,2.114,0.618c0.585,0.412,1.031,1.008,1.338,1.789c0.307,0.78,0.46,1.722,0.46,2.825v0.632h-6.551v-1.626
		h4.488l-0.01-0.102c-0.062-0.675-0.251-1.199-0.566-1.571c-0.316-0.372-0.74-0.557-1.273-0.557c-0.669,0-1.187,0.209-1.552,0.627
		s-0.548,1.011-0.548,1.779v1.227c0,0.731,0.198,1.293,0.595,1.687c0.396,0.394,0.953,0.59,1.672,0.59
		c0.366,0,0.727-0.07,1.083-0.209c0.356-0.14,0.677-0.333,0.962-0.581l1.449,1.357c-0.489,0.458-1.039,0.813-1.649,1.064
		s-1.225,0.376-1.845,0.376C100.629,25.025,100.174,25.025,100.174,25.025z"/>
	<path class="st1" d="M107.699,15.241h2.221v9.646h-2.221V15.241z M113.414,19.041c0-0.576-0.155-1.022-0.465-1.338
		c-0.31-0.316-0.749-0.474-1.319-0.474c-0.545,0-0.966,0.147-1.264,0.441c-0.297,0.294-0.446,0.711-0.446,1.25l-0.194-1.998
		c0.291-0.595,0.658-1.047,1.101-1.357c0.443-0.31,0.965-0.464,1.565-0.464c1.028,0,1.826,0.342,2.394,1.027
		c0.566,0.685,0.85,1.652,0.85,2.904v5.854h-2.221V19.041z"/>
	<path class="st1" d="M118.266,11.375h2.211v2.221h-2.211V11.375z M118.266,15.241h2.211v9.646h-2.211V15.241z"/>
	<path class="st1" d="M124.7,24.533c-0.61-0.328-1.075-0.807-1.394-1.436c-0.319-0.629-0.479-1.386-0.479-2.272v-1.57
		c0-0.874,0.159-1.622,0.479-2.244c0.318-0.623,0.783-1.097,1.394-1.422s1.343-0.488,2.197-0.488c0.855,0,1.588,0.163,2.198,0.488
		s1.074,0.799,1.394,1.422s0.479,1.371,0.479,2.244v1.598c0,0.879-0.159,1.631-0.479,2.253s-0.783,1.098-1.394,1.426
		s-1.343,0.492-2.198,0.492C126.043,25.025,125.311,24.861,124.7,24.533z M128.264,22.363c0.322-0.356,0.483-0.859,0.483-1.51
		v-1.598c0-0.645-0.161-1.143-0.483-1.496c-0.322-0.353-0.777-0.53-1.366-0.53c-0.588,0-1.043,0.177-1.365,0.53
		s-0.483,0.852-0.483,1.496v1.598c0,0.65,0.159,1.154,0.479,1.51c0.319,0.356,0.776,0.534,1.37,0.534
		C127.486,22.897,127.941,22.72,128.264,22.363z"/>
	<path class="st1" d="M133.477,15.241h2.314v9.646h-2.314V15.241z M138.3,17.355c-0.217-0.083-0.468-0.125-0.753-0.125
		c-0.558,0-0.989,0.166-1.296,0.497c-0.307,0.332-0.46,0.792-0.46,1.38l-0.195-2.184c0.278-0.576,0.643-1.023,1.092-1.343
		c0.449-0.319,0.943-0.479,1.481-0.479c0.422,0,0.803,0.063,1.144,0.19s0.638,0.314,0.892,0.562l-1.356,1.868
		C138.699,17.561,138.517,17.438,138.3,17.355z"/>
	<path class="st1" d="M148.214,25.025c0,0-0.299-0.063-0.896-0.19c-0.599-0.127-1.159-0.314-1.683-0.562
		c-0.523-0.248-1.002-0.554-1.436-0.92l1.181-1.775c0.521,0.44,1.104,0.773,1.751,0.999s1.334,0.339,2.059,0.339
		c0.904,0,1.605-0.161,2.104-0.483s0.748-0.777,0.748-1.366v-0.009c0-0.415-0.111-0.745-0.334-0.989
		c-0.224-0.245-0.515-0.424-0.874-0.539s-0.821-0.221-1.385-0.321c-0.019-0.006-0.037-0.009-0.056-0.009s-0.037-0.003-0.056-0.009
		l-0.167-0.028c-0.904-0.148-1.648-0.325-2.23-0.529c-0.582-0.205-1.078-0.57-1.486-1.097c-0.409-0.526-0.613-1.273-0.613-2.239
		v-0.009c0-0.855,0.191-1.586,0.576-2.193c0.384-0.607,0.941-1.068,1.672-1.384c0.731-0.316,1.611-0.474,2.64-0.474
		c0.483,0,0.968,0.055,1.454,0.163c0.486,0.108,0.963,0.267,1.431,0.474s0.922,0.466,1.361,0.776l-1.078,1.831
		c-0.52-0.372-1.05-0.653-1.589-0.846c-0.539-0.192-1.065-0.288-1.579-0.288c-0.855,0-1.517,0.157-1.984,0.469
		c-0.468,0.313-0.701,0.754-0.701,1.324v0.009c0,0.428,0.121,0.765,0.362,1.013c0.241,0.248,0.544,0.429,0.906,0.544
		s0.868,0.237,1.519,0.367c0.025,0.006,0.048,0.011,0.07,0.014c0.021,0.003,0.045,0.008,0.069,0.014
		c0.031,0.006,0.065,0.012,0.103,0.019c0.037,0.006,0.071,0.012,0.102,0.019c0.837,0.167,1.535,0.369,2.096,0.604
		s1.03,0.613,1.408,1.133c0.378,0.521,0.566,1.23,0.566,2.128v0.019c0,0.843-0.198,1.564-0.595,2.165
		c-0.396,0.601-0.973,1.058-1.729,1.371c-0.756,0.313-1.666,0.469-2.731,0.469C148.539,25.025,148.214,25.025,148.214,25.025z"/>
	<path class="st1" d="M159.207,25.025c0,0-0.319-0.168-0.957-0.506c-0.639-0.337-1.125-0.83-1.459-1.478
		c-0.335-0.647-0.502-1.429-0.502-2.346v-1.31c0-0.904,0.167-1.677,0.502-2.318c0.334-0.641,0.82-1.129,1.459-1.463
		c0.638-0.334,1.405-0.502,2.304-0.502c0.515,0,0.999,0.061,1.454,0.181c0.456,0.121,0.864,0.296,1.227,0.525
		c0.363,0.229,0.665,0.508,0.906,0.836l-1.505,1.413c-0.254-0.267-0.552-0.471-0.893-0.613s-0.696-0.214-1.068-0.214
		c-0.688,0-1.221,0.188-1.599,0.562c-0.378,0.375-0.566,0.906-0.566,1.594v1.31c0,0.707,0.188,1.25,0.563,1.631
		c0.374,0.381,0.908,0.571,1.603,0.571c0.378,0,0.737-0.077,1.078-0.232s0.635-0.375,0.883-0.66l1.505,1.505
		c-0.248,0.322-0.553,0.597-0.915,0.823s-0.771,0.398-1.227,0.516s-0.938,0.176-1.445,0.176
		C159.655,25.025,159.207,25.025,159.207,25.025z"/>
	<path class="st1" d="M166.045,11.375h2.221v13.511h-2.221V11.375z M171.76,19.041c0-0.576-0.155-1.022-0.465-1.338
		c-0.31-0.316-0.749-0.474-1.319-0.474c-0.545,0-0.966,0.146-1.264,0.437c-0.297,0.292-0.446,0.703-0.446,1.236l-0.194-1.998
		c0.291-0.583,0.658-1.028,1.101-1.338c0.443-0.31,0.965-0.464,1.565-0.464c1.028,0,1.826,0.342,2.394,1.027
		c0.566,0.685,0.85,1.652,0.85,2.904v5.854h-2.221V19.041z"/>
	<path class="st1" d="M178.27,24.533c-0.61-0.328-1.075-0.807-1.394-1.436c-0.319-0.629-0.479-1.386-0.479-2.272v-1.57
		c0-0.874,0.159-1.622,0.479-2.244c0.318-0.623,0.783-1.097,1.394-1.422s1.343-0.488,2.197-0.488c0.855,0,1.588,0.163,2.198,0.488
		s1.074,0.799,1.394,1.422s0.479,1.371,0.479,2.244v1.598c0,0.879-0.159,1.631-0.479,2.253s-0.783,1.098-1.394,1.426
		s-1.343,0.492-2.198,0.492C179.612,25.025,178.88,24.861,178.27,24.533z M181.833,22.363c0.322-0.356,0.483-0.859,0.483-1.51
		v-1.598c0-0.645-0.161-1.143-0.483-1.496s-0.777-0.53-1.366-0.53c-0.588,0-1.043,0.177-1.365,0.53s-0.483,0.852-0.483,1.496v1.598
		c0,0.65,0.159,1.154,0.479,1.51c0.319,0.356,0.776,0.534,1.37,0.534C181.056,22.897,181.511,22.72,181.833,22.363z"/>
	<path class="st1" d="M188.64,24.533c-0.61-0.328-1.075-0.807-1.394-1.436c-0.319-0.629-0.479-1.386-0.479-2.272v-1.57
		c0-0.874,0.159-1.622,0.479-2.244c0.318-0.623,0.783-1.097,1.394-1.422s1.343-0.488,2.197-0.488c0.855,0,1.588,0.163,2.198,0.488
		s1.074,0.799,1.394,1.422s0.479,1.371,0.479,2.244v1.598c0,0.879-0.159,1.631-0.479,2.253s-0.783,1.098-1.394,1.426
		s-1.343,0.492-2.198,0.492C189.982,25.025,189.25,24.861,188.64,24.533z M192.203,22.363c0.322-0.356,0.483-0.859,0.483-1.51
		v-1.598c0-0.645-0.161-1.143-0.483-1.496s-0.777-0.53-1.366-0.53c-0.588,0-1.043,0.177-1.365,0.53s-0.483,0.852-0.483,1.496v1.598
		c0,0.65,0.159,1.154,0.479,1.51c0.319,0.356,0.776,0.534,1.37,0.534C191.426,22.897,191.881,22.72,192.203,22.363z"/>
	<path class="st1" d="M199.637,22.052c0,0.235,0.06,0.417,0.177,0.543c0.118,0.127,0.285,0.19,0.502,0.19h0.66v2.128h-1.208
		c-0.744,0-1.321-0.223-1.733-0.669c-0.412-0.446-0.618-1.075-0.618-1.886V11.375h2.221V22.052z"/>
	<path class="st1" d="M209.412,25.025c0,0-0.361-0.203-1.083-0.608s-1.276-0.986-1.663-1.742c-0.388-0.756-0.581-1.651-0.581-2.686
		v-3.708c0-1.035,0.193-1.93,0.581-2.686c0.387-0.756,0.941-1.338,1.663-1.747c0.722-0.409,1.572-0.613,2.551-0.613
		c0.812,0,1.547,0.174,2.207,0.521c0.659,0.347,1.208,0.847,1.645,1.5c0.437,0.654,0.735,1.427,0.896,2.319h-2.285
		c-0.112-0.434-0.288-0.813-0.53-1.139c-0.241-0.325-0.528-0.574-0.859-0.748c-0.331-0.173-0.689-0.26-1.073-0.26
		c-0.515,0-0.959,0.116-1.333,0.349c-0.375,0.232-0.665,0.562-0.869,0.99c-0.204,0.427-0.307,0.932-0.307,1.515v3.708
		c0,0.583,0.103,1.087,0.307,1.515s0.494,0.756,0.869,0.985c0.374,0.229,0.818,0.344,1.333,0.344c0.391,0,0.751-0.083,1.082-0.251
		c0.332-0.167,0.618-0.412,0.86-0.734c0.241-0.322,0.415-0.709,0.521-1.162h2.285c-0.167,0.892-0.469,1.665-0.905,2.318
		c-0.438,0.654-0.985,1.154-1.646,1.501c-0.659,0.347-1.392,0.52-2.197,0.52C209.901,25.025,209.412,25.025,209.412,25.025z"/>
	<path class="st1" d="M220.628,25.025c0,0-0.322-0.167-0.967-0.501s-1.137-0.826-1.478-1.473c-0.341-0.647-0.511-1.429-0.511-2.346
		v-1.087c0-0.954,0.162-1.769,0.487-2.444s0.8-1.189,1.422-1.542c0.623-0.353,1.371-0.53,2.244-0.53
		c0.824,0,1.528,0.206,2.114,0.618c0.585,0.412,1.031,1.008,1.338,1.789c0.307,0.78,0.46,1.722,0.46,2.825v0.632h-6.551v-1.626
		h4.488l-0.01-0.102c-0.062-0.675-0.251-1.199-0.566-1.571c-0.316-0.372-0.74-0.557-1.273-0.557c-0.669,0-1.187,0.209-1.552,0.627
		s-0.548,1.011-0.548,1.779v1.227c0,0.731,0.198,1.293,0.595,1.687c0.396,0.394,0.953,0.59,1.672,0.59
		c0.366,0,0.727-0.07,1.083-0.209c0.356-0.14,0.677-0.333,0.962-0.581l1.449,1.357c-0.489,0.458-1.039,0.813-1.649,1.064
		s-1.225,0.376-1.845,0.376C221.083,25.025,220.628,25.025,220.628,25.025z"/>
	<path class="st1" d="M228.154,15.241h2.314v9.646h-2.314V15.241z M232.978,17.355c-0.217-0.083-0.468-0.125-0.753-0.125
		c-0.558,0-0.989,0.166-1.296,0.497c-0.307,0.332-0.46,0.792-0.46,1.38l-0.195-2.184c0.278-0.576,0.643-1.023,1.092-1.343
		c0.449-0.319,0.943-0.479,1.481-0.479c0.422,0,0.803,0.063,1.144,0.19s0.638,0.314,0.892,0.562l-1.356,1.868
		C233.377,17.561,233.194,17.438,232.978,17.355z"/>
	<path class="st1" d="M235.532,15.241h4.534v1.942h-4.534V15.241z M237.094,24.287c-0.378-0.431-0.567-1.067-0.567-1.91v-9.943
		h2.221v9.636c0,0.235,0.047,0.417,0.14,0.543s0.229,0.19,0.409,0.19h0.771v2.128h-1.188
		C238.065,24.932,237.471,24.717,237.094,24.287z"/>
	<path class="st1" d="M242.418,11.375h2.211v2.221h-2.211V11.375z M242.418,15.241h2.211v9.646h-2.211V15.241z"/>
	<path class="st1" d="M246.516,15.241h5.009v1.896h-5.009V15.241z M247.538,13.93c0-0.855,0.196-1.494,0.59-1.919
		c0.394-0.424,0.999-0.636,1.816-0.636h1.58v2.035h-1.218c-0.18,0-0.315,0.068-0.408,0.205c-0.094,0.136-0.14,0.313-0.14,0.53
		v10.742h-2.221V13.93z"/>
	<path class="st1" d="M253.504,11.375h2.211v2.221h-2.211V11.375z M253.504,15.241h2.211v9.646h-2.211V15.241z"/>
	<path class="st1" d="M260.984,25.025c0,0-0.319-0.168-0.957-0.506c-0.639-0.337-1.125-0.83-1.459-1.478
		c-0.335-0.647-0.502-1.429-0.502-2.346v-1.31c0-0.904,0.167-1.677,0.502-2.318c0.334-0.641,0.82-1.129,1.459-1.463
		c0.638-0.334,1.405-0.502,2.304-0.502c0.515,0,0.999,0.061,1.454,0.181c0.456,0.121,0.864,0.296,1.227,0.525
		c0.363,0.229,0.665,0.508,0.906,0.836l-1.505,1.413c-0.254-0.267-0.552-0.471-0.893-0.613s-0.696-0.214-1.068-0.214
		c-0.688,0-1.221,0.188-1.599,0.562c-0.378,0.375-0.566,0.906-0.566,1.594v1.31c0,0.707,0.188,1.25,0.563,1.631
		c0.374,0.381,0.908,0.571,1.603,0.571c0.378,0,0.737-0.077,1.078-0.232s0.635-0.375,0.883-0.66l1.505,1.505
		c-0.248,0.322-0.553,0.597-0.915,0.823s-0.771,0.398-1.227,0.516s-0.938,0.176-1.445,0.176
		C261.433,25.025,260.984,25.025,260.984,25.025z"/>
	<path class="st1" d="M268.185,24.287c-0.551-0.493-0.826-1.241-0.826-2.244c0-0.954,0.278-1.669,0.836-2.146
		s1.394-0.716,2.509-0.716h2.583l0.13,1.729h-2.703c-0.44,0-0.771,0.093-0.99,0.279s-0.33,0.471-0.33,0.855
		c0,0.403,0.143,0.701,0.428,0.896s0.716,0.293,1.292,0.293c0.706,0,1.23-0.078,1.574-0.232c0.345-0.155,0.517-0.396,0.517-0.725
		l0.194,1.375c-0.105,0.304-0.289,0.558-0.553,0.762c-0.263,0.205-0.58,0.358-0.952,0.46c-0.372,0.103-0.777,0.153-1.218,0.153
		C269.566,25.025,268.736,24.779,268.185,24.287z M273.203,18.772c0-0.539-0.16-0.957-0.479-1.254
		c-0.319-0.297-0.771-0.446-1.353-0.446c-0.372,0-0.737,0.059-1.097,0.177s-0.682,0.282-0.966,0.493l-1.478-1.245
		c0.378-0.44,0.873-0.782,1.486-1.027s1.295-0.367,2.045-0.367c0.817,0,1.518,0.141,2.1,0.423s1.026,0.691,1.333,1.227
		s0.46,1.182,0.46,1.938v6.198h-2.053V18.772z"/>
	<path class="st1" d="M277.208,15.241h4.534v1.942h-4.534V15.241z M278.77,24.287c-0.378-0.431-0.567-1.067-0.567-1.91v-9.943h2.221
		v9.636c0,0.235,0.047,0.417,0.14,0.543s0.229,0.19,0.409,0.19h0.771v2.128h-1.188C279.741,24.932,279.146,24.717,278.77,24.287z"/>
	<path class="st1" d="M286.835,25.025c0,0-0.322-0.167-0.967-0.501s-1.137-0.826-1.478-1.473c-0.341-0.647-0.511-1.429-0.511-2.346
		v-1.087c0-0.954,0.162-1.769,0.487-2.444s0.8-1.189,1.422-1.542c0.623-0.353,1.371-0.53,2.244-0.53
		c0.824,0,1.528,0.206,2.114,0.618c0.585,0.412,1.031,1.008,1.338,1.789c0.307,0.78,0.46,1.722,0.46,2.825v0.632h-6.551v-1.626
		h4.488l-0.01-0.102c-0.062-0.675-0.251-1.199-0.566-1.571c-0.316-0.372-0.74-0.557-1.273-0.557c-0.669,0-1.187,0.209-1.552,0.627
		s-0.548,1.011-0.548,1.779v1.227c0,0.731,0.198,1.293,0.595,1.687c0.396,0.394,0.953,0.59,1.672,0.59
		c0.366,0,0.727-0.07,1.083-0.209c0.356-0.14,0.677-0.333,0.962-0.581l1.449,1.357c-0.489,0.458-1.039,0.813-1.649,1.064
		s-1.225,0.376-1.845,0.376C287.29,25.025,286.835,25.025,286.835,25.025z"/>
	<path class="st1" d="M76.367,34.212h2.221v13.511h-2.221V34.212z M77.287,34.212h7.944v2.128h-7.944V34.212z M77.287,39.954h6.922
		v2.119h-6.922V39.954z M77.287,45.595h7.944v2.128h-7.944V45.595z"/>
	<path class="st1" d="M90.157,42.398l1.208,1.747l-2.342,3.578h-2.397L90.157,42.398z M90.417,43.532l-3.643-5.455h2.453
		l2.546,4.107l3.717,5.538h-2.443L90.417,43.532z M90.937,41.497l1.951-3.42h2.453l-3.262,5.204L90.937,41.497z"/>
	<path class="st1" d="M97.757,47.123c-0.551-0.493-0.826-1.241-0.826-2.244c0-0.954,0.278-1.669,0.836-2.146
		s1.394-0.716,2.509-0.716h2.583l0.13,1.729h-2.703c-0.44,0-0.771,0.093-0.99,0.279s-0.33,0.471-0.33,0.855
		c0,0.403,0.143,0.701,0.428,0.896s0.716,0.293,1.292,0.293c0.706,0,1.23-0.078,1.574-0.232c0.345-0.155,0.517-0.396,0.517-0.725
		l0.194,1.375c-0.105,0.304-0.289,0.558-0.553,0.762c-0.263,0.205-0.58,0.358-0.952,0.46c-0.372,0.103-0.777,0.153-1.218,0.153
		C99.139,47.862,98.309,47.616,97.757,47.123z M102.775,41.608c0-0.539-0.16-0.957-0.479-1.254
		c-0.319-0.297-0.771-0.446-1.353-0.446c-0.372,0-0.737,0.059-1.097,0.177s-0.682,0.282-0.966,0.493l-1.478-1.245
		c0.378-0.44,0.873-0.782,1.486-1.027s1.295-0.367,2.045-0.367c0.817,0,1.518,0.141,2.1,0.423s1.026,0.691,1.333,1.227
		s0.46,1.182,0.46,1.938v6.198h-2.053V41.608z"/>
	<path class="st1" d="M107.523,38.077h2.221v9.646h-2.221V38.077z M113.22,42.017c0-0.625-0.153-1.107-0.46-1.445
		c-0.307-0.337-0.742-0.506-1.306-0.506c-0.545,0-0.966,0.147-1.264,0.441c-0.297,0.294-0.446,0.711-0.446,1.25l-0.194-1.998
		c0.291-0.588,0.662-1.039,1.114-1.352c0.452-0.313,0.97-0.469,1.552-0.469c0.676,0,1.255,0.158,1.738,0.474
		c0.483,0.316,0.85,0.779,1.101,1.389c0.251,0.61,0.377,1.346,0.377,2.207v5.715h-2.212V42.017z M118.906,42.017
		c0-0.625-0.154-1.107-0.464-1.445c-0.311-0.337-0.75-0.506-1.32-0.506c-0.538,0-0.955,0.163-1.249,0.488
		c-0.295,0.325-0.441,0.789-0.441,1.389l-0.428-2.044c0.304-0.625,0.701-1.108,1.194-1.449c0.492-0.341,1.039-0.511,1.64-0.511
		c0.694,0,1.287,0.158,1.779,0.474c0.493,0.316,0.867,0.779,1.125,1.389c0.257,0.61,0.386,1.346,0.386,2.207v5.715h-2.222V42.017z"
		/>
	<path class="st1" d="M123.757,34.212h2.211v2.221h-2.211V34.212z M123.757,38.077h2.211v9.646h-2.211V38.077z"/>
	<path class="st1" d="M128.598,38.077h2.221v9.646h-2.221V38.077z M134.312,41.878c0-0.576-0.155-1.022-0.465-1.338
		c-0.31-0.316-0.749-0.474-1.319-0.474c-0.545,0-0.966,0.147-1.264,0.441c-0.297,0.294-0.446,0.711-0.446,1.25l-0.194-1.998
		c0.291-0.595,0.658-1.047,1.101-1.357c0.443-0.31,0.965-0.464,1.565-0.464c1.028,0,1.826,0.342,2.394,1.027
		c0.566,0.685,0.85,1.652,0.85,2.904v5.854h-2.221V41.878z"/>
	<path class="st1" d="M139.591,47.123c-0.551-0.493-0.826-1.241-0.826-2.244c0-0.954,0.278-1.669,0.836-2.146
		s1.394-0.716,2.509-0.716h2.583l0.13,1.729h-2.703c-0.44,0-0.771,0.093-0.99,0.279s-0.33,0.471-0.33,0.855
		c0,0.403,0.143,0.701,0.428,0.896s0.716,0.293,1.292,0.293c0.706,0,1.23-0.078,1.574-0.232c0.345-0.155,0.517-0.396,0.517-0.725
		l0.194,1.375c-0.105,0.304-0.289,0.558-0.553,0.762c-0.263,0.205-0.58,0.358-0.952,0.46c-0.372,0.103-0.777,0.153-1.218,0.153
		C140.973,47.862,140.143,47.616,139.591,47.123z M144.609,41.608c0-0.539-0.16-0.957-0.479-1.254
		c-0.319-0.297-0.771-0.446-1.353-0.446c-0.372,0-0.737,0.059-1.097,0.177s-0.682,0.282-0.966,0.493l-1.478-1.245
		c0.378-0.44,0.873-0.782,1.486-1.027s1.295-0.367,2.045-0.367c0.817,0,1.518,0.141,2.1,0.423s1.026,0.691,1.333,1.227
		s0.46,1.182,0.46,1.938v6.198h-2.053V41.608z"/>
	<path class="st1" d="M148.613,38.077h4.534v1.942h-4.534V38.077z M150.175,47.123c-0.378-0.431-0.567-1.067-0.567-1.91v-9.943
		h2.221v9.636c0,0.235,0.047,0.417,0.14,0.543s0.229,0.19,0.409,0.19h0.771v2.128h-1.188
		C151.146,47.769,150.552,47.554,150.175,47.123z"/>
	<path class="st1" d="M155.499,34.212h2.211v2.221h-2.211V34.212z M155.499,38.077h2.211v9.646h-2.211V38.077z"/>
	<path class="st1" d="M161.934,47.369c-0.61-0.328-1.075-0.807-1.394-1.436c-0.319-0.629-0.479-1.386-0.479-2.272v-1.57
		c0-0.874,0.159-1.622,0.479-2.244c0.318-0.623,0.783-1.097,1.394-1.422s1.343-0.488,2.197-0.488c0.855,0,1.588,0.163,2.198,0.488
		s1.074,0.799,1.394,1.422s0.479,1.371,0.479,2.244v1.598c0,0.879-0.159,1.631-0.479,2.253s-0.783,1.098-1.394,1.426
		s-1.343,0.492-2.198,0.492C163.276,47.862,162.544,47.698,161.934,47.369z M165.497,45.2c0.322-0.356,0.483-0.859,0.483-1.51
		v-1.598c0-0.645-0.161-1.143-0.483-1.496s-0.777-0.53-1.366-0.53c-0.588,0-1.043,0.177-1.365,0.53s-0.483,0.852-0.483,1.496v1.598
		c0,0.65,0.159,1.154,0.479,1.51c0.319,0.356,0.776,0.534,1.37,0.534C164.72,45.734,165.175,45.556,165.497,45.2z"/>
	<path class="st1" d="M170.71,38.077h2.221v9.646h-2.221V38.077z M176.425,41.878c0-0.576-0.155-1.022-0.465-1.338
		c-0.31-0.316-0.749-0.474-1.319-0.474c-0.545,0-0.966,0.147-1.264,0.441c-0.297,0.294-0.446,0.711-0.446,1.25l-0.194-1.998
		c0.291-0.595,0.658-1.047,1.101-1.357c0.443-0.31,0.965-0.464,1.565-0.464c1.028,0,1.826,0.342,2.394,1.027
		c0.566,0.685,0.85,1.652,0.85,2.904v5.854h-2.221V41.878z"/>
	<path class="st1" d="M182.372,46.612c-0.563-1.483-0.845-3.121-0.845-4.911c0-1.79,0.281-3.427,0.845-4.911
		c0.564-1.484,1.413-2.823,2.547-4.019l1.394,1.505c-0.893,0.998-1.559,2.112-1.998,3.345s-0.659,2.592-0.659,4.079
		s0.22,2.847,0.659,4.08c0.439,1.232,1.105,2.351,1.998,3.354l-1.394,1.496C183.785,49.435,182.937,48.096,182.372,46.612z"/>
	<path class="st1" d="M191.033,47.862c0,0-0.361-0.203-1.083-0.608s-1.276-0.986-1.663-1.742c-0.388-0.756-0.581-1.651-0.581-2.686
		v-3.708c0-1.035,0.193-1.93,0.581-2.686c0.387-0.756,0.941-1.338,1.663-1.747c0.722-0.409,1.572-0.613,2.551-0.613
		c0.812,0,1.547,0.174,2.207,0.521c0.659,0.347,1.208,0.847,1.645,1.5c0.437,0.654,0.735,1.427,0.896,2.319h-2.285
		c-0.112-0.434-0.288-0.813-0.53-1.139c-0.241-0.325-0.528-0.574-0.859-0.748c-0.331-0.173-0.689-0.26-1.073-0.26
		c-0.515,0-0.959,0.116-1.333,0.349c-0.375,0.232-0.665,0.562-0.869,0.99c-0.204,0.427-0.307,0.932-0.307,1.515v3.708
		c0,0.583,0.103,1.087,0.307,1.515s0.494,0.756,0.869,0.985c0.374,0.229,0.818,0.344,1.333,0.344c0.391,0,0.751-0.083,1.082-0.251
		c0.332-0.167,0.618-0.412,0.86-0.734c0.241-0.322,0.415-0.709,0.521-1.162h2.285c-0.167,0.892-0.469,1.665-0.905,2.318
		c-0.438,0.654-0.985,1.154-1.646,1.501c-0.659,0.347-1.392,0.52-2.197,0.52C191.522,47.862,191.033,47.862,191.033,47.862z"/>
	<path class="st1" d="M201.792,44.888c0,0.235,0.06,0.417,0.177,0.543c0.118,0.127,0.285,0.19,0.502,0.19h0.66v2.128h-1.208
		c-0.744,0-1.321-0.223-1.733-0.669c-0.412-0.446-0.618-1.075-0.618-1.886V34.212h2.221V44.888z"/>
	<path class="st1" d="M205.352,47.123c-0.551-0.493-0.826-1.241-0.826-2.244c0-0.954,0.278-1.669,0.836-2.146
		s1.394-0.716,2.509-0.716h2.583l0.13,1.729h-2.703c-0.44,0-0.771,0.093-0.99,0.279s-0.33,0.471-0.33,0.855
		c0,0.403,0.143,0.701,0.428,0.896s0.716,0.293,1.292,0.293c0.706,0,1.23-0.078,1.574-0.232c0.345-0.155,0.517-0.396,0.517-0.725
		l0.194,1.375c-0.105,0.304-0.289,0.558-0.553,0.762c-0.263,0.205-0.58,0.358-0.952,0.46c-0.372,0.103-0.777,0.153-1.218,0.153
		C206.733,47.862,205.903,47.616,205.352,47.123z M210.37,41.608c0-0.539-0.16-0.957-0.479-1.254
		c-0.319-0.297-0.771-0.446-1.353-0.446c-0.372,0-0.737,0.059-1.097,0.177s-0.682,0.282-0.966,0.493l-1.478-1.245
		c0.378-0.44,0.873-0.782,1.486-1.027s1.295-0.367,2.045-0.367c0.817,0,1.518,0.141,2.1,0.423s1.026,0.691,1.333,1.227
		s0.46,1.182,0.46,1.938v6.198h-2.053V41.608z"/>
	<path class="st1" d="M217.803,47.862c0,0-0.26-0.054-0.78-0.163c-0.521-0.108-1.009-0.268-1.464-0.479
		c-0.455-0.21-0.865-0.467-1.231-0.771l1.348-1.673c0.489,0.347,0.99,0.61,1.501,0.79s1.008,0.27,1.491,0.27
		c0.675,0,1.188-0.091,1.538-0.274c0.35-0.183,0.524-0.447,0.524-0.794c0-0.266-0.086-0.466-0.26-0.599s-0.392-0.225-0.655-0.274
		c-0.263-0.049-0.633-0.096-1.11-0.139c-0.08-0.006-0.164-0.012-0.251-0.019s-0.17-0.016-0.251-0.028
		c-0.024,0-0.05-0.001-0.074-0.005c-0.024-0.003-0.05-0.004-0.074-0.004c-0.675-0.074-1.229-0.178-1.663-0.312
		c-0.434-0.133-0.798-0.389-1.092-0.767c-0.295-0.377-0.441-0.92-0.441-1.626c0-0.663,0.146-1.222,0.441-1.677
		c0.294-0.456,0.727-0.799,1.296-1.031c0.57-0.232,1.271-0.349,2.101-0.349c0.495,0,0.979,0.048,1.449,0.144
		s0.922,0.235,1.352,0.418c0.431,0.183,0.838,0.411,1.223,0.683L221.39,40.8c-0.452-0.272-0.909-0.48-1.37-0.623
		c-0.462-0.142-0.909-0.213-1.343-0.213c-0.583,0-1.025,0.083-1.329,0.25c-0.304,0.167-0.455,0.416-0.455,0.744
		c0,0.21,0.083,0.372,0.251,0.483c0.167,0.112,0.376,0.188,0.627,0.228c0.251,0.04,0.614,0.082,1.092,0.125
		c0.05,0.006,0.098,0.011,0.144,0.014c0.047,0.003,0.095,0.008,0.145,0.014c0.019,0,0.04,0,0.064,0c0.025,0,0.05,0.003,0.075,0.009
		c0.712,0.068,1.304,0.17,1.774,0.307s0.87,0.407,1.198,0.813c0.329,0.406,0.493,0.996,0.493,1.77c0,0.682-0.155,1.256-0.465,1.724
		c-0.31,0.468-0.77,0.821-1.38,1.06s-1.358,0.357-2.244,0.357C218.091,47.862,217.803,47.862,217.803,47.862z"/>
	<path class="st1" d="M227.672,47.862c0,0-0.26-0.054-0.78-0.163c-0.521-0.108-1.009-0.268-1.464-0.479
		c-0.455-0.21-0.865-0.467-1.231-0.771l1.348-1.673c0.489,0.347,0.99,0.61,1.501,0.79s1.008,0.27,1.491,0.27
		c0.675,0,1.188-0.091,1.538-0.274c0.35-0.183,0.524-0.447,0.524-0.794c0-0.266-0.086-0.466-0.26-0.599s-0.392-0.225-0.655-0.274
		c-0.263-0.049-0.633-0.096-1.11-0.139c-0.08-0.006-0.164-0.012-0.251-0.019s-0.17-0.016-0.251-0.028
		c-0.024,0-0.05-0.001-0.074-0.005c-0.024-0.003-0.05-0.004-0.074-0.004c-0.675-0.074-1.229-0.178-1.663-0.312
		c-0.434-0.133-0.798-0.389-1.092-0.767c-0.295-0.377-0.441-0.92-0.441-1.626c0-0.663,0.146-1.222,0.441-1.677
		c0.294-0.456,0.727-0.799,1.296-1.031c0.57-0.232,1.271-0.349,2.101-0.349c0.495,0,0.979,0.048,1.449,0.144
		s0.922,0.235,1.352,0.418c0.431,0.183,0.838,0.411,1.223,0.683l-1.329,1.617c-0.452-0.272-0.909-0.48-1.37-0.623
		c-0.462-0.142-0.909-0.213-1.343-0.213c-0.583,0-1.025,0.083-1.329,0.25c-0.304,0.167-0.455,0.416-0.455,0.744
		c0,0.21,0.083,0.372,0.251,0.483c0.167,0.112,0.376,0.188,0.627,0.228c0.251,0.04,0.614,0.082,1.092,0.125
		c0.05,0.006,0.098,0.011,0.144,0.014c0.047,0.003,0.095,0.008,0.145,0.014c0.019,0,0.04,0,0.064,0c0.025,0,0.05,0.003,0.075,0.009
		c0.712,0.068,1.304,0.17,1.774,0.307s0.87,0.407,1.198,0.813c0.329,0.406,0.493,0.996,0.493,1.77c0,0.682-0.155,1.256-0.465,1.724
		c-0.31,0.468-0.77,0.821-1.38,1.06s-1.358,0.357-2.244,0.357C227.96,47.862,227.672,47.862,227.672,47.862z"/>
	<path class="st1" d="M241.461,47.722h-2.221V36.739l-1.784,0.901v-2.333l1.97-1.096h2.035V47.722z"/>
	<path class="st1" d="M244.138,45.753l4.674-6.189c0.241-0.316,0.429-0.643,0.563-0.98c0.133-0.338,0.199-0.652,0.199-0.943v-0.019
		c0-0.452-0.138-0.802-0.413-1.05c-0.276-0.248-0.668-0.372-1.176-0.372c-0.489,0-0.884,0.15-1.185,0.451
		c-0.301,0.301-0.481,0.727-0.544,1.278v0.009h-2.285v-0.009c0.086-0.812,0.303-1.505,0.65-2.082
		c0.347-0.576,0.805-1.016,1.375-1.319c0.569-0.304,1.227-0.456,1.97-0.456c0.824,0,1.527,0.138,2.109,0.414
		c0.582,0.276,1.026,0.677,1.333,1.204c0.307,0.526,0.46,1.161,0.46,1.905v0.009c0,0.545-0.104,1.098-0.311,1.659
		c-0.208,0.561-0.494,1.085-0.859,1.575l-3.624,4.758h4.869v2.128h-7.806V45.753z"/>
	<path class="st1" d="M252.965,49.135c0.893-1.004,1.558-2.122,1.998-3.354c0.439-1.233,0.66-2.593,0.66-4.08
		s-0.221-2.846-0.66-4.079c-0.44-1.233-1.105-2.348-1.998-3.345l1.394-1.505c1.134,1.196,1.982,2.535,2.547,4.019
		c0.563,1.483,0.845,3.121,0.845,4.911c0,1.791-0.281,3.428-0.845,4.911c-0.564,1.483-1.413,2.823-2.547,4.019L252.965,49.135z"/>
	<path class="st1" d="M260.427,45.753l4.674-6.189c0.241-0.316,0.429-0.643,0.563-0.98c0.133-0.338,0.199-0.652,0.199-0.943v-0.019
		c0-0.452-0.138-0.802-0.413-1.05c-0.276-0.248-0.668-0.372-1.176-0.372c-0.489,0-0.884,0.15-1.185,0.451
		c-0.301,0.301-0.481,0.727-0.544,1.278v0.009h-2.285v-0.009c0.086-0.812,0.303-1.505,0.65-2.082
		c0.347-0.576,0.805-1.016,1.375-1.319c0.569-0.304,1.227-0.456,1.97-0.456c0.824,0,1.527,0.138,2.109,0.414
		c0.582,0.276,1.026,0.677,1.333,1.204c0.307,0.526,0.46,1.161,0.46,1.905v0.009c0,0.545-0.104,1.098-0.311,1.659
		c-0.208,0.561-0.494,1.085-0.859,1.575l-3.624,4.758h4.869v2.128h-7.806V45.753z"/>
	<path class="st1" d="M271.471,46.849c-0.673-0.675-1.009-1.617-1.009-2.825v-6.142c0-1.214,0.338-2.157,1.013-2.83
		c0.676-0.672,1.654-1.008,2.937-1.008c1.288,0,2.269,0.334,2.941,1.004c0.672,0.669,1.008,1.614,1.008,2.834v6.142
		c0,1.214-0.338,2.157-1.013,2.83c-0.676,0.672-1.654,1.008-2.937,1.008C273.123,47.862,272.143,47.524,271.471,46.849z
		 M275.722,45.209c0.278-0.35,0.418-0.853,0.418-1.51v-5.492c0-0.657-0.14-1.16-0.418-1.51c-0.279-0.35-0.716-0.525-1.311-0.525
		s-1.031,0.175-1.311,0.525c-0.278,0.35-0.418,0.854-0.418,1.51v5.492c0,0.657,0.14,1.16,0.418,1.51
		c0.279,0.35,0.716,0.525,1.311,0.525S275.442,45.559,275.722,45.209z"/>
	<path class="st1" d="M284.409,47.722h-2.221V36.739l-1.784,0.901v-2.333l1.97-1.096h2.035V47.722z"/>
	<path class="st1" d="M289.14,47.397c-0.632-0.31-1.122-0.748-1.469-1.315s-0.521-1.225-0.521-1.975v-0.223
		c0-0.675,0.179-1.31,0.535-1.905c0.355-0.595,0.828-1.043,1.417-1.347c-0.502-0.26-0.906-0.635-1.213-1.125s-0.46-1.006-0.46-1.552
		v-0.334c0-0.706,0.162-1.327,0.487-1.863c0.325-0.536,0.782-0.951,1.371-1.245c0.588-0.294,1.272-0.441,2.054-0.441
		c0.78,0,1.465,0.147,2.054,0.441c0.588,0.294,1.045,0.709,1.37,1.245c0.325,0.536,0.488,1.157,0.488,1.863v0.334
		c0,0.558-0.157,1.08-0.47,1.566s-0.724,0.856-1.231,1.11c0.595,0.31,1.073,0.76,1.436,1.352c0.363,0.591,0.544,1.225,0.544,1.9
		v0.223c0,0.75-0.174,1.408-0.521,1.975s-0.836,1.005-1.468,1.315s-1.366,0.464-2.202,0.464
		C290.505,47.862,289.771,47.707,289.14,47.397z M292.378,45.492c0.3-0.155,0.532-0.375,0.696-0.66
		c0.164-0.285,0.247-0.61,0.247-0.976v-0.13c0-0.359-0.083-0.675-0.247-0.948s-0.395-0.485-0.692-0.637
		c-0.297-0.151-0.644-0.228-1.04-0.228s-0.743,0.076-1.041,0.228c-0.297,0.152-0.528,0.366-0.692,0.641
		c-0.164,0.276-0.246,0.593-0.246,0.953v0.139c0,0.366,0.082,0.689,0.246,0.971c0.164,0.282,0.396,0.499,0.697,0.65
		c0.3,0.152,0.646,0.228,1.036,0.228C291.731,45.724,292.077,45.647,292.378,45.492z M292.229,39.559
		c0.258-0.146,0.456-0.353,0.595-0.623c0.14-0.27,0.21-0.581,0.21-0.934v-0.13c0-0.329-0.07-0.62-0.21-0.874
		c-0.139-0.254-0.337-0.449-0.595-0.585c-0.257-0.136-0.553-0.205-0.887-0.205c-0.335,0-0.631,0.068-0.888,0.205
		s-0.455,0.332-0.595,0.585s-0.209,0.548-0.209,0.883v0.139c0,0.347,0.069,0.654,0.209,0.92c0.14,0.267,0.338,0.473,0.595,0.618
		s0.553,0.218,0.888,0.218C291.676,39.778,291.972,39.705,292.229,39.559z"/>
	<path class="st1" d="M304.519,41.822v2.119h-6.431v-2.119H304.519z"/>
	<path class="st1" d="M47.166,70.699c0,0-0.361-0.203-1.083-0.609c-0.722-0.405-1.276-0.986-1.663-1.742
		c-0.388-0.755-0.581-1.65-0.581-2.686v-3.707c0-1.035,0.193-1.93,0.581-2.686c0.387-0.756,0.941-1.338,1.663-1.747
		c0.722-0.409,1.572-0.613,2.551-0.613c0.812,0,1.547,0.174,2.207,0.521c0.659,0.347,1.208,0.847,1.645,1.5
		c0.437,0.654,0.735,1.427,0.896,2.319h-2.285c-0.112-0.434-0.288-0.813-0.53-1.139c-0.241-0.325-0.528-0.574-0.859-0.748
		c-0.331-0.173-0.689-0.26-1.073-0.26c-0.515,0-0.959,0.116-1.333,0.349c-0.375,0.232-0.665,0.562-0.869,0.99
		c-0.204,0.427-0.307,0.932-0.307,1.515v3.707c0,0.583,0.103,1.088,0.307,1.515c0.204,0.428,0.494,0.756,0.869,0.985
		c0.374,0.229,0.818,0.344,1.333,0.344c0.391,0,0.751-0.083,1.082-0.251c0.332-0.167,0.618-0.412,0.86-0.733
		c0.241-0.322,0.415-0.71,0.521-1.162h2.285c-0.167,0.893-0.469,1.665-0.905,2.318c-0.438,0.654-0.985,1.154-1.646,1.501
		c-0.659,0.347-1.392,0.521-2.197,0.521C47.655,70.699,47.166,70.699,47.166,70.699z"/>
	<path class="st1" d="M57.299,70.205c-0.61-0.328-1.075-0.807-1.394-1.436c-0.319-0.628-0.479-1.386-0.479-2.271v-1.57
		c0-0.874,0.159-1.622,0.479-2.244c0.318-0.623,0.783-1.097,1.394-1.422s1.343-0.488,2.197-0.488c0.855,0,1.588,0.163,2.198,0.488
		s1.074,0.799,1.394,1.422s0.479,1.371,0.479,2.244v1.598c0,0.88-0.159,1.631-0.479,2.254c-0.319,0.622-0.783,1.098-1.394,1.426
		c-0.61,0.329-1.343,0.493-2.198,0.493C58.642,70.699,57.909,70.534,57.299,70.205z M60.862,68.036
		c0.322-0.356,0.483-0.86,0.483-1.511v-1.598c0-0.645-0.161-1.143-0.483-1.496s-0.777-0.53-1.366-0.53
		c-0.588,0-1.043,0.177-1.365,0.53s-0.483,0.852-0.483,1.496v1.598c0,0.65,0.159,1.154,0.479,1.511
		c0.319,0.355,0.776,0.534,1.37,0.534C60.085,68.571,60.54,68.392,60.862,68.036z"/>
	<path class="st1" d="M66.075,60.913h2.221v9.646h-2.221V60.913z M71.771,64.854c0-0.626-0.153-1.107-0.46-1.445
		c-0.307-0.337-0.742-0.506-1.306-0.506c-0.545,0-0.966,0.147-1.264,0.441c-0.297,0.294-0.446,0.711-0.446,1.25l-0.194-1.998
		c0.291-0.588,0.662-1.039,1.114-1.352c0.452-0.313,0.97-0.469,1.552-0.469c0.676,0,1.255,0.158,1.738,0.474
		c0.483,0.316,0.85,0.779,1.101,1.389c0.251,0.61,0.377,1.346,0.377,2.207v5.715h-2.212V64.854z M77.458,64.854
		c0-0.626-0.154-1.107-0.464-1.445c-0.311-0.337-0.75-0.506-1.32-0.506c-0.538,0-0.955,0.163-1.249,0.488
		c-0.295,0.325-0.441,0.789-0.441,1.39l-0.428-2.045c0.304-0.625,0.701-1.108,1.194-1.449c0.492-0.341,1.039-0.511,1.64-0.511
		c0.694,0,1.287,0.158,1.779,0.474c0.493,0.316,0.867,0.779,1.125,1.389c0.257,0.61,0.386,1.346,0.386,2.207v5.715h-2.222V64.854z"
		/>
	<path class="st1" d="M82.373,60.913h2.221V74.48h-2.221V60.913z M85.412,70.266c-0.428-0.288-0.743-0.695-0.948-1.222l0.13-2.109
		c0,0.365,0.065,0.677,0.195,0.934c0.13,0.258,0.319,0.454,0.567,0.591c0.247,0.136,0.548,0.204,0.901,0.204
		c0.551,0,0.979-0.174,1.282-0.521c0.303-0.347,0.455-0.839,0.455-1.478v-1.812c0-0.651-0.152-1.154-0.455-1.51
		c-0.304-0.356-0.731-0.534-1.282-0.534c-0.354,0-0.654,0.066-0.901,0.2c-0.248,0.133-0.438,0.33-0.567,0.59
		s-0.195,0.573-0.195,0.938l-0.194-1.998c0.272-0.564,0.633-0.999,1.082-1.306s0.946-0.46,1.491-0.46
		c0.682,0,1.266,0.158,1.752,0.474c0.486,0.316,0.856,0.779,1.11,1.389c0.254,0.61,0.381,1.346,0.381,2.207v1.821
		c0,0.849-0.129,1.575-0.386,2.179c-0.257,0.604-0.633,1.064-1.129,1.38c-0.495,0.316-1.087,0.475-1.774,0.475
		C86.344,70.699,85.839,70.554,85.412,70.266z"/>
	<path class="st1" d="M93.087,69.959c-0.551-0.492-0.826-1.24-0.826-2.244c0-0.953,0.278-1.669,0.836-2.146
		c0.558-0.477,1.394-0.715,2.509-0.715h2.583l0.13,1.728h-2.703c-0.44,0-0.771,0.094-0.99,0.279s-0.33,0.471-0.33,0.854
		c0,0.403,0.143,0.702,0.428,0.897c0.285,0.194,0.716,0.292,1.292,0.292c0.706,0,1.23-0.077,1.574-0.232
		c0.345-0.154,0.517-0.396,0.517-0.725l0.194,1.375c-0.105,0.304-0.289,0.558-0.553,0.763c-0.263,0.204-0.58,0.357-0.952,0.46
		c-0.372,0.102-0.777,0.153-1.218,0.153C94.469,70.699,93.639,70.452,93.087,69.959z M98.105,64.445c0-0.539-0.16-0.957-0.479-1.254
		c-0.319-0.297-0.771-0.446-1.353-0.446c-0.372,0-0.737,0.059-1.097,0.177s-0.682,0.282-0.966,0.493l-1.478-1.245
		c0.378-0.44,0.873-0.782,1.486-1.027s1.295-0.367,2.045-0.367c0.817,0,1.518,0.141,2.1,0.423s1.026,0.691,1.333,1.227
		s0.46,1.182,0.46,1.937v6.198h-2.053V64.445z"/>
	<path class="st1" d="M102.854,60.913h2.314v9.646h-2.314V60.913z M107.677,63.028c-0.217-0.083-0.468-0.125-0.753-0.125
		c-0.558,0-0.989,0.166-1.296,0.497c-0.307,0.332-0.46,0.792-0.46,1.38l-0.195-2.184c0.278-0.576,0.643-1.023,1.092-1.343
		c0.449-0.319,0.943-0.479,1.481-0.479c0.422,0,0.803,0.063,1.144,0.19s0.638,0.314,0.892,0.562l-1.356,1.868
		C108.076,63.234,107.894,63.111,107.677,63.028z"/>
	<path class="st1" d="M110.231,60.913h4.534v1.942h-4.534V60.913z M111.793,69.959c-0.378-0.431-0.567-1.066-0.567-1.909v-9.943
		h2.221v9.636c0,0.235,0.047,0.417,0.14,0.544s0.229,0.19,0.409,0.19h0.771v2.128h-1.188
		C112.765,70.606,112.17,70.39,111.793,69.959z"/>
	<path class="st1" d="M117.182,60.913h2.221v9.646h-2.221V60.913z M122.878,64.854c0-0.626-0.153-1.107-0.46-1.445
		c-0.307-0.337-0.742-0.506-1.306-0.506c-0.545,0-0.966,0.147-1.264,0.441c-0.297,0.294-0.446,0.711-0.446,1.25l-0.194-1.998
		c0.291-0.588,0.662-1.039,1.114-1.352c0.452-0.313,0.97-0.469,1.552-0.469c0.676,0,1.255,0.158,1.738,0.474
		c0.483,0.316,0.85,0.779,1.101,1.389c0.251,0.61,0.377,1.346,0.377,2.207v5.715h-2.212V64.854z M128.564,64.854
		c0-0.626-0.154-1.107-0.464-1.445c-0.311-0.337-0.75-0.506-1.32-0.506c-0.538,0-0.955,0.163-1.249,0.488
		c-0.295,0.325-0.441,0.789-0.441,1.39l-0.428-2.045c0.304-0.625,0.701-1.108,1.194-1.449c0.492-0.341,1.039-0.511,1.64-0.511
		c0.694,0,1.287,0.158,1.779,0.474c0.493,0.316,0.867,0.779,1.125,1.389c0.257,0.61,0.386,1.346,0.386,2.207v5.715h-2.222V64.854z"
		/>
	<path class="st1" d="M136.157,70.699c0,0-0.322-0.168-0.967-0.502c-0.645-0.335-1.137-0.825-1.478-1.473s-0.511-1.43-0.511-2.347
		V65.29c0-0.954,0.162-1.769,0.487-2.444s0.8-1.189,1.422-1.542c0.623-0.353,1.371-0.53,2.244-0.53c0.824,0,1.528,0.206,2.114,0.618
		c0.585,0.412,1.031,1.008,1.338,1.789c0.307,0.78,0.46,1.723,0.46,2.825v0.632h-6.551v-1.627h4.488l-0.01-0.102
		c-0.062-0.675-0.251-1.199-0.566-1.571c-0.316-0.372-0.74-0.557-1.273-0.557c-0.669,0-1.187,0.209-1.552,0.627
		s-0.548,1.011-0.548,1.779v1.227c0,0.731,0.198,1.293,0.595,1.687s0.953,0.59,1.672,0.59c0.366,0,0.727-0.069,1.083-0.209
		c0.356-0.139,0.677-0.333,0.962-0.58l1.449,1.356c-0.489,0.458-1.039,0.813-1.649,1.063s-1.225,0.377-1.845,0.377
		C136.612,70.699,136.157,70.699,136.157,70.699z"/>
	<path class="st1" d="M143.684,60.913h2.221v9.646h-2.221V60.913z M149.398,64.714c0-0.576-0.155-1.022-0.465-1.338
		c-0.31-0.316-0.749-0.474-1.319-0.474c-0.545,0-0.966,0.147-1.264,0.441c-0.297,0.294-0.446,0.711-0.446,1.25l-0.194-1.998
		c0.291-0.595,0.658-1.047,1.101-1.357c0.443-0.31,0.965-0.464,1.565-0.464c1.028,0,1.826,0.342,2.394,1.027
		c0.566,0.685,0.85,1.652,0.85,2.903v5.854h-2.221V64.714z"/>
	<path class="st1" d="M153.57,60.913h4.534v1.942h-4.534V60.913z M155.132,69.959c-0.378-0.431-0.567-1.066-0.567-1.909v-9.943
		h2.221v9.636c0,0.235,0.047,0.417,0.14,0.544s0.229,0.19,0.409,0.19h0.771v2.128h-1.188
		C156.104,70.606,155.509,70.39,155.132,69.959z"/>
	<path class="st1" d="M166.951,64.658v2.118h-6.431v-2.118H166.951z"/>
	<path class="st1" d="M173.01,70.699c0,0-0.299-0.063-0.896-0.19c-0.599-0.127-1.159-0.314-1.683-0.563s-1.002-0.555-1.436-0.92
		l1.181-1.774c0.521,0.439,1.104,0.772,1.751,0.998c0.647,0.227,1.334,0.34,2.059,0.34c0.904,0,1.605-0.161,2.104-0.483
		s0.748-0.777,0.748-1.366v-0.009c0-0.415-0.111-0.745-0.334-0.99c-0.224-0.244-0.515-0.424-0.874-0.539
		c-0.359-0.114-0.821-0.221-1.385-0.32c-0.019-0.006-0.037-0.009-0.056-0.009s-0.037-0.003-0.056-0.01l-0.167-0.027
		c-0.904-0.149-1.648-0.326-2.23-0.529c-0.582-0.205-1.078-0.571-1.486-1.097c-0.409-0.526-0.613-1.273-0.613-2.239V60.96
		c0-0.855,0.191-1.586,0.576-2.193c0.384-0.607,0.941-1.068,1.672-1.384c0.731-0.316,1.611-0.474,2.64-0.474
		c0.483,0,0.968,0.055,1.454,0.163c0.486,0.108,0.963,0.267,1.431,0.474s0.922,0.466,1.361,0.776l-1.078,1.831
		c-0.52-0.372-1.05-0.653-1.589-0.846c-0.539-0.192-1.065-0.288-1.579-0.288c-0.855,0-1.517,0.157-1.984,0.469
		c-0.468,0.313-0.701,0.754-0.701,1.324v0.009c0,0.428,0.121,0.765,0.362,1.013c0.241,0.248,0.544,0.429,0.906,0.544
		s0.868,0.237,1.519,0.367c0.025,0.006,0.048,0.011,0.07,0.014c0.021,0.003,0.045,0.008,0.069,0.014
		c0.031,0.006,0.065,0.012,0.103,0.019c0.037,0.006,0.071,0.012,0.102,0.019c0.837,0.167,1.535,0.369,2.096,0.604
		s1.03,0.613,1.408,1.133c0.378,0.521,0.566,1.23,0.566,2.129v0.019c0,0.842-0.198,1.563-0.595,2.165
		c-0.396,0.601-0.973,1.058-1.729,1.37c-0.756,0.313-1.666,0.47-2.731,0.47C173.335,70.699,173.01,70.699,173.01,70.699z"/>
	<path class="st1" d="M184.003,70.699c0,0-0.319-0.169-0.957-0.507c-0.639-0.338-1.125-0.83-1.459-1.478
		c-0.335-0.647-0.502-1.429-0.502-2.346v-1.311c0-0.904,0.167-1.677,0.502-2.318c0.334-0.641,0.82-1.129,1.459-1.463
		c0.638-0.334,1.405-0.502,2.304-0.502c0.515,0,0.999,0.061,1.454,0.181c0.456,0.121,0.864,0.296,1.227,0.525
		c0.363,0.229,0.665,0.508,0.906,0.836l-1.505,1.413c-0.254-0.267-0.552-0.471-0.893-0.613s-0.696-0.214-1.068-0.214
		c-0.688,0-1.221,0.188-1.599,0.562c-0.378,0.375-0.566,0.906-0.566,1.594v1.311c0,0.706,0.188,1.249,0.563,1.631
		c0.374,0.381,0.908,0.571,1.603,0.571c0.378,0,0.737-0.077,1.078-0.232s0.635-0.375,0.883-0.66l1.505,1.506
		c-0.248,0.322-0.553,0.596-0.915,0.822c-0.362,0.226-0.771,0.398-1.227,0.516s-0.938,0.177-1.445,0.177
		C184.451,70.699,184.003,70.699,184.003,70.699z"/>
	<path class="st1" d="M190.841,57.048h2.221v13.511h-2.221V57.048z M196.556,64.714c0-0.576-0.155-1.022-0.465-1.338
		c-0.31-0.316-0.749-0.474-1.319-0.474c-0.545,0-0.966,0.146-1.264,0.437c-0.297,0.292-0.446,0.703-0.446,1.236l-0.194-1.998
		c0.291-0.583,0.658-1.028,1.101-1.338c0.443-0.31,0.965-0.464,1.565-0.464c1.028,0,1.826,0.342,2.394,1.027
		c0.566,0.685,0.85,1.652,0.85,2.903v5.854h-2.221V64.714z"/>
	<path class="st1" d="M203.065,70.205c-0.61-0.328-1.075-0.807-1.394-1.436c-0.319-0.628-0.479-1.386-0.479-2.271v-1.57
		c0-0.874,0.159-1.622,0.479-2.244c0.318-0.623,0.783-1.097,1.394-1.422s1.343-0.488,2.197-0.488c0.855,0,1.588,0.163,2.198,0.488
		s1.074,0.799,1.394,1.422s0.479,1.371,0.479,2.244v1.598c0,0.88-0.159,1.631-0.479,2.254c-0.319,0.622-0.783,1.098-1.394,1.426
		c-0.61,0.329-1.343,0.493-2.198,0.493C204.408,70.699,203.676,70.534,203.065,70.205z M206.629,68.036
		c0.322-0.356,0.483-0.86,0.483-1.511v-1.598c0-0.645-0.161-1.143-0.483-1.496s-0.777-0.53-1.366-0.53
		c-0.588,0-1.043,0.177-1.365,0.53s-0.483,0.852-0.483,1.496v1.598c0,0.65,0.159,1.154,0.479,1.511
		c0.319,0.355,0.776,0.534,1.37,0.534C205.852,68.571,206.307,68.392,206.629,68.036z"/>
	<path class="st1" d="M213.436,70.205c-0.61-0.328-1.075-0.807-1.394-1.436c-0.319-0.628-0.479-1.386-0.479-2.271v-1.57
		c0-0.874,0.159-1.622,0.479-2.244c0.318-0.623,0.783-1.097,1.394-1.422s1.343-0.488,2.197-0.488c0.855,0,1.588,0.163,2.198,0.488
		s1.074,0.799,1.394,1.422s0.479,1.371,0.479,2.244v1.598c0,0.88-0.159,1.631-0.479,2.254c-0.319,0.622-0.783,1.098-1.394,1.426
		c-0.61,0.329-1.343,0.493-2.198,0.493C214.778,70.699,214.046,70.534,213.436,70.205z M216.999,68.036
		c0.322-0.356,0.483-0.86,0.483-1.511v-1.598c0-0.645-0.161-1.143-0.483-1.496s-0.777-0.53-1.366-0.53
		c-0.588,0-1.043,0.177-1.365,0.53s-0.483,0.852-0.483,1.496v1.598c0,0.65,0.159,1.154,0.479,1.511
		c0.319,0.355,0.776,0.534,1.37,0.534C216.222,68.571,216.677,68.392,216.999,68.036z"/>
	<path class="st1" d="M224.433,67.725c0,0.235,0.06,0.417,0.177,0.544c0.118,0.127,0.285,0.19,0.502,0.19h0.66v2.128h-1.208
		c-0.744,0-1.321-0.224-1.733-0.67c-0.412-0.445-0.618-1.074-0.618-1.886V57.048h2.221V67.725z"/>
	<path class="st1" d="M236.801,57.048h1.673l2.676,9.803l2.063-9.803h2.295l-3.206,13.511h-2.165l-2.443-9.441l-2.556,9.441h-2.165
		l-3.206-13.511h2.296l2.063,9.803L236.801,57.048z"/>
	<path class="st1" d="M247.022,57.048h2.211v2.221h-2.211V57.048z M247.022,60.913h2.211v9.646h-2.211V60.913z"/>
	<path class="st1" d="M254.549,70.699c0,0-0.26-0.055-0.78-0.163s-1.009-0.268-1.464-0.479c-0.455-0.21-0.865-0.468-1.231-0.771
		l1.348-1.672c0.489,0.347,0.99,0.61,1.501,0.789c0.511,0.181,1.008,0.27,1.491,0.27c0.675,0,1.188-0.091,1.538-0.273
		c0.35-0.183,0.524-0.448,0.524-0.795c0-0.267-0.086-0.466-0.26-0.6c-0.174-0.133-0.392-0.224-0.655-0.273
		c-0.263-0.05-0.633-0.097-1.11-0.14c-0.08-0.006-0.164-0.013-0.251-0.019s-0.17-0.016-0.251-0.028c-0.024,0-0.05-0.001-0.074-0.004
		s-0.05-0.005-0.074-0.005c-0.675-0.074-1.229-0.178-1.663-0.312c-0.434-0.133-0.798-0.389-1.092-0.767
		c-0.295-0.378-0.441-0.92-0.441-1.626c0-0.663,0.146-1.222,0.441-1.677c0.294-0.456,0.727-0.799,1.296-1.031
		c0.57-0.232,1.271-0.349,2.101-0.349c0.495,0,0.979,0.048,1.449,0.144s0.922,0.235,1.352,0.418
		c0.431,0.183,0.838,0.411,1.223,0.683l-1.329,1.617c-0.452-0.272-0.909-0.48-1.37-0.623c-0.462-0.142-0.909-0.213-1.343-0.213
		c-0.583,0-1.025,0.083-1.329,0.25c-0.304,0.167-0.455,0.416-0.455,0.744c0,0.21,0.083,0.372,0.251,0.482
		c0.167,0.112,0.376,0.188,0.627,0.229c0.251,0.04,0.614,0.082,1.092,0.125c0.05,0.007,0.098,0.011,0.144,0.015
		c0.047,0.003,0.095,0.008,0.145,0.014c0.019,0,0.04,0,0.064,0c0.025,0,0.05,0.003,0.075,0.009c0.712,0.068,1.304,0.171,1.774,0.307
		c0.471,0.137,0.87,0.408,1.198,0.813c0.329,0.405,0.493,0.996,0.493,1.771c0,0.681-0.155,1.256-0.465,1.724s-0.77,0.82-1.38,1.059
		c-0.61,0.239-1.358,0.358-2.244,0.358C254.837,70.699,254.549,70.699,254.549,70.699z"/>
	<path class="st1" d="M264.408,70.699c0,0-0.322-0.168-0.967-0.502c-0.645-0.335-1.137-0.825-1.478-1.473s-0.511-1.43-0.511-2.347
		V65.29c0-0.954,0.162-1.769,0.487-2.444s0.8-1.189,1.422-1.542c0.623-0.353,1.371-0.53,2.244-0.53c0.824,0,1.528,0.206,2.114,0.618
		c0.585,0.412,1.031,1.008,1.338,1.789c0.307,0.78,0.46,1.723,0.46,2.825v0.632h-6.551v-1.627h4.488l-0.01-0.102
		c-0.062-0.675-0.251-1.199-0.566-1.571c-0.316-0.372-0.74-0.557-1.273-0.557c-0.669,0-1.187,0.209-1.552,0.627
		s-0.548,1.011-0.548,1.779v1.227c0,0.731,0.198,1.293,0.595,1.687s0.953,0.59,1.672,0.59c0.366,0,0.727-0.069,1.083-0.209
		c0.356-0.139,0.677-0.333,0.962-0.58l1.449,1.356c-0.489,0.458-1.039,0.813-1.649,1.063s-1.225,0.377-1.845,0.377
		C264.863,70.699,264.408,70.699,264.408,70.699z"/>
	<path class="st1" d="M275.373,57.039h2.221v13.52h-2.221V57.039z M276.293,62.856h4.655c0.31,0,0.584-0.076,0.822-0.228
		s0.423-0.367,0.553-0.646s0.198-0.604,0.204-0.976c0-0.366-0.064-0.688-0.195-0.966c-0.13-0.279-0.314-0.494-0.553-0.646
		s-0.516-0.228-0.831-0.228h-4.655v-2.128h4.72c0.763,0,1.432,0.164,2.008,0.492c0.576,0.329,1.023,0.793,1.343,1.394
		c0.318,0.601,0.479,1.295,0.479,2.082c0,0.793-0.16,1.49-0.479,2.091c-0.319,0.601-0.769,1.065-1.348,1.394
		c-0.579,0.328-1.247,0.492-2.003,0.492h-4.72V62.856z M279.554,64.566l2.305-0.428l3.55,6.421h-2.667L279.554,64.566z"/>
	<path class="st1" d="M289.896,70.699c0,0-0.322-0.168-0.967-0.502c-0.645-0.335-1.137-0.825-1.478-1.473s-0.511-1.43-0.511-2.347
		V65.29c0-0.954,0.162-1.769,0.487-2.444s0.8-1.189,1.422-1.542c0.623-0.353,1.371-0.53,2.244-0.53c0.824,0,1.528,0.206,2.114,0.618
		c0.585,0.412,1.031,1.008,1.338,1.789c0.307,0.78,0.46,1.723,0.46,2.825v0.632h-6.551v-1.627h4.488l-0.01-0.102
		c-0.062-0.675-0.251-1.199-0.566-1.571c-0.316-0.372-0.74-0.557-1.273-0.557c-0.669,0-1.187,0.209-1.552,0.627
		s-0.548,1.011-0.548,1.779v1.227c0,0.731,0.198,1.293,0.595,1.687s0.953,0.59,1.672,0.59c0.366,0,0.727-0.069,1.083-0.209
		c0.356-0.139,0.677-0.333,0.962-0.58l1.449,1.356c-0.489,0.458-1.039,0.813-1.649,1.063s-1.225,0.377-1.845,0.377
		C290.352,70.699,289.896,70.699,289.896,70.699z"/>
	<path class="st1" d="M300.108,70.699c0,0-0.26-0.055-0.78-0.163s-1.009-0.268-1.464-0.479c-0.455-0.21-0.865-0.468-1.231-0.771
		l1.348-1.672c0.489,0.347,0.99,0.61,1.501,0.789c0.511,0.181,1.008,0.27,1.491,0.27c0.675,0,1.188-0.091,1.538-0.273
		c0.35-0.183,0.524-0.448,0.524-0.795c0-0.267-0.086-0.466-0.26-0.6c-0.174-0.133-0.392-0.224-0.655-0.273
		c-0.263-0.05-0.633-0.097-1.11-0.14c-0.08-0.006-0.164-0.013-0.251-0.019s-0.17-0.016-0.251-0.028c-0.024,0-0.05-0.001-0.074-0.004
		s-0.05-0.005-0.074-0.005c-0.675-0.074-1.229-0.178-1.663-0.312c-0.434-0.133-0.798-0.389-1.092-0.767
		c-0.295-0.378-0.441-0.92-0.441-1.626c0-0.663,0.146-1.222,0.441-1.677c0.294-0.456,0.727-0.799,1.296-1.031
		c0.57-0.232,1.271-0.349,2.101-0.349c0.495,0,0.979,0.048,1.449,0.144s0.922,0.235,1.352,0.418
		c0.431,0.183,0.838,0.411,1.223,0.683l-1.329,1.617c-0.452-0.272-0.909-0.48-1.37-0.623c-0.462-0.142-0.909-0.213-1.343-0.213
		c-0.583,0-1.025,0.083-1.329,0.25c-0.304,0.167-0.455,0.416-0.455,0.744c0,0.21,0.083,0.372,0.251,0.482
		c0.167,0.112,0.376,0.188,0.627,0.229c0.251,0.04,0.614,0.082,1.092,0.125c0.05,0.007,0.098,0.011,0.144,0.015
		c0.047,0.003,0.095,0.008,0.145,0.014c0.019,0,0.04,0,0.064,0c0.025,0,0.05,0.003,0.075,0.009c0.712,0.068,1.304,0.171,1.774,0.307
		c0.471,0.137,0.87,0.408,1.198,0.813c0.329,0.405,0.493,0.996,0.493,1.771c0,0.681-0.155,1.256-0.465,1.724s-0.77,0.82-1.38,1.059
		c-0.61,0.239-1.358,0.358-2.244,0.358C300.396,70.699,300.108,70.699,300.108,70.699z"/>
	<path class="st1" d="M309.512,66.777c0,0.57,0.152,1.012,0.456,1.324c0.303,0.313,0.73,0.47,1.282,0.47
		c0.551,0,0.976-0.147,1.272-0.441c0.298-0.294,0.446-0.717,0.446-1.269l0.13,2.063c-0.186,0.502-0.495,0.924-0.929,1.264
		c-0.434,0.341-0.964,0.512-1.589,0.512c-1.047,0-1.857-0.338-2.431-1.013c-0.572-0.676-0.859-1.63-0.859-2.862v-5.91h2.221V66.777z
		 M312.969,60.913h2.212v9.646h-2.212V60.913z"/>
	<path class="st1" d="M320.096,67.725c0,0.235,0.06,0.417,0.177,0.544c0.118,0.127,0.285,0.19,0.502,0.19h0.66v2.128h-1.208
		c-0.744,0-1.321-0.224-1.733-0.67c-0.412-0.445-0.618-1.074-0.618-1.886V57.048h2.221V67.725z"/>
	<path class="st1" d="M322.642,60.913h4.534v1.942h-4.534V60.913z M324.203,69.959c-0.378-0.431-0.567-1.066-0.567-1.909v-9.943
		h2.221v9.636c0,0.235,0.047,0.417,0.14,0.544s0.229,0.19,0.409,0.19h0.771v2.128h-1.188
		C325.175,70.606,324.58,70.39,324.203,69.959z"/>
	<path class="st1" d="M332.277,70.699c0,0-0.26-0.055-0.78-0.163s-1.009-0.268-1.464-0.479c-0.455-0.21-0.865-0.468-1.231-0.771
		l1.348-1.672c0.489,0.347,0.99,0.61,1.501,0.789c0.511,0.181,1.008,0.27,1.491,0.27c0.675,0,1.188-0.091,1.538-0.273
		c0.35-0.183,0.524-0.448,0.524-0.795c0-0.267-0.086-0.466-0.26-0.6c-0.174-0.133-0.392-0.224-0.655-0.273
		c-0.263-0.05-0.633-0.097-1.11-0.14c-0.08-0.006-0.164-0.013-0.251-0.019s-0.17-0.016-0.251-0.028c-0.024,0-0.05-0.001-0.074-0.004
		s-0.05-0.005-0.074-0.005c-0.675-0.074-1.229-0.178-1.663-0.312c-0.434-0.133-0.798-0.389-1.092-0.767
		c-0.295-0.378-0.441-0.92-0.441-1.626c0-0.663,0.146-1.222,0.441-1.677c0.294-0.456,0.727-0.799,1.296-1.031
		c0.57-0.232,1.271-0.349,2.101-0.349c0.495,0,0.979,0.048,1.449,0.144s0.922,0.235,1.352,0.418
		c0.431,0.183,0.838,0.411,1.223,0.683l-1.329,1.617c-0.452-0.272-0.909-0.48-1.37-0.623c-0.462-0.142-0.909-0.213-1.343-0.213
		c-0.583,0-1.025,0.083-1.329,0.25c-0.304,0.167-0.455,0.416-0.455,0.744c0,0.21,0.083,0.372,0.251,0.482
		c0.167,0.112,0.376,0.188,0.627,0.229c0.251,0.04,0.614,0.082,1.092,0.125c0.05,0.007,0.098,0.011,0.144,0.015
		c0.047,0.003,0.095,0.008,0.145,0.014c0.019,0,0.04,0,0.064,0c0.025,0,0.05,0.003,0.075,0.009c0.712,0.068,1.304,0.171,1.774,0.307
		c0.471,0.137,0.87,0.408,1.198,0.813c0.329,0.405,0.493,0.996,0.493,1.771c0,0.681-0.155,1.256-0.465,1.724s-0.77,0.82-1.38,1.059
		c-0.61,0.239-1.358,0.358-2.244,0.358C332.565,70.699,332.277,70.699,332.277,70.699z"/>
</g>
</svg>