<!-- Generator: Adobe Illustrator 22.1.0, SVG Export Plug-In  -->
<svg version="1.1"
	 xmlns="http://www.w3.org/2000/svg" xmlns:xlink="http://www.w3.org/1999/xlink" xmlns:a="http://ns.adobe.com/AdobeSVGViewerExtensions/3.0/"
	 x="0px" y="0px" width="219px" height="55px" viewBox="0 0 219 55" style="enable-background:new 0 0 219 55;"
	 xml:space="preserve">
<style type="text/css">
	.st0{fill:#1B1464;}
	.st1{fill:#FFFFFF;}
</style>
<defs>
</defs>
<rect class="st0" width="219" height="55"/>
<g>
	<path class="st1" d="M39.896,17.095c0,0-0.204-0.043-0.612-0.13c-0.409-0.086-0.792-0.214-1.149-0.384
		c-0.357-0.169-0.684-0.379-0.98-0.628l0.806-1.212c0.355,0.3,0.754,0.528,1.197,0.683c0.442,0.154,0.911,0.231,1.406,0.231
		c0.618,0,1.097-0.11,1.438-0.33c0.34-0.22,0.511-0.531,0.511-0.933v-0.006c0-0.284-0.076-0.509-0.229-0.676
		c-0.152-0.167-0.351-0.29-0.597-0.368c-0.246-0.079-0.561-0.151-0.946-0.219c-0.013-0.004-0.025-0.006-0.038-0.006
		s-0.025-0.002-0.038-0.006L40.55,13.09c-0.618-0.102-1.125-0.222-1.523-0.362s-0.736-0.389-1.016-0.749s-0.419-0.87-0.419-1.53
		v-0.006c0-0.584,0.131-1.083,0.394-1.498s0.643-0.73,1.143-0.946s1.1-0.324,1.803-0.324c0.33,0,0.661,0.037,0.994,0.111
		c0.332,0.074,0.658,0.182,0.978,0.324c0.319,0.142,0.629,0.318,0.93,0.53l-0.736,1.25c-0.355-0.254-0.717-0.446-1.085-0.578
		s-0.728-0.197-1.079-0.197c-0.584,0-1.036,0.107-1.355,0.32c-0.32,0.214-0.479,0.516-0.479,0.905v0.006
		c0,0.292,0.083,0.522,0.248,0.692s0.372,0.293,0.619,0.372c0.248,0.078,0.594,0.162,1.038,0.25
		c0.017,0.004,0.033,0.007,0.048,0.009c0.015,0.002,0.03,0.005,0.047,0.01c0.021,0.004,0.044,0.008,0.07,0.013
		s0.049,0.008,0.07,0.013c0.571,0.114,1.048,0.252,1.431,0.413c0.383,0.161,0.704,0.419,0.962,0.774s0.387,0.84,0.387,1.454v0.013
		c0,0.576-0.135,1.068-0.406,1.479s-0.665,0.723-1.181,0.936c-0.516,0.214-1.138,0.321-1.866,0.321
		C40.119,17.095,39.896,17.095,39.896,17.095z"/>
	<path class="st1" d="M47.431,17.095c0,0-0.22-0.114-0.66-0.343s-0.776-0.564-1.009-1.006c-0.233-0.442-0.349-0.976-0.349-1.603
		v-0.743c0-0.652,0.111-1.208,0.333-1.669c0.223-0.461,0.546-0.813,0.972-1.054c0.425-0.241,0.936-0.362,1.533-0.362
		c0.563,0,1.044,0.141,1.444,0.422c0.4,0.281,0.705,0.688,0.914,1.222c0.21,0.533,0.314,1.176,0.314,1.93v0.432h-4.475V13.21h3.066
		l-0.006-0.07c-0.042-0.461-0.171-0.819-0.387-1.073s-0.506-0.381-0.87-0.381c-0.457,0-0.811,0.143-1.06,0.428
		c-0.25,0.286-0.375,0.691-0.375,1.216v0.838c0,0.5,0.135,0.883,0.406,1.152c0.271,0.269,0.652,0.403,1.143,0.403
		c0.25,0,0.496-0.047,0.74-0.143c0.243-0.095,0.462-0.227,0.657-0.396l0.99,0.927c-0.334,0.313-0.71,0.556-1.126,0.727
		c-0.417,0.172-0.837,0.257-1.26,0.257C47.742,17.095,47.431,17.095,47.431,17.095z"/>
	<path class="st1" d="M52.573,10.411h1.517V17h-1.517V10.411z M56.477,13.007c0-0.394-0.106-0.698-0.317-0.914
		s-0.512-0.324-0.901-0.324c-0.373,0-0.66,0.101-0.863,0.302c-0.203,0.201-0.305,0.485-0.305,0.854l-0.133-1.365
		c0.199-0.406,0.45-0.715,0.752-0.927c0.303-0.211,0.659-0.317,1.07-0.317c0.703,0,1.248,0.234,1.634,0.702
		c0.388,0.467,0.581,1.128,0.581,1.983V17h-1.517V13.007z"/>
	<path class="st1" d="M59.79,7.771h1.511v1.517H59.79V7.771z M59.79,10.411h1.511V17H59.79V10.411z"/>
	<path class="st1" d="M64.186,16.759c-0.417-0.224-0.734-0.551-0.952-0.98c-0.218-0.43-0.327-0.947-0.327-1.552v-1.073
		c0-0.597,0.109-1.107,0.327-1.533c0.218-0.425,0.535-0.749,0.952-0.971c0.417-0.223,0.917-0.333,1.501-0.333
		s1.084,0.111,1.501,0.333c0.417,0.222,0.734,0.546,0.952,0.971c0.218,0.426,0.327,0.937,0.327,1.533v1.092
		c0,0.601-0.109,1.114-0.327,1.539c-0.218,0.426-0.535,0.75-0.952,0.975c-0.417,0.224-0.917,0.336-1.501,0.336
		S64.603,16.983,64.186,16.759z M66.62,15.276c0.22-0.243,0.33-0.587,0.33-1.031v-1.092c0-0.44-0.11-0.781-0.33-1.022
		s-0.531-0.362-0.933-0.362s-0.713,0.121-0.933,0.362s-0.33,0.582-0.33,1.022v1.092c0,0.444,0.109,0.788,0.327,1.031
		c0.218,0.244,0.53,0.365,0.937,0.365C66.089,15.642,66.4,15.52,66.62,15.276z"/>
	<path class="st1" d="M70.181,10.411h1.581V17h-1.581V10.411z M73.476,11.855c-0.148-0.058-0.319-0.086-0.514-0.086
		c-0.381,0-0.676,0.113-0.886,0.34c-0.209,0.226-0.314,0.541-0.314,0.942l-0.133-1.492c0.19-0.394,0.439-0.699,0.746-0.917
		c0.307-0.218,0.644-0.327,1.012-0.327c0.288,0,0.548,0.043,0.781,0.13c0.233,0.086,0.436,0.214,0.609,0.384l-0.927,1.276
		C73.749,11.996,73.624,11.912,73.476,11.855z"/>
	<path class="st1" d="M80.249,17.095c0,0-0.204-0.043-0.612-0.13c-0.409-0.086-0.792-0.214-1.149-0.384
		c-0.357-0.169-0.684-0.379-0.98-0.628l0.806-1.212c0.355,0.3,0.754,0.528,1.197,0.683c0.442,0.154,0.911,0.231,1.406,0.231
		c0.618,0,1.097-0.11,1.438-0.33c0.34-0.22,0.511-0.531,0.511-0.933v-0.006c0-0.284-0.076-0.509-0.229-0.676
		c-0.152-0.167-0.351-0.29-0.597-0.368c-0.246-0.079-0.561-0.151-0.946-0.219c-0.013-0.004-0.025-0.006-0.038-0.006
		s-0.025-0.002-0.038-0.006l-0.114-0.019c-0.618-0.102-1.125-0.222-1.523-0.362s-0.736-0.389-1.016-0.749s-0.419-0.87-0.419-1.53
		v-0.006c0-0.584,0.131-1.083,0.394-1.498s0.643-0.73,1.143-0.946s1.1-0.324,1.803-0.324c0.33,0,0.661,0.037,0.994,0.111
		c0.332,0.074,0.658,0.182,0.978,0.324c0.319,0.142,0.629,0.318,0.93,0.53l-0.736,1.25c-0.355-0.254-0.717-0.446-1.085-0.578
		s-0.728-0.197-1.079-0.197c-0.584,0-1.036,0.107-1.355,0.32c-0.32,0.214-0.479,0.516-0.479,0.905v0.006
		c0,0.292,0.083,0.522,0.248,0.692s0.372,0.293,0.619,0.372c0.248,0.078,0.594,0.162,1.038,0.25
		c0.017,0.004,0.033,0.007,0.048,0.009c0.015,0.002,0.03,0.005,0.047,0.01c0.021,0.004,0.044,0.008,0.07,0.013
		s0.049,0.008,0.07,0.013c0.571,0.114,1.048,0.252,1.431,0.413c0.383,0.161,0.704,0.419,0.962,0.774s0.387,0.84,0.387,1.454v0.013
		c0,0.576-0.135,1.068-0.406,1.479s-0.665,0.723-1.181,0.936c-0.516,0.214-1.138,0.321-1.866,0.321
		C80.471,17.095,80.249,17.095,80.249,17.095z"/>
	<path class="st1" d="M87.758,17.095c0,0-0.218-0.115-0.654-0.346c-0.436-0.23-0.768-0.567-0.997-1.009
		c-0.229-0.442-0.343-0.977-0.343-1.603v-0.895c0-0.618,0.114-1.146,0.343-1.584c0.229-0.438,0.561-0.771,0.997-1
		s0.96-0.343,1.574-0.343c0.351,0,0.682,0.042,0.994,0.124c0.311,0.083,0.59,0.202,0.838,0.359c0.247,0.157,0.454,0.347,0.619,0.571
		L90.1,12.334c-0.173-0.182-0.376-0.322-0.609-0.419s-0.476-0.146-0.73-0.146c-0.47,0-0.833,0.128-1.092,0.384
		c-0.258,0.256-0.387,0.619-0.387,1.089v0.895c0,0.482,0.128,0.854,0.384,1.114c0.256,0.261,0.621,0.391,1.095,0.391
		c0.258,0,0.503-0.053,0.736-0.159s0.434-0.256,0.603-0.451l1.028,1.028c-0.169,0.22-0.377,0.407-0.625,0.562
		c-0.247,0.155-0.526,0.272-0.838,0.353c-0.311,0.081-0.64,0.121-0.987,0.121C88.064,17.095,87.758,17.095,87.758,17.095z"/>
	<path class="st1" d="M92.43,7.771h1.517V17H92.43V7.771z M96.333,13.007c0-0.394-0.106-0.698-0.317-0.914s-0.512-0.324-0.901-0.324
		c-0.373,0-0.66,0.1-0.863,0.298s-0.305,0.48-0.305,0.844l-0.133-1.365c0.199-0.398,0.45-0.703,0.752-0.914
		c0.303-0.211,0.659-0.317,1.07-0.317c0.703,0,1.248,0.234,1.634,0.702c0.388,0.467,0.581,1.128,0.581,1.983V17h-1.517V13.007z"/>
	<path class="st1" d="M100.78,16.759c-0.417-0.224-0.734-0.551-0.952-0.98c-0.218-0.43-0.327-0.947-0.327-1.552v-1.073
		c0-0.597,0.109-1.107,0.327-1.533c0.218-0.425,0.535-0.749,0.952-0.971c0.417-0.223,0.917-0.333,1.501-0.333
		s1.084,0.111,1.501,0.333c0.417,0.222,0.734,0.546,0.952,0.971c0.218,0.426,0.327,0.937,0.327,1.533v1.092
		c0,0.601-0.109,1.114-0.327,1.539c-0.218,0.426-0.535,0.75-0.952,0.975c-0.417,0.224-0.917,0.336-1.501,0.336
		S101.197,16.983,100.78,16.759z M103.214,15.276c0.22-0.243,0.33-0.587,0.33-1.031v-1.092c0-0.44-0.11-0.781-0.33-1.022
		s-0.531-0.362-0.933-0.362s-0.713,0.121-0.933,0.362s-0.33,0.582-0.33,1.022v1.092c0,0.444,0.109,0.788,0.327,1.031
		c0.218,0.244,0.53,0.365,0.937,0.365C102.683,15.642,102.994,15.52,103.214,15.276z"/>
	<path class="st1" d="M107.864,16.759c-0.417-0.224-0.734-0.551-0.952-0.98c-0.218-0.43-0.327-0.947-0.327-1.552v-1.073
		c0-0.597,0.109-1.107,0.327-1.533c0.218-0.425,0.535-0.749,0.952-0.971c0.417-0.223,0.917-0.333,1.501-0.333
		s1.084,0.111,1.501,0.333c0.417,0.222,0.734,0.546,0.952,0.971c0.218,0.426,0.327,0.937,0.327,1.533v1.092
		c0,0.601-0.109,1.114-0.327,1.539c-0.218,0.426-0.535,0.75-0.952,0.975c-0.417,0.224-0.917,0.336-1.501,0.336
		S108.281,16.983,107.864,16.759z M110.298,15.276c0.22-0.243,0.33-0.587,0.33-1.031v-1.092c0-0.44-0.11-0.781-0.33-1.022
		s-0.531-0.362-0.933-0.362s-0.713,0.121-0.933,0.362s-0.33,0.582-0.33,1.022v1.092c0,0.444,0.109,0.788,0.327,1.031
		c0.218,0.244,0.53,0.365,0.937,0.365C109.767,15.642,110.078,15.52,110.298,15.276z"/>
	<path class="st1" d="M115.376,15.064c0,0.161,0.04,0.285,0.121,0.372c0.081,0.086,0.195,0.13,0.343,0.13h0.451v1.454h-0.825
		c-0.508,0-0.902-0.152-1.184-0.457c-0.281-0.305-0.422-0.734-0.422-1.289V7.771h1.517V15.064z"/>
	<path class="st1" d="M122.054,17.095c0,0-0.247-0.139-0.739-0.416c-0.493-0.277-0.872-0.674-1.137-1.19
		c-0.264-0.516-0.396-1.128-0.396-1.834v-2.533c0-0.707,0.132-1.318,0.396-1.834c0.265-0.516,0.644-0.914,1.137-1.193
		c0.493-0.279,1.074-0.419,1.742-0.419c0.554,0,1.057,0.119,1.508,0.355c0.45,0.237,0.825,0.579,1.123,1.025
		c0.299,0.447,0.503,0.975,0.613,1.584h-1.562c-0.076-0.296-0.197-0.556-0.362-0.777c-0.165-0.223-0.361-0.393-0.587-0.511
		c-0.227-0.119-0.471-0.178-0.733-0.178c-0.351,0-0.655,0.08-0.911,0.238c-0.256,0.159-0.454,0.384-0.593,0.676
		s-0.209,0.637-0.209,1.035v2.533c0,0.398,0.07,0.743,0.209,1.035s0.337,0.516,0.593,0.673c0.256,0.157,0.56,0.235,0.911,0.235
		c0.267,0,0.513-0.057,0.739-0.171c0.227-0.114,0.422-0.281,0.587-0.501s0.284-0.484,0.355-0.793h1.562
		c-0.114,0.609-0.321,1.137-0.619,1.584c-0.299,0.446-0.673,0.788-1.124,1.025c-0.45,0.237-0.951,0.355-1.501,0.355
		C122.389,17.095,122.054,17.095,122.054,17.095z"/>
	<path class="st1" d="M129.716,17.095c0,0-0.22-0.114-0.66-0.343s-0.776-0.564-1.009-1.006c-0.233-0.442-0.349-0.976-0.349-1.603
		v-0.743c0-0.652,0.111-1.208,0.333-1.669c0.223-0.461,0.546-0.813,0.972-1.054c0.425-0.241,0.936-0.362,1.533-0.362
		c0.563,0,1.044,0.141,1.444,0.422c0.4,0.281,0.705,0.688,0.914,1.222c0.21,0.533,0.314,1.176,0.314,1.93v0.432h-4.475V13.21h3.066
		l-0.006-0.07c-0.042-0.461-0.171-0.819-0.387-1.073s-0.506-0.381-0.87-0.381c-0.457,0-0.811,0.143-1.06,0.428
		c-0.25,0.286-0.375,0.691-0.375,1.216v0.838c0,0.5,0.135,0.883,0.406,1.152c0.271,0.269,0.652,0.403,1.143,0.403
		c0.25,0,0.496-0.047,0.74-0.143c0.243-0.095,0.462-0.227,0.657-0.396l0.99,0.927c-0.334,0.313-0.71,0.556-1.126,0.727
		c-0.417,0.172-0.837,0.257-1.26,0.257C130.027,17.095,129.716,17.095,129.716,17.095z"/>
	<path class="st1" d="M134.857,10.411h1.581V17h-1.581V10.411z M138.152,11.855c-0.148-0.058-0.319-0.086-0.514-0.086
		c-0.381,0-0.676,0.113-0.886,0.34c-0.209,0.226-0.314,0.541-0.314,0.942l-0.133-1.492c0.19-0.394,0.439-0.699,0.746-0.917
		c0.307-0.218,0.644-0.327,1.012-0.327c0.288,0,0.548,0.043,0.781,0.13c0.233,0.086,0.436,0.214,0.609,0.384l-0.927,1.276
		C138.425,11.996,138.3,11.912,138.152,11.855z"/>
	<path class="st1" d="M139.897,10.411h3.098v1.327h-3.098V10.411z M140.964,16.591c-0.258-0.294-0.387-0.729-0.387-1.305V8.494
		h1.517v6.583c0,0.161,0.032,0.285,0.095,0.372c0.063,0.086,0.157,0.13,0.279,0.13h0.527v1.454h-0.813
		C141.628,17.032,141.222,16.885,140.964,16.591z"/>
	<path class="st1" d="M144.601,7.771h1.511v1.517h-1.511V7.771z M144.601,10.411h1.511V17h-1.511V10.411z"/>
	<path class="st1" d="M147.4,10.411h3.421v1.295H147.4V10.411z M148.099,9.516c0-0.584,0.134-1.021,0.403-1.311
		c0.269-0.29,0.682-0.435,1.241-0.435h1.079v1.39h-0.832c-0.123,0-0.216,0.046-0.279,0.14s-0.095,0.214-0.095,0.362V17h-1.517V9.516
		z"/>
	<path class="st1" d="M152.174,7.771h1.511v1.517h-1.511V7.771z M152.174,10.411h1.511V17h-1.511V10.411z"/>
	<path class="st1" d="M157.284,17.095c0,0-0.218-0.115-0.654-0.346c-0.436-0.23-0.768-0.567-0.997-1.009
		c-0.229-0.442-0.343-0.977-0.343-1.603v-0.895c0-0.618,0.114-1.146,0.343-1.584c0.229-0.438,0.561-0.771,0.997-1
		s0.96-0.343,1.574-0.343c0.351,0,0.682,0.042,0.994,0.124c0.311,0.083,0.59,0.202,0.838,0.359c0.247,0.157,0.454,0.347,0.619,0.571
		l-1.028,0.965c-0.173-0.182-0.376-0.322-0.609-0.419s-0.476-0.146-0.73-0.146c-0.47,0-0.833,0.128-1.092,0.384
		c-0.258,0.256-0.387,0.619-0.387,1.089v0.895c0,0.482,0.128,0.854,0.384,1.114c0.256,0.261,0.621,0.391,1.095,0.391
		c0.258,0,0.503-0.053,0.736-0.159s0.434-0.256,0.603-0.451l1.028,1.028c-0.169,0.22-0.377,0.407-0.625,0.562
		c-0.247,0.155-0.526,0.272-0.838,0.353c-0.311,0.081-0.64,0.121-0.987,0.121C157.59,17.095,157.284,17.095,157.284,17.095z"/>
	<path class="st1" d="M162.203,16.591c-0.376-0.337-0.565-0.848-0.565-1.533c0-0.652,0.19-1.141,0.571-1.466
		s0.952-0.489,1.714-0.489h1.765l0.089,1.181h-1.847c-0.3,0-0.526,0.063-0.676,0.19c-0.15,0.127-0.225,0.322-0.225,0.584
		c0,0.275,0.097,0.479,0.292,0.612c0.195,0.134,0.489,0.2,0.882,0.2c0.482,0,0.841-0.053,1.076-0.159
		c0.234-0.106,0.352-0.271,0.352-0.495l0.133,0.939c-0.072,0.208-0.198,0.381-0.378,0.521c-0.18,0.14-0.396,0.245-0.65,0.314
		c-0.254,0.07-0.531,0.105-0.832,0.105C163.147,17.095,162.58,16.927,162.203,16.591z M165.631,12.823
		c0-0.368-0.109-0.654-0.327-0.857c-0.218-0.203-0.526-0.305-0.924-0.305c-0.254,0-0.503,0.04-0.749,0.121s-0.465,0.192-0.66,0.336
		l-1.009-0.851c0.258-0.3,0.597-0.534,1.016-0.702c0.419-0.167,0.884-0.25,1.396-0.25c0.559,0,1.037,0.096,1.435,0.289
		c0.398,0.193,0.702,0.472,0.911,0.838c0.21,0.366,0.314,0.808,0.314,1.324V17h-1.403V12.823z"/>
	<path class="st1" d="M168.367,10.411h3.098v1.327h-3.098V10.411z M169.433,16.591c-0.258-0.294-0.387-0.729-0.387-1.305V8.494
		h1.517v6.583c0,0.161,0.032,0.285,0.095,0.372c0.063,0.086,0.157,0.13,0.279,0.13h0.527v1.454h-0.813
		C170.098,17.032,169.691,16.885,169.433,16.591z"/>
	<path class="st1" d="M174.943,17.095c0,0-0.22-0.114-0.66-0.343s-0.776-0.564-1.009-1.006c-0.233-0.442-0.349-0.976-0.349-1.603
		v-0.743c0-0.652,0.111-1.208,0.333-1.669c0.223-0.461,0.546-0.813,0.972-1.054c0.425-0.241,0.936-0.362,1.533-0.362
		c0.563,0,1.044,0.141,1.444,0.422c0.4,0.281,0.705,0.688,0.914,1.222c0.21,0.533,0.314,1.176,0.314,1.93v0.432h-4.475V13.21h3.066
		l-0.006-0.07c-0.042-0.461-0.171-0.819-0.387-1.073s-0.506-0.381-0.87-0.381c-0.457,0-0.811,0.143-1.06,0.428
		c-0.25,0.286-0.375,0.691-0.375,1.216v0.838c0,0.5,0.135,0.883,0.406,1.152c0.271,0.269,0.652,0.403,1.143,0.403
		c0.25,0,0.496-0.047,0.74-0.143c0.243-0.095,0.462-0.227,0.657-0.396l0.99,0.927c-0.334,0.313-0.71,0.556-1.126,0.727
		c-0.417,0.172-0.837,0.257-1.26,0.257C175.254,17.095,174.943,17.095,174.943,17.095z"/>
	<path class="st1" d="M31.168,23.371h1.517V32.6h-1.517V23.371z M31.796,23.371h5.427v1.454h-5.427V23.371z M31.796,27.293h4.729
		v1.447h-4.729V27.293z M31.796,31.146h5.427V32.6h-5.427V31.146z"/>
	<path class="st1" d="M40.588,28.963l0.825,1.193l-1.6,2.444h-1.638L40.588,28.963z M40.766,29.737l-2.488-3.726h1.676l1.739,2.806
		l2.539,3.783h-1.669L40.766,29.737z M41.121,28.347l1.333-2.336h1.676l-2.228,3.555L41.121,28.347z"/>
	<path class="st1" d="M45.78,32.191c-0.376-0.337-0.565-0.848-0.565-1.533c0-0.652,0.19-1.141,0.571-1.466s0.952-0.489,1.714-0.489
		h1.765l0.089,1.181h-1.847c-0.3,0-0.526,0.063-0.676,0.19c-0.15,0.127-0.225,0.322-0.225,0.584c0,0.275,0.097,0.479,0.292,0.612
		c0.195,0.134,0.489,0.2,0.882,0.2c0.482,0,0.841-0.053,1.076-0.159c0.234-0.106,0.352-0.271,0.352-0.495l0.133,0.939
		c-0.072,0.208-0.198,0.381-0.378,0.521c-0.18,0.14-0.396,0.245-0.65,0.314c-0.254,0.07-0.531,0.105-0.832,0.105
		C46.724,32.695,46.157,32.527,45.78,32.191z M49.208,28.423c0-0.368-0.109-0.654-0.327-0.857c-0.218-0.203-0.526-0.305-0.924-0.305
		c-0.254,0-0.503,0.04-0.749,0.121s-0.465,0.192-0.66,0.336l-1.009-0.851c0.258-0.3,0.597-0.534,1.016-0.702
		c0.419-0.167,0.884-0.25,1.396-0.25c0.559,0,1.037,0.096,1.435,0.289c0.398,0.193,0.702,0.472,0.911,0.838
		c0.21,0.366,0.314,0.808,0.314,1.324V32.6h-1.403V28.423z"/>
	<path class="st1" d="M52.452,26.011h1.517V32.6h-1.517V26.011z M56.343,28.703c0-0.427-0.105-0.756-0.314-0.987
		c-0.21-0.23-0.507-0.346-0.892-0.346c-0.373,0-0.66,0.101-0.863,0.302c-0.203,0.201-0.305,0.485-0.305,0.854l-0.133-1.365
		c0.199-0.402,0.453-0.71,0.762-0.923c0.309-0.214,0.662-0.321,1.06-0.321c0.461,0,0.857,0.108,1.187,0.324s0.581,0.532,0.752,0.949
		c0.172,0.417,0.257,0.919,0.257,1.507V32.6h-1.511V28.703z M60.228,28.703c0-0.427-0.106-0.756-0.317-0.987
		c-0.211-0.23-0.512-0.346-0.901-0.346c-0.368,0-0.653,0.111-0.854,0.333c-0.201,0.223-0.301,0.539-0.301,0.949l-0.292-1.396
		c0.208-0.427,0.479-0.757,0.816-0.99c0.336-0.233,0.709-0.349,1.12-0.349c0.474,0,0.879,0.108,1.216,0.324
		c0.336,0.216,0.592,0.532,0.768,0.949c0.176,0.417,0.264,0.919,0.264,1.507V32.6h-1.517V28.703z"/>
	<path class="st1" d="M63.541,23.371h1.511v1.517h-1.511V23.371z M63.541,26.011h1.511V32.6h-1.511V26.011z"/>
	<path class="st1" d="M66.848,26.011h1.517V32.6h-1.517V26.011z M70.752,28.607c0-0.394-0.106-0.698-0.317-0.914
		s-0.512-0.324-0.901-0.324c-0.373,0-0.66,0.101-0.863,0.302c-0.203,0.201-0.305,0.485-0.305,0.854l-0.133-1.365
		c0.199-0.406,0.45-0.715,0.752-0.927c0.303-0.211,0.659-0.317,1.07-0.317c0.703,0,1.248,0.234,1.634,0.702
		c0.388,0.467,0.581,1.128,0.581,1.983V32.6h-1.517V28.607z"/>
	<path class="st1" d="M74.357,32.191c-0.376-0.337-0.565-0.848-0.565-1.533c0-0.652,0.19-1.141,0.571-1.466s0.952-0.489,1.714-0.489
		h1.765l0.089,1.181h-1.847c-0.3,0-0.526,0.063-0.676,0.19c-0.15,0.127-0.225,0.322-0.225,0.584c0,0.275,0.097,0.479,0.292,0.612
		c0.195,0.134,0.489,0.2,0.882,0.2c0.482,0,0.841-0.053,1.076-0.159c0.234-0.106,0.352-0.271,0.352-0.495l0.133,0.939
		c-0.072,0.208-0.198,0.381-0.378,0.521c-0.18,0.14-0.396,0.245-0.65,0.314c-0.254,0.07-0.531,0.105-0.832,0.105
		C75.301,32.695,74.734,32.527,74.357,32.191z M77.785,28.423c0-0.368-0.109-0.654-0.327-0.857
		c-0.218-0.203-0.526-0.305-0.924-0.305c-0.254,0-0.503,0.04-0.749,0.121s-0.465,0.192-0.66,0.336l-1.009-0.851
		c0.258-0.3,0.597-0.534,1.016-0.702c0.419-0.167,0.884-0.25,1.396-0.25c0.559,0,1.037,0.096,1.435,0.289
		c0.398,0.193,0.702,0.472,0.911,0.838c0.21,0.366,0.314,0.808,0.314,1.324V32.6h-1.403V28.423z"/>
	<path class="st1" d="M80.521,26.011h3.098v1.327h-3.098V26.011z M81.587,32.191c-0.258-0.294-0.387-0.729-0.387-1.305v-6.792h1.517
		v6.583c0,0.161,0.032,0.285,0.095,0.372c0.063,0.086,0.157,0.13,0.279,0.13h0.527v1.454h-0.813
		C82.252,32.632,81.846,32.485,81.587,32.191z"/>
	<path class="st1" d="M85.225,23.371h1.511v1.517h-1.511V23.371z M85.225,26.011h1.511V32.6h-1.511V26.011z"/>
	<path class="st1" d="M89.621,32.359c-0.417-0.224-0.734-0.551-0.952-0.98c-0.218-0.43-0.327-0.947-0.327-1.552v-1.073
		c0-0.597,0.109-1.107,0.327-1.533c0.218-0.425,0.535-0.749,0.952-0.971c0.417-0.223,0.917-0.333,1.501-0.333
		s1.084,0.111,1.501,0.333c0.417,0.222,0.734,0.546,0.952,0.971c0.218,0.426,0.327,0.937,0.327,1.533v1.092
		c0,0.601-0.109,1.114-0.327,1.539c-0.218,0.426-0.535,0.75-0.952,0.975c-0.417,0.224-0.917,0.336-1.501,0.336
		S90.037,32.583,89.621,32.359z M92.055,30.876c0.22-0.243,0.33-0.587,0.33-1.031v-1.092c0-0.44-0.11-0.781-0.33-1.022
		s-0.531-0.362-0.933-0.362s-0.713,0.121-0.933,0.362s-0.33,0.582-0.33,1.022v1.092c0,0.444,0.109,0.788,0.327,1.031
		c0.218,0.244,0.53,0.365,0.937,0.365C91.523,31.242,91.834,31.12,92.055,30.876z"/>
	<path class="st1" d="M95.616,26.011h1.517V32.6h-1.517V26.011z M99.52,28.607c0-0.394-0.106-0.698-0.317-0.914
		s-0.512-0.324-0.901-0.324c-0.373,0-0.66,0.101-0.863,0.302c-0.203,0.201-0.305,0.485-0.305,0.854L97,27.16
		c0.199-0.406,0.45-0.715,0.752-0.927c0.303-0.211,0.659-0.317,1.07-0.317c0.703,0,1.248,0.234,1.634,0.702
		c0.388,0.467,0.581,1.128,0.581,1.983V32.6H99.52V28.607z"/>
	<path class="st1" d="M103.582,31.841c-0.385-1.013-0.578-2.131-0.578-3.354s0.192-2.341,0.578-3.354
		c0.385-1.014,0.965-1.929,1.739-2.746l0.952,1.028c-0.609,0.681-1.064,1.443-1.365,2.285s-0.451,1.771-0.451,2.787
		s0.15,1.944,0.451,2.787s0.755,1.606,1.365,2.292l-0.952,1.022C104.547,33.77,103.967,32.855,103.582,31.841z"/>
	<path class="st1" d="M109.498,32.695c0,0-0.247-0.139-0.739-0.416c-0.493-0.277-0.872-0.674-1.137-1.19
		c-0.264-0.516-0.396-1.128-0.396-1.834v-2.533c0-0.707,0.132-1.318,0.396-1.834c0.265-0.516,0.644-0.914,1.137-1.193
		c0.493-0.279,1.074-0.419,1.742-0.419c0.554,0,1.057,0.119,1.508,0.355c0.45,0.237,0.825,0.579,1.123,1.025
		c0.299,0.447,0.503,0.975,0.613,1.584h-1.562c-0.076-0.296-0.197-0.556-0.362-0.777c-0.165-0.223-0.361-0.393-0.587-0.511
		c-0.227-0.119-0.471-0.178-0.733-0.178c-0.351,0-0.655,0.08-0.911,0.238c-0.256,0.159-0.454,0.384-0.593,0.676
		s-0.209,0.637-0.209,1.035v2.533c0,0.398,0.07,0.743,0.209,1.035s0.337,0.516,0.593,0.673c0.256,0.157,0.56,0.235,0.911,0.235
		c0.267,0,0.513-0.057,0.739-0.171c0.227-0.114,0.422-0.281,0.587-0.501s0.284-0.484,0.355-0.793h1.562
		c-0.114,0.609-0.321,1.137-0.619,1.584c-0.299,0.446-0.673,0.788-1.124,1.025c-0.45,0.237-0.951,0.355-1.501,0.355
		C109.833,32.695,109.498,32.695,109.498,32.695z"/>
	<path class="st1" d="M116.849,30.664c0,0.161,0.04,0.285,0.121,0.372c0.081,0.086,0.195,0.13,0.343,0.13h0.451v1.454h-0.825
		c-0.508,0-0.902-0.152-1.184-0.457c-0.281-0.305-0.422-0.734-0.422-1.289v-7.503h1.517V30.664z"/>
	<path class="st1" d="M119.28,32.191c-0.376-0.337-0.565-0.848-0.565-1.533c0-0.652,0.19-1.141,0.571-1.466s0.952-0.489,1.714-0.489
		h1.765l0.089,1.181h-1.847c-0.3,0-0.526,0.063-0.676,0.19c-0.15,0.127-0.225,0.322-0.225,0.584c0,0.275,0.097,0.479,0.292,0.612
		c0.195,0.134,0.489,0.2,0.882,0.2c0.482,0,0.841-0.053,1.076-0.159c0.234-0.106,0.352-0.271,0.352-0.495l0.133,0.939
		c-0.072,0.208-0.198,0.381-0.378,0.521c-0.18,0.14-0.396,0.245-0.65,0.314c-0.254,0.07-0.531,0.105-0.832,0.105
		C120.224,32.695,119.656,32.527,119.28,32.191z M122.708,28.423c0-0.368-0.109-0.654-0.327-0.857
		c-0.218-0.203-0.526-0.305-0.924-0.305c-0.254,0-0.503,0.04-0.749,0.121s-0.465,0.192-0.66,0.336l-1.009-0.851
		c0.258-0.3,0.597-0.534,1.016-0.702c0.419-0.167,0.884-0.25,1.396-0.25c0.559,0,1.037,0.096,1.435,0.289
		c0.398,0.193,0.702,0.472,0.911,0.838c0.21,0.366,0.314,0.808,0.314,1.324V32.6h-1.403V28.423z"/>
	<path class="st1" d="M127.786,32.695c0,0-0.178-0.037-0.533-0.111c-0.355-0.074-0.689-0.183-1-0.327
		c-0.312-0.144-0.592-0.319-0.841-0.527l0.92-1.143c0.334,0.237,0.676,0.417,1.025,0.54c0.349,0.123,0.688,0.184,1.019,0.184
		c0.461,0,0.812-0.063,1.051-0.187c0.239-0.125,0.358-0.306,0.358-0.543c0-0.182-0.059-0.318-0.178-0.409
		c-0.119-0.091-0.268-0.154-0.447-0.188c-0.18-0.034-0.433-0.065-0.759-0.095c-0.055-0.004-0.112-0.008-0.171-0.013
		s-0.116-0.011-0.171-0.019c-0.017,0-0.034-0.001-0.051-0.003c-0.017-0.002-0.034-0.003-0.051-0.003
		c-0.461-0.051-0.84-0.122-1.136-0.212c-0.296-0.091-0.545-0.266-0.746-0.524c-0.201-0.258-0.302-0.628-0.302-1.111
		c0-0.453,0.101-0.835,0.302-1.146c0.201-0.312,0.496-0.546,0.885-0.705c0.389-0.158,0.868-0.238,1.435-0.238
		c0.338,0,0.668,0.033,0.99,0.098c0.322,0.066,0.629,0.161,0.923,0.286c0.294,0.125,0.573,0.28,0.835,0.466l-0.908,1.104
		c-0.309-0.186-0.621-0.328-0.936-0.425c-0.315-0.097-0.621-0.146-0.917-0.146c-0.398,0-0.7,0.057-0.908,0.171
		s-0.311,0.284-0.311,0.508c0,0.144,0.057,0.254,0.171,0.33s0.257,0.128,0.429,0.155c0.171,0.028,0.42,0.056,0.746,0.086
		c0.034,0.004,0.067,0.007,0.098,0.01c0.032,0.002,0.065,0.005,0.099,0.009c0.013,0,0.027,0,0.044,0s0.034,0.002,0.051,0.006
		c0.487,0.046,0.891,0.116,1.212,0.209s0.595,0.278,0.819,0.555c0.224,0.277,0.336,0.681,0.336,1.209
		c0,0.465-0.106,0.858-0.317,1.177c-0.211,0.32-0.526,0.561-0.942,0.724c-0.417,0.163-0.928,0.245-1.533,0.245
		C127.982,32.695,127.786,32.695,127.786,32.695z"/>
	<path class="st1" d="M134.527,32.695c0,0-0.178-0.037-0.533-0.111c-0.355-0.074-0.689-0.183-1-0.327
		c-0.312-0.144-0.592-0.319-0.841-0.527l0.92-1.143c0.334,0.237,0.676,0.417,1.025,0.54c0.349,0.123,0.688,0.184,1.019,0.184
		c0.461,0,0.812-0.063,1.051-0.187c0.239-0.125,0.358-0.306,0.358-0.543c0-0.182-0.059-0.318-0.178-0.409
		c-0.119-0.091-0.268-0.154-0.447-0.188c-0.18-0.034-0.433-0.065-0.759-0.095c-0.055-0.004-0.112-0.008-0.171-0.013
		s-0.116-0.011-0.171-0.019c-0.017,0-0.034-0.001-0.051-0.003c-0.017-0.002-0.034-0.003-0.051-0.003
		c-0.461-0.051-0.84-0.122-1.136-0.212c-0.296-0.091-0.545-0.266-0.746-0.524c-0.201-0.258-0.302-0.628-0.302-1.111
		c0-0.453,0.101-0.835,0.302-1.146c0.201-0.312,0.496-0.546,0.885-0.705c0.389-0.158,0.868-0.238,1.435-0.238
		c0.338,0,0.668,0.033,0.99,0.098c0.322,0.066,0.629,0.161,0.923,0.286c0.294,0.125,0.573,0.28,0.835,0.466l-0.908,1.104
		c-0.309-0.186-0.621-0.328-0.936-0.425c-0.315-0.097-0.621-0.146-0.917-0.146c-0.398,0-0.7,0.057-0.908,0.171
		s-0.311,0.284-0.311,0.508c0,0.144,0.057,0.254,0.171,0.33s0.257,0.128,0.429,0.155c0.171,0.028,0.42,0.056,0.746,0.086
		c0.034,0.004,0.067,0.007,0.098,0.01c0.032,0.002,0.065,0.005,0.099,0.009c0.013,0,0.027,0,0.044,0s0.034,0.002,0.051,0.006
		c0.487,0.046,0.891,0.116,1.212,0.209s0.595,0.278,0.819,0.555c0.224,0.277,0.336,0.681,0.336,1.209
		c0,0.465-0.106,0.858-0.317,1.177c-0.211,0.32-0.526,0.561-0.942,0.724c-0.417,0.163-0.928,0.245-1.533,0.245
		C134.724,32.695,134.527,32.695,134.527,32.695z"/>
	<path class="st1" d="M143.947,32.6h-1.517v-7.503l-1.219,0.616V24.12l1.346-0.749h1.39V32.6z"/>
	<path class="st1" d="M145.775,31.254l3.193-4.228c0.165-0.216,0.293-0.439,0.384-0.67c0.091-0.23,0.136-0.445,0.136-0.644V25.7
		c0-0.309-0.094-0.548-0.283-0.717c-0.188-0.169-0.456-0.254-0.803-0.254c-0.334,0-0.604,0.103-0.81,0.308
		c-0.205,0.206-0.329,0.497-0.371,0.873v0.006h-1.562V25.91c0.059-0.554,0.208-1.028,0.444-1.422s0.55-0.694,0.939-0.901
		s0.838-0.311,1.346-0.311c0.563,0,1.043,0.094,1.441,0.283c0.398,0.188,0.702,0.462,0.911,0.822c0.21,0.36,0.314,0.793,0.314,1.301
		v0.006c0,0.373-0.071,0.75-0.213,1.133c-0.142,0.383-0.337,0.741-0.587,1.076l-2.476,3.25h3.326V32.6h-5.332V31.254z"/>
	<path class="st1" d="M151.805,33.565c0.609-0.686,1.064-1.449,1.365-2.292s0.451-1.771,0.451-2.787s-0.15-1.944-0.451-2.787
		s-0.755-1.604-1.365-2.285l0.952-1.028c0.774,0.817,1.354,1.732,1.739,2.746c0.385,1.013,0.578,2.131,0.578,3.354
		s-0.192,2.341-0.578,3.354c-0.385,1.014-0.965,1.929-1.739,2.746L151.805,33.565z"/>
	<path class="st1" d="M156.902,31.254l3.193-4.228c0.165-0.216,0.293-0.439,0.384-0.67c0.091-0.23,0.136-0.445,0.136-0.644V25.7
		c0-0.309-0.094-0.548-0.283-0.717c-0.188-0.169-0.456-0.254-0.803-0.254c-0.334,0-0.604,0.103-0.81,0.308
		c-0.205,0.206-0.329,0.497-0.371,0.873v0.006h-1.562V25.91c0.059-0.554,0.208-1.028,0.444-1.422s0.55-0.694,0.939-0.901
		s0.838-0.311,1.346-0.311c0.563,0,1.043,0.094,1.441,0.283c0.398,0.188,0.702,0.462,0.911,0.822c0.21,0.36,0.314,0.793,0.314,1.301
		v0.006c0,0.373-0.071,0.75-0.213,1.133c-0.142,0.383-0.337,0.741-0.587,1.076l-2.476,3.25h3.326V32.6h-5.332V31.254z"/>
	<path class="st1" d="M164.446,32.003c-0.459-0.461-0.688-1.104-0.688-1.93v-4.196c0-0.83,0.23-1.474,0.692-1.933
		c0.461-0.459,1.13-0.688,2.006-0.688c0.88,0,1.55,0.229,2.009,0.686c0.459,0.457,0.688,1.103,0.688,1.936v4.196
		c0,0.83-0.23,1.474-0.692,1.933c-0.461,0.459-1.13,0.689-2.006,0.689C165.575,32.695,164.906,32.465,164.446,32.003z
		 M167.351,30.883c0.19-0.239,0.286-0.583,0.286-1.032V26.1c0-0.449-0.095-0.792-0.286-1.031c-0.19-0.239-0.489-0.359-0.895-0.359
		s-0.705,0.12-0.895,0.359c-0.19,0.239-0.286,0.583-0.286,1.031v3.751c0,0.449,0.095,0.792,0.286,1.032
		c0.19,0.239,0.489,0.358,0.895,0.358S167.16,31.122,167.351,30.883z"/>
	<path class="st1" d="M173.286,32.6h-1.517v-7.503l-1.219,0.616V24.12l1.346-0.749h1.39V32.6z"/>
	<path class="st1" d="M176.517,32.378c-0.432-0.211-0.766-0.511-1.003-0.898c-0.237-0.388-0.355-0.837-0.355-1.349v-0.152
		c0-0.461,0.122-0.895,0.365-1.301c0.244-0.406,0.566-0.713,0.968-0.92c-0.343-0.178-0.619-0.434-0.829-0.768
		c-0.209-0.334-0.314-0.688-0.314-1.06V25.7c0-0.482,0.111-0.907,0.333-1.273c0.222-0.366,0.534-0.649,0.936-0.851
		c0.402-0.201,0.87-0.301,1.403-0.301s1.001,0.101,1.403,0.301c0.402,0.201,0.714,0.485,0.936,0.851
		c0.223,0.366,0.333,0.791,0.333,1.273v0.229c0,0.381-0.107,0.737-0.321,1.07c-0.213,0.332-0.494,0.585-0.841,0.758
		c0.406,0.211,0.733,0.52,0.98,0.923c0.248,0.404,0.372,0.837,0.372,1.298v0.152c0,0.512-0.119,0.961-0.355,1.349
		c-0.237,0.387-0.571,0.687-1.003,0.898s-0.933,0.317-1.504,0.317S176.948,32.589,176.517,32.378z M178.729,31.077
		c0.205-0.106,0.364-0.256,0.476-0.451c0.112-0.195,0.168-0.417,0.168-0.667v-0.089c0-0.246-0.056-0.461-0.168-0.647
		c-0.112-0.186-0.27-0.331-0.473-0.435c-0.203-0.104-0.44-0.156-0.711-0.156s-0.508,0.052-0.711,0.156
		c-0.203,0.104-0.361,0.25-0.473,0.438c-0.112,0.188-0.168,0.405-0.168,0.651v0.095c0,0.25,0.056,0.471,0.168,0.663
		c0.112,0.193,0.271,0.341,0.476,0.444c0.206,0.104,0.441,0.156,0.708,0.156S178.523,31.183,178.729,31.077z M178.627,27.024
		c0.175-0.1,0.311-0.241,0.406-0.426c0.095-0.184,0.143-0.396,0.143-0.638v-0.089c0-0.224-0.048-0.423-0.143-0.597
		c-0.096-0.173-0.231-0.307-0.406-0.4c-0.176-0.093-0.378-0.14-0.606-0.14s-0.431,0.046-0.606,0.14
		c-0.175,0.093-0.311,0.227-0.406,0.4c-0.095,0.173-0.143,0.375-0.143,0.603v0.095c0,0.237,0.048,0.446,0.143,0.628
		c0.096,0.182,0.231,0.323,0.406,0.422c0.176,0.099,0.378,0.149,0.606,0.149S178.452,27.123,178.627,27.024z"/>
	<path class="st1" d="M187.022,28.569v1.447h-4.393v-1.447H187.022z"/>
	<path class="st1" d="M11.221,48.295c0,0-0.247-0.139-0.739-0.416c-0.493-0.277-0.872-0.674-1.137-1.19
		c-0.264-0.516-0.396-1.128-0.396-1.834v-2.533c0-0.707,0.132-1.318,0.396-1.834c0.265-0.516,0.644-0.914,1.137-1.193
		c0.493-0.279,1.074-0.419,1.742-0.419c0.554,0,1.057,0.119,1.508,0.355c0.45,0.237,0.825,0.579,1.123,1.025
		c0.299,0.447,0.503,0.975,0.613,1.584h-1.562c-0.076-0.296-0.197-0.556-0.362-0.777c-0.165-0.223-0.361-0.393-0.587-0.511
		c-0.227-0.119-0.471-0.178-0.733-0.178c-0.351,0-0.655,0.08-0.911,0.238c-0.256,0.159-0.454,0.384-0.593,0.676
		s-0.209,0.637-0.209,1.035v2.533c0,0.398,0.07,0.743,0.209,1.035s0.337,0.516,0.593,0.673c0.256,0.157,0.56,0.235,0.911,0.235
		c0.267,0,0.513-0.057,0.739-0.171c0.227-0.114,0.422-0.281,0.587-0.501s0.284-0.484,0.355-0.793h1.562
		c-0.114,0.609-0.321,1.137-0.619,1.584c-0.299,0.446-0.673,0.788-1.124,1.025c-0.45,0.237-0.951,0.355-1.501,0.355
		C11.555,48.295,11.221,48.295,11.221,48.295z"/>
	<path class="st1" d="M18.143,47.959c-0.417-0.224-0.734-0.551-0.952-0.98c-0.218-0.43-0.327-0.947-0.327-1.552v-1.073
		c0-0.597,0.109-1.107,0.327-1.533c0.218-0.425,0.535-0.749,0.952-0.971c0.417-0.223,0.917-0.333,1.501-0.333
		s1.084,0.111,1.501,0.333c0.417,0.222,0.734,0.546,0.952,0.971c0.218,0.426,0.327,0.937,0.327,1.533v1.092
		c0,0.601-0.109,1.114-0.327,1.539c-0.218,0.426-0.535,0.75-0.952,0.975c-0.417,0.224-0.917,0.336-1.501,0.336
		S18.56,48.183,18.143,47.959z M20.577,46.477c0.22-0.243,0.33-0.587,0.33-1.031v-1.092c0-0.44-0.11-0.781-0.33-1.022
		s-0.531-0.362-0.933-0.362s-0.713,0.121-0.933,0.362s-0.33,0.582-0.33,1.022v1.092c0,0.444,0.109,0.788,0.327,1.031
		c0.218,0.244,0.53,0.365,0.937,0.365C20.046,46.842,20.357,46.72,20.577,46.477z"/>
	<path class="st1" d="M24.138,41.611h1.517V48.2h-1.517V41.611z M28.029,44.303c0-0.427-0.105-0.756-0.314-0.987
		c-0.21-0.23-0.507-0.346-0.892-0.346c-0.373,0-0.66,0.101-0.863,0.302c-0.203,0.201-0.305,0.485-0.305,0.854l-0.133-1.365
		c0.199-0.402,0.453-0.71,0.762-0.923c0.309-0.214,0.662-0.321,1.06-0.321c0.461,0,0.857,0.108,1.187,0.324s0.581,0.532,0.752,0.949
		c0.172,0.417,0.257,0.919,0.257,1.507V48.2h-1.511V44.303z M31.914,44.303c0-0.427-0.106-0.756-0.317-0.987
		c-0.211-0.23-0.512-0.346-0.901-0.346c-0.368,0-0.653,0.111-0.854,0.333c-0.201,0.223-0.301,0.539-0.301,0.949l-0.292-1.396
		c0.208-0.427,0.479-0.757,0.816-0.99c0.336-0.233,0.709-0.349,1.12-0.349c0.474,0,0.879,0.108,1.216,0.324
		c0.336,0.216,0.592,0.532,0.768,0.949c0.176,0.417,0.264,0.919,0.264,1.507V48.2h-1.517V44.303z"/>
	<path class="st1" d="M35.272,41.611h1.517v9.268h-1.517V41.611z M37.348,48c-0.292-0.196-0.508-0.475-0.647-0.834l0.089-1.441
		c0,0.25,0.044,0.462,0.133,0.638c0.089,0.176,0.218,0.31,0.387,0.403s0.375,0.14,0.616,0.14c0.376,0,0.668-0.119,0.876-0.355
		s0.311-0.573,0.311-1.009v-1.238c0-0.444-0.104-0.788-0.311-1.031c-0.208-0.244-0.5-0.365-0.876-0.365
		c-0.241,0-0.446,0.045-0.616,0.137c-0.169,0.091-0.298,0.225-0.387,0.403s-0.133,0.392-0.133,0.641l-0.133-1.365
		c0.186-0.385,0.433-0.682,0.739-0.892c0.307-0.209,0.646-0.314,1.019-0.314c0.465,0,0.864,0.108,1.197,0.324
		c0.332,0.216,0.585,0.532,0.758,0.949c0.173,0.417,0.26,0.919,0.26,1.507v1.244c0,0.58-0.088,1.076-0.264,1.489
		c-0.175,0.412-0.433,0.727-0.771,0.942s-0.743,0.324-1.212,0.324C37.984,48.295,37.64,48.197,37.348,48z"/>
	<path class="st1" d="M42.591,47.791c-0.376-0.337-0.565-0.848-0.565-1.533c0-0.652,0.19-1.141,0.571-1.466s0.952-0.489,1.714-0.489
		h1.765l0.089,1.181h-1.847c-0.3,0-0.526,0.063-0.676,0.19c-0.15,0.127-0.225,0.322-0.225,0.584c0,0.275,0.097,0.479,0.292,0.612
		c0.195,0.134,0.489,0.2,0.882,0.2c0.482,0,0.841-0.053,1.076-0.159c0.234-0.106,0.352-0.271,0.352-0.495l0.133,0.939
		c-0.072,0.208-0.198,0.381-0.378,0.521c-0.18,0.14-0.396,0.245-0.65,0.314c-0.254,0.07-0.531,0.105-0.832,0.105
		C43.535,48.295,42.967,48.127,42.591,47.791z M46.019,44.023c0-0.368-0.109-0.654-0.327-0.857
		c-0.218-0.203-0.526-0.305-0.924-0.305c-0.254,0-0.503,0.04-0.749,0.121s-0.465,0.192-0.66,0.336l-1.009-0.851
		c0.258-0.3,0.597-0.534,1.016-0.702c0.419-0.167,0.884-0.25,1.396-0.25c0.559,0,1.037,0.096,1.435,0.289
		c0.398,0.193,0.702,0.472,0.911,0.838c0.21,0.366,0.314,0.808,0.314,1.324V48.2h-1.403V44.023z"/>
	<path class="st1" d="M49.262,41.611h1.581V48.2h-1.581V41.611z M52.557,43.056c-0.148-0.058-0.319-0.086-0.514-0.086
		c-0.381,0-0.676,0.113-0.886,0.34c-0.209,0.226-0.314,0.541-0.314,0.942l-0.133-1.492c0.19-0.394,0.439-0.699,0.746-0.917
		c0.307-0.218,0.644-0.327,1.012-0.327c0.288,0,0.548,0.043,0.781,0.13c0.233,0.086,0.436,0.214,0.609,0.384l-0.927,1.276
		C52.83,43.196,52.705,43.112,52.557,43.056z"/>
	<path class="st1" d="M54.302,41.611H57.4v1.327h-3.098V41.611z M55.369,47.791c-0.258-0.294-0.387-0.729-0.387-1.305v-6.792h1.517
		v6.583c0,0.161,0.032,0.285,0.095,0.372c0.063,0.086,0.157,0.13,0.279,0.13H57.4v1.454h-0.813
		C56.033,48.232,55.627,48.085,55.369,47.791z"/>
	<path class="st1" d="M59.05,41.611h1.517V48.2H59.05V41.611z M62.941,44.303c0-0.427-0.105-0.756-0.314-0.987
		c-0.21-0.23-0.507-0.346-0.892-0.346c-0.373,0-0.66,0.101-0.863,0.302c-0.203,0.201-0.305,0.485-0.305,0.854l-0.133-1.365
		c0.199-0.402,0.453-0.71,0.762-0.923c0.309-0.214,0.662-0.321,1.06-0.321c0.461,0,0.857,0.108,1.187,0.324s0.581,0.532,0.752,0.949
		c0.172,0.417,0.257,0.919,0.257,1.507V48.2h-1.511V44.303z M66.826,44.303c0-0.427-0.106-0.756-0.317-0.987
		c-0.211-0.23-0.512-0.346-0.901-0.346c-0.368,0-0.653,0.111-0.854,0.333c-0.201,0.223-0.301,0.539-0.301,0.949l-0.292-1.396
		c0.208-0.427,0.479-0.757,0.816-0.99c0.336-0.233,0.709-0.349,1.12-0.349c0.474,0,0.879,0.108,1.216,0.324
		c0.336,0.216,0.592,0.532,0.768,0.949c0.176,0.417,0.264,0.919,0.264,1.507V48.2h-1.517V44.303z"/>
	<path class="st1" d="M72.012,48.295c0,0-0.22-0.114-0.66-0.343s-0.776-0.564-1.009-1.006c-0.233-0.442-0.349-0.976-0.349-1.603
		v-0.743c0-0.652,0.111-1.208,0.333-1.669c0.223-0.461,0.546-0.813,0.972-1.054c0.425-0.241,0.936-0.362,1.533-0.362
		c0.563,0,1.044,0.141,1.444,0.422c0.4,0.281,0.705,0.688,0.914,1.222c0.21,0.533,0.314,1.176,0.314,1.93v0.432h-4.475v-1.111h3.066
		l-0.006-0.07c-0.042-0.461-0.171-0.819-0.387-1.073s-0.506-0.381-0.87-0.381c-0.457,0-0.811,0.143-1.06,0.428
		c-0.25,0.286-0.375,0.691-0.375,1.216v0.838c0,0.5,0.135,0.883,0.406,1.152c0.271,0.269,0.652,0.403,1.143,0.403
		c0.25,0,0.496-0.047,0.74-0.143c0.243-0.095,0.462-0.227,0.657-0.396l0.99,0.927c-0.334,0.313-0.71,0.556-1.126,0.727
		c-0.417,0.172-0.837,0.257-1.26,0.257C72.323,48.295,72.012,48.295,72.012,48.295z"/>
	<path class="st1" d="M77.154,41.611h1.517V48.2h-1.517V41.611z M81.058,44.208c0-0.394-0.106-0.698-0.317-0.914
		s-0.512-0.324-0.901-0.324c-0.373,0-0.66,0.101-0.863,0.302c-0.203,0.201-0.305,0.485-0.305,0.854l-0.133-1.365
		c0.199-0.406,0.45-0.715,0.752-0.927c0.303-0.211,0.659-0.317,1.07-0.317c0.703,0,1.248,0.234,1.634,0.702
		c0.388,0.467,0.581,1.128,0.581,1.983V48.2h-1.517V44.208z"/>
	<path class="st1" d="M83.908,41.611h3.098v1.327h-3.098V41.611z M84.974,47.791c-0.258-0.294-0.387-0.729-0.387-1.305v-6.792h1.517
		v6.583c0,0.161,0.032,0.285,0.095,0.372c0.063,0.086,0.157,0.13,0.279,0.13h0.527v1.454h-0.813
		C85.639,48.232,85.232,48.085,84.974,47.791z"/>
	<path class="st1" d="M93.048,44.169v1.447h-4.393v-1.447H93.048z"/>
	<path class="st1" d="M97.187,48.295c0,0-0.204-0.043-0.612-0.13c-0.409-0.086-0.792-0.214-1.149-0.384
		c-0.357-0.169-0.684-0.379-0.98-0.628l0.806-1.212c0.355,0.3,0.754,0.528,1.197,0.683c0.442,0.154,0.911,0.231,1.406,0.231
		c0.618,0,1.097-0.11,1.438-0.33c0.34-0.22,0.511-0.531,0.511-0.933v-0.006c0-0.284-0.076-0.509-0.229-0.676
		c-0.152-0.167-0.351-0.29-0.597-0.368c-0.246-0.079-0.561-0.151-0.946-0.219c-0.013-0.004-0.025-0.006-0.038-0.006
		s-0.025-0.002-0.038-0.006l-0.114-0.019c-0.618-0.102-1.125-0.222-1.523-0.362s-0.736-0.389-1.016-0.749s-0.419-0.87-0.419-1.53
		v-0.006c0-0.584,0.131-1.083,0.394-1.498s0.643-0.73,1.143-0.946s1.1-0.324,1.803-0.324c0.33,0,0.661,0.037,0.994,0.111
		c0.332,0.074,0.658,0.182,0.978,0.324c0.319,0.142,0.629,0.318,0.93,0.53l-0.736,1.25c-0.355-0.254-0.717-0.446-1.085-0.578
		s-0.728-0.197-1.079-0.197c-0.584,0-1.036,0.107-1.355,0.32c-0.32,0.214-0.479,0.516-0.479,0.905v0.006
		c0,0.292,0.083,0.522,0.248,0.692s0.372,0.293,0.619,0.372c0.248,0.078,0.594,0.162,1.038,0.25
		c0.017,0.004,0.033,0.007,0.048,0.009c0.015,0.002,0.03,0.005,0.047,0.01c0.021,0.004,0.044,0.008,0.07,0.013
		s0.049,0.008,0.07,0.013c0.571,0.114,1.048,0.252,1.431,0.413c0.383,0.161,0.704,0.419,0.962,0.774s0.387,0.84,0.387,1.454v0.013
		c0,0.576-0.135,1.068-0.406,1.479s-0.665,0.723-1.181,0.936c-0.516,0.214-1.138,0.321-1.866,0.321
		C97.409,48.295,97.187,48.295,97.187,48.295z"/>
	<path class="st1" d="M104.696,48.295c0,0-0.218-0.115-0.654-0.346c-0.436-0.23-0.768-0.567-0.997-1.009
		c-0.229-0.442-0.343-0.977-0.343-1.603v-0.895c0-0.618,0.114-1.146,0.343-1.584c0.229-0.438,0.561-0.771,0.997-1
		s0.96-0.343,1.574-0.343c0.351,0,0.682,0.042,0.994,0.124c0.311,0.083,0.59,0.202,0.838,0.359c0.247,0.157,0.454,0.347,0.619,0.571
		l-1.028,0.965c-0.173-0.182-0.376-0.322-0.609-0.419s-0.476-0.146-0.73-0.146c-0.47,0-0.833,0.128-1.092,0.384
		c-0.258,0.256-0.387,0.619-0.387,1.089v0.895c0,0.482,0.128,0.854,0.384,1.114c0.256,0.261,0.621,0.391,1.095,0.391
		c0.258,0,0.503-0.053,0.736-0.159s0.434-0.256,0.603-0.451l1.028,1.028c-0.169,0.22-0.377,0.407-0.625,0.562
		c-0.247,0.155-0.526,0.272-0.838,0.353c-0.311,0.081-0.64,0.121-0.987,0.121C105.003,48.295,104.696,48.295,104.696,48.295z"/>
	<path class="st1" d="M109.368,38.971h1.517V48.2h-1.517V38.971z M113.272,44.208c0-0.394-0.106-0.698-0.317-0.914
		s-0.512-0.324-0.901-0.324c-0.373,0-0.66,0.1-0.863,0.298s-0.305,0.48-0.305,0.844l-0.133-1.365
		c0.199-0.398,0.45-0.703,0.752-0.914c0.303-0.211,0.659-0.317,1.07-0.317c0.703,0,1.248,0.234,1.634,0.702
		c0.388,0.467,0.581,1.128,0.581,1.983V48.2h-1.517V44.208z"/>
	<path class="st1" d="M117.719,47.959c-0.417-0.224-0.734-0.551-0.952-0.98c-0.218-0.43-0.327-0.947-0.327-1.552v-1.073
		c0-0.597,0.109-1.107,0.327-1.533c0.218-0.425,0.535-0.749,0.952-0.971c0.417-0.223,0.917-0.333,1.501-0.333
		s1.084,0.111,1.501,0.333c0.417,0.222,0.734,0.546,0.952,0.971c0.218,0.426,0.327,0.937,0.327,1.533v1.092
		c0,0.601-0.109,1.114-0.327,1.539c-0.218,0.426-0.535,0.75-0.952,0.975c-0.417,0.224-0.917,0.336-1.501,0.336
		S118.135,48.183,117.719,47.959z M120.153,46.477c0.22-0.243,0.33-0.587,0.33-1.031v-1.092c0-0.44-0.11-0.781-0.33-1.022
		s-0.531-0.362-0.933-0.362s-0.713,0.121-0.933,0.362s-0.33,0.582-0.33,1.022v1.092c0,0.444,0.109,0.788,0.327,1.031
		c0.218,0.244,0.53,0.365,0.937,0.365C119.622,46.842,119.933,46.72,120.153,46.477z"/>
	<path class="st1" d="M124.803,47.959c-0.417-0.224-0.734-0.551-0.952-0.98c-0.218-0.43-0.327-0.947-0.327-1.552v-1.073
		c0-0.597,0.109-1.107,0.327-1.533c0.218-0.425,0.535-0.749,0.952-0.971c0.417-0.223,0.917-0.333,1.501-0.333
		s1.084,0.111,1.501,0.333c0.417,0.222,0.734,0.546,0.952,0.971c0.218,0.426,0.327,0.937,0.327,1.533v1.092
		c0,0.601-0.109,1.114-0.327,1.539c-0.218,0.426-0.535,0.75-0.952,0.975c-0.417,0.224-0.917,0.336-1.501,0.336
		S125.219,48.183,124.803,47.959z M127.237,46.477c0.22-0.243,0.33-0.587,0.33-1.031v-1.092c0-0.44-0.11-0.781-0.33-1.022
		s-0.531-0.362-0.933-0.362s-0.713,0.121-0.933,0.362s-0.33,0.582-0.33,1.022v1.092c0,0.444,0.109,0.788,0.327,1.031
		c0.218,0.244,0.53,0.365,0.937,0.365C126.706,46.842,127.017,46.72,127.237,46.477z"/>
	<path class="st1" d="M132.315,46.264c0,0.161,0.04,0.285,0.121,0.372c0.081,0.086,0.195,0.13,0.343,0.13h0.451v1.454h-0.825
		c-0.508,0-0.902-0.152-1.184-0.457c-0.281-0.305-0.422-0.734-0.422-1.289v-7.503h1.517V46.264z"/>
	<path class="st1" d="M140.764,38.971h1.143l1.828,6.697l1.409-6.697h1.568l-2.19,9.229h-1.479l-1.669-6.449l-1.746,6.449h-1.479
		l-2.19-9.229h1.568l1.409,6.697L140.764,38.971z"/>
	<path class="st1" d="M147.746,38.971h1.511v1.517h-1.511V38.971z M147.746,41.611h1.511V48.2h-1.511V41.611z"/>
	<path class="st1" d="M152.888,48.295c0,0-0.178-0.037-0.533-0.111c-0.355-0.074-0.689-0.183-1-0.327
		c-0.312-0.144-0.592-0.319-0.841-0.527l0.92-1.143c0.334,0.237,0.676,0.417,1.025,0.54c0.349,0.123,0.688,0.184,1.019,0.184
		c0.461,0,0.812-0.063,1.051-0.187c0.239-0.125,0.358-0.306,0.358-0.543c0-0.182-0.059-0.318-0.178-0.409
		c-0.119-0.091-0.268-0.154-0.447-0.188c-0.18-0.034-0.433-0.065-0.759-0.095c-0.055-0.004-0.112-0.008-0.171-0.013
		s-0.116-0.011-0.171-0.019c-0.017,0-0.034-0.001-0.051-0.003c-0.017-0.002-0.034-0.003-0.051-0.003
		c-0.461-0.051-0.84-0.122-1.136-0.212c-0.296-0.091-0.545-0.266-0.746-0.524c-0.201-0.258-0.302-0.628-0.302-1.111
		c0-0.453,0.101-0.835,0.302-1.146c0.201-0.312,0.496-0.546,0.885-0.705c0.389-0.158,0.868-0.238,1.435-0.238
		c0.338,0,0.668,0.033,0.99,0.098c0.322,0.066,0.629,0.161,0.923,0.286c0.294,0.125,0.573,0.28,0.835,0.466l-0.908,1.104
		c-0.309-0.186-0.621-0.328-0.936-0.425c-0.315-0.097-0.621-0.146-0.917-0.146c-0.398,0-0.7,0.057-0.908,0.171
		s-0.311,0.284-0.311,0.508c0,0.144,0.057,0.254,0.171,0.33s0.257,0.128,0.429,0.155c0.171,0.028,0.42,0.056,0.746,0.086
		c0.034,0.004,0.067,0.007,0.098,0.01c0.032,0.002,0.065,0.005,0.099,0.009c0.013,0,0.027,0,0.044,0s0.034,0.002,0.051,0.006
		c0.487,0.046,0.891,0.116,1.212,0.209s0.595,0.278,0.819,0.555c0.224,0.277,0.336,0.681,0.336,1.209
		c0,0.465-0.106,0.858-0.317,1.177c-0.211,0.32-0.526,0.561-0.942,0.724c-0.417,0.163-0.928,0.245-1.533,0.245
		C153.084,48.295,152.888,48.295,152.888,48.295z"/>
	<path class="st1" d="M159.623,48.295c0,0-0.22-0.114-0.66-0.343s-0.776-0.564-1.009-1.006c-0.233-0.442-0.349-0.976-0.349-1.603
		v-0.743c0-0.652,0.111-1.208,0.333-1.669c0.223-0.461,0.546-0.813,0.972-1.054c0.425-0.241,0.936-0.362,1.533-0.362
		c0.563,0,1.044,0.141,1.444,0.422c0.4,0.281,0.705,0.688,0.914,1.222c0.21,0.533,0.314,1.176,0.314,1.93v0.432h-4.475v-1.111h3.066
		l-0.006-0.07c-0.042-0.461-0.171-0.819-0.387-1.073s-0.506-0.381-0.87-0.381c-0.457,0-0.811,0.143-1.06,0.428
		c-0.25,0.286-0.375,0.691-0.375,1.216v0.838c0,0.5,0.135,0.883,0.406,1.152c0.271,0.269,0.652,0.403,1.143,0.403
		c0.25,0,0.496-0.047,0.74-0.143c0.243-0.095,0.462-0.227,0.657-0.396l0.99,0.927c-0.334,0.313-0.71,0.556-1.126,0.727
		c-0.417,0.172-0.837,0.257-1.26,0.257C159.934,48.295,159.623,48.295,159.623,48.295z"/>
	<path class="st1" d="M167.113,38.964h1.517V48.2h-1.517V38.964z M167.741,42.938h3.18c0.211,0,0.399-0.052,0.562-0.156
		c0.163-0.104,0.289-0.25,0.378-0.441s0.135-0.413,0.14-0.667c0-0.25-0.044-0.47-0.133-0.66s-0.215-0.337-0.377-0.441
		c-0.163-0.104-0.353-0.155-0.568-0.155h-3.18v-1.454h3.225c0.521,0,0.978,0.112,1.371,0.336s0.699,0.542,0.917,0.952
		c0.218,0.411,0.327,0.884,0.327,1.422c0,0.542-0.109,1.018-0.327,1.428c-0.218,0.411-0.525,0.728-0.921,0.952
		c-0.396,0.224-0.852,0.336-1.368,0.336h-3.225V42.938z M169.969,44.106l1.574-0.292l2.425,4.386h-1.822L169.969,44.106z"/>
	<path class="st1" d="M177.034,48.295c0,0-0.22-0.114-0.66-0.343s-0.776-0.564-1.009-1.006c-0.233-0.442-0.349-0.976-0.349-1.603
		v-0.743c0-0.652,0.111-1.208,0.333-1.669c0.223-0.461,0.546-0.813,0.972-1.054c0.425-0.241,0.936-0.362,1.533-0.362
		c0.563,0,1.044,0.141,1.444,0.422c0.4,0.281,0.705,0.688,0.914,1.222c0.21,0.533,0.314,1.176,0.314,1.93v0.432h-4.475v-1.111h3.066
		l-0.006-0.07c-0.042-0.461-0.171-0.819-0.387-1.073s-0.506-0.381-0.87-0.381c-0.457,0-0.811,0.143-1.06,0.428
		c-0.25,0.286-0.375,0.691-0.375,1.216v0.838c0,0.5,0.135,0.883,0.406,1.152c0.271,0.269,0.652,0.403,1.143,0.403
		c0.25,0,0.496-0.047,0.74-0.143c0.243-0.095,0.462-0.227,0.657-0.396l0.99,0.927c-0.334,0.313-0.71,0.556-1.126,0.727
		c-0.417,0.172-0.837,0.257-1.26,0.257C177.345,48.295,177.034,48.295,177.034,48.295z"/>
	<path class="st1" d="M184.01,48.295c0,0-0.178-0.037-0.533-0.111c-0.355-0.074-0.689-0.183-1-0.327
		c-0.312-0.144-0.592-0.319-0.841-0.527l0.92-1.143c0.334,0.237,0.676,0.417,1.025,0.54c0.349,0.123,0.688,0.184,1.019,0.184
		c0.461,0,0.812-0.063,1.051-0.187c0.239-0.125,0.358-0.306,0.358-0.543c0-0.182-0.059-0.318-0.178-0.409
		c-0.119-0.091-0.268-0.154-0.447-0.188c-0.18-0.034-0.433-0.065-0.759-0.095c-0.055-0.004-0.112-0.008-0.171-0.013
		s-0.116-0.011-0.171-0.019c-0.017,0-0.034-0.001-0.051-0.003c-0.017-0.002-0.034-0.003-0.051-0.003
		c-0.461-0.051-0.84-0.122-1.136-0.212c-0.296-0.091-0.545-0.266-0.746-0.524c-0.201-0.258-0.302-0.628-0.302-1.111
		c0-0.453,0.101-0.835,0.302-1.146c0.201-0.312,0.496-0.546,0.885-0.705c0.389-0.158,0.868-0.238,1.435-0.238
		c0.338,0,0.668,0.033,0.99,0.098c0.322,0.066,0.629,0.161,0.923,0.286c0.294,0.125,0.573,0.28,0.835,0.466l-0.908,1.104
		c-0.309-0.186-0.621-0.328-0.936-0.425c-0.315-0.097-0.621-0.146-0.917-0.146c-0.398,0-0.7,0.057-0.908,0.171
		s-0.311,0.284-0.311,0.508c0,0.144,0.057,0.254,0.171,0.33s0.257,0.128,0.429,0.155c0.171,0.028,0.42,0.056,0.746,0.086
		c0.034,0.004,0.067,0.007,0.098,0.01c0.032,0.002,0.065,0.005,0.099,0.009c0.013,0,0.027,0,0.044,0s0.034,0.002,0.051,0.006
		c0.487,0.046,0.891,0.116,1.212,0.209s0.595,0.278,0.819,0.555c0.224,0.277,0.336,0.681,0.336,1.209
		c0,0.465-0.106,0.858-0.317,1.177c-0.211,0.32-0.526,0.561-0.942,0.724c-0.417,0.163-0.928,0.245-1.533,0.245
		C184.207,48.295,184.01,48.295,184.01,48.295z"/>
	<path class="st1" d="M190.434,45.617c0,0.389,0.104,0.691,0.311,0.905c0.208,0.213,0.5,0.32,0.876,0.32s0.667-0.101,0.87-0.302
		c0.203-0.201,0.305-0.49,0.305-0.866l0.089,1.409c-0.127,0.343-0.338,0.63-0.635,0.863s-0.658,0.349-1.085,0.349
		c-0.715,0-1.269-0.23-1.66-0.692c-0.391-0.461-0.587-1.113-0.587-1.955v-4.037h1.517V45.617z M192.795,41.611h1.511V48.2h-1.511
		V41.611z"/>
	<path class="st1" d="M197.664,46.264c0,0.161,0.04,0.285,0.121,0.372c0.081,0.086,0.195,0.13,0.343,0.13h0.451v1.454h-0.825
		c-0.508,0-0.902-0.152-1.184-0.457c-0.281-0.305-0.422-0.734-0.422-1.289v-7.503h1.517V46.264z"/>
	<path class="st1" d="M199.403,41.611h3.098v1.327h-3.098V41.611z M200.47,47.791c-0.258-0.294-0.387-0.729-0.387-1.305v-6.792
		h1.517v6.583c0,0.161,0.032,0.285,0.095,0.372c0.063,0.086,0.157,0.13,0.279,0.13h0.527v1.454h-0.813
		C201.134,48.232,200.728,48.085,200.47,47.791z"/>
	<path class="st1" d="M205.986,48.295c0,0-0.178-0.037-0.533-0.111c-0.355-0.074-0.689-0.183-1-0.327
		c-0.312-0.144-0.592-0.319-0.841-0.527l0.92-1.143c0.334,0.237,0.676,0.417,1.025,0.54c0.349,0.123,0.688,0.184,1.019,0.184
		c0.461,0,0.812-0.063,1.051-0.187c0.239-0.125,0.358-0.306,0.358-0.543c0-0.182-0.059-0.318-0.178-0.409
		c-0.119-0.091-0.268-0.154-0.447-0.188c-0.18-0.034-0.433-0.065-0.759-0.095c-0.055-0.004-0.112-0.008-0.171-0.013
		s-0.116-0.011-0.171-0.019c-0.017,0-0.034-0.001-0.051-0.003c-0.017-0.002-0.034-0.003-0.051-0.003
		c-0.461-0.051-0.84-0.122-1.136-0.212c-0.296-0.091-0.545-0.266-0.746-0.524c-0.201-0.258-0.302-0.628-0.302-1.111
		c0-0.453,0.101-0.835,0.302-1.146c0.201-0.312,0.496-0.546,0.885-0.705c0.389-0.158,0.868-0.238,1.435-0.238
		c0.338,0,0.668,0.033,0.99,0.098c0.322,0.066,0.629,0.161,0.923,0.286c0.294,0.125,0.573,0.28,0.835,0.466l-0.908,1.104
		c-0.309-0.186-0.621-0.328-0.936-0.425c-0.315-0.097-0.621-0.146-0.917-0.146c-0.398,0-0.7,0.057-0.908,0.171
		s-0.311,0.284-0.311,0.508c0,0.144,0.057,0.254,0.171,0.33s0.257,0.128,0.429,0.155c0.171,0.028,0.42,0.056,0.746,0.086
		c0.034,0.004,0.067,0.007,0.098,0.01c0.032,0.002,0.065,0.005,0.099,0.009c0.013,0,0.027,0,0.044,0s0.034,0.002,0.051,0.006
		c0.487,0.046,0.891,0.116,1.212,0.209s0.595,0.278,0.819,0.555c0.224,0.277,0.336,0.681,0.336,1.209
		c0,0.465-0.106,0.858-0.317,1.177c-0.211,0.32-0.526,0.561-0.942,0.724c-0.417,0.163-0.928,0.245-1.533,0.245
		C206.183,48.295,205.986,48.295,205.986,48.295z"/>
</g>
</svg>