<!-- Generator: Adobe Illustrator 22.1.0, SVG Export Plug-In  -->
<svg version="1.1"
	 xmlns="http://www.w3.org/2000/svg" xmlns:xlink="http://www.w3.org/1999/xlink" xmlns:a="http://ns.adobe.com/AdobeSVGViewerExtensions/3.0/"
	 x="0px" y="0px" width="380.608px" height="80.513px" viewBox="0 0 380.608 80.513"
	 style="enable-background:new 0 0 380.608 80.513;" xml:space="preserve">
<style type="text/css">
	.st0{fill:#1B1464;}
	.st1{fill:#FFFFFF;}
</style>
<defs>
</defs>
<rect class="st0" width="380.608" height="80.513"/>
<g>
	<path class="st1" d="M35.133,34.784c0,0-0.299-0.063-0.896-0.19c-0.599-0.127-1.159-0.314-1.683-0.562
		c-0.523-0.248-1.002-0.554-1.436-0.92l1.181-1.775c0.521,0.44,1.104,0.773,1.751,0.999s1.334,0.339,2.059,0.339
		c0.904,0,1.605-0.161,2.104-0.483s0.748-0.777,0.748-1.366v-0.009c0-0.415-0.111-0.745-0.334-0.989
		c-0.224-0.245-0.515-0.424-0.874-0.539s-0.821-0.221-1.385-0.321c-0.019-0.006-0.037-0.009-0.056-0.009s-0.037-0.003-0.056-0.009
		L36.09,28.92c-0.904-0.148-1.648-0.325-2.23-0.529c-0.582-0.205-1.078-0.57-1.486-1.097c-0.409-0.526-0.613-1.273-0.613-2.239
		v-0.009c0-0.855,0.191-1.586,0.576-2.193c0.384-0.607,0.941-1.068,1.672-1.384c0.731-0.316,1.611-0.474,2.64-0.474
		c0.483,0,0.968,0.055,1.454,0.163c0.486,0.108,0.963,0.267,1.431,0.474s0.922,0.466,1.361,0.776l-1.078,1.831
		c-0.52-0.372-1.05-0.653-1.589-0.846c-0.539-0.192-1.065-0.288-1.579-0.288c-0.855,0-1.517,0.157-1.984,0.469
		c-0.468,0.313-0.701,0.754-0.701,1.324v0.009c0,0.428,0.121,0.765,0.362,1.013c0.241,0.248,0.544,0.429,0.906,0.544
		s0.868,0.237,1.519,0.367c0.025,0.006,0.048,0.011,0.07,0.014c0.021,0.003,0.045,0.008,0.069,0.014
		c0.031,0.006,0.065,0.012,0.103,0.019c0.037,0.006,0.071,0.012,0.102,0.019c0.837,0.167,1.535,0.369,2.096,0.604
		s1.03,0.613,1.408,1.133c0.378,0.521,0.566,1.23,0.566,2.128v0.019c0,0.843-0.198,1.564-0.595,2.165
		c-0.396,0.601-0.973,1.058-1.729,1.371c-0.756,0.313-1.666,0.469-2.731,0.469C35.458,34.784,35.133,34.784,35.133,34.784z"/>
	<path class="st1" d="M46.163,34.784c0,0-0.322-0.167-0.967-0.501s-1.137-0.826-1.478-1.473c-0.341-0.647-0.511-1.429-0.511-2.346
		v-1.087c0-0.954,0.162-1.769,0.487-2.444s0.8-1.189,1.422-1.542c0.623-0.353,1.371-0.53,2.244-0.53
		c0.824,0,1.528,0.206,2.114,0.618c0.585,0.412,1.031,1.008,1.338,1.789c0.307,0.78,0.46,1.722,0.46,2.825v0.632h-6.551v-1.626
		h4.488l-0.01-0.102c-0.062-0.675-0.251-1.199-0.566-1.571c-0.316-0.372-0.74-0.557-1.273-0.557c-0.669,0-1.187,0.209-1.552,0.627
		s-0.548,1.011-0.548,1.779V30.5c0,0.731,0.198,1.293,0.595,1.687c0.396,0.394,0.953,0.59,1.672,0.59
		c0.366,0,0.727-0.07,1.083-0.209c0.356-0.14,0.677-0.333,0.962-0.581l1.449,1.357c-0.489,0.458-1.039,0.813-1.649,1.064
		s-1.225,0.376-1.845,0.376C46.618,34.784,46.163,34.784,46.163,34.784z"/>
	<path class="st1" d="M56.328,34.784c0,0-0.319-0.168-0.957-0.506c-0.639-0.337-1.125-0.83-1.459-1.478
		c-0.335-0.647-0.502-1.429-0.502-2.346v-1.31c0-0.904,0.167-1.677,0.502-2.318c0.334-0.641,0.82-1.129,1.459-1.463
		c0.638-0.334,1.405-0.502,2.304-0.502c0.515,0,0.999,0.061,1.454,0.181c0.456,0.121,0.864,0.296,1.227,0.525
		c0.363,0.229,0.665,0.508,0.906,0.836l-1.505,1.413c-0.254-0.267-0.552-0.471-0.893-0.613s-0.696-0.214-1.068-0.214
		c-0.688,0-1.221,0.188-1.599,0.562c-0.378,0.375-0.566,0.906-0.566,1.594v1.31c0,0.707,0.188,1.25,0.563,1.631
		c0.374,0.381,0.908,0.571,1.603,0.571c0.378,0,0.737-0.077,1.078-0.232s0.635-0.375,0.883-0.66l1.505,1.505
		c-0.248,0.322-0.553,0.597-0.915,0.823s-0.771,0.398-1.227,0.516s-0.938,0.176-1.445,0.176
		C56.776,34.784,56.328,34.784,56.328,34.784z"/>
	<path class="st1" d="M64.761,34.292c-0.61-0.328-1.075-0.807-1.394-1.436c-0.319-0.629-0.479-1.386-0.479-2.272v-1.57
		c0-0.874,0.159-1.622,0.479-2.244c0.318-0.623,0.783-1.097,1.394-1.422s1.343-0.488,2.197-0.488c0.855,0,1.588,0.163,2.198,0.488
		s1.074,0.799,1.394,1.422s0.479,1.371,0.479,2.244v1.598c0,0.879-0.159,1.631-0.479,2.253s-0.783,1.098-1.394,1.426
		s-1.343,0.492-2.198,0.492C66.103,34.784,65.371,34.62,64.761,34.292z M68.324,32.122c0.322-0.356,0.483-0.859,0.483-1.51v-1.598
		c0-0.645-0.161-1.143-0.483-1.496s-0.777-0.53-1.366-0.53c-0.588,0-1.043,0.177-1.365,0.53s-0.483,0.852-0.483,1.496v1.598
		c0,0.65,0.159,1.154,0.479,1.51c0.319,0.356,0.776,0.534,1.37,0.534C67.547,32.656,68.002,32.478,68.324,32.122z"/>
	<path class="st1" d="M73.537,24.999h2.221v9.646h-2.221V24.999z M79.252,28.8c0-0.576-0.155-1.022-0.465-1.338
		c-0.31-0.316-0.749-0.474-1.319-0.474c-0.545,0-0.966,0.147-1.264,0.441c-0.297,0.294-0.446,0.711-0.446,1.25l-0.194-1.998
		c0.291-0.595,0.658-1.047,1.101-1.357c0.443-0.31,0.965-0.464,1.565-0.464c1.028,0,1.826,0.342,2.394,1.027
		c0.566,0.685,0.85,1.652,0.85,2.904v5.854h-2.221V28.8z"/>
	<path class="st1" d="M85.398,34.324c-0.492-0.319-0.867-0.78-1.124-1.384c-0.258-0.604-0.386-1.333-0.386-2.188v-1.84
		c0-0.855,0.127-1.587,0.381-2.197c0.254-0.61,0.624-1.075,1.11-1.394c0.486-0.319,1.07-0.479,1.752-0.479
		c0.545,0,1.042,0.152,1.491,0.455c0.449,0.304,0.81,0.731,1.082,1.283l-0.194,2.053c0-0.372-0.065-0.688-0.195-0.948
		c-0.131-0.26-0.319-0.458-0.567-0.595s-0.548-0.204-0.901-0.204c-0.551,0-0.979,0.18-1.282,0.539
		c-0.304,0.359-0.455,0.861-0.455,1.505v1.821c0,0.638,0.151,1.132,0.455,1.482s0.731,0.525,1.282,0.525
		c0.354,0,0.653-0.07,0.901-0.209c0.248-0.14,0.437-0.339,0.567-0.6c0.13-0.26,0.195-0.573,0.195-0.938l0.13,2.119
		c-0.192,0.502-0.501,0.906-0.925,1.213c-0.425,0.307-0.938,0.46-1.538,0.46C86.484,34.803,85.891,34.643,85.398,34.324z
		 M89.511,21.134h2.221v13.511h-2.221V21.134z"/>
	<path class="st1" d="M94.788,34.045c-0.551-0.493-0.826-1.241-0.826-2.244c0-0.954,0.278-1.669,0.836-2.146
		s1.394-0.716,2.509-0.716h2.583l0.13,1.729h-2.703c-0.44,0-0.771,0.093-0.99,0.279s-0.33,0.471-0.33,0.855
		c0,0.403,0.143,0.701,0.428,0.896s0.716,0.293,1.292,0.293c0.706,0,1.23-0.078,1.574-0.232c0.345-0.155,0.517-0.396,0.517-0.725
		l0.194,1.375c-0.105,0.304-0.289,0.558-0.553,0.762c-0.263,0.205-0.58,0.358-0.952,0.46c-0.372,0.103-0.777,0.153-1.218,0.153
		C96.17,34.784,95.34,34.538,94.788,34.045z M99.807,28.53c0-0.539-0.16-0.957-0.479-1.254c-0.319-0.297-0.771-0.446-1.353-0.446
		c-0.372,0-0.737,0.059-1.097,0.177s-0.682,0.282-0.966,0.493l-1.478-1.245c0.378-0.44,0.873-0.782,1.486-1.027
		s1.295-0.367,2.045-0.367c0.817,0,1.518,0.141,2.1,0.423s1.026,0.691,1.333,1.227s0.46,1.182,0.46,1.938v6.198h-2.053V28.53z"/>
	<path class="st1" d="M104.555,24.999h2.314v9.646h-2.314V24.999z M109.378,27.113c-0.217-0.083-0.468-0.125-0.753-0.125
		c-0.558,0-0.989,0.166-1.296,0.497c-0.307,0.332-0.46,0.792-0.46,1.38l-0.195-2.184c0.278-0.576,0.643-1.023,1.092-1.343
		c0.449-0.319,0.943-0.479,1.481-0.479c0.422,0,0.803,0.063,1.144,0.19s0.638,0.314,0.892,0.562l-1.356,1.868
		C109.777,27.319,109.595,27.197,109.378,27.113z"/>
	<path class="st1" d="M111.654,24.999h2.165l3.104,8.382l-1.329,2.054L111.654,24.999z M120.379,24.999l-4.199,11.903
		c-0.155,0.44-0.353,0.789-0.591,1.045c-0.238,0.257-0.534,0.441-0.887,0.553c-0.354,0.111-0.787,0.167-1.302,0.167h-0.474v-2.146
		h0.474c0.316,0,0.572-0.065,0.767-0.195c0.195-0.13,0.355-0.35,0.479-0.66l3.567-10.667H120.379z"/>
	<path class="st1" d="M128.482,34.784c0,0-0.299-0.063-0.896-0.19c-0.599-0.127-1.159-0.314-1.683-0.562
		c-0.523-0.248-1.002-0.554-1.436-0.92l1.181-1.775c0.521,0.44,1.104,0.773,1.751,0.999s1.334,0.339,2.059,0.339
		c0.904,0,1.605-0.161,2.104-0.483s0.748-0.777,0.748-1.366v-0.009c0-0.415-0.111-0.745-0.334-0.989
		c-0.224-0.245-0.515-0.424-0.874-0.539s-0.821-0.221-1.385-0.321c-0.019-0.006-0.037-0.009-0.056-0.009s-0.037-0.003-0.056-0.009
		l-0.167-0.028c-0.904-0.148-1.648-0.325-2.23-0.529c-0.582-0.205-1.078-0.57-1.486-1.097c-0.409-0.526-0.613-1.273-0.613-2.239
		v-0.009c0-0.855,0.191-1.586,0.576-2.193c0.384-0.607,0.941-1.068,1.672-1.384c0.731-0.316,1.611-0.474,2.64-0.474
		c0.483,0,0.968,0.055,1.454,0.163c0.486,0.108,0.963,0.267,1.431,0.474s0.922,0.466,1.361,0.776l-1.078,1.831
		c-0.52-0.372-1.05-0.653-1.589-0.846c-0.539-0.192-1.065-0.288-1.579-0.288c-0.855,0-1.517,0.157-1.984,0.469
		c-0.468,0.313-0.701,0.754-0.701,1.324v0.009c0,0.428,0.121,0.765,0.362,1.013c0.241,0.248,0.544,0.429,0.906,0.544
		s0.868,0.237,1.519,0.367c0.025,0.006,0.048,0.011,0.07,0.014c0.021,0.003,0.045,0.008,0.069,0.014
		c0.031,0.006,0.065,0.012,0.103,0.019c0.037,0.006,0.071,0.012,0.102,0.019c0.837,0.167,1.535,0.369,2.096,0.604
		s1.03,0.613,1.408,1.133c0.378,0.521,0.566,1.23,0.566,2.128v0.019c0,0.843-0.198,1.564-0.595,2.165
		c-0.396,0.601-0.973,1.058-1.729,1.371c-0.756,0.313-1.666,0.469-2.731,0.469C128.808,34.784,128.482,34.784,128.482,34.784z"/>
	<path class="st1" d="M139.475,34.784c0,0-0.319-0.168-0.957-0.506c-0.639-0.337-1.125-0.83-1.459-1.478
		c-0.335-0.647-0.502-1.429-0.502-2.346v-1.31c0-0.904,0.167-1.677,0.502-2.318c0.334-0.641,0.82-1.129,1.459-1.463
		c0.638-0.334,1.405-0.502,2.304-0.502c0.515,0,0.999,0.061,1.454,0.181c0.456,0.121,0.864,0.296,1.227,0.525
		c0.363,0.229,0.665,0.508,0.906,0.836l-1.505,1.413c-0.254-0.267-0.552-0.471-0.893-0.613s-0.696-0.214-1.068-0.214
		c-0.688,0-1.221,0.188-1.599,0.562c-0.378,0.375-0.566,0.906-0.566,1.594v1.31c0,0.707,0.188,1.25,0.563,1.631
		c0.374,0.381,0.908,0.571,1.603,0.571c0.378,0,0.737-0.077,1.078-0.232s0.635-0.375,0.883-0.66l1.505,1.505
		c-0.248,0.322-0.553,0.597-0.915,0.823s-0.771,0.398-1.227,0.516s-0.938,0.176-1.445,0.176
		C139.923,34.784,139.475,34.784,139.475,34.784z"/>
	<path class="st1" d="M146.313,21.134h2.221v13.511h-2.221V21.134z M152.028,28.8c0-0.576-0.155-1.022-0.465-1.338
		c-0.31-0.316-0.749-0.474-1.319-0.474c-0.545,0-0.966,0.146-1.264,0.437c-0.297,0.292-0.446,0.703-0.446,1.236l-0.194-1.998
		c0.291-0.583,0.658-1.028,1.101-1.338c0.443-0.31,0.965-0.464,1.565-0.464c1.028,0,1.826,0.342,2.394,1.027
		c0.566,0.685,0.85,1.652,0.85,2.904v5.854h-2.221V28.8z"/>
	<path class="st1" d="M158.537,34.292c-0.61-0.328-1.075-0.807-1.394-1.436c-0.319-0.629-0.479-1.386-0.479-2.272v-1.57
		c0-0.874,0.159-1.622,0.479-2.244c0.318-0.623,0.783-1.097,1.394-1.422s1.343-0.488,2.197-0.488c0.855,0,1.588,0.163,2.198,0.488
		s1.074,0.799,1.394,1.422s0.479,1.371,0.479,2.244v1.598c0,0.879-0.159,1.631-0.479,2.253s-0.783,1.098-1.394,1.426
		s-1.343,0.492-2.198,0.492C159.88,34.784,159.147,34.62,158.537,34.292z M162.101,32.122c0.322-0.356,0.483-0.859,0.483-1.51
		v-1.598c0-0.645-0.161-1.143-0.483-1.496s-0.777-0.53-1.366-0.53c-0.588,0-1.043,0.177-1.365,0.53s-0.483,0.852-0.483,1.496v1.598
		c0,0.65,0.159,1.154,0.479,1.51c0.319,0.356,0.776,0.534,1.37,0.534C161.323,32.656,161.778,32.478,162.101,32.122z"/>
	<path class="st1" d="M168.907,34.292c-0.61-0.328-1.075-0.807-1.394-1.436c-0.319-0.629-0.479-1.386-0.479-2.272v-1.57
		c0-0.874,0.159-1.622,0.479-2.244c0.318-0.623,0.783-1.097,1.394-1.422s1.343-0.488,2.197-0.488c0.855,0,1.588,0.163,2.198,0.488
		s1.074,0.799,1.394,1.422s0.479,1.371,0.479,2.244v1.598c0,0.879-0.159,1.631-0.479,2.253s-0.783,1.098-1.394,1.426
		s-1.343,0.492-2.198,0.492C170.25,34.784,169.518,34.62,168.907,34.292z M172.471,32.122c0.322-0.356,0.483-0.859,0.483-1.51
		v-1.598c0-0.645-0.161-1.143-0.483-1.496s-0.777-0.53-1.366-0.53c-0.588,0-1.043,0.177-1.365,0.53s-0.483,0.852-0.483,1.496v1.598
		c0,0.65,0.159,1.154,0.479,1.51c0.319,0.356,0.776,0.534,1.37,0.534C171.693,32.656,172.148,32.478,172.471,32.122z"/>
	<path class="st1" d="M179.904,31.811c0,0.235,0.06,0.417,0.177,0.543c0.118,0.127,0.285,0.19,0.502,0.19h0.66v2.128h-1.208
		c-0.744,0-1.321-0.223-1.733-0.669c-0.412-0.446-0.618-1.075-0.618-1.886V21.134h2.221V31.811z"/>
	<path class="st1" d="M186.633,21.134h2.221v13.511h-2.221V21.134z M187.553,21.134h7.944v2.128h-7.944V21.134z M187.553,26.876
		h6.922v2.119h-6.922V26.876z M187.553,32.517h7.944v2.128h-7.944V32.517z"/>
	<path class="st1" d="M200.423,29.32l1.208,1.747l-2.342,3.578h-2.397L200.423,29.32z M200.683,30.454l-3.643-5.455h2.453
		l2.546,4.107l3.717,5.538h-2.443L200.683,30.454z M201.203,28.419l1.951-3.42h2.453l-3.262,5.204L201.203,28.419z"/>
	<path class="st1" d="M208.022,34.045c-0.551-0.493-0.826-1.241-0.826-2.244c0-0.954,0.278-1.669,0.836-2.146
		s1.394-0.716,2.509-0.716h2.583l0.13,1.729h-2.703c-0.44,0-0.771,0.093-0.99,0.279s-0.33,0.471-0.33,0.855
		c0,0.403,0.143,0.701,0.428,0.896s0.716,0.293,1.292,0.293c0.706,0,1.23-0.078,1.574-0.232c0.345-0.155,0.517-0.396,0.517-0.725
		l0.194,1.375c-0.105,0.304-0.289,0.558-0.553,0.762c-0.263,0.205-0.58,0.358-0.952,0.46c-0.372,0.103-0.777,0.153-1.218,0.153
		C209.404,34.784,208.574,34.538,208.022,34.045z M213.041,28.53c0-0.539-0.16-0.957-0.479-1.254
		c-0.319-0.297-0.771-0.446-1.353-0.446c-0.372,0-0.737,0.059-1.097,0.177s-0.682,0.282-0.966,0.493l-1.478-1.245
		c0.378-0.44,0.873-0.782,1.486-1.027s1.295-0.367,2.045-0.367c0.817,0,1.518,0.141,2.1,0.423s1.026,0.691,1.333,1.227
		s0.46,1.182,0.46,1.938v6.198h-2.053V28.53z"/>
	<path class="st1" d="M217.789,24.999h2.221v9.646h-2.221V24.999z M223.485,28.939c0-0.625-0.153-1.107-0.46-1.445
		c-0.307-0.337-0.742-0.506-1.306-0.506c-0.545,0-0.966,0.147-1.264,0.441c-0.297,0.294-0.446,0.711-0.446,1.25l-0.194-1.998
		c0.291-0.588,0.662-1.039,1.114-1.352c0.452-0.313,0.97-0.469,1.552-0.469c0.676,0,1.255,0.158,1.738,0.474
		c0.483,0.316,0.85,0.779,1.101,1.389c0.251,0.61,0.377,1.346,0.377,2.207v5.715h-2.212V28.939z M229.172,28.939
		c0-0.625-0.154-1.107-0.464-1.445c-0.311-0.337-0.75-0.506-1.32-0.506c-0.538,0-0.955,0.163-1.249,0.488
		c-0.295,0.325-0.441,0.789-0.441,1.389l-0.428-2.044c0.304-0.625,0.701-1.108,1.194-1.449c0.492-0.341,1.039-0.511,1.64-0.511
		c0.694,0,1.287,0.158,1.779,0.474c0.493,0.316,0.867,0.779,1.125,1.389c0.257,0.61,0.386,1.346,0.386,2.207v5.715h-2.222V28.939z"
		/>
	<path class="st1" d="M234.023,21.134h2.211v2.221h-2.211V21.134z M234.023,24.999h2.211v9.646h-2.211V24.999z"/>
	<path class="st1" d="M238.863,24.999h2.221v9.646h-2.221V24.999z M244.578,28.8c0-0.576-0.155-1.022-0.465-1.338
		c-0.31-0.316-0.749-0.474-1.319-0.474c-0.545,0-0.966,0.147-1.264,0.441c-0.297,0.294-0.446,0.711-0.446,1.25l-0.194-1.998
		c0.291-0.595,0.658-1.047,1.101-1.357c0.443-0.31,0.965-0.464,1.565-0.464c1.028,0,1.826,0.342,2.394,1.027
		c0.566,0.685,0.85,1.652,0.85,2.904v5.854h-2.221V28.8z"/>
	<path class="st1" d="M249.856,34.045c-0.551-0.493-0.826-1.241-0.826-2.244c0-0.954,0.278-1.669,0.836-2.146
		s1.394-0.716,2.509-0.716h2.583l0.13,1.729h-2.703c-0.44,0-0.771,0.093-0.99,0.279s-0.33,0.471-0.33,0.855
		c0,0.403,0.143,0.701,0.428,0.896s0.716,0.293,1.292,0.293c0.706,0,1.23-0.078,1.574-0.232c0.345-0.155,0.517-0.396,0.517-0.725
		l0.194,1.375c-0.105,0.304-0.289,0.558-0.553,0.762c-0.263,0.205-0.58,0.358-0.952,0.46c-0.372,0.103-0.777,0.153-1.218,0.153
		C251.238,34.784,250.408,34.538,249.856,34.045z M254.875,28.53c0-0.539-0.16-0.957-0.479-1.254
		c-0.319-0.297-0.771-0.446-1.353-0.446c-0.372,0-0.737,0.059-1.097,0.177s-0.682,0.282-0.966,0.493l-1.478-1.245
		c0.378-0.44,0.873-0.782,1.486-1.027s1.295-0.367,2.045-0.367c0.817,0,1.518,0.141,2.1,0.423s1.026,0.691,1.333,1.227
		s0.46,1.182,0.46,1.938v6.198h-2.053V28.53z"/>
	<path class="st1" d="M258.879,24.999h4.534v1.942h-4.534V24.999z M260.44,34.045c-0.378-0.431-0.567-1.067-0.567-1.91v-9.943h2.221
		v9.636c0,0.235,0.047,0.417,0.14,0.543s0.229,0.19,0.409,0.19h0.771v2.128h-1.188C261.412,34.691,260.817,34.476,260.44,34.045z"/>
	<path class="st1" d="M265.765,21.134h2.211v2.221h-2.211V21.134z M265.765,24.999h2.211v9.646h-2.211V24.999z"/>
	<path class="st1" d="M272.199,34.292c-0.61-0.328-1.075-0.807-1.394-1.436c-0.319-0.629-0.479-1.386-0.479-2.272v-1.57
		c0-0.874,0.159-1.622,0.479-2.244c0.318-0.623,0.783-1.097,1.394-1.422s1.343-0.488,2.197-0.488c0.855,0,1.588,0.163,2.198,0.488
		s1.074,0.799,1.394,1.422s0.479,1.371,0.479,2.244v1.598c0,0.879-0.159,1.631-0.479,2.253s-0.783,1.098-1.394,1.426
		s-1.343,0.492-2.198,0.492C273.542,34.784,272.81,34.62,272.199,34.292z M275.763,32.122c0.322-0.356,0.483-0.859,0.483-1.51
		v-1.598c0-0.645-0.161-1.143-0.483-1.496s-0.777-0.53-1.366-0.53c-0.588,0-1.043,0.177-1.365,0.53s-0.483,0.852-0.483,1.496v1.598
		c0,0.65,0.159,1.154,0.479,1.51c0.319,0.356,0.776,0.534,1.37,0.534C274.985,32.656,275.44,32.478,275.763,32.122z"/>
	<path class="st1" d="M280.976,24.999h2.221v9.646h-2.221V24.999z M286.69,28.8c0-0.576-0.155-1.022-0.465-1.338
		c-0.31-0.316-0.749-0.474-1.319-0.474c-0.545,0-0.966,0.147-1.264,0.441c-0.297,0.294-0.446,0.711-0.446,1.25l-0.194-1.998
		c0.291-0.595,0.658-1.047,1.101-1.357c0.443-0.31,0.965-0.464,1.565-0.464c1.028,0,1.826,0.342,2.394,1.027
		c0.566,0.685,0.85,1.652,0.85,2.904v5.854h-2.221V28.8z"/>
	<path class="st1" d="M295.89,33.534c-0.563-1.483-0.845-3.121-0.845-4.911c0-1.79,0.281-3.427,0.845-4.911
		c0.564-1.484,1.413-2.823,2.547-4.019l1.394,1.505c-0.893,0.998-1.559,2.112-1.998,3.345s-0.659,2.592-0.659,4.079
		s0.22,2.847,0.659,4.08c0.439,1.232,1.105,2.351,1.998,3.354l-1.394,1.496C297.303,36.357,296.454,35.018,295.89,33.534z"/>
	<path class="st1" d="M304.551,34.784c0,0-0.361-0.203-1.083-0.608s-1.276-0.986-1.663-1.742c-0.388-0.756-0.581-1.651-0.581-2.686
		V26.04c0-1.035,0.193-1.93,0.581-2.686c0.387-0.756,0.941-1.338,1.663-1.747c0.722-0.409,1.572-0.613,2.551-0.613
		c0.812,0,1.547,0.174,2.207,0.521c0.659,0.347,1.208,0.847,1.645,1.5c0.437,0.654,0.735,1.427,0.896,2.319h-2.285
		c-0.112-0.434-0.288-0.813-0.53-1.139c-0.241-0.325-0.528-0.574-0.859-0.748c-0.331-0.173-0.689-0.26-1.073-0.26
		c-0.515,0-0.959,0.116-1.333,0.349c-0.375,0.232-0.665,0.562-0.869,0.99c-0.204,0.427-0.307,0.932-0.307,1.515v3.708
		c0,0.583,0.103,1.087,0.307,1.515s0.494,0.756,0.869,0.985c0.374,0.229,0.818,0.344,1.333,0.344c0.391,0,0.751-0.083,1.082-0.251
		c0.332-0.167,0.618-0.412,0.86-0.734c0.241-0.322,0.415-0.709,0.521-1.162h2.285c-0.167,0.892-0.469,1.665-0.905,2.318
		c-0.438,0.654-0.985,1.154-1.646,1.501c-0.659,0.347-1.392,0.52-2.197,0.52C305.04,34.784,304.551,34.784,304.551,34.784z"/>
	<path class="st1" d="M315.311,31.811c0,0.235,0.06,0.417,0.177,0.543c0.118,0.127,0.285,0.19,0.502,0.19h0.66v2.128h-1.208
		c-0.744,0-1.321-0.223-1.733-0.669c-0.412-0.446-0.618-1.075-0.618-1.886V21.134h2.221V31.811z"/>
	<path class="st1" d="M318.869,34.045c-0.551-0.493-0.826-1.241-0.826-2.244c0-0.954,0.278-1.669,0.836-2.146
		s1.394-0.716,2.509-0.716h2.583l0.13,1.729h-2.703c-0.44,0-0.771,0.093-0.99,0.279s-0.33,0.471-0.33,0.855
		c0,0.403,0.143,0.701,0.428,0.896s0.716,0.293,1.292,0.293c0.706,0,1.23-0.078,1.574-0.232c0.345-0.155,0.517-0.396,0.517-0.725
		l0.194,1.375c-0.105,0.304-0.289,0.558-0.553,0.762c-0.263,0.205-0.58,0.358-0.952,0.46c-0.372,0.103-0.777,0.153-1.218,0.153
		C320.251,34.784,319.421,34.538,318.869,34.045z M323.888,28.53c0-0.539-0.16-0.957-0.479-1.254
		c-0.319-0.297-0.771-0.446-1.353-0.446c-0.372,0-0.737,0.059-1.097,0.177s-0.682,0.282-0.966,0.493l-1.478-1.245
		c0.378-0.44,0.873-0.782,1.486-1.027s1.295-0.367,2.045-0.367c0.817,0,1.518,0.141,2.1,0.423s1.026,0.691,1.333,1.227
		s0.46,1.182,0.46,1.938v6.198h-2.053V28.53z"/>
	<path class="st1" d="M331.321,34.784c0,0-0.26-0.054-0.78-0.163c-0.521-0.108-1.009-0.268-1.464-0.479
		c-0.455-0.21-0.865-0.467-1.231-0.771l1.348-1.673c0.489,0.347,0.99,0.61,1.501,0.79s1.008,0.27,1.491,0.27
		c0.675,0,1.188-0.091,1.538-0.274c0.35-0.183,0.524-0.447,0.524-0.794c0-0.266-0.086-0.466-0.26-0.599s-0.392-0.225-0.655-0.274
		c-0.263-0.049-0.633-0.096-1.11-0.139c-0.08-0.006-0.164-0.012-0.251-0.019s-0.17-0.016-0.251-0.028
		c-0.024,0-0.05-0.001-0.074-0.005c-0.024-0.003-0.05-0.004-0.074-0.004c-0.675-0.074-1.229-0.178-1.663-0.312
		c-0.434-0.133-0.798-0.389-1.092-0.767c-0.295-0.377-0.441-0.92-0.441-1.626c0-0.663,0.146-1.222,0.441-1.677
		c0.294-0.456,0.727-0.799,1.296-1.031c0.57-0.232,1.271-0.349,2.101-0.349c0.495,0,0.979,0.048,1.449,0.144
		s0.922,0.235,1.352,0.418c0.431,0.183,0.838,0.411,1.223,0.683l-1.329,1.617c-0.452-0.272-0.909-0.48-1.37-0.623
		c-0.462-0.142-0.909-0.213-1.343-0.213c-0.583,0-1.025,0.083-1.329,0.25c-0.304,0.167-0.455,0.416-0.455,0.744
		c0,0.21,0.083,0.372,0.251,0.483c0.167,0.112,0.376,0.188,0.627,0.228c0.251,0.04,0.614,0.082,1.092,0.125
		c0.05,0.006,0.098,0.011,0.144,0.014c0.047,0.003,0.095,0.008,0.145,0.014c0.019,0,0.04,0,0.064,0c0.025,0,0.05,0.003,0.075,0.009
		c0.712,0.068,1.304,0.17,1.774,0.307s0.87,0.407,1.198,0.813c0.329,0.406,0.493,0.996,0.493,1.77c0,0.682-0.155,1.256-0.465,1.724
		c-0.31,0.468-0.77,0.821-1.38,1.06s-1.358,0.357-2.244,0.357C331.609,34.784,331.321,34.784,331.321,34.784z"/>
	<path class="st1" d="M341.189,34.784c0,0-0.26-0.054-0.78-0.163c-0.521-0.108-1.009-0.268-1.464-0.479
		c-0.455-0.21-0.865-0.467-1.231-0.771l1.348-1.673c0.489,0.347,0.99,0.61,1.501,0.79s1.008,0.27,1.491,0.27
		c0.675,0,1.188-0.091,1.538-0.274c0.35-0.183,0.524-0.447,0.524-0.794c0-0.266-0.086-0.466-0.26-0.599s-0.392-0.225-0.655-0.274
		c-0.263-0.049-0.633-0.096-1.11-0.139c-0.08-0.006-0.164-0.012-0.251-0.019s-0.17-0.016-0.251-0.028
		c-0.024,0-0.05-0.001-0.074-0.005c-0.024-0.003-0.05-0.004-0.074-0.004c-0.675-0.074-1.229-0.178-1.663-0.312
		c-0.434-0.133-0.798-0.389-1.092-0.767c-0.295-0.377-0.441-0.92-0.441-1.626c0-0.663,0.146-1.222,0.441-1.677
		c0.294-0.456,0.727-0.799,1.296-1.031c0.57-0.232,1.271-0.349,2.101-0.349c0.495,0,0.979,0.048,1.449,0.144
		s0.922,0.235,1.352,0.418c0.431,0.183,0.838,0.411,1.223,0.683l-1.329,1.617c-0.452-0.272-0.909-0.48-1.37-0.623
		c-0.462-0.142-0.909-0.213-1.343-0.213c-0.583,0-1.025,0.083-1.329,0.25c-0.304,0.167-0.455,0.416-0.455,0.744
		c0,0.21,0.083,0.372,0.251,0.483c0.167,0.112,0.376,0.188,0.627,0.228c0.251,0.04,0.614,0.082,1.092,0.125
		c0.05,0.006,0.098,0.011,0.144,0.014c0.047,0.003,0.095,0.008,0.145,0.014c0.019,0,0.04,0,0.064,0c0.025,0,0.05,0.003,0.075,0.009
		c0.712,0.068,1.304,0.17,1.774,0.307s0.87,0.407,1.198,0.813c0.329,0.406,0.493,0.996,0.493,1.77c0,0.682-0.155,1.256-0.465,1.724
		c-0.31,0.468-0.77,0.821-1.38,1.06s-1.358,0.357-2.244,0.357C341.478,34.784,341.189,34.784,341.189,34.784z"/>
	<path class="st1" d="M11.889,52.157l1.208,1.747l-2.342,3.578H8.357L11.889,52.157z M12.148,53.29l-3.643-5.455h2.453l2.546,4.107
		l3.717,5.538h-2.443L12.148,53.29z M12.669,51.255l1.951-3.42h2.453l-3.262,5.204L12.669,51.255z"/>
	<path class="st1" d="M17.826,58.894c0.893-1.004,1.558-2.122,1.998-3.354c0.439-1.233,0.66-2.593,0.66-4.08
		s-0.221-2.846-0.66-4.079c-0.44-1.233-1.105-2.348-1.998-3.345l1.394-1.505c1.134,1.196,1.982,2.535,2.547,4.019
		c0.563,1.483,0.845,3.121,0.845,4.911c0,1.791-0.281,3.428-0.845,4.911c-0.564,1.483-1.413,2.823-2.547,4.019L17.826,58.894z"/>
	<path class="st1" d="M28.54,55.511l4.674-6.189c0.241-0.316,0.429-0.643,0.563-0.98c0.133-0.338,0.199-0.652,0.199-0.943V47.38
		c0-0.452-0.138-0.802-0.413-1.05c-0.276-0.248-0.668-0.372-1.176-0.372c-0.489,0-0.884,0.15-1.185,0.451
		c-0.301,0.301-0.481,0.727-0.544,1.278v0.009h-2.285v-0.009c0.086-0.812,0.303-1.505,0.65-2.082
		c0.347-0.576,0.805-1.016,1.375-1.319c0.569-0.304,1.227-0.456,1.97-0.456c0.824,0,1.527,0.138,2.109,0.414
		c0.582,0.276,1.026,0.677,1.333,1.204c0.307,0.526,0.46,1.161,0.46,1.905v0.009c0,0.545-0.104,1.098-0.311,1.659
		c-0.208,0.561-0.494,1.085-0.859,1.575l-3.624,4.758h4.869v2.128H28.54V55.511z"/>
	<path class="st1" d="M39.584,56.607c-0.673-0.675-1.009-1.617-1.009-2.825v-6.142c0-1.214,0.338-2.157,1.013-2.83
		c0.676-0.672,1.654-1.008,2.937-1.008c1.288,0,2.269,0.334,2.941,1.004c0.672,0.669,1.008,1.614,1.008,2.834v6.142
		c0,1.214-0.338,2.157-1.013,2.83c-0.676,0.672-1.654,1.008-2.937,1.008C41.236,57.62,40.256,57.283,39.584,56.607z M43.835,54.967
		c0.278-0.35,0.418-0.853,0.418-1.51v-5.492c0-0.657-0.14-1.16-0.418-1.51c-0.279-0.35-0.716-0.525-1.311-0.525
		s-1.031,0.175-1.311,0.525c-0.278,0.35-0.418,0.854-0.418,1.51v5.492c0,0.657,0.14,1.16,0.418,1.51
		c0.279,0.35,0.716,0.525,1.311,0.525S43.556,55.317,43.835,54.967z"/>
	<path class="st1" d="M52.522,57.481h-2.221V46.498l-1.784,0.901v-2.333l1.97-1.096h2.035V57.481z"/>
	<path class="st1" d="M57.253,57.156c-0.632-0.31-1.122-0.748-1.469-1.315s-0.521-1.225-0.521-1.975v-0.223
		c0-0.675,0.179-1.31,0.535-1.905c0.355-0.595,0.828-1.043,1.417-1.347c-0.502-0.26-0.906-0.635-1.213-1.125s-0.46-1.006-0.46-1.552
		V47.38c0-0.706,0.162-1.327,0.487-1.863c0.325-0.536,0.782-0.951,1.371-1.245c0.588-0.294,1.272-0.441,2.054-0.441
		c0.78,0,1.465,0.147,2.054,0.441c0.588,0.294,1.045,0.709,1.37,1.245c0.325,0.536,0.488,1.157,0.488,1.863v0.334
		c0,0.558-0.157,1.08-0.47,1.566s-0.724,0.856-1.231,1.11c0.595,0.31,1.073,0.76,1.436,1.352c0.363,0.591,0.544,1.225,0.544,1.9
		v0.223c0,0.75-0.174,1.408-0.521,1.975s-0.836,1.005-1.468,1.315s-1.366,0.464-2.202,0.464
		C58.618,57.62,57.885,57.465,57.253,57.156z M60.491,55.251c0.3-0.155,0.532-0.375,0.696-0.66c0.164-0.285,0.247-0.61,0.247-0.976
		v-0.13c0-0.359-0.083-0.675-0.247-0.948s-0.395-0.485-0.692-0.637c-0.297-0.151-0.644-0.228-1.04-0.228s-0.743,0.076-1.041,0.228
		c-0.297,0.152-0.528,0.366-0.692,0.641c-0.164,0.276-0.246,0.593-0.246,0.953v0.139c0,0.366,0.082,0.689,0.246,0.971
		c0.164,0.282,0.396,0.499,0.697,0.65c0.3,0.152,0.646,0.228,1.036,0.228C59.845,55.483,60.19,55.406,60.491,55.251z M60.342,49.318
		c0.258-0.146,0.456-0.353,0.595-0.623c0.14-0.27,0.21-0.581,0.21-0.934v-0.13c0-0.329-0.07-0.62-0.21-0.874
		c-0.139-0.254-0.337-0.449-0.595-0.585c-0.257-0.136-0.553-0.205-0.887-0.205c-0.335,0-0.631,0.068-0.888,0.205
		s-0.455,0.332-0.595,0.585s-0.209,0.548-0.209,0.883v0.139c0,0.347,0.069,0.654,0.209,0.92c0.14,0.267,0.338,0.473,0.595,0.618
		s0.553,0.218,0.888,0.218C59.789,49.536,60.085,49.463,60.342,49.318z"/>
	<path class="st1" d="M72.632,51.581v2.119h-6.431v-2.119H72.632z"/>
	<path class="st1" d="M78.561,57.62c0,0-0.361-0.203-1.083-0.608s-1.276-0.986-1.663-1.742c-0.388-0.756-0.581-1.651-0.581-2.686
		v-3.708c0-1.035,0.193-1.93,0.581-2.686c0.387-0.756,0.941-1.338,1.663-1.747c0.722-0.409,1.572-0.613,2.551-0.613
		c0.812,0,1.547,0.174,2.207,0.521c0.659,0.347,1.208,0.847,1.645,1.5c0.437,0.654,0.735,1.427,0.896,2.319h-2.285
		c-0.112-0.434-0.288-0.813-0.53-1.139c-0.241-0.325-0.528-0.574-0.859-0.748c-0.331-0.173-0.689-0.26-1.073-0.26
		c-0.515,0-0.959,0.116-1.333,0.349c-0.375,0.232-0.665,0.562-0.869,0.99c-0.204,0.427-0.307,0.932-0.307,1.515v3.708
		c0,0.583,0.103,1.087,0.307,1.515s0.494,0.756,0.869,0.985c0.374,0.229,0.818,0.344,1.333,0.344c0.391,0,0.751-0.083,1.082-0.251
		c0.332-0.167,0.618-0.412,0.86-0.734c0.241-0.322,0.415-0.709,0.521-1.162h2.285c-0.167,0.892-0.469,1.665-0.905,2.318
		c-0.438,0.654-0.985,1.154-1.646,1.501c-0.659,0.347-1.392,0.52-2.197,0.52C79.05,57.62,78.561,57.62,78.561,57.62z"/>
	<path class="st1" d="M88.692,57.128c-0.61-0.328-1.075-0.807-1.394-1.436c-0.319-0.629-0.479-1.386-0.479-2.272v-1.57
		c0-0.874,0.159-1.622,0.479-2.244c0.318-0.623,0.783-1.097,1.394-1.422s1.343-0.488,2.197-0.488c0.855,0,1.588,0.163,2.198,0.488
		s1.074,0.799,1.394,1.422s0.479,1.371,0.479,2.244v1.598c0,0.879-0.159,1.631-0.479,2.253s-0.783,1.098-1.394,1.426
		s-1.343,0.492-2.198,0.492C90.035,57.62,89.303,57.456,88.692,57.128z M92.256,54.958c0.322-0.356,0.483-0.859,0.483-1.51V51.85
		c0-0.645-0.161-1.143-0.483-1.496s-0.777-0.53-1.366-0.53c-0.588,0-1.043,0.177-1.365,0.53s-0.483,0.852-0.483,1.496v1.598
		c0,0.65,0.159,1.154,0.479,1.51c0.319,0.356,0.776,0.534,1.37,0.534C91.478,55.492,91.934,55.314,92.256,54.958z"/>
	<path class="st1" d="M97.469,47.835h2.221v9.646h-2.221V47.835z M103.165,51.775c0-0.625-0.153-1.107-0.46-1.445
		c-0.307-0.337-0.742-0.506-1.306-0.506c-0.545,0-0.966,0.147-1.264,0.441c-0.297,0.294-0.446,0.711-0.446,1.25l-0.194-1.998
		c0.291-0.588,0.662-1.039,1.114-1.352c0.452-0.313,0.97-0.469,1.552-0.469c0.676,0,1.255,0.158,1.738,0.474
		c0.483,0.316,0.85,0.779,1.101,1.389c0.251,0.61,0.377,1.346,0.377,2.207v5.715h-2.212V51.775z M108.852,51.775
		c0-0.625-0.154-1.107-0.464-1.445c-0.311-0.337-0.75-0.506-1.32-0.506c-0.538,0-0.955,0.163-1.249,0.488
		c-0.295,0.325-0.441,0.789-0.441,1.389l-0.428-2.044c0.304-0.625,0.701-1.108,1.194-1.449c0.492-0.341,1.039-0.511,1.64-0.511
		c0.694,0,1.287,0.158,1.779,0.474c0.493,0.316,0.867,0.779,1.125,1.389c0.257,0.61,0.386,1.346,0.386,2.207v5.715h-2.222V51.775z"
		/>
	<path class="st1" d="M113.768,47.835h2.221v13.567h-2.221V47.835z M116.807,57.188c-0.428-0.288-0.743-0.695-0.948-1.222
		l0.13-2.109c0,0.366,0.065,0.677,0.195,0.934c0.13,0.257,0.319,0.454,0.567,0.59c0.247,0.136,0.548,0.205,0.901,0.205
		c0.551,0,0.979-0.173,1.282-0.521c0.303-0.347,0.455-0.839,0.455-1.478v-1.812c0-0.65-0.152-1.153-0.455-1.51
		c-0.304-0.356-0.731-0.534-1.282-0.534c-0.354,0-0.654,0.066-0.901,0.2c-0.248,0.133-0.438,0.33-0.567,0.59
		s-0.195,0.573-0.195,0.938l-0.194-1.998c0.272-0.564,0.633-0.999,1.082-1.306s0.946-0.46,1.491-0.46
		c0.682,0,1.266,0.158,1.752,0.474c0.486,0.316,0.856,0.779,1.11,1.389c0.254,0.61,0.381,1.346,0.381,2.207v1.821
		c0,0.849-0.129,1.575-0.386,2.179s-0.633,1.064-1.129,1.38c-0.495,0.316-1.087,0.474-1.774,0.474
		C117.738,57.62,117.233,57.476,116.807,57.188z"/>
	<path class="st1" d="M124.481,56.882c-0.551-0.493-0.826-1.241-0.826-2.244c0-0.954,0.278-1.669,0.836-2.146
		s1.394-0.716,2.509-0.716h2.583l0.13,1.729h-2.703c-0.44,0-0.771,0.093-0.99,0.279s-0.33,0.471-0.33,0.855
		c0,0.403,0.143,0.701,0.428,0.896s0.716,0.293,1.292,0.293c0.706,0,1.23-0.078,1.574-0.232c0.345-0.155,0.517-0.396,0.517-0.725
		l0.194,1.375c-0.105,0.304-0.289,0.558-0.553,0.762c-0.263,0.205-0.58,0.358-0.952,0.46c-0.372,0.103-0.777,0.153-1.218,0.153
		C125.863,57.62,125.033,57.374,124.481,56.882z M129.5,51.367c0-0.539-0.16-0.957-0.479-1.254
		c-0.319-0.297-0.771-0.446-1.353-0.446c-0.372,0-0.737,0.059-1.097,0.177s-0.682,0.282-0.966,0.493l-1.478-1.245
		c0.378-0.44,0.873-0.782,1.486-1.027s1.295-0.367,2.045-0.367c0.817,0,1.518,0.141,2.1,0.423s1.026,0.691,1.333,1.227
		s0.46,1.182,0.46,1.938v6.198H129.5V51.367z"/>
	<path class="st1" d="M134.248,47.835h2.314v9.646h-2.314V47.835z M139.071,49.95c-0.217-0.083-0.468-0.125-0.753-0.125
		c-0.558,0-0.989,0.166-1.296,0.497c-0.307,0.332-0.46,0.792-0.46,1.38l-0.195-2.184c0.278-0.576,0.643-1.023,1.092-1.343
		c0.449-0.319,0.943-0.479,1.481-0.479c0.422,0,0.803,0.063,1.144,0.19s0.638,0.314,0.892,0.562l-1.356,1.868
		C139.471,50.156,139.288,50.033,139.071,49.95z"/>
	<path class="st1" d="M141.626,47.835h4.534v1.942h-4.534V47.835z M143.187,56.882c-0.378-0.431-0.567-1.067-0.567-1.91v-9.943
		h2.221v9.636c0,0.235,0.047,0.417,0.14,0.543s0.229,0.19,0.409,0.19h0.771v2.128h-1.188
		C144.159,57.527,143.564,57.312,143.187,56.882z"/>
	<path class="st1" d="M148.576,47.835h2.221v9.646h-2.221V47.835z M154.272,51.775c0-0.625-0.153-1.107-0.46-1.445
		c-0.307-0.337-0.742-0.506-1.306-0.506c-0.545,0-0.966,0.147-1.264,0.441c-0.297,0.294-0.446,0.711-0.446,1.25l-0.194-1.998
		c0.291-0.588,0.662-1.039,1.114-1.352c0.452-0.313,0.97-0.469,1.552-0.469c0.676,0,1.255,0.158,1.738,0.474
		c0.483,0.316,0.85,0.779,1.101,1.389c0.251,0.61,0.377,1.346,0.377,2.207v5.715h-2.212V51.775z M159.959,51.775
		c0-0.625-0.154-1.107-0.464-1.445c-0.311-0.337-0.75-0.506-1.32-0.506c-0.538,0-0.955,0.163-1.249,0.488
		c-0.295,0.325-0.441,0.789-0.441,1.389l-0.428-2.044c0.304-0.625,0.701-1.108,1.194-1.449c0.492-0.341,1.039-0.511,1.64-0.511
		c0.694,0,1.287,0.158,1.779,0.474c0.493,0.316,0.867,0.779,1.125,1.389c0.257,0.61,0.386,1.346,0.386,2.207v5.715h-2.222V51.775z"
		/>
	<path class="st1" d="M167.552,57.62c0,0-0.322-0.167-0.967-0.501s-1.137-0.826-1.478-1.473c-0.341-0.647-0.511-1.429-0.511-2.346
		v-1.087c0-0.954,0.162-1.769,0.487-2.444s0.8-1.189,1.422-1.542c0.623-0.353,1.371-0.53,2.244-0.53
		c0.824,0,1.528,0.206,2.114,0.618c0.585,0.412,1.031,1.008,1.338,1.789c0.307,0.78,0.46,1.722,0.46,2.825v0.632h-6.551v-1.626
		h4.488l-0.01-0.102c-0.062-0.675-0.251-1.199-0.566-1.571c-0.316-0.372-0.74-0.557-1.273-0.557c-0.669,0-1.187,0.209-1.552,0.627
		s-0.548,1.011-0.548,1.779v1.227c0,0.731,0.198,1.293,0.595,1.687c0.396,0.394,0.953,0.59,1.672,0.59
		c0.366,0,0.727-0.07,1.083-0.209c0.356-0.14,0.677-0.333,0.962-0.581l1.449,1.357c-0.489,0.458-1.039,0.813-1.649,1.064
		s-1.225,0.376-1.845,0.376C168.007,57.62,167.552,57.62,167.552,57.62z"/>
	<path class="st1" d="M175.077,47.835h2.221v9.646h-2.221V47.835z M180.792,51.636c0-0.576-0.155-1.022-0.465-1.338
		c-0.31-0.316-0.749-0.474-1.319-0.474c-0.545,0-0.966,0.147-1.264,0.441c-0.297,0.294-0.446,0.711-0.446,1.25l-0.194-1.998
		c0.291-0.595,0.658-1.047,1.101-1.357c0.443-0.31,0.965-0.464,1.565-0.464c1.028,0,1.826,0.342,2.394,1.027
		c0.566,0.685,0.85,1.652,0.85,2.904v5.854h-2.221V51.636z"/>
	<path class="st1" d="M184.965,47.835h4.534v1.942h-4.534V47.835z M186.526,56.882c-0.378-0.431-0.567-1.067-0.567-1.91v-9.943
		h2.221v9.636c0,0.235,0.047,0.417,0.14,0.543s0.229,0.19,0.409,0.19h0.771v2.128h-1.188
		C187.498,57.527,186.903,57.312,186.526,56.882z"/>
	<path class="st1" d="M198.346,51.581v2.119h-6.431v-2.119H198.346z"/>
	<path class="st1" d="M207.656,57.62c0,0-0.299-0.063-0.896-0.19c-0.599-0.127-1.159-0.314-1.683-0.562
		c-0.523-0.248-1.002-0.554-1.436-0.92l1.181-1.775c0.521,0.44,1.104,0.773,1.751,0.999s1.334,0.339,2.059,0.339
		c0.904,0,1.605-0.161,2.104-0.483s0.748-0.777,0.748-1.366v-0.009c0-0.415-0.111-0.745-0.334-0.989
		c-0.224-0.245-0.515-0.424-0.874-0.539s-0.821-0.221-1.385-0.321c-0.019-0.006-0.037-0.009-0.056-0.009s-0.037-0.003-0.056-0.009
		l-0.167-0.028c-0.904-0.148-1.648-0.325-2.23-0.529c-0.582-0.205-1.078-0.57-1.486-1.097c-0.409-0.526-0.613-1.273-0.613-2.239
		v-0.009c0-0.855,0.191-1.586,0.576-2.193c0.384-0.607,0.941-1.068,1.672-1.384c0.731-0.316,1.611-0.474,2.64-0.474
		c0.483,0,0.968,0.055,1.454,0.163c0.486,0.108,0.963,0.267,1.431,0.474s0.922,0.466,1.361,0.776l-1.078,1.831
		c-0.52-0.372-1.05-0.653-1.589-0.846c-0.539-0.192-1.065-0.288-1.579-0.288c-0.855,0-1.517,0.157-1.984,0.469
		c-0.468,0.313-0.701,0.754-0.701,1.324v0.009c0,0.428,0.121,0.765,0.362,1.013c0.241,0.248,0.544,0.429,0.906,0.544
		s0.868,0.237,1.519,0.367c0.025,0.006,0.048,0.011,0.07,0.014c0.021,0.003,0.045,0.008,0.069,0.014
		c0.031,0.006,0.065,0.012,0.103,0.019c0.037,0.006,0.071,0.012,0.102,0.019c0.837,0.167,1.535,0.369,2.096,0.604
		s1.03,0.613,1.408,1.133c0.378,0.521,0.566,1.23,0.566,2.128v0.019c0,0.843-0.198,1.564-0.595,2.165
		c-0.396,0.601-0.973,1.058-1.729,1.371c-0.756,0.313-1.666,0.469-2.731,0.469C207.981,57.62,207.656,57.62,207.656,57.62z"/>
	<path class="st1" d="M218.649,57.62c0,0-0.319-0.168-0.957-0.506c-0.639-0.337-1.125-0.83-1.459-1.478
		c-0.335-0.647-0.502-1.429-0.502-2.346v-1.31c0-0.904,0.167-1.677,0.502-2.318c0.334-0.641,0.82-1.129,1.459-1.463
		c0.638-0.334,1.405-0.502,2.304-0.502c0.515,0,0.999,0.061,1.454,0.181c0.456,0.121,0.864,0.296,1.227,0.525
		c0.363,0.229,0.665,0.508,0.906,0.836l-1.505,1.413c-0.254-0.267-0.552-0.471-0.893-0.613s-0.696-0.214-1.068-0.214
		c-0.688,0-1.221,0.188-1.599,0.562c-0.378,0.375-0.566,0.906-0.566,1.594v1.31c0,0.707,0.188,1.25,0.563,1.631
		c0.374,0.381,0.908,0.571,1.603,0.571c0.378,0,0.737-0.077,1.078-0.232s0.635-0.375,0.883-0.66l1.505,1.505
		c-0.248,0.322-0.553,0.597-0.915,0.823s-0.771,0.398-1.227,0.516s-0.938,0.176-1.445,0.176
		C219.098,57.62,218.649,57.62,218.649,57.62z"/>
	<path class="st1" d="M225.487,43.97h2.221v13.511h-2.221V43.97z M231.202,51.636c0-0.576-0.155-1.022-0.465-1.338
		c-0.31-0.316-0.749-0.474-1.319-0.474c-0.545,0-0.966,0.146-1.264,0.437c-0.297,0.292-0.446,0.703-0.446,1.236l-0.194-1.998
		c0.291-0.583,0.658-1.028,1.101-1.338c0.443-0.31,0.965-0.464,1.565-0.464c1.028,0,1.826,0.342,2.394,1.027
		c0.566,0.685,0.85,1.652,0.85,2.904v5.854h-2.221V51.636z"/>
	<path class="st1" d="M237.712,57.128c-0.61-0.328-1.075-0.807-1.394-1.436c-0.319-0.629-0.479-1.386-0.479-2.272v-1.57
		c0-0.874,0.159-1.622,0.479-2.244c0.318-0.623,0.783-1.097,1.394-1.422s1.343-0.488,2.197-0.488c0.855,0,1.588,0.163,2.198,0.488
		s1.074,0.799,1.394,1.422s0.479,1.371,0.479,2.244v1.598c0,0.879-0.159,1.631-0.479,2.253s-0.783,1.098-1.394,1.426
		s-1.343,0.492-2.198,0.492C239.055,57.62,238.322,57.456,237.712,57.128z M241.275,54.958c0.322-0.356,0.483-0.859,0.483-1.51
		V51.85c0-0.645-0.161-1.143-0.483-1.496s-0.777-0.53-1.366-0.53c-0.588,0-1.043,0.177-1.365,0.53s-0.483,0.852-0.483,1.496v1.598
		c0,0.65,0.159,1.154,0.479,1.51c0.319,0.356,0.776,0.534,1.37,0.534C240.498,55.492,240.953,55.314,241.275,54.958z"/>
	<path class="st1" d="M248.082,57.128c-0.61-0.328-1.075-0.807-1.394-1.436c-0.319-0.629-0.479-1.386-0.479-2.272v-1.57
		c0-0.874,0.159-1.622,0.479-2.244c0.318-0.623,0.783-1.097,1.394-1.422s1.343-0.488,2.197-0.488c0.855,0,1.588,0.163,2.198,0.488
		s1.074,0.799,1.394,1.422s0.479,1.371,0.479,2.244v1.598c0,0.879-0.159,1.631-0.479,2.253s-0.783,1.098-1.394,1.426
		s-1.343,0.492-2.198,0.492C249.425,57.62,248.692,57.456,248.082,57.128z M251.645,54.958c0.322-0.356,0.483-0.859,0.483-1.51
		V51.85c0-0.645-0.161-1.143-0.483-1.496s-0.777-0.53-1.366-0.53c-0.588,0-1.043,0.177-1.365,0.53s-0.483,0.852-0.483,1.496v1.598
		c0,0.65,0.159,1.154,0.479,1.51c0.319,0.356,0.776,0.534,1.37,0.534C250.868,55.492,251.323,55.314,251.645,54.958z"/>
	<path class="st1" d="M259.079,54.647c0,0.235,0.06,0.417,0.177,0.543c0.118,0.127,0.285,0.19,0.502,0.19h0.66v2.128h-1.208
		c-0.744,0-1.321-0.223-1.733-0.669c-0.412-0.446-0.618-1.075-0.618-1.886V43.97h2.221V54.647z"/>
	<path class="st1" d="M271.446,43.97h1.673l2.676,9.803l2.063-9.803h2.295l-3.206,13.511h-2.165l-2.443-9.441l-2.556,9.441h-2.165
		l-3.206-13.511h2.296l2.063,9.803L271.446,43.97z"/>
	<path class="st1" d="M281.669,43.97h2.211v2.221h-2.211V43.97z M281.669,47.835h2.211v9.646h-2.211V47.835z"/>
	<path class="st1" d="M289.195,57.62c0,0-0.26-0.054-0.78-0.163c-0.521-0.108-1.009-0.268-1.464-0.479
		c-0.455-0.21-0.865-0.467-1.231-0.771l1.348-1.673c0.489,0.347,0.99,0.61,1.501,0.79s1.008,0.27,1.491,0.27
		c0.675,0,1.188-0.091,1.538-0.274c0.35-0.183,0.524-0.447,0.524-0.794c0-0.266-0.086-0.466-0.26-0.599s-0.392-0.225-0.655-0.274
		c-0.263-0.049-0.633-0.096-1.11-0.139c-0.08-0.006-0.164-0.012-0.251-0.019s-0.17-0.016-0.251-0.028
		c-0.024,0-0.05-0.001-0.074-0.005c-0.024-0.003-0.05-0.004-0.074-0.004c-0.675-0.074-1.229-0.178-1.663-0.312
		c-0.434-0.133-0.798-0.389-1.092-0.767c-0.295-0.377-0.441-0.92-0.441-1.626c0-0.663,0.146-1.222,0.441-1.677
		c0.294-0.456,0.727-0.799,1.296-1.031c0.57-0.232,1.271-0.349,2.101-0.349c0.495,0,0.979,0.048,1.449,0.144
		s0.922,0.235,1.352,0.418c0.431,0.183,0.838,0.411,1.223,0.683l-1.329,1.617c-0.452-0.272-0.909-0.48-1.37-0.623
		c-0.462-0.142-0.909-0.213-1.343-0.213c-0.583,0-1.025,0.083-1.329,0.25c-0.304,0.167-0.455,0.416-0.455,0.744
		c0,0.21,0.083,0.372,0.251,0.483c0.167,0.112,0.376,0.188,0.627,0.228c0.251,0.04,0.614,0.082,1.092,0.125
		c0.05,0.006,0.098,0.011,0.144,0.014c0.047,0.003,0.095,0.008,0.145,0.014c0.019,0,0.04,0,0.064,0c0.025,0,0.05,0.003,0.075,0.009
		c0.712,0.068,1.304,0.17,1.774,0.307s0.87,0.407,1.198,0.813c0.329,0.406,0.493,0.996,0.493,1.77c0,0.682-0.155,1.256-0.465,1.724
		c-0.31,0.468-0.77,0.821-1.38,1.06s-1.358,0.357-2.244,0.357C289.483,57.62,289.195,57.62,289.195,57.62z"/>
	<path class="st1" d="M299.055,57.62c0,0-0.322-0.167-0.967-0.501s-1.137-0.826-1.478-1.473c-0.341-0.647-0.511-1.429-0.511-2.346
		v-1.087c0-0.954,0.162-1.769,0.487-2.444s0.8-1.189,1.422-1.542c0.623-0.353,1.371-0.53,2.244-0.53
		c0.824,0,1.528,0.206,2.114,0.618c0.585,0.412,1.031,1.008,1.338,1.789c0.307,0.78,0.46,1.722,0.46,2.825v0.632h-6.551v-1.626
		h4.488l-0.01-0.102c-0.062-0.675-0.251-1.199-0.566-1.571c-0.316-0.372-0.74-0.557-1.273-0.557c-0.669,0-1.187,0.209-1.552,0.627
		s-0.548,1.011-0.548,1.779v1.227c0,0.731,0.198,1.293,0.595,1.687c0.396,0.394,0.953,0.59,1.672,0.59
		c0.366,0,0.727-0.07,1.083-0.209c0.356-0.14,0.677-0.333,0.962-0.581l1.449,1.357c-0.489,0.458-1.039,0.813-1.649,1.064
		s-1.225,0.376-1.845,0.376C299.51,57.62,299.055,57.62,299.055,57.62z"/>
	<path class="st1" d="M310.02,43.961h2.221v13.52h-2.221V43.961z M310.939,49.778h4.655c0.31,0,0.584-0.076,0.822-0.228
		s0.423-0.367,0.553-0.646s0.198-0.604,0.204-0.976c0-0.366-0.064-0.688-0.195-0.966c-0.13-0.279-0.314-0.494-0.553-0.646
		s-0.516-0.228-0.831-0.228h-4.655v-2.128h4.72c0.763,0,1.432,0.164,2.008,0.492c0.576,0.329,1.023,0.793,1.343,1.394
		c0.318,0.601,0.479,1.295,0.479,2.082c0,0.793-0.16,1.49-0.479,2.091c-0.319,0.601-0.769,1.065-1.348,1.394
		c-0.579,0.329-1.247,0.493-2.003,0.493h-4.72V49.778z M314.2,51.487l2.305-0.427l3.55,6.421h-2.667L314.2,51.487z"/>
	<path class="st1" d="M324.543,57.62c0,0-0.322-0.167-0.967-0.501s-1.137-0.826-1.478-1.473c-0.341-0.647-0.511-1.429-0.511-2.346
		v-1.087c0-0.954,0.162-1.769,0.487-2.444s0.8-1.189,1.422-1.542c0.623-0.353,1.371-0.53,2.244-0.53
		c0.824,0,1.528,0.206,2.114,0.618c0.585,0.412,1.031,1.008,1.338,1.789c0.307,0.78,0.46,1.722,0.46,2.825v0.632h-6.551v-1.626
		h4.488l-0.01-0.102c-0.062-0.675-0.251-1.199-0.566-1.571c-0.316-0.372-0.74-0.557-1.273-0.557c-0.669,0-1.187,0.209-1.552,0.627
		s-0.548,1.011-0.548,1.779v1.227c0,0.731,0.198,1.293,0.595,1.687c0.396,0.394,0.953,0.59,1.672,0.59
		c0.366,0,0.727-0.07,1.083-0.209c0.356-0.14,0.677-0.333,0.962-0.581l1.449,1.357c-0.489,0.458-1.039,0.813-1.649,1.064
		s-1.225,0.376-1.845,0.376C324.998,57.62,324.543,57.62,324.543,57.62z"/>
	<path class="st1" d="M334.755,57.62c0,0-0.26-0.054-0.78-0.163c-0.521-0.108-1.009-0.268-1.464-0.479
		c-0.455-0.21-0.865-0.467-1.231-0.771l1.348-1.673c0.489,0.347,0.99,0.61,1.501,0.79s1.008,0.27,1.491,0.27
		c0.675,0,1.188-0.091,1.538-0.274c0.35-0.183,0.524-0.447,0.524-0.794c0-0.266-0.086-0.466-0.26-0.599s-0.392-0.225-0.655-0.274
		c-0.263-0.049-0.633-0.096-1.11-0.139c-0.08-0.006-0.164-0.012-0.251-0.019s-0.17-0.016-0.251-0.028
		c-0.024,0-0.05-0.001-0.074-0.005c-0.024-0.003-0.05-0.004-0.074-0.004c-0.675-0.074-1.229-0.178-1.663-0.312
		c-0.434-0.133-0.798-0.389-1.092-0.767c-0.295-0.377-0.441-0.92-0.441-1.626c0-0.663,0.146-1.222,0.441-1.677
		c0.294-0.456,0.727-0.799,1.296-1.031c0.57-0.232,1.271-0.349,2.101-0.349c0.495,0,0.979,0.048,1.449,0.144
		s0.922,0.235,1.352,0.418c0.431,0.183,0.838,0.411,1.223,0.683l-1.329,1.617c-0.452-0.272-0.909-0.48-1.37-0.623
		c-0.462-0.142-0.909-0.213-1.343-0.213c-0.583,0-1.025,0.083-1.329,0.25c-0.304,0.167-0.455,0.416-0.455,0.744
		c0,0.21,0.083,0.372,0.251,0.483c0.167,0.112,0.376,0.188,0.627,0.228c0.251,0.04,0.614,0.082,1.092,0.125
		c0.05,0.006,0.098,0.011,0.144,0.014c0.047,0.003,0.095,0.008,0.145,0.014c0.019,0,0.04,0,0.064,0c0.025,0,0.05,0.003,0.075,0.009
		c0.712,0.068,1.304,0.17,1.774,0.307s0.87,0.407,1.198,0.813c0.329,0.406,0.493,0.996,0.493,1.77c0,0.682-0.155,1.256-0.465,1.724
		c-0.31,0.468-0.77,0.821-1.38,1.06s-1.358,0.357-2.244,0.357C335.043,57.62,334.755,57.62,334.755,57.62z"/>
	<path class="st1" d="M344.158,53.699c0,0.57,0.152,1.011,0.456,1.324c0.303,0.313,0.73,0.469,1.282,0.469
		c0.551,0,0.976-0.147,1.272-0.441c0.298-0.294,0.446-0.717,0.446-1.269l0.13,2.063c-0.186,0.501-0.495,0.923-0.929,1.264
		s-0.964,0.511-1.589,0.511c-1.047,0-1.857-0.337-2.431-1.013c-0.572-0.675-0.859-1.629-0.859-2.862v-5.91h2.221V53.699z
		 M347.615,47.835h2.212v9.646h-2.212V47.835z"/>
	<path class="st1" d="M354.742,54.647c0,0.235,0.06,0.417,0.177,0.543c0.118,0.127,0.285,0.19,0.502,0.19h0.66v2.128h-1.208
		c-0.744,0-1.321-0.223-1.733-0.669c-0.412-0.446-0.618-1.075-0.618-1.886V43.97h2.221V54.647z"/>
	<path class="st1" d="M357.288,47.835h4.534v1.942h-4.534V47.835z M358.85,56.882c-0.378-0.431-0.567-1.067-0.567-1.91v-9.943h2.221
		v9.636c0,0.235,0.047,0.417,0.14,0.543s0.229,0.19,0.409,0.19h0.771v2.128h-1.188C359.821,57.527,359.227,57.312,358.85,56.882z"/>
	<path class="st1" d="M366.924,57.62c0,0-0.26-0.054-0.78-0.163c-0.521-0.108-1.009-0.268-1.464-0.479
		c-0.455-0.21-0.865-0.467-1.231-0.771l1.348-1.673c0.489,0.347,0.99,0.61,1.501,0.79s1.008,0.27,1.491,0.27
		c0.675,0,1.188-0.091,1.538-0.274c0.35-0.183,0.524-0.447,0.524-0.794c0-0.266-0.086-0.466-0.26-0.599s-0.392-0.225-0.655-0.274
		c-0.263-0.049-0.633-0.096-1.11-0.139c-0.08-0.006-0.164-0.012-0.251-0.019s-0.17-0.016-0.251-0.028
		c-0.024,0-0.05-0.001-0.074-0.005c-0.024-0.003-0.05-0.004-0.074-0.004c-0.675-0.074-1.229-0.178-1.663-0.312
		c-0.434-0.133-0.798-0.389-1.092-0.767c-0.295-0.377-0.441-0.92-0.441-1.626c0-0.663,0.146-1.222,0.441-1.677
		c0.294-0.456,0.727-0.799,1.296-1.031c0.57-0.232,1.271-0.349,2.101-0.349c0.495,0,0.979,0.048,1.449,0.144
		s0.922,0.235,1.352,0.418c0.431,0.183,0.838,0.411,1.223,0.683l-1.329,1.617c-0.452-0.272-0.909-0.48-1.37-0.623
		c-0.462-0.142-0.909-0.213-1.343-0.213c-0.583,0-1.025,0.083-1.329,0.25c-0.304,0.167-0.455,0.416-0.455,0.744
		c0,0.21,0.083,0.372,0.251,0.483c0.167,0.112,0.376,0.188,0.627,0.228c0.251,0.04,0.614,0.082,1.092,0.125
		c0.05,0.006,0.098,0.011,0.144,0.014c0.047,0.003,0.095,0.008,0.145,0.014c0.019,0,0.04,0,0.064,0c0.025,0,0.05,0.003,0.075,0.009
		c0.712,0.068,1.304,0.17,1.774,0.307s0.87,0.407,1.198,0.813c0.329,0.406,0.493,0.996,0.493,1.77c0,0.682-0.155,1.256-0.465,1.724
		c-0.31,0.468-0.77,0.821-1.38,1.06s-1.358,0.357-2.244,0.357C367.212,57.62,366.924,57.62,366.924,57.62z"/>
</g>
</svg>