<!-- Generator: Adobe Illustrator 22.1.0, SVG Export Plug-In  -->
<svg version="1.1"
	 xmlns="http://www.w3.org/2000/svg" xmlns:xlink="http://www.w3.org/1999/xlink" xmlns:a="http://ns.adobe.com/AdobeSVGViewerExtensions/3.0/"
	 x="0px" y="0px" width="383.536px" height="80.513px" viewBox="0 0 383.536 80.513"
	 style="enable-background:new 0 0 383.536 80.513;" xml:space="preserve">
<style type="text/css">
	.st0{fill:#1B1464;}
	.st1{fill:#FFFFFF;}
</style>
<defs>
</defs>
<rect class="st0" width="383.536" height="80.513"/>
<g>
	<path class="st1" d="M95.219,48.446c0,0-0.361-0.203-1.083-0.609c-0.722-0.405-1.276-0.986-1.663-1.742
		c-0.388-0.755-0.581-1.65-0.581-2.686v-3.707c0-1.034,0.193-1.93,0.581-2.686c0.387-0.756,0.941-1.338,1.663-1.747
		s1.572-0.613,2.551-0.613c0.812,0,1.547,0.174,2.207,0.521c0.659,0.347,1.208,0.848,1.645,1.501s0.735,1.426,0.896,2.318h-2.285
		c-0.112-0.434-0.288-0.813-0.53-1.139c-0.241-0.325-0.528-0.574-0.859-0.748c-0.331-0.173-0.689-0.26-1.073-0.26
		c-0.515,0-0.959,0.116-1.333,0.349c-0.375,0.231-0.665,0.562-0.869,0.989s-0.307,0.933-0.307,1.515v3.707
		c0,0.583,0.103,1.088,0.307,1.515c0.204,0.428,0.494,0.756,0.869,0.985c0.374,0.229,0.818,0.344,1.333,0.344
		c0.391,0,0.751-0.083,1.082-0.251c0.332-0.167,0.618-0.412,0.86-0.733c0.241-0.322,0.415-0.71,0.521-1.162h2.285
		c-0.167,0.893-0.469,1.665-0.905,2.318c-0.438,0.654-0.985,1.154-1.646,1.501c-0.659,0.347-1.392,0.521-2.197,0.521
		C95.708,48.446,95.219,48.446,95.219,48.446z"/>
	<path class="st1" d="M107.122,48.446c0,0-0.299-0.063-0.896-0.19c-0.599-0.127-1.159-0.314-1.683-0.563s-1.002-0.555-1.436-0.92
		l1.181-1.774c0.521,0.439,1.104,0.772,1.751,0.998c0.647,0.227,1.334,0.34,2.059,0.34c0.904,0,1.605-0.161,2.104-0.483
		s0.748-0.777,0.748-1.366v-0.009c0-0.415-0.111-0.745-0.334-0.99c-0.224-0.244-0.515-0.424-0.874-0.539
		c-0.359-0.114-0.821-0.221-1.385-0.32c-0.019-0.006-0.037-0.009-0.056-0.009s-0.037-0.003-0.056-0.01l-0.167-0.027
		c-0.904-0.149-1.648-0.325-2.23-0.53c-0.582-0.204-1.078-0.569-1.486-1.097c-0.409-0.526-0.613-1.272-0.613-2.239v-0.009
		c0-0.855,0.191-1.586,0.576-2.193c0.384-0.606,0.941-1.068,1.672-1.385c0.731-0.315,1.611-0.474,2.64-0.474
		c0.483,0,0.968,0.055,1.454,0.163s0.963,0.266,1.431,0.474s0.922,0.466,1.361,0.775l-1.078,1.831
		c-0.52-0.372-1.05-0.653-1.589-0.846c-0.539-0.191-1.065-0.288-1.579-0.288c-0.855,0-1.517,0.156-1.984,0.47
		c-0.468,0.313-0.701,0.754-0.701,1.324v0.009c0,0.428,0.121,0.766,0.362,1.013c0.241,0.248,0.544,0.43,0.906,0.544
		s0.868,0.236,1.519,0.367c0.025,0.006,0.048,0.011,0.07,0.014c0.021,0.003,0.045,0.008,0.069,0.014
		c0.031,0.007,0.065,0.013,0.103,0.019c0.037,0.007,0.071,0.013,0.102,0.019c0.837,0.168,1.535,0.369,2.096,0.604
		s1.03,0.613,1.408,1.134s0.566,1.229,0.566,2.128v0.019c0,0.842-0.198,1.563-0.595,2.165c-0.396,0.601-0.973,1.058-1.729,1.37
		c-0.756,0.313-1.666,0.47-2.731,0.47C107.447,48.446,107.122,48.446,107.122,48.446z"/>
	<path class="st1" d="M115.661,34.796h2.211v13.511h-2.211V34.796z M116.775,46.207h3.986c0.774,0,1.351-0.163,1.729-0.488
		s0.567-0.779,0.567-1.361v-0.028c0-0.402-0.074-0.746-0.224-1.031c-0.148-0.284-0.378-0.503-0.688-0.655
		c-0.31-0.151-0.693-0.228-1.152-0.228h-4.219v-2.081h4.219c0.613,0,1.081-0.148,1.403-0.446c0.322-0.297,0.483-0.728,0.483-1.291
		c0-0.558-0.171-0.98-0.511-1.269c-0.341-0.288-0.843-0.433-1.506-0.433h-4.089v-2.1h4.303c0.873,0,1.612,0.147,2.216,0.441
		c0.604,0.294,1.06,0.714,1.366,1.259s0.46,1.199,0.46,1.961c0,0.495-0.098,0.946-0.293,1.352c-0.194,0.406-0.482,0.745-0.864,1.018
		c-0.381,0.272-0.847,0.459-1.398,0.558c0.57,0.081,1.06,0.269,1.469,0.563c0.408,0.294,0.722,0.669,0.938,1.124
		s0.325,0.965,0.325,1.528v0.028c0,0.75-0.163,1.401-0.488,1.956s-0.793,0.98-1.402,1.277c-0.61,0.298-1.334,0.446-2.17,0.446
		h-4.461V46.207z"/>
	<path class="st1" d="M127.946,34.796h2.221v13.511h-2.221V34.796z M128.866,34.796h7.944v2.128h-7.944V34.796z M128.866,40.538
		h6.922v2.119h-6.922V40.538z M128.866,46.178h7.944v2.128h-7.944V46.178z"/>
	<path class="st1" d="M145.619,48.446c0,0-0.361-0.203-1.083-0.609c-0.722-0.405-1.276-0.986-1.663-1.742
		c-0.388-0.755-0.581-1.65-0.581-2.686v-3.707c0-1.034,0.193-1.93,0.581-2.686c0.387-0.756,0.941-1.338,1.663-1.747
		s1.572-0.613,2.551-0.613c0.812,0,1.547,0.174,2.207,0.521c0.659,0.347,1.208,0.848,1.645,1.501s0.735,1.426,0.896,2.318h-2.285
		c-0.112-0.434-0.288-0.813-0.53-1.139c-0.241-0.325-0.528-0.574-0.859-0.748c-0.331-0.173-0.689-0.26-1.073-0.26
		c-0.515,0-0.959,0.116-1.333,0.349c-0.375,0.231-0.665,0.562-0.869,0.989s-0.307,0.933-0.307,1.515v3.707
		c0,0.583,0.103,1.088,0.307,1.515c0.204,0.428,0.494,0.756,0.869,0.985c0.374,0.229,0.818,0.344,1.333,0.344
		c0.391,0,0.751-0.083,1.082-0.251c0.332-0.167,0.618-0.412,0.86-0.733c0.241-0.322,0.415-0.71,0.521-1.162h2.285
		c-0.167,0.893-0.469,1.665-0.905,2.318c-0.438,0.654-0.985,1.154-1.646,1.501c-0.659,0.347-1.392,0.521-2.197,0.521
		C146.108,48.446,145.619,48.446,145.619,48.446z"/>
	<path class="st1" d="M156.379,45.472c0,0.235,0.06,0.417,0.177,0.544c0.118,0.127,0.285,0.19,0.502,0.19h0.66v2.128h-1.208
		c-0.744,0-1.321-0.224-1.733-0.67c-0.412-0.445-0.618-1.074-0.618-1.886V34.796h2.221V45.472z"/>
	<path class="st1" d="M159.938,47.707c-0.551-0.492-0.826-1.24-0.826-2.244c0-0.953,0.278-1.669,0.836-2.146
		c0.558-0.477,1.394-0.715,2.509-0.715h2.583l0.13,1.728h-2.703c-0.44,0-0.771,0.094-0.99,0.279s-0.33,0.471-0.33,0.854
		c0,0.403,0.143,0.702,0.428,0.897c0.285,0.194,0.716,0.292,1.292,0.292c0.706,0,1.23-0.077,1.574-0.232
		c0.345-0.154,0.517-0.396,0.517-0.725l0.194,1.375c-0.105,0.304-0.289,0.558-0.553,0.763c-0.263,0.204-0.58,0.357-0.952,0.46
		c-0.372,0.102-0.777,0.153-1.218,0.153C161.32,48.446,160.49,48.2,159.938,47.707z M164.957,42.192c0-0.539-0.16-0.957-0.479-1.255
		c-0.319-0.297-0.771-0.445-1.353-0.445c-0.372,0-0.737,0.059-1.097,0.176c-0.359,0.118-0.682,0.282-0.966,0.493l-1.478-1.245
		c0.378-0.44,0.873-0.782,1.486-1.027c0.613-0.244,1.295-0.367,2.045-0.367c0.817,0,1.518,0.142,2.1,0.423
		c0.582,0.282,1.026,0.691,1.333,1.227c0.307,0.536,0.46,1.183,0.46,1.938v6.198h-2.053V42.192z"/>
	<path class="st1" d="M172.39,48.446c0,0-0.26-0.055-0.78-0.163s-1.009-0.268-1.464-0.479c-0.455-0.21-0.865-0.468-1.231-0.771
		l1.348-1.672c0.489,0.347,0.99,0.61,1.501,0.789c0.511,0.181,1.008,0.27,1.491,0.27c0.675,0,1.188-0.091,1.538-0.273
		c0.35-0.183,0.524-0.448,0.524-0.795c0-0.267-0.086-0.466-0.26-0.6c-0.174-0.133-0.392-0.224-0.655-0.273
		c-0.263-0.05-0.633-0.097-1.11-0.14c-0.08-0.006-0.164-0.013-0.251-0.019s-0.17-0.016-0.251-0.028c-0.024,0-0.05-0.001-0.074-0.004
		s-0.05-0.005-0.074-0.005c-0.675-0.074-1.229-0.178-1.663-0.312c-0.434-0.133-0.798-0.389-1.092-0.767
		c-0.295-0.378-0.441-0.92-0.441-1.626c0-0.663,0.146-1.222,0.441-1.678c0.294-0.455,0.727-0.799,1.296-1.031
		c0.57-0.232,1.271-0.349,2.101-0.349c0.495,0,0.979,0.049,1.449,0.145s0.922,0.235,1.352,0.418c0.431,0.183,0.838,0.41,1.223,0.684
		l-1.329,1.616c-0.452-0.272-0.909-0.479-1.37-0.622c-0.462-0.143-0.909-0.214-1.343-0.214c-0.583,0-1.025,0.083-1.329,0.251
		c-0.304,0.167-0.455,0.415-0.455,0.743c0,0.211,0.083,0.372,0.251,0.483c0.167,0.111,0.376,0.188,0.627,0.228
		s0.614,0.082,1.092,0.125c0.05,0.007,0.098,0.011,0.144,0.015c0.047,0.003,0.095,0.008,0.145,0.014c0.019,0,0.04,0,0.064,0
		c0.025,0,0.05,0.003,0.075,0.009c0.712,0.068,1.304,0.171,1.774,0.307c0.471,0.137,0.87,0.408,1.198,0.813
		c0.329,0.405,0.493,0.996,0.493,1.771c0,0.681-0.155,1.256-0.465,1.724s-0.77,0.82-1.38,1.059c-0.61,0.239-1.358,0.358-2.244,0.358
		C172.678,48.446,172.39,48.446,172.39,48.446z"/>
	<path class="st1" d="M182.258,48.446c0,0-0.26-0.055-0.78-0.163s-1.009-0.268-1.464-0.479c-0.455-0.21-0.865-0.468-1.231-0.771
		l1.348-1.672c0.489,0.347,0.99,0.61,1.501,0.789c0.511,0.181,1.008,0.27,1.491,0.27c0.675,0,1.188-0.091,1.538-0.273
		c0.35-0.183,0.524-0.448,0.524-0.795c0-0.267-0.086-0.466-0.26-0.6c-0.174-0.133-0.392-0.224-0.655-0.273
		c-0.263-0.05-0.633-0.097-1.11-0.14c-0.08-0.006-0.164-0.013-0.251-0.019s-0.17-0.016-0.251-0.028c-0.024,0-0.05-0.001-0.074-0.004
		s-0.05-0.005-0.074-0.005c-0.675-0.074-1.229-0.178-1.663-0.312c-0.434-0.133-0.798-0.389-1.092-0.767
		c-0.295-0.378-0.441-0.92-0.441-1.626c0-0.663,0.146-1.222,0.441-1.678c0.294-0.455,0.727-0.799,1.296-1.031
		c0.57-0.232,1.271-0.349,2.101-0.349c0.495,0,0.979,0.049,1.449,0.145s0.922,0.235,1.352,0.418c0.431,0.183,0.838,0.41,1.223,0.684
		l-1.329,1.616c-0.452-0.272-0.909-0.479-1.37-0.622c-0.462-0.143-0.909-0.214-1.343-0.214c-0.583,0-1.025,0.083-1.329,0.251
		c-0.304,0.167-0.455,0.415-0.455,0.743c0,0.211,0.083,0.372,0.251,0.483c0.167,0.111,0.376,0.188,0.627,0.228
		s0.614,0.082,1.092,0.125c0.05,0.007,0.098,0.011,0.144,0.015c0.047,0.003,0.095,0.008,0.145,0.014c0.019,0,0.04,0,0.064,0
		c0.025,0,0.05,0.003,0.075,0.009c0.712,0.068,1.304,0.171,1.774,0.307c0.471,0.137,0.87,0.408,1.198,0.813
		c0.329,0.405,0.493,0.996,0.493,1.771c0,0.681-0.155,1.256-0.465,1.724s-0.77,0.82-1.38,1.059c-0.61,0.239-1.358,0.358-2.244,0.358
		C182.546,48.446,182.258,48.446,182.258,48.446z"/>
	<path class="st1" d="M196.178,40.287l3.216-5.491h2.406l-4.47,7.471l-3.53,6.04h-2.407L196.178,40.287z M196.206,42.573
		l-0.27-0.455l-4.433-7.322h2.407l3.141,5.315l0.334,0.548l4.619,7.647h-2.407L196.206,42.573z"/>
	<path class="st1" d="M206.93,34.796h2.221v13.511h-2.221V34.796z M207.85,34.796h7.944v2.128h-7.944V34.796z M207.85,40.538h6.922
		v2.119h-6.922V40.538z M207.85,46.178h7.944v2.128h-7.944V46.178z"/>
	<path class="st1" d="M220.719,42.982l1.208,1.747l-2.342,3.577h-2.397L220.719,42.982z M220.979,44.116l-3.643-5.455h2.453
		l2.546,4.107l3.717,5.538h-2.443L220.979,44.116z M221.499,42.081l1.951-3.42h2.453l-3.262,5.204L221.499,42.081z"/>
	<path class="st1" d="M228.319,47.707c-0.551-0.492-0.826-1.24-0.826-2.244c0-0.953,0.278-1.669,0.836-2.146
		c0.558-0.477,1.394-0.715,2.509-0.715h2.583l0.13,1.728h-2.703c-0.44,0-0.771,0.094-0.99,0.279s-0.33,0.471-0.33,0.854
		c0,0.403,0.143,0.702,0.428,0.897c0.285,0.194,0.716,0.292,1.292,0.292c0.706,0,1.23-0.077,1.574-0.232
		c0.345-0.154,0.517-0.396,0.517-0.725l0.194,1.375c-0.105,0.304-0.289,0.558-0.553,0.763c-0.263,0.204-0.58,0.357-0.952,0.46
		c-0.372,0.102-0.777,0.153-1.218,0.153C229.701,48.446,228.871,48.2,228.319,47.707z M233.338,42.192
		c0-0.539-0.16-0.957-0.479-1.255c-0.319-0.297-0.771-0.445-1.353-0.445c-0.372,0-0.737,0.059-1.097,0.176
		c-0.359,0.118-0.682,0.282-0.966,0.493l-1.478-1.245c0.378-0.44,0.873-0.782,1.486-1.027c0.613-0.244,1.295-0.367,2.045-0.367
		c0.817,0,1.518,0.142,2.1,0.423c0.582,0.282,1.026,0.691,1.333,1.227c0.307,0.536,0.46,1.183,0.46,1.938v6.198h-2.053V42.192z"/>
	<path class="st1" d="M238.086,38.661h2.221v9.646h-2.221V38.661z M243.782,42.601c0-0.626-0.153-1.107-0.46-1.445
		s-0.742-0.507-1.306-0.507c-0.545,0-0.966,0.147-1.264,0.441c-0.297,0.295-0.446,0.711-0.446,1.25l-0.194-1.998
		c0.291-0.588,0.662-1.039,1.114-1.352s0.97-0.47,1.552-0.47c0.676,0,1.255,0.158,1.738,0.475c0.483,0.315,0.85,0.779,1.101,1.389
		c0.251,0.61,0.377,1.347,0.377,2.207v5.715h-2.212V42.601z M249.469,42.601c0-0.626-0.154-1.107-0.464-1.445
		c-0.311-0.338-0.75-0.507-1.32-0.507c-0.538,0-0.955,0.163-1.249,0.488c-0.295,0.325-0.441,0.788-0.441,1.39l-0.428-2.045
		c0.304-0.625,0.701-1.108,1.194-1.449c0.492-0.341,1.039-0.512,1.64-0.512c0.694,0,1.287,0.158,1.779,0.475
		c0.493,0.315,0.867,0.779,1.125,1.389c0.257,0.61,0.386,1.347,0.386,2.207v5.715h-2.222V42.601z"/>
	<path class="st1" d="M254.319,34.796h2.211v2.221h-2.211V34.796z M254.319,38.661h2.211v9.646h-2.211V38.661z"/>
	<path class="st1" d="M259.522,47.707c-0.551-0.492-0.826-1.24-0.826-2.244c0-0.953,0.278-1.669,0.836-2.146
		c0.558-0.477,1.394-0.715,2.509-0.715h2.583l0.13,1.728h-2.703c-0.44,0-0.771,0.094-0.99,0.279s-0.33,0.471-0.33,0.854
		c0,0.403,0.143,0.702,0.428,0.897c0.285,0.194,0.716,0.292,1.292,0.292c0.706,0,1.23-0.077,1.574-0.232
		c0.345-0.154,0.517-0.396,0.517-0.725l0.194,1.375c-0.105,0.304-0.289,0.558-0.553,0.763c-0.263,0.204-0.58,0.357-0.952,0.46
		c-0.372,0.102-0.777,0.153-1.218,0.153C260.904,48.446,260.074,48.2,259.522,47.707z M264.541,42.192
		c0-0.539-0.16-0.957-0.479-1.255c-0.319-0.297-0.771-0.445-1.353-0.445c-0.372,0-0.737,0.059-1.097,0.176
		c-0.359,0.118-0.682,0.282-0.966,0.493l-1.478-1.245c0.378-0.44,0.873-0.782,1.486-1.027c0.613-0.244,1.295-0.367,2.045-0.367
		c0.817,0,1.518,0.142,2.1,0.423c0.582,0.282,1.026,0.691,1.333,1.227c0.307,0.536,0.46,1.183,0.46,1.938v6.198h-2.053V42.192z"/>
	<path class="st1" d="M269.289,38.661h2.221v9.646h-2.221V38.661z M275.004,42.462c0-0.576-0.155-1.022-0.465-1.338
		c-0.31-0.316-0.749-0.475-1.319-0.475c-0.545,0-0.966,0.147-1.264,0.441c-0.297,0.295-0.446,0.711-0.446,1.25l-0.194-1.998
		c0.291-0.595,0.658-1.046,1.101-1.356c0.443-0.31,0.965-0.465,1.565-0.465c1.028,0,1.826,0.343,2.394,1.027
		c0.566,0.685,0.85,1.652,0.85,2.903v5.854h-2.221V42.462z"/>
	<path class="st1" d="M279.176,38.661h4.534v1.942h-4.534V38.661z M280.737,47.707c-0.378-0.431-0.567-1.066-0.567-1.909v-9.942
		h2.221v9.636c0,0.235,0.047,0.417,0.14,0.544s0.229,0.19,0.409,0.19h0.771v2.128h-1.188
		C281.709,48.353,281.114,48.137,280.737,47.707z"/>
	<path class="st1" d="M286.062,34.796h2.211v2.221h-2.211V34.796z M286.062,38.661h2.211v9.646h-2.211V38.661z"/>
	<path class="st1" d="M292.496,47.953c-0.61-0.328-1.075-0.807-1.394-1.436c-0.319-0.628-0.479-1.386-0.479-2.271v-1.57
		c0-0.874,0.159-1.622,0.479-2.244c0.318-0.623,0.783-1.097,1.394-1.422s1.343-0.488,2.197-0.488c0.855,0,1.588,0.163,2.198,0.488
		s1.074,0.799,1.394,1.422c0.319,0.622,0.479,1.37,0.479,2.244v1.598c0,0.88-0.159,1.631-0.479,2.254
		c-0.319,0.622-0.783,1.098-1.394,1.426c-0.61,0.329-1.343,0.493-2.198,0.493C293.839,48.446,293.106,48.282,292.496,47.953z
		 M296.06,45.784c0.322-0.356,0.483-0.86,0.483-1.511v-1.598c0-0.645-0.161-1.144-0.483-1.496c-0.322-0.354-0.777-0.53-1.366-0.53
		c-0.588,0-1.043,0.177-1.365,0.53c-0.322,0.353-0.483,0.852-0.483,1.496v1.598c0,0.65,0.159,1.154,0.479,1.511
		c0.319,0.355,0.776,0.534,1.37,0.534C295.282,46.318,295.737,46.139,296.06,45.784z"/>
	<path class="st1" d="M301.272,38.661h2.221v9.646h-2.221V38.661z M306.987,42.462c0-0.576-0.155-1.022-0.465-1.338
		c-0.31-0.316-0.749-0.475-1.319-0.475c-0.545,0-0.966,0.147-1.264,0.441c-0.297,0.295-0.446,0.711-0.446,1.25l-0.194-1.998
		c0.291-0.595,0.658-1.046,1.101-1.356c0.443-0.31,0.965-0.465,1.565-0.465c1.028,0,1.826,0.343,2.394,1.027
		c0.566,0.685,0.85,1.652,0.85,2.903v5.854h-2.221V42.462z"/>
</g>
</svg>