<!-- Generator: Adobe Illustrator 22.1.0, SVG Export Plug-In  -->
<svg version="1.1"
	 xmlns="http://www.w3.org/2000/svg" xmlns:xlink="http://www.w3.org/1999/xlink" xmlns:a="http://ns.adobe.com/AdobeSVGViewerExtensions/3.0/"
	 x="0px" y="0px" width="382.072px" height="80.513px" viewBox="0 0 382.072 80.513"
	 style="enable-background:new 0 0 382.072 80.513;" xml:space="preserve">
<style type="text/css">
	.st0{fill:#1B1464;}
	.st1{fill:#FFFFFF;}
</style>
<defs>
</defs>
<rect class="st0" width="382.072" height="80.513"/>
<g>
	<path class="st1" d="M90.607,35.272c0,0-0.299-0.063-0.896-0.19c-0.599-0.127-1.159-0.314-1.683-0.563s-1.002-0.555-1.436-0.92
		l1.181-1.774c0.521,0.439,1.104,0.772,1.751,0.998c0.647,0.227,1.334,0.34,2.059,0.34c0.904,0,1.605-0.161,2.104-0.483
		s0.748-0.777,0.748-1.366v-0.009c0-0.415-0.111-0.745-0.334-0.99c-0.224-0.244-0.515-0.424-0.874-0.539
		c-0.359-0.114-0.821-0.221-1.385-0.32c-0.019-0.006-0.037-0.009-0.056-0.009s-0.037-0.003-0.056-0.01l-0.167-0.027
		c-0.904-0.149-1.648-0.325-2.23-0.53c-0.582-0.204-1.078-0.569-1.486-1.097c-0.409-0.526-0.613-1.272-0.613-2.239v-0.009
		c0-0.855,0.191-1.586,0.576-2.193c0.384-0.606,0.941-1.068,1.672-1.385c0.731-0.315,1.611-0.474,2.64-0.474
		c0.483,0,0.968,0.055,1.454,0.163s0.963,0.266,1.431,0.474s0.922,0.466,1.361,0.775l-1.078,1.831
		c-0.52-0.372-1.05-0.653-1.589-0.846c-0.539-0.191-1.065-0.288-1.579-0.288c-0.855,0-1.517,0.156-1.984,0.47
		c-0.468,0.313-0.701,0.754-0.701,1.324v0.009c0,0.428,0.121,0.766,0.362,1.013c0.241,0.248,0.544,0.43,0.906,0.544
		s0.868,0.236,1.519,0.367c0.025,0.006,0.048,0.011,0.07,0.014c0.021,0.003,0.045,0.008,0.069,0.014
		c0.031,0.007,0.065,0.013,0.103,0.019c0.037,0.007,0.071,0.013,0.102,0.019c0.837,0.168,1.535,0.369,2.096,0.604
		s1.03,0.613,1.408,1.134s0.566,1.229,0.566,2.128v0.019c0,0.842-0.198,1.563-0.595,2.165c-0.396,0.601-0.973,1.058-1.729,1.37
		c-0.756,0.313-1.666,0.47-2.731,0.47C90.933,35.272,90.607,35.272,90.607,35.272z"/>
	<path class="st1" d="M101.638,35.272c0,0-0.322-0.168-0.967-0.502c-0.645-0.335-1.137-0.825-1.478-1.473s-0.511-1.43-0.511-2.347
		v-1.087c0-0.954,0.162-1.769,0.487-2.444c0.325-0.675,0.8-1.189,1.422-1.542c0.623-0.354,1.371-0.53,2.244-0.53
		c0.824,0,1.528,0.206,2.114,0.618c0.585,0.412,1.031,1.009,1.338,1.789s0.46,1.723,0.46,2.825v0.632h-6.551v-1.627h4.488
		l-0.01-0.102c-0.062-0.676-0.251-1.199-0.566-1.57c-0.316-0.372-0.74-0.558-1.273-0.558c-0.669,0-1.187,0.209-1.552,0.627
		s-0.548,1.012-0.548,1.779v1.227c0,0.731,0.198,1.293,0.595,1.687s0.953,0.59,1.672,0.59c0.366,0,0.727-0.069,1.083-0.209
		c0.356-0.139,0.677-0.333,0.962-0.58l1.449,1.356c-0.489,0.458-1.039,0.813-1.649,1.063s-1.225,0.377-1.845,0.377
		C102.093,35.272,101.638,35.272,101.638,35.272z"/>
	<path class="st1" d="M109.163,25.487h2.221v9.646h-2.221V25.487z M114.878,29.288c0-0.576-0.155-1.022-0.465-1.338
		c-0.31-0.316-0.749-0.475-1.319-0.475c-0.545,0-0.966,0.147-1.264,0.441c-0.297,0.295-0.446,0.711-0.446,1.25l-0.194-1.998
		c0.291-0.595,0.658-1.046,1.101-1.356c0.443-0.31,0.965-0.465,1.565-0.465c1.028,0,1.826,0.343,2.394,1.027
		c0.566,0.685,0.85,1.652,0.85,2.903v5.854h-2.221V29.288z"/>
	<path class="st1" d="M119.729,21.622h2.211v2.221h-2.211V21.622z M119.729,25.487h2.211v9.646h-2.211V25.487z"/>
	<path class="st1" d="M126.164,34.779c-0.61-0.328-1.075-0.807-1.394-1.436c-0.319-0.628-0.479-1.386-0.479-2.271v-1.57
		c0-0.874,0.159-1.622,0.479-2.244c0.318-0.623,0.783-1.097,1.394-1.422s1.343-0.488,2.197-0.488c0.855,0,1.588,0.163,2.198,0.488
		s1.074,0.799,1.394,1.422c0.319,0.622,0.479,1.37,0.479,2.244v1.598c0,0.88-0.159,1.631-0.479,2.254
		c-0.319,0.622-0.783,1.098-1.394,1.426c-0.61,0.329-1.343,0.493-2.198,0.493C127.507,35.272,126.774,35.108,126.164,34.779z
		 M129.728,32.61c0.322-0.356,0.483-0.86,0.483-1.511v-1.598c0-0.645-0.161-1.144-0.483-1.496c-0.322-0.354-0.777-0.53-1.366-0.53
		c-0.588,0-1.043,0.177-1.365,0.53c-0.322,0.353-0.483,0.852-0.483,1.496v1.598c0,0.65,0.159,1.154,0.479,1.511
		c0.319,0.355,0.776,0.534,1.37,0.534C128.95,33.144,129.405,32.965,129.728,32.61z"/>
	<path class="st1" d="M134.94,25.487h2.314v9.646h-2.314V25.487z M139.764,27.601c-0.217-0.084-0.468-0.126-0.753-0.126
		c-0.558,0-0.989,0.166-1.296,0.498c-0.307,0.331-0.46,0.791-0.46,1.38l-0.195-2.185c0.278-0.575,0.643-1.023,1.092-1.342
		c0.449-0.319,0.943-0.479,1.481-0.479c0.422,0,0.803,0.064,1.144,0.191s0.638,0.314,0.892,0.562l-1.356,1.868
		C140.163,27.807,139.98,27.685,139.764,27.601z"/>
	<path class="st1" d="M149.678,35.272c0,0-0.299-0.063-0.896-0.19c-0.599-0.127-1.159-0.314-1.683-0.563s-1.002-0.555-1.436-0.92
		l1.181-1.774c0.521,0.439,1.104,0.772,1.751,0.998c0.647,0.227,1.334,0.34,2.059,0.34c0.904,0,1.605-0.161,2.104-0.483
		s0.748-0.777,0.748-1.366v-0.009c0-0.415-0.111-0.745-0.334-0.99c-0.224-0.244-0.515-0.424-0.874-0.539
		c-0.359-0.114-0.821-0.221-1.385-0.32c-0.019-0.006-0.037-0.009-0.056-0.009s-0.037-0.003-0.056-0.01l-0.167-0.027
		c-0.904-0.149-1.648-0.325-2.23-0.53c-0.582-0.204-1.078-0.569-1.486-1.097c-0.409-0.526-0.613-1.272-0.613-2.239v-0.009
		c0-0.855,0.191-1.586,0.576-2.193c0.384-0.606,0.941-1.068,1.672-1.385c0.731-0.315,1.611-0.474,2.64-0.474
		c0.483,0,0.968,0.055,1.454,0.163s0.963,0.266,1.431,0.474s0.922,0.466,1.361,0.775l-1.078,1.831
		c-0.52-0.372-1.05-0.653-1.589-0.846c-0.539-0.191-1.065-0.288-1.579-0.288c-0.855,0-1.517,0.156-1.984,0.47
		c-0.468,0.313-0.701,0.754-0.701,1.324v0.009c0,0.428,0.121,0.766,0.362,1.013c0.241,0.248,0.544,0.43,0.906,0.544
		s0.868,0.236,1.519,0.367c0.025,0.006,0.048,0.011,0.07,0.014c0.021,0.003,0.045,0.008,0.069,0.014
		c0.031,0.007,0.065,0.013,0.103,0.019c0.037,0.007,0.071,0.013,0.102,0.019c0.837,0.168,1.535,0.369,2.096,0.604
		s1.03,0.613,1.408,1.134s0.566,1.229,0.566,2.128v0.019c0,0.842-0.198,1.563-0.595,2.165c-0.396,0.601-0.973,1.058-1.729,1.37
		c-0.756,0.313-1.666,0.47-2.731,0.47C150.003,35.272,149.678,35.272,149.678,35.272z"/>
	<path class="st1" d="M160.671,35.272c0,0-0.319-0.169-0.957-0.507c-0.639-0.338-1.125-0.83-1.459-1.478
		c-0.335-0.647-0.502-1.429-0.502-2.346v-1.311c0-0.904,0.167-1.677,0.502-2.318c0.334-0.642,0.82-1.129,1.459-1.464
		c0.638-0.334,1.405-0.502,2.304-0.502c0.515,0,0.999,0.061,1.454,0.182c0.456,0.121,0.864,0.296,1.227,0.525
		c0.363,0.229,0.665,0.508,0.906,0.836l-1.505,1.412c-0.254-0.266-0.552-0.471-0.893-0.613s-0.696-0.214-1.068-0.214
		c-0.688,0-1.221,0.188-1.599,0.563s-0.566,0.906-0.566,1.594v1.311c0,0.706,0.188,1.249,0.563,1.631
		c0.374,0.381,0.908,0.571,1.603,0.571c0.378,0,0.737-0.077,1.078-0.232s0.635-0.375,0.883-0.66l1.505,1.506
		c-0.248,0.322-0.553,0.596-0.915,0.822c-0.362,0.226-0.771,0.398-1.227,0.516s-0.938,0.177-1.445,0.177
		C161.119,35.272,160.671,35.272,160.671,35.272z"/>
	<path class="st1" d="M167.509,21.622h2.221v13.511h-2.221V21.622z M173.224,29.288c0-0.576-0.155-1.022-0.465-1.338
		c-0.31-0.316-0.749-0.475-1.319-0.475c-0.545,0-0.966,0.146-1.264,0.438c-0.297,0.291-0.446,0.703-0.446,1.235l-0.194-1.998
		c0.291-0.582,0.658-1.027,1.101-1.338c0.443-0.31,0.965-0.465,1.565-0.465c1.028,0,1.826,0.343,2.394,1.027
		c0.566,0.685,0.85,1.652,0.85,2.903v5.854h-2.221V29.288z"/>
	<path class="st1" d="M179.733,34.779c-0.61-0.328-1.075-0.807-1.394-1.436c-0.319-0.628-0.479-1.386-0.479-2.271v-1.57
		c0-0.874,0.159-1.622,0.479-2.244c0.318-0.623,0.783-1.097,1.394-1.422s1.343-0.488,2.197-0.488c0.855,0,1.588,0.163,2.198,0.488
		s1.074,0.799,1.394,1.422c0.319,0.622,0.479,1.37,0.479,2.244v1.598c0,0.88-0.159,1.631-0.479,2.254
		c-0.319,0.622-0.783,1.098-1.394,1.426c-0.61,0.329-1.343,0.493-2.198,0.493C181.076,35.272,180.344,35.108,179.733,34.779z
		 M183.297,32.61c0.322-0.356,0.483-0.86,0.483-1.511v-1.598c0-0.645-0.161-1.144-0.483-1.496c-0.322-0.354-0.777-0.53-1.366-0.53
		c-0.588,0-1.043,0.177-1.365,0.53c-0.322,0.353-0.483,0.852-0.483,1.496v1.598c0,0.65,0.159,1.154,0.479,1.511
		c0.319,0.355,0.776,0.534,1.37,0.534C182.52,33.144,182.975,32.965,183.297,32.61z"/>
	<path class="st1" d="M190.104,34.779c-0.61-0.328-1.075-0.807-1.394-1.436c-0.319-0.628-0.479-1.386-0.479-2.271v-1.57
		c0-0.874,0.159-1.622,0.479-2.244c0.318-0.623,0.783-1.097,1.394-1.422s1.343-0.488,2.197-0.488c0.855,0,1.588,0.163,2.198,0.488
		s1.074,0.799,1.394,1.422c0.319,0.622,0.479,1.37,0.479,2.244v1.598c0,0.88-0.159,1.631-0.479,2.254
		c-0.319,0.622-0.783,1.098-1.394,1.426c-0.61,0.329-1.343,0.493-2.198,0.493C191.446,35.272,190.714,35.108,190.104,34.779z
		 M193.667,32.61c0.322-0.356,0.483-0.86,0.483-1.511v-1.598c0-0.645-0.161-1.144-0.483-1.496c-0.322-0.354-0.777-0.53-1.366-0.53
		c-0.588,0-1.043,0.177-1.365,0.53c-0.322,0.353-0.483,0.852-0.483,1.496v1.598c0,0.65,0.159,1.154,0.479,1.511
		c0.319,0.355,0.776,0.534,1.37,0.534C192.89,33.144,193.345,32.965,193.667,32.61z"/>
	<path class="st1" d="M201.101,32.298c0,0.235,0.06,0.417,0.177,0.544c0.118,0.127,0.285,0.19,0.502,0.19h0.66v2.128h-1.208
		c-0.744,0-1.321-0.224-1.733-0.67c-0.412-0.445-0.618-1.074-0.618-1.886V21.622h2.221V32.298z"/>
	<path class="st1" d="M210.876,35.272c0,0-0.361-0.203-1.083-0.609c-0.722-0.405-1.276-0.986-1.663-1.742
		c-0.388-0.755-0.581-1.65-0.581-2.686v-3.707c0-1.034,0.193-1.93,0.581-2.686c0.387-0.756,0.941-1.338,1.663-1.747
		s1.572-0.613,2.551-0.613c0.812,0,1.547,0.174,2.207,0.521c0.659,0.347,1.208,0.848,1.645,1.501s0.735,1.426,0.896,2.318h-2.285
		c-0.112-0.434-0.288-0.813-0.53-1.139c-0.241-0.325-0.528-0.574-0.859-0.748c-0.331-0.173-0.689-0.26-1.073-0.26
		c-0.515,0-0.959,0.116-1.333,0.349c-0.375,0.231-0.665,0.562-0.869,0.989s-0.307,0.933-0.307,1.515v3.707
		c0,0.583,0.103,1.088,0.307,1.515c0.204,0.428,0.494,0.756,0.869,0.985c0.374,0.229,0.818,0.344,1.333,0.344
		c0.391,0,0.751-0.083,1.082-0.251c0.332-0.167,0.618-0.412,0.86-0.733c0.241-0.322,0.415-0.71,0.521-1.162h2.285
		c-0.167,0.893-0.469,1.665-0.905,2.318c-0.438,0.654-0.985,1.154-1.646,1.501c-0.659,0.347-1.392,0.521-2.197,0.521
		C211.365,35.272,210.876,35.272,210.876,35.272z"/>
	<path class="st1" d="M222.092,35.272c0,0-0.322-0.168-0.967-0.502c-0.645-0.335-1.137-0.825-1.478-1.473s-0.511-1.43-0.511-2.347
		v-1.087c0-0.954,0.162-1.769,0.487-2.444c0.325-0.675,0.8-1.189,1.422-1.542c0.623-0.354,1.371-0.53,2.244-0.53
		c0.824,0,1.528,0.206,2.114,0.618c0.585,0.412,1.031,1.009,1.338,1.789s0.46,1.723,0.46,2.825v0.632h-6.551v-1.627h4.488
		l-0.01-0.102c-0.062-0.676-0.251-1.199-0.566-1.57c-0.316-0.372-0.74-0.558-1.273-0.558c-0.669,0-1.187,0.209-1.552,0.627
		s-0.548,1.012-0.548,1.779v1.227c0,0.731,0.198,1.293,0.595,1.687s0.953,0.59,1.672,0.59c0.366,0,0.727-0.069,1.083-0.209
		c0.356-0.139,0.677-0.333,0.962-0.58l1.449,1.356c-0.489,0.458-1.039,0.813-1.649,1.063s-1.225,0.377-1.845,0.377
		C222.547,35.272,222.092,35.272,222.092,35.272z"/>
	<path class="st1" d="M229.618,25.487h2.314v9.646h-2.314V25.487z M234.441,27.601c-0.217-0.084-0.468-0.126-0.753-0.126
		c-0.558,0-0.989,0.166-1.296,0.498c-0.307,0.331-0.46,0.791-0.46,1.38l-0.195-2.185c0.278-0.575,0.643-1.023,1.092-1.342
		c0.449-0.319,0.943-0.479,1.481-0.479c0.422,0,0.803,0.064,1.144,0.191s0.638,0.314,0.892,0.562l-1.356,1.868
		C234.841,27.807,234.658,27.685,234.441,27.601z"/>
	<path class="st1" d="M236.996,25.487h4.534v1.942h-4.534V25.487z M238.558,34.533c-0.378-0.431-0.567-1.066-0.567-1.909v-9.942
		h2.221v9.636c0,0.235,0.047,0.417,0.14,0.544s0.229,0.19,0.409,0.19h0.771v2.128h-1.188
		C239.529,35.179,238.935,34.963,238.558,34.533z"/>
	<path class="st1" d="M243.882,21.622h2.211v2.221h-2.211V21.622z M243.882,25.487h2.211v9.646h-2.211V25.487z"/>
	<path class="st1" d="M247.979,25.487h5.009v1.896h-5.009V25.487z M249.002,24.177c0-0.855,0.196-1.495,0.59-1.919
		c0.394-0.425,0.999-0.637,1.816-0.637h1.58v2.035h-1.218c-0.18,0-0.315,0.068-0.408,0.204c-0.094,0.137-0.14,0.313-0.14,0.529
		v10.742h-2.221V24.177z"/>
	<path class="st1" d="M254.968,21.622h2.211v2.221h-2.211V21.622z M254.968,25.487h2.211v9.646h-2.211V25.487z"/>
	<path class="st1" d="M262.448,35.272c0,0-0.319-0.169-0.957-0.507c-0.639-0.338-1.125-0.83-1.459-1.478
		c-0.335-0.647-0.502-1.429-0.502-2.346v-1.311c0-0.904,0.167-1.677,0.502-2.318c0.334-0.642,0.82-1.129,1.459-1.464
		c0.638-0.334,1.405-0.502,2.304-0.502c0.515,0,0.999,0.061,1.454,0.182c0.456,0.121,0.864,0.296,1.227,0.525
		c0.363,0.229,0.665,0.508,0.906,0.836l-1.505,1.412c-0.254-0.266-0.552-0.471-0.893-0.613s-0.696-0.214-1.068-0.214
		c-0.688,0-1.221,0.188-1.599,0.563s-0.566,0.906-0.566,1.594v1.311c0,0.706,0.188,1.249,0.563,1.631
		c0.374,0.381,0.908,0.571,1.603,0.571c0.378,0,0.737-0.077,1.078-0.232s0.635-0.375,0.883-0.66l1.505,1.506
		c-0.248,0.322-0.553,0.596-0.915,0.822c-0.362,0.226-0.771,0.398-1.227,0.516s-0.938,0.177-1.445,0.177
		C262.896,35.272,262.448,35.272,262.448,35.272z"/>
	<path class="st1" d="M269.648,34.533c-0.551-0.492-0.826-1.24-0.826-2.244c0-0.953,0.278-1.669,0.836-2.146
		c0.558-0.477,1.394-0.715,2.509-0.715h2.583l0.13,1.728h-2.703c-0.44,0-0.771,0.094-0.99,0.279s-0.33,0.471-0.33,0.854
		c0,0.403,0.143,0.702,0.428,0.897c0.285,0.194,0.716,0.292,1.292,0.292c0.706,0,1.23-0.077,1.574-0.232
		c0.345-0.154,0.517-0.396,0.517-0.725l0.194,1.375c-0.105,0.304-0.289,0.558-0.553,0.763c-0.263,0.204-0.58,0.357-0.952,0.46
		c-0.372,0.102-0.777,0.153-1.218,0.153C271.03,35.272,270.2,35.026,269.648,34.533z M274.667,29.018
		c0-0.539-0.16-0.957-0.479-1.255c-0.319-0.297-0.771-0.445-1.353-0.445c-0.372,0-0.737,0.059-1.097,0.176
		c-0.359,0.118-0.682,0.282-0.966,0.493l-1.478-1.245c0.378-0.44,0.873-0.782,1.486-1.027c0.613-0.244,1.295-0.367,2.045-0.367
		c0.817,0,1.518,0.142,2.1,0.423c0.582,0.282,1.026,0.691,1.333,1.227c0.307,0.536,0.46,1.183,0.46,1.938v6.198h-2.053V29.018z"/>
	<path class="st1" d="M278.672,25.487h4.534v1.942h-4.534V25.487z M280.233,34.533c-0.378-0.431-0.567-1.066-0.567-1.909v-9.942
		h2.221v9.636c0,0.235,0.047,0.417,0.14,0.544s0.229,0.19,0.409,0.19h0.771v2.128h-1.188
		C281.205,35.179,280.61,34.963,280.233,34.533z"/>
	<path class="st1" d="M288.299,35.272c0,0-0.322-0.168-0.967-0.502c-0.645-0.335-1.137-0.825-1.478-1.473s-0.511-1.43-0.511-2.347
		v-1.087c0-0.954,0.162-1.769,0.487-2.444c0.325-0.675,0.8-1.189,1.422-1.542c0.623-0.354,1.371-0.53,2.244-0.53
		c0.824,0,1.528,0.206,2.114,0.618c0.585,0.412,1.031,1.009,1.338,1.789s0.46,1.723,0.46,2.825v0.632h-6.551v-1.627h4.488
		l-0.01-0.102c-0.062-0.676-0.251-1.199-0.566-1.57c-0.316-0.372-0.74-0.558-1.273-0.558c-0.669,0-1.187,0.209-1.552,0.627
		s-0.548,1.012-0.548,1.779v1.227c0,0.731,0.198,1.293,0.595,1.687s0.953,0.59,1.672,0.59c0.366,0,0.727-0.069,1.083-0.209
		c0.356-0.139,0.677-0.333,0.962-0.58l1.449,1.356c-0.489,0.458-1.039,0.813-1.649,1.063s-1.225,0.377-1.845,0.377
		C288.754,35.272,288.299,35.272,288.299,35.272z"/>
	<path class="st1" d="M77.831,44.458h2.221v13.511h-2.221V44.458z M78.751,44.458h7.944v2.128h-7.944V44.458z M78.751,50.201h6.922
		v2.119h-6.922V50.201z M78.751,55.841h7.944v2.128h-7.944V55.841z"/>
	<path class="st1" d="M91.621,52.645l1.208,1.747l-2.342,3.577H88.09L91.621,52.645z M91.881,53.779l-3.643-5.455h2.453l2.546,4.107
		l3.717,5.538h-2.443L91.881,53.779z M92.401,51.744l1.951-3.42h2.453l-3.262,5.204L92.401,51.744z"/>
	<path class="st1" d="M99.221,57.37c-0.551-0.492-0.826-1.24-0.826-2.244c0-0.953,0.278-1.669,0.836-2.146
		c0.558-0.477,1.394-0.715,2.509-0.715h2.583l0.13,1.728h-2.703c-0.44,0-0.771,0.094-0.99,0.279s-0.33,0.471-0.33,0.854
		c0,0.403,0.143,0.702,0.428,0.897c0.285,0.194,0.716,0.292,1.292,0.292c0.706,0,1.23-0.077,1.574-0.232
		c0.345-0.154,0.517-0.396,0.517-0.725l0.194,1.375c-0.105,0.304-0.289,0.558-0.553,0.763c-0.263,0.204-0.58,0.357-0.952,0.46
		c-0.372,0.102-0.777,0.153-1.218,0.153C100.603,58.109,99.772,57.863,99.221,57.37z M104.239,51.855
		c0-0.539-0.16-0.957-0.479-1.255c-0.319-0.297-0.771-0.445-1.353-0.445c-0.372,0-0.737,0.059-1.097,0.176
		c-0.359,0.118-0.682,0.282-0.966,0.493l-1.478-1.245c0.378-0.44,0.873-0.782,1.486-1.027c0.613-0.244,1.295-0.367,2.045-0.367
		c0.817,0,1.518,0.142,2.1,0.423c0.582,0.282,1.026,0.691,1.333,1.227c0.307,0.536,0.46,1.183,0.46,1.938v6.198h-2.053V51.855z"/>
	<path class="st1" d="M108.987,48.324h2.221v9.646h-2.221V48.324z M114.684,52.264c0-0.626-0.153-1.107-0.46-1.445
		s-0.742-0.507-1.306-0.507c-0.545,0-0.966,0.147-1.264,0.441c-0.297,0.295-0.446,0.711-0.446,1.25l-0.194-1.998
		c0.291-0.588,0.662-1.039,1.114-1.352s0.97-0.47,1.552-0.47c0.676,0,1.255,0.158,1.738,0.475c0.483,0.315,0.85,0.779,1.101,1.389
		c0.251,0.61,0.377,1.347,0.377,2.207v5.715h-2.212V52.264z M120.37,52.264c0-0.626-0.154-1.107-0.464-1.445
		c-0.311-0.338-0.75-0.507-1.32-0.507c-0.538,0-0.955,0.163-1.249,0.488c-0.295,0.325-0.441,0.788-0.441,1.39l-0.428-2.045
		c0.304-0.625,0.701-1.108,1.194-1.449c0.492-0.341,1.039-0.512,1.64-0.512c0.694,0,1.287,0.158,1.779,0.475
		c0.493,0.315,0.867,0.779,1.125,1.389c0.257,0.61,0.386,1.347,0.386,2.207v5.715h-2.222V52.264z"/>
	<path class="st1" d="M125.221,44.458h2.211v2.221h-2.211V44.458z M125.221,48.324h2.211v9.646h-2.211V48.324z"/>
	<path class="st1" d="M130.062,48.324h2.221v9.646h-2.221V48.324z M135.776,52.124c0-0.576-0.155-1.022-0.465-1.338
		c-0.31-0.316-0.749-0.475-1.319-0.475c-0.545,0-0.966,0.147-1.264,0.441c-0.297,0.295-0.446,0.711-0.446,1.25l-0.194-1.998
		c0.291-0.595,0.658-1.046,1.101-1.356c0.443-0.31,0.965-0.465,1.565-0.465c1.028,0,1.826,0.343,2.394,1.027
		c0.566,0.685,0.85,1.652,0.85,2.903v5.854h-2.221V52.124z"/>
	<path class="st1" d="M141.055,57.37c-0.551-0.492-0.826-1.24-0.826-2.244c0-0.953,0.278-1.669,0.836-2.146
		c0.558-0.477,1.394-0.715,2.509-0.715h2.583l0.13,1.728h-2.703c-0.44,0-0.771,0.094-0.99,0.279s-0.33,0.471-0.33,0.854
		c0,0.403,0.143,0.702,0.428,0.897c0.285,0.194,0.716,0.292,1.292,0.292c0.706,0,1.23-0.077,1.574-0.232
		c0.345-0.154,0.517-0.396,0.517-0.725l0.194,1.375c-0.105,0.304-0.289,0.558-0.553,0.763c-0.263,0.204-0.58,0.357-0.952,0.46
		c-0.372,0.102-0.777,0.153-1.218,0.153C142.437,58.109,141.606,57.863,141.055,57.37z M146.073,51.855
		c0-0.539-0.16-0.957-0.479-1.255c-0.319-0.297-0.771-0.445-1.353-0.445c-0.372,0-0.737,0.059-1.097,0.176
		c-0.359,0.118-0.682,0.282-0.966,0.493l-1.478-1.245c0.378-0.44,0.873-0.782,1.486-1.027c0.613-0.244,1.295-0.367,2.045-0.367
		c0.817,0,1.518,0.142,2.1,0.423c0.582,0.282,1.026,0.691,1.333,1.227c0.307,0.536,0.46,1.183,0.46,1.938v6.198h-2.053V51.855z"/>
	<path class="st1" d="M150.077,48.324h4.534v1.942h-4.534V48.324z M151.639,57.37c-0.378-0.431-0.567-1.066-0.567-1.909v-9.942
		h2.221v9.636c0,0.235,0.047,0.417,0.14,0.544s0.229,0.19,0.409,0.19h0.771v2.128h-1.188C152.61,58.016,152.016,57.8,151.639,57.37z
		"/>
	<path class="st1" d="M156.963,44.458h2.211v2.221h-2.211V44.458z M156.963,48.324h2.211v9.646h-2.211V48.324z"/>
	<path class="st1" d="M163.397,57.616c-0.61-0.328-1.075-0.807-1.394-1.436c-0.319-0.628-0.479-1.386-0.479-2.271v-1.57
		c0-0.874,0.159-1.622,0.479-2.244c0.318-0.623,0.783-1.097,1.394-1.422s1.343-0.488,2.197-0.488c0.855,0,1.588,0.163,2.198,0.488
		s1.074,0.799,1.394,1.422c0.319,0.622,0.479,1.37,0.479,2.244v1.598c0,0.88-0.159,1.631-0.479,2.254
		c-0.319,0.622-0.783,1.098-1.394,1.426c-0.61,0.329-1.343,0.493-2.198,0.493C164.74,58.109,164.008,57.945,163.397,57.616z
		 M166.961,55.447c0.322-0.356,0.483-0.86,0.483-1.511v-1.598c0-0.645-0.161-1.144-0.483-1.496c-0.322-0.354-0.777-0.53-1.366-0.53
		c-0.588,0-1.043,0.177-1.365,0.53c-0.322,0.353-0.483,0.852-0.483,1.496v1.598c0,0.65,0.159,1.154,0.479,1.511
		c0.319,0.355,0.776,0.534,1.37,0.534C166.184,55.981,166.639,55.802,166.961,55.447z"/>
	<path class="st1" d="M172.174,48.324h2.221v9.646h-2.221V48.324z M177.889,52.124c0-0.576-0.155-1.022-0.465-1.338
		c-0.31-0.316-0.749-0.475-1.319-0.475c-0.545,0-0.966,0.147-1.264,0.441c-0.297,0.295-0.446,0.711-0.446,1.25l-0.194-1.998
		c0.291-0.595,0.658-1.046,1.101-1.356c0.443-0.31,0.965-0.465,1.565-0.465c1.028,0,1.826,0.343,2.394,1.027
		c0.566,0.685,0.85,1.652,0.85,2.903v5.854h-2.221V52.124z"/>
	<path class="st1" d="M183.836,56.859c-0.563-1.483-0.845-3.121-0.845-4.911s0.281-3.427,0.845-4.911
		c0.564-1.483,1.413-2.823,2.547-4.019l1.394,1.505c-0.893,0.998-1.559,2.113-1.998,3.346s-0.659,2.593-0.659,4.079
		c0,1.487,0.22,2.847,0.659,4.079c0.439,1.233,1.105,2.352,1.998,3.354l-1.394,1.496C185.249,59.682,184.4,58.342,183.836,56.859z"
		/>
	<path class="st1" d="M192.497,58.109c0,0-0.361-0.203-1.083-0.609c-0.722-0.405-1.276-0.986-1.663-1.742
		c-0.388-0.755-0.581-1.65-0.581-2.686v-3.707c0-1.034,0.193-1.93,0.581-2.686c0.387-0.756,0.941-1.338,1.663-1.747
		s1.572-0.613,2.551-0.613c0.812,0,1.547,0.174,2.207,0.521c0.659,0.347,1.208,0.848,1.645,1.501s0.735,1.426,0.896,2.318h-2.285
		c-0.112-0.434-0.288-0.813-0.53-1.139c-0.241-0.325-0.528-0.574-0.859-0.748c-0.331-0.173-0.689-0.26-1.073-0.26
		c-0.515,0-0.959,0.116-1.333,0.349c-0.375,0.231-0.665,0.562-0.869,0.989s-0.307,0.933-0.307,1.515v3.707
		c0,0.583,0.103,1.088,0.307,1.515c0.204,0.428,0.494,0.756,0.869,0.985c0.374,0.229,0.818,0.344,1.333,0.344
		c0.391,0,0.751-0.083,1.082-0.251c0.332-0.167,0.618-0.412,0.86-0.733c0.241-0.322,0.415-0.71,0.521-1.162h2.285
		c-0.167,0.893-0.469,1.665-0.905,2.318c-0.438,0.654-0.985,1.154-1.646,1.501c-0.659,0.347-1.392,0.521-2.197,0.521
		C192.986,58.109,192.497,58.109,192.497,58.109z"/>
	<path class="st1" d="M203.256,55.135c0,0.235,0.06,0.417,0.177,0.544c0.118,0.127,0.285,0.19,0.502,0.19h0.66v2.128h-1.208
		c-0.744,0-1.321-0.224-1.733-0.67c-0.412-0.445-0.618-1.074-0.618-1.886V44.458h2.221V55.135z"/>
	<path class="st1" d="M206.815,57.37c-0.551-0.492-0.826-1.24-0.826-2.244c0-0.953,0.278-1.669,0.836-2.146
		c0.558-0.477,1.394-0.715,2.509-0.715h2.583l0.13,1.728h-2.703c-0.44,0-0.771,0.094-0.99,0.279s-0.33,0.471-0.33,0.854
		c0,0.403,0.143,0.702,0.428,0.897c0.285,0.194,0.716,0.292,1.292,0.292c0.706,0,1.23-0.077,1.574-0.232
		c0.345-0.154,0.517-0.396,0.517-0.725l0.194,1.375c-0.105,0.304-0.289,0.558-0.553,0.763c-0.263,0.204-0.58,0.357-0.952,0.46
		c-0.372,0.102-0.777,0.153-1.218,0.153C208.197,58.109,207.367,57.863,206.815,57.37z M211.834,51.855
		c0-0.539-0.16-0.957-0.479-1.255c-0.319-0.297-0.771-0.445-1.353-0.445c-0.372,0-0.737,0.059-1.097,0.176
		c-0.359,0.118-0.682,0.282-0.966,0.493l-1.478-1.245c0.378-0.44,0.873-0.782,1.486-1.027c0.613-0.244,1.295-0.367,2.045-0.367
		c0.817,0,1.518,0.142,2.1,0.423c0.582,0.282,1.026,0.691,1.333,1.227c0.307,0.536,0.46,1.183,0.46,1.938v6.198h-2.053V51.855z"/>
	<path class="st1" d="M219.267,58.109c0,0-0.26-0.055-0.78-0.163s-1.009-0.268-1.464-0.479c-0.455-0.21-0.865-0.468-1.231-0.771
		l1.348-1.672c0.489,0.347,0.99,0.61,1.501,0.789c0.511,0.181,1.008,0.27,1.491,0.27c0.675,0,1.188-0.091,1.538-0.273
		c0.35-0.183,0.524-0.448,0.524-0.795c0-0.267-0.086-0.466-0.26-0.6c-0.174-0.133-0.392-0.224-0.655-0.273
		c-0.263-0.05-0.633-0.097-1.11-0.14c-0.08-0.006-0.164-0.013-0.251-0.019s-0.17-0.016-0.251-0.028c-0.024,0-0.05-0.001-0.074-0.004
		s-0.05-0.005-0.074-0.005c-0.675-0.074-1.229-0.178-1.663-0.312c-0.434-0.133-0.798-0.389-1.092-0.767
		c-0.295-0.378-0.441-0.92-0.441-1.626c0-0.663,0.146-1.222,0.441-1.678c0.294-0.455,0.727-0.799,1.296-1.031
		c0.57-0.232,1.271-0.349,2.101-0.349c0.495,0,0.979,0.049,1.449,0.145s0.922,0.235,1.352,0.418c0.431,0.183,0.838,0.41,1.223,0.684
		l-1.329,1.616c-0.452-0.272-0.909-0.479-1.37-0.622c-0.462-0.143-0.909-0.214-1.343-0.214c-0.583,0-1.025,0.083-1.329,0.251
		c-0.304,0.167-0.455,0.415-0.455,0.743c0,0.211,0.083,0.372,0.251,0.483c0.167,0.111,0.376,0.188,0.627,0.228
		s0.614,0.082,1.092,0.125c0.05,0.007,0.098,0.011,0.144,0.015c0.047,0.003,0.095,0.008,0.145,0.014c0.019,0,0.04,0,0.064,0
		c0.025,0,0.05,0.003,0.075,0.009c0.712,0.068,1.304,0.171,1.774,0.307c0.471,0.137,0.87,0.408,1.198,0.813
		c0.329,0.405,0.493,0.996,0.493,1.771c0,0.681-0.155,1.256-0.465,1.724s-0.77,0.82-1.38,1.059c-0.61,0.239-1.358,0.358-2.244,0.358
		C219.555,58.109,219.267,58.109,219.267,58.109z"/>
	<path class="st1" d="M229.136,58.109c0,0-0.26-0.055-0.78-0.163s-1.009-0.268-1.464-0.479c-0.455-0.21-0.865-0.468-1.231-0.771
		l1.348-1.672c0.489,0.347,0.99,0.61,1.501,0.789c0.511,0.181,1.008,0.27,1.491,0.27c0.675,0,1.188-0.091,1.538-0.273
		c0.35-0.183,0.524-0.448,0.524-0.795c0-0.267-0.086-0.466-0.26-0.6c-0.174-0.133-0.392-0.224-0.655-0.273
		c-0.263-0.05-0.633-0.097-1.11-0.14c-0.08-0.006-0.164-0.013-0.251-0.019s-0.17-0.016-0.251-0.028c-0.024,0-0.05-0.001-0.074-0.004
		s-0.05-0.005-0.074-0.005c-0.675-0.074-1.229-0.178-1.663-0.312c-0.434-0.133-0.798-0.389-1.092-0.767
		c-0.295-0.378-0.441-0.92-0.441-1.626c0-0.663,0.146-1.222,0.441-1.678c0.294-0.455,0.727-0.799,1.296-1.031
		c0.57-0.232,1.271-0.349,2.101-0.349c0.495,0,0.979,0.049,1.449,0.145s0.922,0.235,1.352,0.418c0.431,0.183,0.838,0.41,1.223,0.684
		l-1.329,1.616c-0.452-0.272-0.909-0.479-1.37-0.622c-0.462-0.143-0.909-0.214-1.343-0.214c-0.583,0-1.025,0.083-1.329,0.251
		c-0.304,0.167-0.455,0.415-0.455,0.743c0,0.211,0.083,0.372,0.251,0.483c0.167,0.111,0.376,0.188,0.627,0.228
		s0.614,0.082,1.092,0.125c0.05,0.007,0.098,0.011,0.144,0.015c0.047,0.003,0.095,0.008,0.145,0.014c0.019,0,0.04,0,0.064,0
		c0.025,0,0.05,0.003,0.075,0.009c0.712,0.068,1.304,0.171,1.774,0.307c0.471,0.137,0.87,0.408,1.198,0.813
		c0.329,0.405,0.493,0.996,0.493,1.771c0,0.681-0.155,1.256-0.465,1.724s-0.77,0.82-1.38,1.059c-0.61,0.239-1.358,0.358-2.244,0.358
		C229.424,58.109,229.136,58.109,229.136,58.109z"/>
	<path class="st1" d="M242.925,57.969h-2.221V46.986l-1.784,0.901v-2.332l1.97-1.097h2.035V57.969z"/>
	<path class="st1" d="M245.602,55.999l4.674-6.188c0.241-0.316,0.429-0.643,0.563-0.98c0.133-0.338,0.199-0.652,0.199-0.943v-0.019
		c0-0.452-0.138-0.802-0.413-1.05c-0.276-0.248-0.668-0.372-1.176-0.372c-0.489,0-0.884,0.15-1.185,0.451
		c-0.301,0.3-0.481,0.726-0.544,1.277v0.009h-2.285v-0.009c0.086-0.812,0.303-1.505,0.65-2.081c0.347-0.576,0.805-1.017,1.375-1.32
		c0.569-0.303,1.227-0.455,1.97-0.455c0.824,0,1.527,0.138,2.109,0.414c0.582,0.275,1.026,0.677,1.333,1.203s0.46,1.161,0.46,1.904
		v0.01c0,0.545-0.104,1.098-0.311,1.658c-0.208,0.562-0.494,1.086-0.859,1.575l-3.624,4.758h4.869v2.128h-7.806V55.999z"/>
	<path class="st1" d="M254.429,59.381c0.893-1.003,1.558-2.121,1.998-3.354c0.439-1.232,0.66-2.592,0.66-4.079
		c0-1.486-0.221-2.847-0.66-4.079c-0.44-1.232-1.105-2.348-1.998-3.346l1.394-1.505c1.134,1.195,1.982,2.535,2.547,4.019
		c0.563,1.484,0.845,3.121,0.845,4.911s-0.281,3.428-0.845,4.911c-0.564,1.483-1.413,2.823-2.547,4.019L254.429,59.381z"/>
	<path class="st1" d="M268.618,52.069v2.118h-6.431v-2.118H268.618z"/>
	<path class="st1" d="M271.016,55.999l4.674-6.188c0.241-0.316,0.429-0.643,0.563-0.98c0.133-0.338,0.199-0.652,0.199-0.943v-0.019
		c0-0.452-0.138-0.802-0.413-1.05c-0.276-0.248-0.668-0.372-1.176-0.372c-0.489,0-0.884,0.15-1.185,0.451
		c-0.301,0.3-0.481,0.726-0.544,1.277v0.009h-2.285v-0.009c0.086-0.812,0.303-1.505,0.65-2.081c0.347-0.576,0.805-1.017,1.375-1.32
		c0.569-0.303,1.227-0.455,1.97-0.455c0.824,0,1.527,0.138,2.109,0.414c0.582,0.275,1.026,0.677,1.333,1.203s0.46,1.161,0.46,1.904
		v0.01c0,0.545-0.104,1.098-0.311,1.658c-0.208,0.562-0.494,1.086-0.859,1.575l-3.624,4.758h4.869v2.128h-7.806V55.999z"/>
	<path class="st1" d="M282.06,57.096c-0.673-0.676-1.009-1.617-1.009-2.825v-6.143c0-1.214,0.338-2.157,1.013-2.829
		c0.676-0.672,1.654-1.008,2.937-1.008c1.288,0,2.269,0.334,2.941,1.003c0.672,0.669,1.008,1.614,1.008,2.834v6.143
		c0,1.214-0.338,2.157-1.013,2.829c-0.676,0.673-1.654,1.009-2.937,1.009C283.712,58.109,282.731,57.771,282.06,57.096z
		 M286.311,55.456c0.278-0.35,0.418-0.854,0.418-1.51v-5.492c0-0.656-0.14-1.159-0.418-1.51c-0.279-0.35-0.716-0.524-1.311-0.524
		s-1.031,0.175-1.311,0.524c-0.278,0.351-0.418,0.854-0.418,1.51v5.492c0,0.656,0.14,1.16,0.418,1.51
		c0.279,0.351,0.716,0.525,1.311,0.525S286.031,55.806,286.311,55.456z"/>
	<path class="st1" d="M294.998,57.969h-2.221V46.986l-1.784,0.901v-2.332l1.97-1.097h2.035V57.969z"/>
	<path class="st1" d="M299.729,57.644c-0.632-0.31-1.122-0.748-1.469-1.314c-0.347-0.567-0.521-1.226-0.521-1.975v-0.224
		c0-0.675,0.179-1.31,0.535-1.904c0.355-0.595,0.828-1.044,1.417-1.348c-0.502-0.261-0.906-0.635-1.213-1.124
		s-0.46-1.007-0.46-1.552v-0.335c0-0.706,0.162-1.327,0.487-1.863c0.325-0.535,0.782-0.951,1.371-1.245
		c0.588-0.294,1.272-0.441,2.054-0.441c0.78,0,1.465,0.147,2.054,0.441c0.588,0.294,1.045,0.71,1.37,1.245
		c0.325,0.536,0.488,1.157,0.488,1.863v0.335c0,0.557-0.157,1.079-0.47,1.565s-0.724,0.856-1.231,1.11
		c0.595,0.31,1.073,0.761,1.436,1.352c0.363,0.592,0.544,1.226,0.544,1.9v0.224c0,0.749-0.174,1.407-0.521,1.975
		c-0.347,0.566-0.836,1.005-1.468,1.314s-1.366,0.465-2.202,0.465C301.094,58.109,300.36,57.954,299.729,57.644z M302.967,55.739
		c0.3-0.154,0.532-0.374,0.696-0.659s0.247-0.61,0.247-0.976v-0.131c0-0.358-0.083-0.675-0.247-0.947s-0.395-0.484-0.692-0.637
		c-0.297-0.151-0.644-0.228-1.04-0.228s-0.743,0.076-1.041,0.228c-0.297,0.152-0.528,0.365-0.692,0.642
		c-0.164,0.275-0.246,0.593-0.246,0.952v0.14c0,0.365,0.082,0.688,0.246,0.971s0.396,0.499,0.697,0.65
		c0.3,0.152,0.646,0.228,1.036,0.228C302.32,55.971,302.666,55.894,302.967,55.739z M302.817,49.806
		c0.258-0.146,0.456-0.354,0.595-0.623c0.14-0.27,0.21-0.58,0.21-0.934v-0.13c0-0.328-0.07-0.619-0.21-0.874
		c-0.139-0.254-0.337-0.448-0.595-0.585c-0.257-0.136-0.553-0.204-0.887-0.204c-0.335,0-0.631,0.068-0.888,0.204
		c-0.257,0.137-0.455,0.331-0.595,0.585c-0.14,0.255-0.209,0.549-0.209,0.883v0.14c0,0.347,0.069,0.653,0.209,0.92
		s0.338,0.473,0.595,0.618s0.553,0.218,0.888,0.218C302.265,50.024,302.561,49.952,302.817,49.806z"/>
</g>
</svg>