<!-- Generator: Adobe Illustrator 22.1.0, SVG Export Plug-In  -->
<svg version="1.1"
	 xmlns="http://www.w3.org/2000/svg" xmlns:xlink="http://www.w3.org/1999/xlink" xmlns:a="http://ns.adobe.com/AdobeSVGViewerExtensions/3.0/"
	 x="0px" y="0px" width="260px" height="55px" viewBox="0 0 260 55" style="enable-background:new 0 0 260 55;"
	 xml:space="preserve">
<style type="text/css">
	.st0{fill:#1B1464;}
	.st1{fill:#FFFFFF;}
</style>
<defs>
</defs>
<rect class="st0" width="260" height="55"/>
<g>
	<path class="st1" d="M47.43,14.438h1.65l3.974,7.103l-0.152,0.165v-7.268h1.473v9.223h-1.663l-3.961-6.995l0.152-0.165v7.16H47.43
		V14.438z"/>
	<path class="st1" d="M56.532,14.438h1.517v9.229h-1.517V14.438z M57.161,14.438h5.427v1.453h-5.427V14.438z M57.161,18.359h4.729
		v1.447h-4.729V18.359z M57.161,22.213h5.427v1.453h-5.427V22.213z"/>
	<path class="st1" d="M64.302,14.438h1.517v9.229h-1.517V14.438z M64.93,14.438h5.427v1.453H64.93V14.438z M64.93,18.359h4.729
		v1.447H64.93V18.359z M64.93,22.213h5.427v1.453H64.93V22.213z"/>
	<path class="st1" d="M70.802,14.438h6.64v1.453h-6.64V14.438z M73.366,15.192h1.511v8.474h-1.511V15.192z"/>
	<path class="st1" d="M78.908,22.908c-0.385-1.014-0.578-2.132-0.578-3.355c0-1.223,0.192-2.341,0.578-3.354
		c0.385-1.014,0.965-1.93,1.739-2.746l0.952,1.028c-0.609,0.681-1.064,1.442-1.365,2.285s-0.451,1.771-0.451,2.786
		s0.15,1.945,0.451,2.787s0.755,1.605,1.365,2.291l-0.952,1.022C79.873,24.836,79.293,23.922,78.908,22.908z"/>
	<path class="st1" d="M84.132,23.359c-0.495-0.27-0.872-0.66-1.13-1.176c-0.258-0.514-0.387-1.133-0.387-1.855v-5.891h1.517v5.935
		c0,0.601,0.156,1.066,0.466,1.396c0.312,0.33,0.75,0.495,1.317,0.495c0.571,0,1.014-0.165,1.327-0.495s0.47-0.796,0.47-1.396
		v-5.935h1.517v5.891c0,0.723-0.13,1.342-0.391,1.855c-0.26,0.516-0.638,0.906-1.133,1.176c-0.495,0.268-1.092,0.402-1.79,0.402
		C85.222,23.762,84.627,23.627,84.132,23.359z"/>
	<path class="st1" d="M97.697,18.602v1.707c0,0.686-0.137,1.289-0.409,1.813c-0.273,0.522-0.658,0.926-1.155,1.213
		c-0.498,0.285-1.074,0.428-1.73,0.428c-0.66,0-1.242-0.135-1.746-0.402c-0.503-0.27-0.894-0.649-1.171-1.141
		c-0.277-0.49-0.416-1.06-0.416-1.707v-2.723c0-0.686,0.137-1.289,0.409-1.81c0.273-0.521,0.658-0.923,1.155-1.21
		c0.498-0.285,1.074-0.428,1.73-0.428c0.538,0,1.035,0.113,1.492,0.34s0.838,0.547,1.143,0.961c0.305,0.415,0.512,0.896,0.622,1.441
		h-1.638c-0.072-0.254-0.189-0.472-0.353-0.654c-0.163-0.182-0.355-0.32-0.577-0.416c-0.223-0.094-0.452-0.143-0.689-0.143
		c-0.347,0-0.651,0.08-0.911,0.238c-0.261,0.158-0.462,0.383-0.606,0.674c-0.144,0.289-0.216,0.625-0.216,1.006v2.723
		c0,0.343,0.073,0.645,0.219,0.904c0.146,0.26,0.354,0.461,0.622,0.604c0.269,0.142,0.579,0.213,0.93,0.213
		c0.347,0,0.652-0.076,0.914-0.227c0.262-0.149,0.464-0.367,0.606-0.652c0.142-0.287,0.213-0.626,0.213-1.02v-0.279h-1.638v-1.453
		H97.697z"/>
	<path class="st1" d="M98.649,24.631c0.609-0.686,1.064-1.449,1.365-2.291s0.451-1.771,0.451-2.787s-0.15-1.943-0.451-2.786
		s-0.755-1.604-1.365-2.285l0.952-1.028c0.774,0.816,1.354,1.732,1.739,2.746c0.385,1.013,0.578,2.131,0.578,3.354
		c0,1.224-0.192,2.342-0.578,3.355s-0.965,1.928-1.739,2.745L98.649,24.631z"/>
	<path class="st1" d="M106.298,14.438h1.517v9.229h-1.517V14.438z M106.926,14.438h5.427v1.453h-5.427V14.438z M106.926,18.359
		h4.729v1.447h-4.729V18.359z M106.926,22.213h5.427v1.453h-5.427V22.213z"/>
	<path class="st1" d="M115.718,20.029l0.825,1.193l-1.6,2.443h-1.638L115.718,20.029z M115.896,20.804l-2.488-3.726h1.676
		l1.739,2.805l2.539,3.783h-1.669L115.896,20.804z M116.251,19.414l1.333-2.336h1.676l-2.228,3.555L116.251,19.414z"/>
	<path class="st1" d="M120.91,23.258c-0.376-0.338-0.565-0.848-0.565-1.533c0-0.652,0.19-1.141,0.571-1.467s0.952-0.488,1.714-0.488
		h1.765l0.089,1.18h-1.847c-0.3,0-0.526,0.064-0.676,0.191c-0.15,0.127-0.225,0.321-0.225,0.584c0,0.274,0.097,0.479,0.292,0.611
		c0.195,0.135,0.489,0.201,0.882,0.201c0.482,0,0.841-0.053,1.076-0.159c0.234-0.106,0.352-0.271,0.352-0.495l0.133,0.939
		c-0.072,0.207-0.198,0.381-0.378,0.521c-0.18,0.14-0.396,0.245-0.65,0.313c-0.254,0.07-0.531,0.105-0.832,0.105
		C121.854,23.762,121.287,23.594,120.91,23.258z M124.338,19.49c0-0.369-0.109-0.654-0.327-0.857
		c-0.218-0.203-0.526-0.305-0.924-0.305c-0.254,0-0.503,0.04-0.749,0.121c-0.246,0.08-0.465,0.191-0.66,0.336l-1.009-0.851
		c0.258-0.3,0.597-0.534,1.016-0.702c0.419-0.166,0.884-0.25,1.396-0.25c0.559,0,1.037,0.096,1.435,0.289
		c0.398,0.192,0.702,0.472,0.911,0.838c0.21,0.365,0.314,0.807,0.314,1.323v4.233h-1.403V19.49z"/>
	<path class="st1" d="M127.582,17.078h1.517v6.588h-1.517V17.078z M131.473,19.77c0-0.428-0.105-0.757-0.314-0.988
		c-0.21-0.23-0.507-0.346-0.892-0.346c-0.373,0-0.66,0.102-0.863,0.303c-0.203,0.2-0.305,0.484-0.305,0.854l-0.133-1.365
		c0.199-0.402,0.453-0.71,0.762-0.924c0.309-0.213,0.662-0.32,1.06-0.32c0.461,0,0.857,0.107,1.187,0.324
		c0.33,0.215,0.581,0.531,0.752,0.949c0.172,0.416,0.257,0.918,0.257,1.507v3.903h-1.511V19.77z M135.357,19.77
		c0-0.428-0.106-0.757-0.317-0.988c-0.211-0.23-0.512-0.346-0.901-0.346c-0.368,0-0.653,0.111-0.854,0.334
		c-0.201,0.223-0.301,0.538-0.301,0.949l-0.292-1.396c0.208-0.428,0.479-0.758,0.816-0.99c0.336-0.233,0.709-0.35,1.12-0.35
		c0.474,0,0.879,0.107,1.216,0.324c0.336,0.215,0.592,0.531,0.768,0.949c0.176,0.416,0.264,0.918,0.264,1.507v3.903h-1.517V19.77z"
		/>
	<path class="st1" d="M141.064,14.431h1.517v9.235h-1.517V14.431z M141.692,18.404h3.18c0.211,0,0.399-0.052,0.562-0.156
		c0.163-0.104,0.289-0.25,0.378-0.44s0.135-0.413,0.14-0.667c0-0.249-0.044-0.469-0.133-0.66c-0.089-0.189-0.215-0.337-0.377-0.441
		c-0.163-0.104-0.353-0.154-0.568-0.154h-3.18v-1.454h3.225c0.521,0,0.978,0.112,1.371,0.337c0.394,0.224,0.699,0.541,0.917,0.951
		c0.218,0.411,0.327,0.885,0.327,1.422c0,0.542-0.109,1.018-0.327,1.429c-0.218,0.411-0.525,0.728-0.921,0.952
		c-0.396,0.225-0.852,0.336-1.368,0.336h-3.225V18.404z M143.92,19.572l1.574-0.292l2.425,4.386h-1.822L143.92,19.572z"/>
	<path class="st1" d="M150.985,23.762c0,0-0.22-0.114-0.66-0.343s-0.776-0.563-1.009-1.007c-0.233-0.441-0.349-0.976-0.349-1.602
		v-0.743c0-0.651,0.111-1.208,0.333-1.669c0.223-0.462,0.546-0.813,0.972-1.055c0.425-0.24,0.936-0.361,1.533-0.361
		c0.563,0,1.044,0.141,1.444,0.422c0.4,0.281,0.705,0.689,0.914,1.223c0.21,0.533,0.314,1.176,0.314,1.93v0.432h-4.475v-1.111h3.066
		l-0.006-0.07c-0.042-0.461-0.171-0.818-0.387-1.072s-0.506-0.381-0.87-0.381c-0.457,0-0.811,0.143-1.06,0.428
		c-0.25,0.287-0.375,0.691-0.375,1.217v0.838c0,0.499,0.135,0.883,0.406,1.152c0.271,0.268,0.652,0.402,1.143,0.402
		c0.25,0,0.496-0.047,0.74-0.143c0.243-0.096,0.462-0.228,0.657-0.396l0.99,0.926c-0.334,0.313-0.71,0.557-1.126,0.727
		c-0.417,0.172-0.837,0.258-1.26,0.258C151.296,23.762,150.985,23.762,150.985,23.762z"/>
	<path class="st1" d="M157.961,23.762c0,0-0.178-0.037-0.533-0.111s-0.689-0.183-1-0.326c-0.312-0.145-0.592-0.32-0.841-0.527
		l0.92-1.143c0.334,0.236,0.676,0.417,1.025,0.539c0.349,0.123,0.688,0.185,1.019,0.185c0.461,0,0.812-0.063,1.051-0.187
		c0.239-0.125,0.358-0.307,0.358-0.543c0-0.183-0.059-0.318-0.178-0.41c-0.119-0.091-0.268-0.153-0.447-0.188
		c-0.18-0.033-0.433-0.064-0.759-0.095c-0.055-0.005-0.112-0.009-0.171-0.013s-0.116-0.011-0.171-0.02c-0.017,0-0.034,0-0.051-0.002
		c-0.017-0.003-0.034-0.004-0.051-0.004c-0.461-0.051-0.84-0.121-1.136-0.213c-0.296-0.091-0.545-0.266-0.746-0.523
		c-0.201-0.258-0.302-0.629-0.302-1.111c0-0.452,0.101-0.834,0.302-1.145c0.201-0.313,0.496-0.547,0.885-0.705
		s0.868-0.238,1.435-0.238c0.338,0,0.668,0.033,0.99,0.098c0.322,0.066,0.629,0.162,0.923,0.287
		c0.294,0.124,0.573,0.279,0.835,0.466l-0.908,1.104c-0.309-0.186-0.621-0.328-0.936-0.426c-0.315-0.097-0.621-0.146-0.917-0.146
		c-0.398,0-0.7,0.058-0.908,0.171c-0.208,0.115-0.311,0.284-0.311,0.508c0,0.145,0.057,0.254,0.171,0.33s0.257,0.129,0.429,0.156
		c0.171,0.027,0.42,0.056,0.746,0.086c0.034,0.004,0.067,0.007,0.098,0.01c0.032,0.002,0.065,0.004,0.099,0.009
		c0.013,0,0.027,0,0.044,0s0.034,0.002,0.051,0.007c0.487,0.046,0.891,0.115,1.212,0.209s0.595,0.278,0.819,0.555
		c0.224,0.277,0.336,0.682,0.336,1.21c0,0.466-0.106,0.858-0.317,1.177c-0.211,0.32-0.526,0.562-0.942,0.725
		c-0.417,0.162-0.928,0.244-1.533,0.244C158.158,23.762,157.961,23.762,157.961,23.762z"/>
	<path class="st1" d="M164.385,21.083c0,0.39,0.104,0.69,0.311,0.905c0.208,0.213,0.5,0.32,0.876,0.32s0.667-0.102,0.87-0.303
		c0.203-0.2,0.305-0.489,0.305-0.865l0.089,1.408c-0.127,0.344-0.338,0.631-0.635,0.863c-0.296,0.233-0.658,0.35-1.085,0.35
		c-0.715,0-1.269-0.23-1.66-0.691c-0.391-0.462-0.587-1.113-0.587-1.955v-4.037h1.517V21.083z M166.747,17.078h1.511v6.588h-1.511
		V17.078z"/>
	<path class="st1" d="M171.615,21.73c0,0.16,0.04,0.285,0.121,0.371c0.081,0.087,0.195,0.131,0.343,0.131h0.451v1.453h-0.825
		c-0.508,0-0.902-0.152-1.184-0.457c-0.281-0.305-0.422-0.734-0.422-1.289v-7.502h1.517V21.73z"/>
	<path class="st1" d="M173.354,17.078h3.098v1.326h-3.098V17.078z M174.421,23.258c-0.258-0.295-0.387-0.729-0.387-1.305V15.16
		h1.517v6.583c0,0.161,0.032,0.284,0.095,0.372c0.063,0.086,0.157,0.129,0.279,0.129h0.527v1.454h-0.813
		C175.085,23.698,174.679,23.551,174.421,23.258z"/>
	<path class="st1" d="M179.937,23.762c0,0-0.178-0.037-0.533-0.111s-0.689-0.183-1-0.326c-0.312-0.145-0.592-0.32-0.841-0.527
		l0.92-1.143c0.334,0.236,0.676,0.417,1.025,0.539c0.349,0.123,0.688,0.185,1.019,0.185c0.461,0,0.812-0.063,1.051-0.187
		c0.239-0.125,0.358-0.307,0.358-0.543c0-0.183-0.059-0.318-0.178-0.41c-0.119-0.091-0.268-0.153-0.447-0.188
		c-0.18-0.033-0.433-0.064-0.759-0.095c-0.055-0.005-0.112-0.009-0.171-0.013s-0.116-0.011-0.171-0.02c-0.017,0-0.034,0-0.051-0.002
		c-0.017-0.003-0.034-0.004-0.051-0.004c-0.461-0.051-0.84-0.121-1.136-0.213c-0.296-0.091-0.545-0.266-0.746-0.523
		c-0.201-0.258-0.302-0.629-0.302-1.111c0-0.452,0.101-0.834,0.302-1.145c0.201-0.313,0.496-0.547,0.885-0.705
		s0.868-0.238,1.435-0.238c0.338,0,0.668,0.033,0.99,0.098c0.322,0.066,0.629,0.162,0.923,0.287
		c0.294,0.124,0.573,0.279,0.835,0.466l-0.908,1.104c-0.309-0.186-0.621-0.328-0.936-0.426c-0.315-0.097-0.621-0.146-0.917-0.146
		c-0.398,0-0.7,0.058-0.908,0.171c-0.208,0.115-0.311,0.284-0.311,0.508c0,0.145,0.057,0.254,0.171,0.33s0.257,0.129,0.429,0.156
		c0.171,0.027,0.42,0.056,0.746,0.086c0.034,0.004,0.067,0.007,0.098,0.01c0.032,0.002,0.065,0.004,0.099,0.009
		c0.013,0,0.027,0,0.044,0s0.034,0.002,0.051,0.007c0.487,0.046,0.891,0.115,1.212,0.209s0.595,0.278,0.819,0.555
		c0.224,0.277,0.336,0.682,0.336,1.21c0,0.466-0.106,0.858-0.317,1.177c-0.211,0.32-0.526,0.562-0.942,0.725
		c-0.417,0.162-0.928,0.244-1.533,0.244C180.134,23.762,179.937,23.762,179.937,23.762z"/>
	<path class="st1" d="M189.236,19.636v1.447h-4.393v-1.447H189.236z"/>
	<path class="st1" d="M190.874,22.32l3.193-4.227c0.165-0.217,0.293-0.439,0.384-0.67c0.091-0.23,0.136-0.445,0.136-0.645v-0.013
		c0-0.31-0.094-0.548-0.283-0.718c-0.188-0.169-0.456-0.254-0.803-0.254c-0.334,0-0.604,0.104-0.81,0.309
		c-0.205,0.205-0.329,0.496-0.371,0.873v0.006h-1.562v-0.006c0.059-0.555,0.208-1.029,0.444-1.422
		c0.237-0.395,0.55-0.694,0.939-0.902c0.389-0.207,0.838-0.311,1.346-0.311c0.563,0,1.043,0.094,1.441,0.283
		c0.398,0.188,0.702,0.461,0.911,0.821c0.21,0.36,0.314,0.794,0.314,1.302v0.006c0,0.373-0.071,0.75-0.213,1.133
		c-0.142,0.383-0.337,0.742-0.587,1.076l-2.476,3.25h3.326v1.453h-5.332V22.32z"/>
	<path class="st1" d="M198.418,23.07c-0.459-0.462-0.688-1.105-0.688-1.93v-4.196c0-0.829,0.23-1.474,0.692-1.933
		s1.13-0.689,2.006-0.689c0.88,0,1.55,0.229,2.009,0.686c0.459,0.457,0.688,1.104,0.688,1.937v4.196c0,0.829-0.23,1.473-0.692,1.932
		c-0.461,0.46-1.13,0.689-2.006,0.689C199.547,23.762,198.877,23.531,198.418,23.07z M201.322,21.949
		c0.19-0.238,0.286-0.582,0.286-1.031v-3.752c0-0.448-0.095-0.792-0.286-1.031c-0.19-0.238-0.489-0.358-0.895-0.358
		s-0.705,0.12-0.895,0.358c-0.19,0.239-0.286,0.583-0.286,1.031v3.752c0,0.449,0.095,0.793,0.286,1.031
		c0.19,0.239,0.489,0.359,0.895,0.359S201.132,22.188,201.322,21.949z"/>
	<path class="st1" d="M207.257,23.666h-1.517v-7.502l-1.219,0.615v-1.594l1.346-0.748h1.39V23.666z"/>
	<path class="st1" d="M210.488,23.444c-0.432-0.212-0.766-0.511-1.003-0.897c-0.237-0.389-0.355-0.838-0.355-1.35v-0.152
		c0-0.461,0.122-0.895,0.365-1.301c0.244-0.406,0.566-0.713,0.968-0.921c-0.343-0.178-0.619-0.434-0.829-0.769
		c-0.209-0.334-0.314-0.688-0.314-1.06v-0.229c0-0.482,0.111-0.907,0.333-1.272c0.222-0.366,0.534-0.65,0.936-0.852
		c0.402-0.2,0.87-0.301,1.403-0.301s1.001,0.101,1.403,0.301c0.402,0.201,0.714,0.485,0.936,0.852
		c0.223,0.365,0.333,0.79,0.333,1.272v0.229c0,0.381-0.107,0.737-0.321,1.069c-0.213,0.332-0.494,0.586-0.841,0.759
		c0.406,0.212,0.733,0.52,0.98,0.923c0.248,0.404,0.372,0.838,0.372,1.299v0.152c0,0.512-0.119,0.961-0.355,1.35
		c-0.237,0.387-0.571,0.686-1.003,0.897s-0.933,0.317-1.504,0.317S210.92,23.656,210.488,23.444z M212.701,22.143
		c0.205-0.105,0.364-0.256,0.476-0.45c0.112-0.194,0.168-0.417,0.168-0.667v-0.088c0-0.246-0.056-0.462-0.168-0.648
		c-0.112-0.186-0.27-0.33-0.473-0.434c-0.203-0.104-0.44-0.156-0.711-0.156s-0.508,0.052-0.711,0.156
		c-0.203,0.104-0.361,0.249-0.473,0.438c-0.112,0.188-0.168,0.404-0.168,0.65v0.096c0,0.249,0.056,0.471,0.168,0.662
		c0.112,0.193,0.271,0.342,0.476,0.445c0.206,0.104,0.441,0.155,0.708,0.155S212.495,22.249,212.701,22.143z M212.599,18.09
		c0.175-0.1,0.311-0.24,0.406-0.426c0.095-0.184,0.143-0.396,0.143-0.637v-0.09c0-0.224-0.048-0.423-0.143-0.596
		c-0.096-0.174-0.231-0.307-0.406-0.4c-0.176-0.094-0.378-0.14-0.606-0.14s-0.431,0.046-0.606,0.14
		c-0.175,0.094-0.311,0.227-0.406,0.4c-0.095,0.173-0.143,0.374-0.143,0.603v0.095c0,0.237,0.048,0.447,0.143,0.629
		c0.096,0.182,0.231,0.322,0.406,0.422c0.176,0.1,0.378,0.149,0.606,0.149S212.423,18.189,212.599,18.09z"/>
	<path class="st1" d="M54.409,30.037h1.104l3.466,9.229h-1.631l-2.387-6.874l-2.387,6.874h-1.631L54.409,30.037z M52.575,36.061
		h4.856v1.454h-4.856V36.061z"/>
	<path class="st1" d="M60.122,32.678h1.517v6.589h-1.517V32.678z M64.026,35.273c0-0.393-0.106-0.697-0.317-0.914
		c-0.211-0.215-0.512-0.323-0.901-0.323c-0.373,0-0.66,0.101-0.863,0.302s-0.305,0.485-0.305,0.854l-0.133-1.365
		c0.199-0.406,0.45-0.715,0.752-0.926c0.303-0.212,0.659-0.318,1.07-0.318c0.703,0,1.248,0.234,1.634,0.702
		c0.388,0.468,0.581,1.128,0.581,1.983v3.999h-1.517V35.273z"/>
	<path class="st1" d="M67.384,32.678h1.517v6.589h-1.517V32.678z M71.288,35.273c0-0.393-0.106-0.697-0.317-0.914
		c-0.211-0.215-0.512-0.323-0.901-0.323c-0.373,0-0.66,0.101-0.863,0.302s-0.305,0.485-0.305,0.854l-0.133-1.365
		c0.199-0.406,0.45-0.715,0.752-0.926c0.303-0.212,0.659-0.318,1.07-0.318c0.703,0,1.248,0.234,1.634,0.702
		c0.388,0.468,0.581,1.128,0.581,1.983v3.999h-1.517V35.273z"/>
	<path class="st1" d="M75.734,39.025c-0.417-0.225-0.734-0.551-0.952-0.98c-0.218-0.43-0.327-0.947-0.327-1.553V35.42
		c0-0.597,0.109-1.107,0.327-1.533c0.218-0.425,0.535-0.749,0.952-0.971c0.417-0.223,0.917-0.334,1.501-0.334
		s1.084,0.111,1.501,0.334c0.417,0.222,0.734,0.546,0.952,0.971c0.218,0.426,0.327,0.937,0.327,1.533v1.092
		c0,0.602-0.109,1.114-0.327,1.539c-0.218,0.426-0.535,0.75-0.952,0.975c-0.417,0.225-0.917,0.336-1.501,0.336
		S76.151,39.25,75.734,39.025z M78.168,37.543c0.22-0.243,0.33-0.587,0.33-1.031V35.42c0-0.439-0.11-0.781-0.33-1.021
		c-0.22-0.242-0.531-0.362-0.933-0.362s-0.713,0.12-0.933,0.362c-0.22,0.24-0.33,0.582-0.33,1.021v1.092
		c0,0.444,0.109,0.788,0.327,1.031c0.218,0.244,0.53,0.365,0.937,0.365C77.637,37.908,77.948,37.787,78.168,37.543z"/>
	<path class="st1" d="M83.088,36.684c0,0.389,0.104,0.69,0.311,0.904c0.208,0.213,0.5,0.32,0.876,0.32s0.667-0.101,0.87-0.302
		c0.203-0.2,0.305-0.489,0.305-0.866l0.089,1.409c-0.127,0.343-0.338,0.63-0.635,0.863s-0.658,0.349-1.085,0.349
		c-0.715,0-1.269-0.23-1.66-0.691c-0.391-0.461-0.587-1.113-0.587-1.955v-4.037h1.517V36.684z M85.449,32.678h1.511v6.589h-1.511
		V32.678z"/>
	<path class="st1" d="M88.801,32.678h1.517v6.589h-1.517V32.678z M92.705,35.273c0-0.393-0.106-0.697-0.317-0.914
		c-0.211-0.215-0.512-0.323-0.901-0.323c-0.373,0-0.66,0.101-0.863,0.302s-0.305,0.485-0.305,0.854l-0.133-1.365
		c0.199-0.406,0.45-0.715,0.752-0.926c0.303-0.212,0.659-0.318,1.07-0.318c0.703,0,1.248,0.234,1.634,0.702
		c0.388,0.468,0.581,1.128,0.581,1.983v3.999h-1.517V35.273z"/>
	<path class="st1" d="M97.865,39.361c0,0-0.218-0.115-0.654-0.346s-0.768-0.566-0.997-1.009s-0.343-0.977-0.343-1.603v-0.896
		c0-0.618,0.114-1.146,0.343-1.584c0.229-0.438,0.561-0.771,0.997-0.999s0.96-0.344,1.574-0.344c0.351,0,0.682,0.042,0.994,0.124
		c0.311,0.083,0.59,0.202,0.838,0.358c0.247,0.157,0.454,0.348,0.619,0.572l-1.028,0.965c-0.173-0.183-0.376-0.322-0.609-0.42
		c-0.233-0.097-0.476-0.146-0.73-0.146c-0.47,0-0.833,0.128-1.092,0.384s-0.387,0.619-0.387,1.089v0.896
		c0,0.482,0.128,0.854,0.384,1.113c0.256,0.261,0.621,0.391,1.095,0.391c0.258,0,0.503-0.053,0.736-0.158
		c0.233-0.106,0.434-0.256,0.603-0.451l1.028,1.028c-0.169,0.22-0.377,0.407-0.625,0.562c-0.247,0.154-0.526,0.271-0.838,0.353
		c-0.311,0.081-0.64,0.12-0.987,0.12C98.172,39.361,97.865,39.361,97.865,39.361z"/>
	<path class="st1" d="M104.365,39.361c0,0-0.22-0.113-0.66-0.342s-0.776-0.564-1.009-1.007s-0.349-0.976-0.349-1.603v-0.742
		c0-0.652,0.111-1.209,0.333-1.67c0.223-0.461,0.546-0.813,0.972-1.054c0.425-0.241,0.936-0.362,1.533-0.362
		c0.563,0,1.044,0.141,1.444,0.423c0.4,0.281,0.705,0.688,0.914,1.222c0.21,0.533,0.314,1.176,0.314,1.93v0.432h-4.475v-1.111h3.066
		l-0.006-0.069c-0.042-0.462-0.171-0.819-0.387-1.073s-0.506-0.381-0.87-0.381c-0.457,0-0.811,0.144-1.06,0.429
		c-0.25,0.286-0.375,0.69-0.375,1.216v0.838c0,0.5,0.135,0.883,0.406,1.152c0.271,0.269,0.652,0.402,1.143,0.402
		c0.25,0,0.496-0.047,0.74-0.143c0.243-0.095,0.462-0.227,0.657-0.396l0.99,0.927c-0.334,0.313-0.71,0.556-1.126,0.727
		c-0.417,0.172-0.837,0.257-1.26,0.257C104.676,39.361,104.365,39.361,104.365,39.361z"/>
	<path class="st1" d="M110.348,39.048c-0.336-0.218-0.592-0.533-0.768-0.946c-0.176-0.412-0.264-0.91-0.264-1.494V35.35
		c0-0.584,0.087-1.084,0.26-1.501s0.426-0.733,0.758-0.952c0.333-0.218,0.731-0.326,1.197-0.326c0.373,0,0.712,0.104,1.019,0.311
		c0.307,0.207,0.553,0.5,0.739,0.876l-0.133,1.403c0-0.254-0.044-0.471-0.133-0.648s-0.218-0.313-0.387-0.406
		c-0.169-0.093-0.375-0.139-0.616-0.139c-0.376,0-0.668,0.122-0.876,0.367c-0.208,0.246-0.311,0.589-0.311,1.029v1.244
		c0,0.436,0.104,0.773,0.311,1.012c0.208,0.239,0.5,0.359,0.876,0.359c0.241,0,0.446-0.048,0.616-0.144
		c0.169-0.095,0.298-0.231,0.387-0.409s0.133-0.392,0.133-0.641l0.089,1.447c-0.131,0.342-0.342,0.618-0.631,0.828
		c-0.29,0.209-0.64,0.314-1.051,0.314C111.089,39.375,110.685,39.266,110.348,39.048z M113.157,30.037h1.517v9.229h-1.517V30.037z"
		/>
	<path class="st1" d="M119.825,39.025c-0.417-0.225-0.734-0.551-0.952-0.98c-0.218-0.43-0.327-0.947-0.327-1.553V35.42
		c0-0.597,0.109-1.107,0.327-1.533c0.218-0.425,0.535-0.749,0.952-0.971c0.417-0.223,0.917-0.334,1.501-0.334
		s1.084,0.111,1.501,0.334c0.417,0.222,0.734,0.546,0.952,0.971c0.218,0.426,0.327,0.937,0.327,1.533v1.092
		c0,0.602-0.109,1.114-0.327,1.539c-0.218,0.426-0.535,0.75-0.952,0.975c-0.417,0.225-0.917,0.336-1.501,0.336
		S120.242,39.25,119.825,39.025z M122.259,37.543c0.22-0.243,0.33-0.587,0.33-1.031V35.42c0-0.439-0.11-0.781-0.33-1.021
		c-0.22-0.242-0.531-0.362-0.933-0.362s-0.713,0.12-0.933,0.362c-0.22,0.24-0.33,0.582-0.33,1.021v1.092
		c0,0.444,0.109,0.788,0.327,1.031c0.218,0.244,0.53,0.365,0.937,0.365C121.728,37.908,122.039,37.787,122.259,37.543z"/>
	<path class="st1" d="M125.82,32.678h1.517v6.589h-1.517V32.678z M129.724,35.273c0-0.393-0.106-0.697-0.317-0.914
		c-0.211-0.215-0.512-0.323-0.901-0.323c-0.373,0-0.66,0.101-0.863,0.302s-0.305,0.485-0.305,0.854l-0.133-1.365
		c0.199-0.406,0.45-0.715,0.752-0.926c0.303-0.212,0.659-0.318,1.07-0.318c0.703,0,1.248,0.234,1.634,0.702
		c0.388,0.468,0.581,1.128,0.581,1.983v3.999h-1.517V35.273z"/>
	<path class="st1" d="M135.113,36.492l2.971-6.449h1.65l-2.895,6.373h4.335v1.436h-6.062V36.492z M138.966,33.84h1.498v5.434h-1.498
		V33.84z"/>
	<path class="st1" d="M142.191,32.678h3.098v1.326h-3.098V32.678z M143.257,38.857c-0.258-0.295-0.387-0.729-0.387-1.305v-6.792
		h1.517v6.583c0,0.16,0.032,0.284,0.095,0.371c0.063,0.086,0.157,0.13,0.279,0.13h0.527v1.454h-0.813
		C143.922,39.299,143.516,39.151,143.257,38.857z"/>
	<path class="st1" d="M146.939,30.037h1.517v9.229h-1.517V30.037z M150.843,35.273c0-0.393-0.106-0.697-0.317-0.914
		c-0.211-0.215-0.512-0.323-0.901-0.323c-0.373,0-0.66,0.1-0.863,0.298c-0.203,0.199-0.305,0.48-0.305,0.845l-0.133-1.364
		c0.199-0.398,0.45-0.703,0.752-0.914c0.303-0.212,0.659-0.318,1.07-0.318c0.703,0,1.248,0.234,1.634,0.702
		c0.388,0.468,0.581,1.128,0.581,1.983v3.999h-1.517V35.273z"/>
	<path class="st1" d="M156.616,39.048c-0.425-0.21-0.765-0.505-1.019-0.886l1.238-0.895c0.135,0.198,0.313,0.354,0.533,0.463
		s0.461,0.165,0.724,0.165c0.423,0,0.749-0.137,0.978-0.409c0.229-0.273,0.343-0.659,0.343-1.158v-6.291h1.549v6.297
		c0,0.639-0.114,1.186-0.343,1.638s-0.561,0.798-0.997,1.034c-0.436,0.237-0.96,0.355-1.574,0.355
		C157.519,39.361,157.042,39.257,156.616,39.048z"/>
	<path class="st1" d="M164.509,36.684c0,0.389,0.104,0.69,0.311,0.904c0.208,0.213,0.5,0.32,0.876,0.32s0.667-0.101,0.87-0.302
		c0.203-0.2,0.305-0.489,0.305-0.866l0.089,1.409c-0.127,0.343-0.338,0.63-0.635,0.863s-0.658,0.349-1.085,0.349
		c-0.715,0-1.269-0.23-1.66-0.691c-0.391-0.461-0.587-1.113-0.587-1.955v-4.037h1.517V36.684z M166.871,32.678h1.511v6.589h-1.511
		V32.678z"/>
	<path class="st1" d="M170.222,32.678h1.517v6.589h-1.517V32.678z M174.126,35.273c0-0.393-0.106-0.697-0.317-0.914
		c-0.211-0.215-0.512-0.323-0.901-0.323c-0.373,0-0.66,0.101-0.863,0.302s-0.305,0.485-0.305,0.854l-0.133-1.365
		c0.199-0.406,0.45-0.715,0.752-0.926c0.303-0.212,0.659-0.318,1.07-0.318c0.703,0,1.248,0.234,1.634,0.702
		c0.388,0.468,0.581,1.128,0.581,1.983v3.999h-1.517V35.273z"/>
	<path class="st1" d="M179.312,39.361c0,0-0.22-0.113-0.66-0.342s-0.776-0.564-1.009-1.007s-0.349-0.976-0.349-1.603v-0.742
		c0-0.652,0.111-1.209,0.333-1.67c0.223-0.461,0.546-0.813,0.972-1.054c0.425-0.241,0.936-0.362,1.533-0.362
		c0.563,0,1.044,0.141,1.444,0.423c0.4,0.281,0.705,0.688,0.914,1.222c0.21,0.533,0.314,1.176,0.314,1.93v0.432h-4.475v-1.111h3.066
		l-0.006-0.069c-0.042-0.462-0.171-0.819-0.387-1.073s-0.506-0.381-0.87-0.381c-0.457,0-0.811,0.144-1.06,0.429
		c-0.25,0.286-0.375,0.69-0.375,1.216v0.838c0,0.5,0.135,0.883,0.406,1.152c0.271,0.269,0.652,0.402,1.143,0.402
		c0.25,0,0.496-0.047,0.74-0.143c0.243-0.095,0.462-0.227,0.657-0.396l0.99,0.927c-0.334,0.313-0.71,0.556-1.126,0.727
		c-0.417,0.172-0.837,0.257-1.26,0.257C179.623,39.361,179.312,39.361,179.312,39.361z"/>
	<path class="st1" d="M186.472,37.921l3.193-4.228c0.165-0.216,0.293-0.439,0.384-0.67c0.091-0.23,0.136-0.445,0.136-0.645v-0.012
		c0-0.31-0.094-0.549-0.283-0.718c-0.188-0.169-0.456-0.254-0.803-0.254c-0.334,0-0.604,0.103-0.81,0.308
		c-0.205,0.205-0.329,0.496-0.371,0.873v0.006h-1.562v-0.006c0.059-0.555,0.208-1.028,0.444-1.422s0.55-0.693,0.939-0.901
		s0.838-0.312,1.346-0.312c0.563,0,1.043,0.095,1.441,0.283c0.398,0.188,0.702,0.462,0.911,0.822
		c0.21,0.359,0.314,0.793,0.314,1.301v0.006c0,0.373-0.071,0.75-0.213,1.134c-0.142,0.383-0.337,0.741-0.587,1.075l-2.476,3.25
		h3.326v1.454h-5.332V37.921z"/>
	<path class="st1" d="M194.016,38.67c-0.459-0.461-0.688-1.104-0.688-1.93v-4.195c0-0.83,0.23-1.475,0.692-1.934
		s1.13-0.688,2.006-0.688c0.88,0,1.55,0.229,2.009,0.686c0.459,0.457,0.688,1.103,0.688,1.937v4.195c0,0.83-0.23,1.474-0.692,1.933
		c-0.461,0.46-1.13,0.688-2.006,0.688C195.145,39.361,194.476,39.131,194.016,38.67z M196.92,37.55
		c0.19-0.239,0.286-0.583,0.286-1.032v-3.751c0-0.448-0.095-0.792-0.286-1.031s-0.489-0.358-0.895-0.358s-0.705,0.119-0.895,0.358
		s-0.286,0.583-0.286,1.031v3.751c0,0.449,0.095,0.793,0.286,1.032s0.489,0.358,0.895,0.358S196.73,37.789,196.92,37.55z"/>
	<path class="st1" d="M202.855,39.267h-1.517v-7.503l-1.219,0.615v-1.593l1.346-0.749h1.39V39.267z"/>
	<path class="st1" d="M206.086,39.045c-0.432-0.212-0.766-0.512-1.003-0.898c-0.237-0.388-0.355-0.837-0.355-1.35v-0.152
		c0-0.461,0.122-0.895,0.365-1.301c0.244-0.406,0.566-0.713,0.968-0.92c-0.343-0.178-0.619-0.434-0.829-0.769
		c-0.209-0.335-0.314-0.688-0.314-1.06v-0.229c0-0.482,0.111-0.907,0.333-1.273c0.222-0.365,0.534-0.649,0.936-0.851
		c0.402-0.2,0.87-0.302,1.403-0.302s1.001,0.102,1.403,0.302c0.402,0.201,0.714,0.485,0.936,0.851
		c0.223,0.366,0.333,0.791,0.333,1.273v0.229c0,0.381-0.107,0.736-0.321,1.069c-0.213,0.332-0.494,0.585-0.841,0.759
		c0.406,0.211,0.733,0.52,0.98,0.923c0.248,0.404,0.372,0.837,0.372,1.298v0.152c0,0.513-0.119,0.962-0.355,1.35
		c-0.237,0.387-0.571,0.687-1.003,0.898c-0.432,0.211-0.933,0.316-1.504,0.316S206.518,39.256,206.086,39.045z M208.299,37.743
		c0.205-0.106,0.364-0.256,0.476-0.45c0.112-0.195,0.168-0.418,0.168-0.667v-0.089c0-0.246-0.056-0.461-0.168-0.647
		c-0.112-0.187-0.27-0.331-0.473-0.435s-0.44-0.156-0.711-0.156s-0.508,0.053-0.711,0.156s-0.361,0.25-0.473,0.438
		c-0.112,0.188-0.168,0.405-0.168,0.65v0.096c0,0.25,0.056,0.471,0.168,0.663c0.112,0.192,0.271,0.341,0.476,0.444
		c0.206,0.104,0.441,0.156,0.708,0.156S208.093,37.85,208.299,37.743z M208.197,33.69c0.175-0.1,0.311-0.241,0.406-0.426
		c0.095-0.184,0.143-0.396,0.143-0.638v-0.089c0-0.224-0.048-0.423-0.143-0.597c-0.096-0.174-0.231-0.307-0.406-0.4
		c-0.176-0.093-0.378-0.139-0.606-0.139s-0.431,0.046-0.606,0.139c-0.175,0.094-0.311,0.227-0.406,0.4
		c-0.095,0.174-0.143,0.375-0.143,0.604v0.095c0,0.237,0.048,0.446,0.143,0.628c0.096,0.183,0.231,0.323,0.406,0.423
		c0.176,0.099,0.378,0.149,0.606,0.149S208.021,33.789,208.197,33.69z"/>
</g>
</svg>