<!-- Generator: Adobe Illustrator 22.1.0, SVG Export Plug-In  -->
<svg version="1.1"
	 xmlns="http://www.w3.org/2000/svg" xmlns:xlink="http://www.w3.org/1999/xlink" xmlns:a="http://ns.adobe.com/AdobeSVGViewerExtensions/3.0/"
	 x="0px" y="0px" width="380.608px" height="80.513px" viewBox="0 0 380.608 80.513"
	 style="enable-background:new 0 0 380.608 80.513;" xml:space="preserve">
<style type="text/css">
	.st0{fill:#1B1464;}
	.st1{fill:#FFFFFF;}
</style>
<defs>
</defs>
<rect class="st0" width="380.608" height="80.513"/>
<g>
	<path class="st1" d="M50.32,35.788c-0.622-0.307-1.119-0.739-1.491-1.297l1.813-1.31c0.198,0.291,0.458,0.517,0.78,0.678
		s0.675,0.242,1.06,0.242c0.619,0,1.097-0.2,1.431-0.6c0.335-0.399,0.502-0.965,0.502-1.696v-9.208h2.268v9.218
		c0,0.936-0.168,1.734-0.502,2.397c-0.335,0.663-0.821,1.168-1.459,1.515s-1.406,0.521-2.305,0.521
		C51.642,36.248,50.943,36.095,50.32,35.788z"/>
	<path class="st1" d="M61.248,35.755c-0.61-0.328-1.075-0.807-1.394-1.436c-0.319-0.628-0.479-1.386-0.479-2.271v-1.57
		c0-0.874,0.159-1.622,0.479-2.244c0.318-0.623,0.783-1.097,1.394-1.422s1.343-0.488,2.197-0.488c0.855,0,1.588,0.163,2.198,0.488
		s1.074,0.799,1.394,1.422c0.319,0.622,0.479,1.37,0.479,2.244v1.598c0,0.88-0.159,1.631-0.479,2.254
		c-0.319,0.622-0.783,1.098-1.394,1.426c-0.61,0.329-1.343,0.493-2.198,0.493C62.591,36.248,61.858,36.084,61.248,35.755z
		 M64.811,33.586c0.322-0.356,0.483-0.86,0.483-1.511v-1.598c0-0.645-0.161-1.144-0.483-1.496c-0.322-0.354-0.777-0.53-1.366-0.53
		c-0.588,0-1.043,0.177-1.365,0.53c-0.322,0.353-0.483,0.852-0.483,1.496v1.598c0,0.65,0.159,1.154,0.479,1.511
		c0.319,0.355,0.776,0.534,1.37,0.534C64.034,34.12,64.489,33.942,64.811,33.586z"/>
	<path class="st1" d="M69.96,22.598h2.211v2.221H69.96V22.598z M69.96,26.463h2.211v9.646H69.96V26.463z"/>
	<path class="st1" d="M74.801,26.463h2.221v9.646h-2.221V26.463z M80.516,30.264c0-0.576-0.155-1.022-0.465-1.338
		c-0.31-0.316-0.749-0.475-1.319-0.475c-0.545,0-0.966,0.147-1.264,0.441c-0.297,0.295-0.446,0.711-0.446,1.25l-0.194-1.998
		c0.291-0.595,0.658-1.046,1.101-1.356c0.443-0.31,0.965-0.465,1.565-0.465c1.028,0,1.826,0.343,2.394,1.027
		c0.566,0.685,0.85,1.652,0.85,2.903v5.854h-2.221V30.264z"/>
	<path class="st1" d="M84.687,26.463h4.534v1.942h-4.534V26.463z M86.249,35.509c-0.378-0.431-0.567-1.066-0.567-1.909v-9.942h2.221
		v9.636c0,0.235,0.047,0.417,0.14,0.544s0.229,0.19,0.409,0.19h0.771v2.128h-1.188C87.221,36.155,86.626,35.94,86.249,35.509z"/>
	<path class="st1" d="M95.077,22.598h2.221v13.511h-2.221V22.598z M95.997,22.598h7.944v2.128h-7.944V22.598z M95.997,28.34h6.922
		v2.119h-6.922V28.34z M95.997,33.981h7.944v2.128h-7.944V33.981z"/>
	<path class="st1" d="M106.264,26.463h2.221v9.646h-2.221V26.463z M111.978,30.264c0-0.576-0.155-1.022-0.465-1.338
		c-0.31-0.316-0.749-0.475-1.319-0.475c-0.545,0-0.966,0.147-1.264,0.441c-0.297,0.295-0.446,0.711-0.446,1.25l-0.194-1.998
		c0.291-0.595,0.658-1.046,1.101-1.356c0.443-0.31,0.965-0.465,1.565-0.465c1.028,0,1.826,0.343,2.394,1.027
		c0.566,0.685,0.85,1.652,0.85,2.903v5.854h-2.221V30.264z"/>
	<path class="st1" d="M116.151,26.463h4.534v1.942h-4.534V26.463z M117.713,35.509c-0.378-0.431-0.567-1.066-0.567-1.909v-9.942
		h2.221v9.636c0,0.235,0.047,0.417,0.14,0.544s0.229,0.19,0.409,0.19h0.771v2.128h-1.188
		C118.685,36.155,118.09,35.94,117.713,35.509z"/>
	<path class="st1" d="M123.102,26.463h2.314v9.646h-2.314V26.463z M127.925,28.577c-0.217-0.084-0.468-0.126-0.753-0.126
		c-0.558,0-0.989,0.166-1.296,0.498c-0.307,0.331-0.46,0.791-0.46,1.38l-0.195-2.185c0.278-0.575,0.643-1.023,1.092-1.342
		c0.449-0.319,0.943-0.479,1.481-0.479c0.422,0,0.803,0.064,1.144,0.191s0.638,0.314,0.892,0.562l-1.356,1.868
		C128.324,28.783,128.142,28.661,127.925,28.577z"/>
	<path class="st1" d="M131.585,35.509c-0.551-0.492-0.826-1.24-0.826-2.244c0-0.953,0.278-1.669,0.836-2.146
		c0.558-0.477,1.394-0.715,2.509-0.715h2.583l0.13,1.728h-2.703c-0.44,0-0.771,0.094-0.99,0.279s-0.33,0.471-0.33,0.854
		c0,0.403,0.143,0.702,0.428,0.897c0.285,0.194,0.716,0.292,1.292,0.292c0.706,0,1.23-0.077,1.574-0.232
		c0.345-0.154,0.517-0.396,0.517-0.725l0.194,1.375c-0.105,0.304-0.289,0.558-0.553,0.763c-0.263,0.204-0.58,0.357-0.952,0.46
		c-0.372,0.102-0.777,0.153-1.218,0.153C132.967,36.248,132.137,36.002,131.585,35.509z M136.603,29.994
		c0-0.539-0.16-0.957-0.479-1.255c-0.319-0.297-0.771-0.445-1.353-0.445c-0.372,0-0.737,0.059-1.097,0.176
		c-0.359,0.118-0.682,0.282-0.966,0.493l-1.478-1.245c0.378-0.44,0.873-0.782,1.486-1.027c0.613-0.244,1.295-0.367,2.045-0.367
		c0.817,0,1.518,0.142,2.1,0.423c0.582,0.282,1.026,0.691,1.333,1.227c0.307,0.536,0.46,1.183,0.46,1.938v6.198h-2.053V29.994z"/>
	<path class="st1" d="M141.352,26.463h2.221v9.646h-2.221V26.463z M147.066,30.264c0-0.576-0.155-1.022-0.465-1.338
		c-0.31-0.316-0.749-0.475-1.319-0.475c-0.545,0-0.966,0.147-1.264,0.441c-0.297,0.295-0.446,0.711-0.446,1.25l-0.194-1.998
		c0.291-0.595,0.658-1.046,1.101-1.356c0.443-0.31,0.965-0.465,1.565-0.465c1.028,0,1.826,0.343,2.394,1.027
		c0.566,0.685,0.85,1.652,0.85,2.903v5.854h-2.221V30.264z"/>
	<path class="st1" d="M154.621,36.248c0,0-0.319-0.169-0.957-0.507c-0.639-0.338-1.125-0.83-1.459-1.478
		c-0.335-0.647-0.502-1.429-0.502-2.346v-1.311c0-0.904,0.167-1.677,0.502-2.318c0.334-0.642,0.82-1.129,1.459-1.464
		c0.638-0.334,1.405-0.502,2.304-0.502c0.515,0,0.999,0.061,1.454,0.182c0.456,0.121,0.864,0.296,1.227,0.525
		c0.363,0.229,0.665,0.508,0.906,0.836l-1.505,1.412c-0.254-0.266-0.552-0.471-0.893-0.613s-0.696-0.214-1.068-0.214
		c-0.688,0-1.221,0.188-1.599,0.563s-0.566,0.906-0.566,1.594v1.311c0,0.706,0.188,1.249,0.563,1.631
		c0.374,0.381,0.908,0.571,1.603,0.571c0.378,0,0.737-0.077,1.078-0.232s0.635-0.375,0.883-0.66l1.505,1.506
		c-0.248,0.322-0.553,0.596-0.915,0.822c-0.362,0.226-0.771,0.398-1.227,0.516s-0.938,0.177-1.445,0.177
		C155.069,36.248,154.621,36.248,154.621,36.248z"/>
	<path class="st1" d="M164.137,36.248c0,0-0.322-0.168-0.967-0.502c-0.645-0.335-1.137-0.825-1.478-1.473s-0.511-1.43-0.511-2.347
		V30.84c0-0.954,0.162-1.769,0.487-2.444c0.325-0.675,0.8-1.189,1.422-1.542c0.623-0.354,1.371-0.53,2.244-0.53
		c0.824,0,1.528,0.206,2.114,0.618c0.585,0.412,1.031,1.009,1.338,1.789s0.46,1.723,0.46,2.825v0.632h-6.551v-1.627h4.488
		l-0.01-0.102c-0.062-0.676-0.251-1.199-0.566-1.57c-0.316-0.372-0.74-0.558-1.273-0.558c-0.669,0-1.187,0.209-1.552,0.627
		s-0.548,1.012-0.548,1.779v1.227c0,0.731,0.198,1.293,0.595,1.687s0.953,0.59,1.672,0.59c0.366,0,0.727-0.069,1.083-0.209
		c0.356-0.139,0.677-0.333,0.962-0.58l1.449,1.356c-0.489,0.458-1.039,0.813-1.649,1.063s-1.225,0.377-1.845,0.377
		C164.592,36.248,164.137,36.248,164.137,36.248z"/>
	<path class="st1" d="M175.102,22.598h2.221v13.511h-2.221V22.598z M176.021,22.598h7.944v2.128h-7.944V22.598z M176.021,28.34
		h6.922v2.119h-6.922V28.34z M176.021,33.981h7.944v2.128h-7.944V33.981z"/>
	<path class="st1" d="M188.891,30.784l1.208,1.747l-2.342,3.577h-2.397L188.891,30.784z M189.15,31.918l-3.643-5.455h2.453
		l2.546,4.107l3.717,5.538h-2.443L189.15,31.918z M189.671,29.883l1.951-3.42h2.453l-3.262,5.204L189.671,29.883z"/>
	<path class="st1" d="M196.491,35.509c-0.551-0.492-0.826-1.24-0.826-2.244c0-0.953,0.278-1.669,0.836-2.146
		c0.558-0.477,1.394-0.715,2.509-0.715h2.583l0.13,1.728h-2.703c-0.44,0-0.771,0.094-0.99,0.279s-0.33,0.471-0.33,0.854
		c0,0.403,0.143,0.702,0.428,0.897c0.285,0.194,0.716,0.292,1.292,0.292c0.706,0,1.23-0.077,1.574-0.232
		c0.345-0.154,0.517-0.396,0.517-0.725l0.194,1.375c-0.105,0.304-0.289,0.558-0.553,0.763c-0.263,0.204-0.58,0.357-0.952,0.46
		c-0.372,0.102-0.777,0.153-1.218,0.153C197.873,36.248,197.043,36.002,196.491,35.509z M201.51,29.994
		c0-0.539-0.16-0.957-0.479-1.255c-0.319-0.297-0.771-0.445-1.353-0.445c-0.372,0-0.737,0.059-1.097,0.176
		c-0.359,0.118-0.682,0.282-0.966,0.493l-1.478-1.245c0.378-0.44,0.873-0.782,1.486-1.027c0.613-0.244,1.295-0.367,2.045-0.367
		c0.817,0,1.518,0.142,2.1,0.423c0.582,0.282,1.026,0.691,1.333,1.227c0.307,0.536,0.46,1.183,0.46,1.938v6.198h-2.053V29.994z"/>
	<path class="st1" d="M206.258,26.463h2.221v9.646h-2.221V26.463z M211.954,30.403c0-0.626-0.153-1.107-0.46-1.445
		s-0.742-0.507-1.306-0.507c-0.545,0-0.966,0.147-1.264,0.441c-0.297,0.295-0.446,0.711-0.446,1.25l-0.194-1.998
		c0.291-0.588,0.662-1.039,1.114-1.352s0.97-0.47,1.552-0.47c0.676,0,1.255,0.158,1.738,0.475c0.483,0.315,0.85,0.779,1.101,1.389
		c0.251,0.61,0.377,1.347,0.377,2.207v5.715h-2.212V30.403z M217.641,30.403c0-0.626-0.154-1.107-0.464-1.445
		c-0.311-0.338-0.75-0.507-1.32-0.507c-0.538,0-0.955,0.163-1.249,0.488c-0.295,0.325-0.441,0.788-0.441,1.39l-0.428-2.045
		c0.304-0.625,0.701-1.108,1.194-1.449c0.492-0.341,1.039-0.512,1.64-0.512c0.694,0,1.287,0.158,1.779,0.475
		c0.493,0.315,0.867,0.779,1.125,1.389c0.257,0.61,0.386,1.347,0.386,2.207v5.715h-2.222V30.403z"/>
	<path class="st1" d="M222.491,22.598h2.211v2.221h-2.211V22.598z M222.491,26.463h2.211v9.646h-2.211V26.463z"/>
	<path class="st1" d="M227.332,26.463h2.221v9.646h-2.221V26.463z M233.047,30.264c0-0.576-0.155-1.022-0.465-1.338
		c-0.31-0.316-0.749-0.475-1.319-0.475c-0.545,0-0.966,0.147-1.264,0.441c-0.297,0.295-0.446,0.711-0.446,1.25l-0.194-1.998
		c0.291-0.595,0.658-1.046,1.101-1.356c0.443-0.31,0.965-0.465,1.565-0.465c1.028,0,1.826,0.343,2.394,1.027
		c0.566,0.685,0.85,1.652,0.85,2.903v5.854h-2.221V30.264z"/>
	<path class="st1" d="M238.324,35.509c-0.551-0.492-0.826-1.24-0.826-2.244c0-0.953,0.278-1.669,0.836-2.146
		c0.558-0.477,1.394-0.715,2.509-0.715h2.583l0.13,1.728h-2.703c-0.44,0-0.771,0.094-0.99,0.279s-0.33,0.471-0.33,0.854
		c0,0.403,0.143,0.702,0.428,0.897c0.285,0.194,0.716,0.292,1.292,0.292c0.706,0,1.23-0.077,1.574-0.232
		c0.345-0.154,0.517-0.396,0.517-0.725l0.194,1.375c-0.105,0.304-0.289,0.558-0.553,0.763c-0.263,0.204-0.58,0.357-0.952,0.46
		c-0.372,0.102-0.777,0.153-1.218,0.153C239.706,36.248,238.876,36.002,238.324,35.509z M243.343,29.994
		c0-0.539-0.16-0.957-0.479-1.255c-0.319-0.297-0.771-0.445-1.353-0.445c-0.372,0-0.737,0.059-1.097,0.176
		c-0.359,0.118-0.682,0.282-0.966,0.493l-1.478-1.245c0.378-0.44,0.873-0.782,1.486-1.027c0.613-0.244,1.295-0.367,2.045-0.367
		c0.817,0,1.518,0.142,2.1,0.423c0.582,0.282,1.026,0.691,1.333,1.227c0.307,0.536,0.46,1.183,0.46,1.938v6.198h-2.053V29.994z"/>
	<path class="st1" d="M247.348,26.463h4.534v1.942h-4.534V26.463z M248.909,35.509c-0.378-0.431-0.567-1.066-0.567-1.909v-9.942
		h2.221v9.636c0,0.235,0.047,0.417,0.14,0.544s0.229,0.19,0.409,0.19h0.771v2.128h-1.188
		C249.881,36.155,249.286,35.94,248.909,35.509z"/>
	<path class="st1" d="M254.233,22.598h2.211v2.221h-2.211V22.598z M254.233,26.463h2.211v9.646h-2.211V26.463z"/>
	<path class="st1" d="M260.668,35.755c-0.61-0.328-1.075-0.807-1.394-1.436c-0.319-0.628-0.479-1.386-0.479-2.271v-1.57
		c0-0.874,0.159-1.622,0.479-2.244c0.318-0.623,0.783-1.097,1.394-1.422s1.343-0.488,2.197-0.488c0.855,0,1.588,0.163,2.198,0.488
		s1.074,0.799,1.394,1.422c0.319,0.622,0.479,1.37,0.479,2.244v1.598c0,0.88-0.159,1.631-0.479,2.254
		c-0.319,0.622-0.783,1.098-1.394,1.426c-0.61,0.329-1.343,0.493-2.198,0.493C262.011,36.248,261.278,36.084,260.668,35.755z
		 M264.231,33.586c0.322-0.356,0.483-0.86,0.483-1.511v-1.598c0-0.645-0.161-1.144-0.483-1.496c-0.322-0.354-0.777-0.53-1.366-0.53
		c-0.588,0-1.043,0.177-1.365,0.53c-0.322,0.353-0.483,0.852-0.483,1.496v1.598c0,0.65,0.159,1.154,0.479,1.511
		c0.319,0.355,0.776,0.534,1.37,0.534C263.454,34.12,263.909,33.942,264.231,33.586z"/>
	<path class="st1" d="M269.444,26.463h2.221v9.646h-2.221V26.463z M275.159,30.264c0-0.576-0.155-1.022-0.465-1.338
		c-0.31-0.316-0.749-0.475-1.319-0.475c-0.545,0-0.966,0.147-1.264,0.441c-0.297,0.295-0.446,0.711-0.446,1.25l-0.194-1.998
		c0.291-0.595,0.658-1.046,1.101-1.356c0.443-0.31,0.965-0.465,1.565-0.465c1.028,0,1.826,0.343,2.394,1.027
		c0.566,0.685,0.85,1.652,0.85,2.903v5.854h-2.221V30.264z"/>
	<path class="st1" d="M281.105,34.998c-0.563-1.483-0.845-3.121-0.845-4.911s0.281-3.427,0.845-4.911
		c0.564-1.483,1.413-2.823,2.547-4.019l1.394,1.505c-0.893,0.998-1.559,2.113-1.998,3.346s-0.659,2.593-0.659,4.079
		c0,1.487,0.22,2.847,0.659,4.079c0.439,1.233,1.105,2.352,1.998,3.354l-1.394,1.496C282.519,37.821,281.67,36.482,281.105,34.998z"
		/>
	<path class="st1" d="M295.824,22.598h2.565v13.511h-2.082V25.804l0.093,0.595l-2.954,8.019h-1.784l-2.955-7.833l0.093-0.78v10.305
		h-2.081V22.598h2.564l3.271,9.014L295.824,22.598z"/>
	<path class="st1" d="M301.726,35.509c-0.551-0.492-0.826-1.24-0.826-2.244c0-0.953,0.278-1.669,0.836-2.146
		c0.558-0.477,1.394-0.715,2.509-0.715h2.583l0.13,1.728h-2.703c-0.44,0-0.771,0.094-0.99,0.279s-0.33,0.471-0.33,0.854
		c0,0.403,0.143,0.702,0.428,0.897c0.285,0.194,0.716,0.292,1.292,0.292c0.706,0,1.23-0.077,1.574-0.232
		c0.345-0.154,0.517-0.396,0.517-0.725l0.194,1.375c-0.105,0.304-0.289,0.558-0.553,0.763c-0.263,0.204-0.58,0.357-0.952,0.46
		c-0.372,0.102-0.777,0.153-1.218,0.153C303.107,36.248,302.277,36.002,301.726,35.509z M306.744,29.994
		c0-0.539-0.16-0.957-0.479-1.255c-0.319-0.297-0.771-0.445-1.353-0.445c-0.372,0-0.737,0.059-1.097,0.176
		c-0.359,0.118-0.682,0.282-0.966,0.493l-1.478-1.245c0.378-0.44,0.873-0.782,1.486-1.027c0.613-0.244,1.295-0.367,2.045-0.367
		c0.817,0,1.518,0.142,2.1,0.423c0.582,0.282,1.026,0.691,1.333,1.227c0.307,0.536,0.46,1.183,0.46,1.938v6.198h-2.053V29.994z"/>
	<path class="st1" d="M311.427,22.598h2.211v2.221h-2.211V22.598z M311.427,26.463h2.211v9.646h-2.211V26.463z"/>
	<path class="st1" d="M316.268,26.463h2.221v9.646h-2.221V26.463z M321.982,30.264c0-0.576-0.155-1.022-0.465-1.338
		c-0.31-0.316-0.749-0.475-1.319-0.475c-0.545,0-0.966,0.147-1.264,0.441c-0.297,0.295-0.446,0.711-0.446,1.25l-0.194-1.998
		c0.291-0.595,0.658-1.046,1.101-1.356c0.443-0.31,0.965-0.465,1.565-0.465c1.028,0,1.826,0.343,2.394,1.027
		c0.566,0.685,0.85,1.652,0.85,2.903v5.854h-2.221V30.264z"/>
	<path class="st1" d="M325.598,37.521c0.893-1.003,1.558-2.121,1.998-3.354c0.439-1.232,0.66-2.592,0.66-4.079
		c0-1.486-0.221-2.847-0.66-4.079c-0.44-1.232-1.105-2.348-1.998-3.346l1.394-1.505c1.134,1.195,1.982,2.535,2.547,4.019
		c0.563,1.484,0.845,3.121,0.845,4.911s-0.281,3.428-0.845,4.911c-0.564,1.483-1.413,2.823-2.547,4.019L325.598,37.521z"/>
	<path class="st1" d="M45.456,56.976l4.674-6.188c0.241-0.316,0.429-0.643,0.563-0.98c0.133-0.338,0.199-0.652,0.199-0.943v-0.019
		c0-0.452-0.138-0.802-0.413-1.05c-0.276-0.248-0.668-0.372-1.176-0.372c-0.489,0-0.884,0.15-1.185,0.451
		c-0.301,0.3-0.481,0.726-0.544,1.277v0.009h-2.285v-0.009c0.086-0.812,0.303-1.505,0.65-2.081c0.347-0.576,0.805-1.017,1.375-1.32
		c0.569-0.303,1.227-0.455,1.97-0.455c0.824,0,1.527,0.138,2.109,0.414c0.582,0.275,1.026,0.677,1.333,1.203s0.46,1.161,0.46,1.904
		v0.01c0,0.545-0.104,1.098-0.311,1.658c-0.208,0.562-0.494,1.086-0.859,1.575l-3.624,4.758h4.869v2.128h-7.806V56.976z"/>
	<path class="st1" d="M56.5,58.072c-0.673-0.676-1.009-1.617-1.009-2.825v-6.143c0-1.214,0.338-2.157,1.013-2.829
		c0.676-0.672,1.654-1.008,2.937-1.008c1.288,0,2.269,0.334,2.941,1.003c0.672,0.669,1.008,1.614,1.008,2.834v6.143
		c0,1.214-0.338,2.157-1.013,2.829c-0.676,0.673-1.654,1.009-2.937,1.009C58.152,59.085,57.172,58.747,56.5,58.072z M60.751,56.432
		c0.278-0.35,0.418-0.854,0.418-1.51V49.43c0-0.656-0.14-1.159-0.418-1.51c-0.279-0.35-0.716-0.524-1.311-0.524
		s-1.031,0.175-1.311,0.524c-0.278,0.351-0.418,0.854-0.418,1.51v5.492c0,0.656,0.14,1.16,0.418,1.51
		c0.279,0.351,0.716,0.525,1.311,0.525S60.472,56.782,60.751,56.432z"/>
	<path class="st1" d="M69.438,58.945h-2.221V47.962l-1.784,0.901v-2.332l1.97-1.097h2.035V58.945z"/>
	<path class="st1" d="M74.169,58.62c-0.632-0.31-1.122-0.748-1.469-1.314c-0.347-0.567-0.521-1.226-0.521-1.975v-0.224
		c0-0.675,0.179-1.31,0.535-1.904c0.355-0.595,0.828-1.044,1.417-1.348c-0.502-0.261-0.906-0.635-1.213-1.124
		s-0.46-1.007-0.46-1.552v-0.335c0-0.706,0.162-1.327,0.487-1.863c0.325-0.535,0.782-0.951,1.371-1.245
		c0.588-0.294,1.272-0.441,2.054-0.441c0.78,0,1.465,0.147,2.054,0.441c0.588,0.294,1.045,0.71,1.37,1.245
		c0.325,0.536,0.488,1.157,0.488,1.863v0.335c0,0.557-0.157,1.079-0.47,1.565s-0.724,0.856-1.231,1.11
		c0.595,0.31,1.073,0.761,1.436,1.352c0.363,0.592,0.544,1.226,0.544,1.9v0.224c0,0.749-0.174,1.407-0.521,1.975
		c-0.347,0.566-0.836,1.005-1.468,1.314s-1.366,0.465-2.202,0.465C75.534,59.085,74.801,58.93,74.169,58.62z M77.407,56.715
		c0.3-0.154,0.532-0.374,0.696-0.659s0.247-0.61,0.247-0.976v-0.131c0-0.358-0.083-0.675-0.247-0.947s-0.395-0.484-0.692-0.637
		c-0.297-0.151-0.644-0.228-1.04-0.228s-0.743,0.076-1.041,0.228c-0.297,0.152-0.528,0.365-0.692,0.642
		c-0.164,0.275-0.246,0.593-0.246,0.952v0.14c0,0.365,0.082,0.688,0.246,0.971s0.396,0.499,0.697,0.65
		c0.3,0.152,0.646,0.228,1.036,0.228C76.761,56.947,77.106,56.87,77.407,56.715z M77.258,50.782
		c0.258-0.146,0.456-0.354,0.595-0.623c0.14-0.27,0.21-0.58,0.21-0.934v-0.13c0-0.328-0.07-0.619-0.21-0.874
		c-0.139-0.254-0.337-0.448-0.595-0.585c-0.257-0.136-0.553-0.204-0.887-0.204c-0.335,0-0.631,0.068-0.888,0.204
		c-0.257,0.137-0.455,0.331-0.595,0.585c-0.14,0.255-0.209,0.549-0.209,0.883v0.14c0,0.347,0.069,0.653,0.209,0.92
		s0.338,0.473,0.595,0.618S76.036,51,76.371,51C76.705,51,77.001,50.928,77.258,50.782z"/>
	<path class="st1" d="M89.548,53.045v2.118h-6.431v-2.118H89.548z"/>
	<path class="st1" d="M97.789,45.435h1.673l2.676,9.803l2.063-9.803h2.295l-3.206,13.511h-2.165l-2.443-9.44l-2.556,9.44h-2.165
		l-3.206-13.511h2.296l2.063,9.803L97.789,45.435z"/>
	<path class="st1" d="M108.012,45.435h2.211v2.221h-2.211V45.435z M108.012,49.3h2.211v9.646h-2.211V49.3z"/>
	<path class="st1" d="M112.108,49.3h4.534v1.942h-4.534V49.3z M113.67,58.346c-0.378-0.431-0.567-1.066-0.567-1.909v-9.942h2.221
		v9.636c0,0.235,0.047,0.417,0.14,0.544s0.229,0.19,0.409,0.19h0.771v2.128h-1.188C114.642,58.992,114.047,58.777,113.67,58.346z"/>
	<path class="st1" d="M119.059,45.435h2.221v13.511h-2.221V45.435z M124.773,53.101c0-0.576-0.155-1.022-0.465-1.338
		c-0.31-0.316-0.749-0.475-1.319-0.475c-0.545,0-0.966,0.146-1.264,0.438c-0.297,0.291-0.446,0.703-0.446,1.235l-0.194-1.998
		c0.291-0.582,0.658-1.027,1.101-1.338c0.443-0.31,0.965-0.465,1.565-0.465c1.028,0,1.826,0.343,2.394,1.027
		c0.566,0.685,0.85,1.652,0.85,2.903v5.854h-2.221V53.101z"/>
	<path class="st1" d="M133.128,45.425h2.221v13.521h-2.221V45.425z M134.048,51.242h4.655c0.31,0,0.584-0.076,0.822-0.228
		c0.238-0.152,0.423-0.367,0.553-0.646c0.13-0.278,0.198-0.604,0.204-0.976c0-0.365-0.064-0.688-0.195-0.966
		c-0.13-0.279-0.314-0.494-0.553-0.646c-0.238-0.151-0.516-0.228-0.831-0.228h-4.655v-2.128h4.72c0.763,0,1.432,0.165,2.008,0.493
		s1.023,0.793,1.343,1.394c0.318,0.601,0.479,1.295,0.479,2.081c0,0.793-0.16,1.49-0.479,2.091
		c-0.319,0.602-0.769,1.065-1.348,1.395c-0.579,0.328-1.247,0.492-2.003,0.492h-4.72V51.242z M137.309,52.952l2.305-0.428
		l3.55,6.421h-2.667L137.309,52.952z"/>
	<path class="st1" d="M145.431,58.346c-0.551-0.492-0.826-1.24-0.826-2.244c0-0.953,0.278-1.669,0.836-2.146
		c0.558-0.477,1.394-0.715,2.509-0.715h2.583l0.13,1.728h-2.703c-0.44,0-0.771,0.094-0.99,0.279s-0.33,0.471-0.33,0.854
		c0,0.403,0.143,0.702,0.428,0.897c0.285,0.194,0.716,0.292,1.292,0.292c0.706,0,1.23-0.077,1.574-0.232
		c0.345-0.154,0.517-0.396,0.517-0.725l0.194,1.375c-0.105,0.304-0.289,0.558-0.553,0.763c-0.263,0.204-0.58,0.357-0.952,0.46
		c-0.372,0.102-0.777,0.153-1.218,0.153C146.812,59.085,145.982,58.839,145.431,58.346z M150.449,52.831
		c0-0.539-0.16-0.957-0.479-1.255c-0.319-0.297-0.771-0.445-1.353-0.445c-0.372,0-0.737,0.059-1.097,0.176
		c-0.359,0.118-0.682,0.282-0.966,0.493l-1.478-1.245c0.378-0.44,0.873-0.782,1.486-1.027c0.613-0.244,1.295-0.367,2.045-0.367
		c0.817,0,1.518,0.142,2.1,0.423c0.582,0.282,1.026,0.691,1.333,1.227c0.307,0.536,0.46,1.183,0.46,1.938v6.198h-2.053V52.831z"/>
	<path class="st1" d="M155.196,49.3h2.221v9.646h-2.221V49.3z M160.911,53.101c0-0.576-0.155-1.022-0.465-1.338
		c-0.31-0.316-0.749-0.475-1.319-0.475c-0.545,0-0.966,0.147-1.264,0.441c-0.297,0.295-0.446,0.711-0.446,1.25l-0.194-1.998
		c0.291-0.595,0.658-1.046,1.101-1.356c0.443-0.31,0.965-0.465,1.565-0.465c1.028,0,1.826,0.343,2.394,1.027
		c0.566,0.685,0.85,1.652,0.85,2.903v5.854h-2.221V53.101z"/>
	<path class="st1" d="M165.826,45.435h2.221v13.511h-2.221V45.435z M166.83,55.377l4.729-6.077h2.463l-7.081,8.604L166.83,55.377z
		 M169.088,53.667l1.663-1.264l3.745,6.542h-2.5L169.088,53.667z"/>
	<path class="st1" d="M176.921,57.835c-0.563-1.483-0.845-3.121-0.845-4.911s0.281-3.427,0.845-4.911
		c0.564-1.483,1.413-2.823,2.547-4.019l1.394,1.505c-0.893,0.998-1.559,2.113-1.998,3.346s-0.659,2.593-0.659,4.079
		c0,1.487,0.22,2.847,0.659,4.079c0.439,1.233,1.105,2.352,1.998,3.354l-1.394,1.496C178.334,60.658,177.485,59.319,176.921,57.835z
		"/>
	<path class="st1" d="M182.535,45.435h2.211v13.511h-2.211V45.435z M183.649,56.846h3.986c0.774,0,1.351-0.163,1.729-0.488
		s0.567-0.779,0.567-1.361v-0.028c0-0.402-0.074-0.746-0.224-1.031c-0.148-0.284-0.378-0.503-0.688-0.655
		c-0.31-0.151-0.693-0.228-1.152-0.228h-4.219v-2.081h4.219c0.613,0,1.081-0.148,1.403-0.446c0.322-0.297,0.483-0.728,0.483-1.291
		c0-0.558-0.171-0.98-0.511-1.269c-0.341-0.288-0.843-0.433-1.506-0.433h-4.089v-2.1h4.303c0.873,0,1.612,0.147,2.216,0.441
		c0.604,0.294,1.06,0.714,1.366,1.259s0.46,1.199,0.46,1.961c0,0.495-0.098,0.946-0.293,1.352c-0.194,0.406-0.482,0.745-0.864,1.018
		c-0.381,0.272-0.847,0.459-1.398,0.558c0.57,0.081,1.06,0.269,1.469,0.563c0.408,0.294,0.722,0.669,0.938,1.124
		s0.325,0.965,0.325,1.528v0.028c0,0.75-0.163,1.401-0.488,1.956s-0.793,0.98-1.402,1.277c-0.61,0.298-1.334,0.446-2.17,0.446
		h-4.461V56.846z"/>
	<path class="st1" d="M196.227,58.592c-0.61-0.328-1.075-0.807-1.394-1.436c-0.319-0.628-0.479-1.386-0.479-2.271v-1.57
		c0-0.874,0.159-1.622,0.479-2.244c0.318-0.623,0.783-1.097,1.394-1.422s1.343-0.488,2.197-0.488c0.855,0,1.588,0.163,2.198,0.488
		s1.074,0.799,1.394,1.422c0.319,0.622,0.479,1.37,0.479,2.244v1.598c0,0.88-0.159,1.631-0.479,2.254
		c-0.319,0.622-0.783,1.098-1.394,1.426c-0.61,0.329-1.343,0.493-2.198,0.493C197.569,59.085,196.837,58.921,196.227,58.592z
		 M199.79,56.423c0.322-0.356,0.483-0.86,0.483-1.511v-1.598c0-0.645-0.161-1.144-0.483-1.496c-0.322-0.354-0.777-0.53-1.366-0.53
		c-0.588,0-1.043,0.177-1.365,0.53c-0.322,0.353-0.483,0.852-0.483,1.496v1.598c0,0.65,0.159,1.154,0.479,1.511
		c0.319,0.355,0.776,0.534,1.37,0.534C199.013,56.957,199.468,56.778,199.79,56.423z"/>
	<path class="st1" d="M204.26,49.3h4.534v1.942h-4.534V49.3z M205.821,58.346c-0.378-0.431-0.567-1.066-0.567-1.909v-9.942h2.221
		v9.636c0,0.235,0.047,0.417,0.14,0.544s0.229,0.19,0.409,0.19h0.771v2.128h-1.188C206.793,58.992,206.198,58.777,205.821,58.346z"
		/>
	<path class="st1" d="M211.21,45.435h2.221v13.511h-2.221V45.435z M216.925,53.101c0-0.576-0.155-1.022-0.465-1.338
		c-0.31-0.316-0.749-0.475-1.319-0.475c-0.545,0-0.966,0.146-1.264,0.438c-0.297,0.291-0.446,0.703-0.446,1.235l-0.194-1.998
		c0.291-0.582,0.658-1.027,1.101-1.338c0.443-0.31,0.965-0.465,1.565-0.465c1.028,0,1.826,0.343,2.394,1.027
		c0.566,0.685,0.85,1.652,0.85,2.903v5.854h-2.221V53.101z"/>
	<path class="st1" d="M225.092,49.3h2.221v13.566h-2.221V49.3z M228.131,58.653c-0.428-0.288-0.743-0.695-0.948-1.222l0.13-2.109
		c0,0.365,0.065,0.677,0.195,0.934c0.13,0.258,0.319,0.454,0.567,0.591c0.247,0.136,0.548,0.204,0.901,0.204
		c0.551,0,0.979-0.174,1.282-0.521c0.303-0.347,0.455-0.839,0.455-1.478V53.24c0-0.65-0.152-1.154-0.455-1.511
		c-0.304-0.355-0.731-0.534-1.282-0.534c-0.354,0-0.654,0.067-0.901,0.2c-0.248,0.133-0.438,0.33-0.567,0.59
		c-0.13,0.261-0.195,0.573-0.195,0.938l-0.194-1.998c0.272-0.563,0.633-0.999,1.082-1.306s0.946-0.46,1.491-0.46
		c0.682,0,1.266,0.158,1.752,0.475c0.486,0.315,0.856,0.779,1.11,1.389c0.254,0.61,0.381,1.347,0.381,2.207v1.821
		c0,0.849-0.129,1.575-0.386,2.179c-0.257,0.604-0.633,1.064-1.129,1.38c-0.495,0.316-1.087,0.475-1.774,0.475
		C229.062,59.085,228.558,58.941,228.131,58.653z"/>
	<path class="st1" d="M235.806,58.346c-0.551-0.492-0.826-1.24-0.826-2.244c0-0.953,0.278-1.669,0.836-2.146
		c0.558-0.477,1.394-0.715,2.509-0.715h2.583l0.13,1.728h-2.703c-0.44,0-0.771,0.094-0.99,0.279s-0.33,0.471-0.33,0.854
		c0,0.403,0.143,0.702,0.428,0.897c0.285,0.194,0.716,0.292,1.292,0.292c0.706,0,1.23-0.077,1.574-0.232
		c0.345-0.154,0.517-0.396,0.517-0.725l0.194,1.375c-0.105,0.304-0.289,0.558-0.553,0.763c-0.263,0.204-0.58,0.357-0.952,0.46
		c-0.372,0.102-0.777,0.153-1.218,0.153C237.187,59.085,236.357,58.839,235.806,58.346z M240.824,52.831
		c0-0.539-0.16-0.957-0.479-1.255c-0.319-0.297-0.771-0.445-1.353-0.445c-0.372,0-0.737,0.059-1.097,0.176
		c-0.359,0.118-0.682,0.282-0.966,0.493l-1.478-1.245c0.378-0.44,0.873-0.782,1.486-1.027c0.613-0.244,1.295-0.367,2.045-0.367
		c0.817,0,1.518,0.142,2.1,0.423c0.582,0.282,1.026,0.691,1.333,1.227c0.307,0.536,0.46,1.183,0.46,1.938v6.198h-2.053V52.831z"/>
	<path class="st1" d="M245.572,49.3h2.221v13.566h-2.221V49.3z M248.611,58.653c-0.428-0.288-0.743-0.695-0.948-1.222l0.13-2.109
		c0,0.365,0.065,0.677,0.195,0.934c0.13,0.258,0.319,0.454,0.567,0.591c0.247,0.136,0.548,0.204,0.901,0.204
		c0.551,0,0.979-0.174,1.282-0.521c0.303-0.347,0.455-0.839,0.455-1.478V53.24c0-0.65-0.152-1.154-0.455-1.511
		c-0.304-0.355-0.731-0.534-1.282-0.534c-0.354,0-0.654,0.067-0.901,0.2c-0.248,0.133-0.438,0.33-0.567,0.59
		c-0.13,0.261-0.195,0.573-0.195,0.938l-0.194-1.998c0.272-0.563,0.633-0.999,1.082-1.306s0.946-0.46,1.491-0.46
		c0.682,0,1.266,0.158,1.752,0.475c0.486,0.315,0.856,0.779,1.11,1.389c0.254,0.61,0.381,1.347,0.381,2.207v1.821
		c0,0.849-0.129,1.575-0.386,2.179c-0.257,0.604-0.633,1.064-1.129,1.38c-0.495,0.316-1.087,0.475-1.774,0.475
		C249.543,59.085,249.038,58.941,248.611,58.653z"/>
	<path class="st1" d="M258.601,59.085c0,0-0.322-0.168-0.967-0.502c-0.645-0.335-1.137-0.825-1.478-1.473s-0.511-1.43-0.511-2.347
		v-1.087c0-0.954,0.162-1.769,0.487-2.444c0.325-0.675,0.8-1.189,1.422-1.542c0.623-0.354,1.371-0.53,2.244-0.53
		c0.824,0,1.528,0.206,2.114,0.618c0.585,0.412,1.031,1.009,1.338,1.789s0.46,1.723,0.46,2.825v0.632h-6.551v-1.627h4.488
		l-0.01-0.102c-0.062-0.676-0.251-1.199-0.566-1.57c-0.316-0.372-0.74-0.558-1.273-0.558c-0.669,0-1.187,0.209-1.552,0.627
		s-0.548,1.012-0.548,1.779v1.227c0,0.731,0.198,1.293,0.595,1.687s0.953,0.59,1.672,0.59c0.366,0,0.727-0.069,1.083-0.209
		c0.356-0.139,0.677-0.333,0.962-0.58l1.449,1.356c-0.489,0.458-1.039,0.813-1.649,1.063s-1.225,0.377-1.845,0.377
		C259.056,59.085,258.601,59.085,258.601,59.085z"/>
	<path class="st1" d="M266.127,49.3h2.314v9.646h-2.314V49.3z M270.95,51.414c-0.217-0.084-0.468-0.126-0.753-0.126
		c-0.558,0-0.989,0.166-1.296,0.498c-0.307,0.331-0.46,0.791-0.46,1.38l-0.195-2.185c0.278-0.575,0.643-1.023,1.092-1.342
		c0.449-0.319,0.943-0.479,1.481-0.479c0.422,0,0.803,0.064,1.144,0.191s0.638,0.314,0.892,0.562l-1.356,1.868
		C271.35,51.62,271.167,51.498,270.95,51.414z"/>
	<path class="st1" d="M280.854,58.945h-2.221V47.962l-1.784,0.901v-2.332l1.97-1.097h2.035V58.945z"/>
	<path class="st1" d="M287.442,58.346c-0.551-0.492-0.826-1.24-0.826-2.244c0-0.953,0.278-1.669,0.836-2.146
		c0.558-0.477,1.394-0.715,2.509-0.715h2.583l0.13,1.728h-2.703c-0.44,0-0.771,0.094-0.99,0.279s-0.33,0.471-0.33,0.854
		c0,0.403,0.143,0.702,0.428,0.897c0.285,0.194,0.716,0.292,1.292,0.292c0.706,0,1.23-0.077,1.574-0.232
		c0.345-0.154,0.517-0.396,0.517-0.725l0.194,1.375c-0.105,0.304-0.289,0.558-0.553,0.763c-0.263,0.204-0.58,0.357-0.952,0.46
		c-0.372,0.102-0.777,0.153-1.218,0.153C288.824,59.085,287.994,58.839,287.442,58.346z M292.461,52.831
		c0-0.539-0.16-0.957-0.479-1.255c-0.319-0.297-0.771-0.445-1.353-0.445c-0.372,0-0.737,0.059-1.097,0.176
		c-0.359,0.118-0.682,0.282-0.966,0.493l-1.478-1.245c0.378-0.44,0.873-0.782,1.486-1.027c0.613-0.244,1.295-0.367,2.045-0.367
		c0.817,0,1.518,0.142,2.1,0.423c0.582,0.282,1.026,0.691,1.333,1.227c0.307,0.536,0.46,1.183,0.46,1.938v6.198h-2.053V52.831z"/>
	<path class="st1" d="M297.209,49.3h2.221v9.646h-2.221V49.3z M302.924,53.101c0-0.576-0.155-1.022-0.465-1.338
		c-0.31-0.316-0.749-0.475-1.319-0.475c-0.545,0-0.966,0.147-1.264,0.441c-0.297,0.295-0.446,0.711-0.446,1.25l-0.194-1.998
		c0.291-0.595,0.658-1.046,1.101-1.356c0.443-0.31,0.965-0.465,1.565-0.465c1.028,0,1.826,0.343,2.394,1.027
		c0.566,0.685,0.85,1.652,0.85,2.903v5.854h-2.221V53.101z"/>
	<path class="st1" d="M309.07,58.625c-0.492-0.319-0.867-0.781-1.124-1.385c-0.258-0.604-0.386-1.333-0.386-2.188v-1.84
		c0-0.854,0.127-1.587,0.381-2.197s0.624-1.075,1.11-1.395c0.486-0.318,1.07-0.479,1.752-0.479c0.545,0,1.042,0.152,1.491,0.456
		s0.81,0.73,1.082,1.282l-0.194,2.054c0-0.372-0.065-0.688-0.195-0.948c-0.131-0.26-0.319-0.458-0.567-0.595
		c-0.248-0.136-0.548-0.204-0.901-0.204c-0.551,0-0.979,0.18-1.282,0.539s-0.455,0.86-0.455,1.505v1.821
		c0,0.639,0.151,1.132,0.455,1.482c0.304,0.35,0.731,0.524,1.282,0.524c0.354,0,0.653-0.069,0.901-0.209
		c0.248-0.139,0.437-0.339,0.567-0.599c0.13-0.261,0.195-0.573,0.195-0.938l0.13,2.118c-0.192,0.502-0.501,0.906-0.925,1.213
		c-0.425,0.307-0.938,0.46-1.538,0.46C310.156,59.104,309.562,58.944,309.07,58.625z M313.183,45.435h2.221v13.511h-2.221V45.435z"
		/>
	<path class="st1" d="M321.053,56.976l4.674-6.188c0.241-0.316,0.429-0.643,0.563-0.98c0.133-0.338,0.199-0.652,0.199-0.943v-0.019
		c0-0.452-0.138-0.802-0.413-1.05c-0.276-0.248-0.668-0.372-1.176-0.372c-0.489,0-0.884,0.15-1.185,0.451
		c-0.301,0.3-0.481,0.726-0.544,1.277v0.009h-2.285v-0.009c0.086-0.812,0.303-1.505,0.65-2.081c0.347-0.576,0.805-1.017,1.375-1.32
		c0.569-0.303,1.227-0.455,1.97-0.455c0.824,0,1.527,0.138,2.109,0.414c0.582,0.275,1.026,0.677,1.333,1.203s0.46,1.161,0.46,1.904
		v0.01c0,0.545-0.104,1.098-0.311,1.658c-0.208,0.562-0.494,1.086-0.859,1.575l-3.624,4.758h4.869v2.128h-7.806V56.976z"/>
	<path class="st1" d="M329.881,60.358c0.893-1.003,1.558-2.121,1.998-3.354c0.439-1.232,0.66-2.592,0.66-4.079
		c0-1.486-0.221-2.847-0.66-4.079c-0.44-1.232-1.105-2.348-1.998-3.346l1.394-1.505c1.134,1.195,1.982,2.535,2.547,4.019
		c0.563,1.484,0.845,3.121,0.845,4.911s-0.281,3.428-0.845,4.911c-0.564,1.483-1.413,2.823-2.547,4.019L329.881,60.358z"/>
</g>
</svg>