<!-- Generator: Adobe Illustrator 22.1.0, SVG Export Plug-In  -->
<svg version="1.1"
	 xmlns="http://www.w3.org/2000/svg" xmlns:xlink="http://www.w3.org/1999/xlink" xmlns:a="http://ns.adobe.com/AdobeSVGViewerExtensions/3.0/"
	 x="0px" y="0px" width="219px" height="55px" viewBox="0 0 219 55" style="enable-background:new 0 0 219 55;"
	 xml:space="preserve">
<style type="text/css">
	.st0{fill:#1B1464;}
	.st1{fill:#FFFFFF;}
</style>
<defs>
</defs>
<rect class="st0" width="219" height="55"/>
<g>
	<path class="st1" d="M30.752,24.095c0,0-0.247-0.139-0.739-0.416c-0.493-0.277-0.872-0.674-1.137-1.19
		c-0.264-0.516-0.396-1.128-0.396-1.834v-2.533c0-0.707,0.132-1.318,0.396-1.834c0.265-0.516,0.644-0.914,1.137-1.193
		c0.493-0.279,1.074-0.419,1.742-0.419c0.554,0,1.057,0.119,1.508,0.355c0.45,0.237,0.825,0.579,1.123,1.025
		c0.299,0.447,0.503,0.975,0.613,1.584h-1.562c-0.076-0.296-0.197-0.556-0.362-0.777c-0.165-0.223-0.361-0.393-0.587-0.511
		c-0.227-0.119-0.471-0.178-0.733-0.178c-0.351,0-0.655,0.08-0.911,0.238c-0.256,0.159-0.454,0.384-0.593,0.676
		s-0.209,0.637-0.209,1.035v2.533c0,0.398,0.07,0.743,0.209,1.035s0.337,0.516,0.593,0.673c0.256,0.157,0.56,0.235,0.911,0.235
		c0.267,0,0.513-0.057,0.739-0.171c0.227-0.114,0.422-0.281,0.587-0.501s0.284-0.484,0.355-0.793h1.562
		c-0.114,0.609-0.321,1.137-0.619,1.584c-0.299,0.446-0.673,0.788-1.124,1.025c-0.45,0.237-0.951,0.355-1.501,0.355
		C31.087,24.095,30.752,24.095,30.752,24.095z"/>
	<path class="st1" d="M38.884,24.095c0,0-0.204-0.043-0.612-0.13c-0.409-0.086-0.792-0.214-1.149-0.384
		c-0.357-0.169-0.684-0.379-0.98-0.628l0.806-1.212c0.355,0.3,0.754,0.528,1.197,0.683c0.442,0.154,0.911,0.231,1.406,0.231
		c0.618,0,1.097-0.11,1.438-0.33c0.34-0.22,0.511-0.531,0.511-0.933v-0.006c0-0.284-0.076-0.509-0.229-0.676
		c-0.152-0.167-0.351-0.29-0.597-0.368c-0.246-0.079-0.561-0.151-0.946-0.219c-0.013-0.004-0.025-0.006-0.038-0.006
		s-0.025-0.002-0.038-0.006l-0.114-0.019c-0.618-0.102-1.125-0.222-1.523-0.362s-0.736-0.389-1.016-0.749s-0.419-0.87-0.419-1.53
		v-0.006c0-0.584,0.131-1.083,0.394-1.498s0.643-0.73,1.143-0.946s1.1-0.324,1.803-0.324c0.33,0,0.661,0.037,0.994,0.111
		c0.332,0.074,0.658,0.182,0.978,0.324c0.319,0.142,0.629,0.318,0.93,0.53l-0.736,1.25c-0.355-0.254-0.717-0.446-1.085-0.578
		s-0.728-0.197-1.079-0.197c-0.584,0-1.036,0.107-1.355,0.32c-0.32,0.214-0.479,0.516-0.479,0.905v0.006
		c0,0.292,0.083,0.522,0.248,0.692s0.372,0.293,0.619,0.372c0.248,0.078,0.594,0.162,1.038,0.25
		c0.017,0.004,0.033,0.007,0.048,0.009c0.015,0.002,0.03,0.005,0.047,0.01c0.021,0.004,0.044,0.008,0.07,0.013
		s0.049,0.008,0.07,0.013c0.571,0.114,1.048,0.252,1.431,0.413c0.383,0.161,0.704,0.419,0.962,0.774s0.387,0.84,0.387,1.454v0.013
		c0,0.576-0.135,1.068-0.406,1.479s-0.665,0.723-1.181,0.936c-0.516,0.214-1.138,0.321-1.866,0.321
		C39.106,24.095,38.884,24.095,38.884,24.095z"/>
	<path class="st1" d="M44.717,14.771h1.511V24h-1.511V14.771z M45.479,22.565h2.723c0.529,0,0.922-0.111,1.181-0.333
		c0.258-0.223,0.387-0.532,0.387-0.93v-0.019c0-0.275-0.051-0.51-0.152-0.705s-0.258-0.344-0.47-0.448
		c-0.211-0.104-0.474-0.155-0.787-0.155h-2.882v-1.422h2.882c0.419,0,0.738-0.102,0.958-0.305s0.33-0.497,0.33-0.882
		c0-0.381-0.116-0.669-0.349-0.867c-0.233-0.196-0.576-0.295-1.028-0.295h-2.793v-1.435h2.939c0.597,0,1.101,0.101,1.514,0.302
		c0.412,0.201,0.724,0.487,0.933,0.86c0.21,0.373,0.314,0.819,0.314,1.339c0,0.338-0.066,0.646-0.2,0.924
		c-0.133,0.277-0.33,0.509-0.59,0.695c-0.261,0.186-0.579,0.313-0.956,0.381c0.389,0.055,0.724,0.183,1.003,0.384
		c0.279,0.201,0.493,0.457,0.641,0.768c0.148,0.312,0.222,0.659,0.222,1.044v0.019c0,0.512-0.111,0.958-0.333,1.336
		c-0.222,0.379-0.542,0.67-0.958,0.873C49.591,23.898,49.097,24,48.526,24h-3.047V22.565z"/>
	<path class="st1" d="M53.109,14.771h1.517V24h-1.517V14.771z M53.737,14.771h5.427v1.454h-5.427V14.771z M53.737,18.693h4.729
		v1.447h-4.729V18.693z M53.737,22.546h5.427V24h-5.427V22.546z"/>
	<path class="st1" d="M65.144,19.969v1.447h-4.393v-1.447H65.144z"/>
	<path class="st1" d="M68.502,23.692c-0.495-0.269-0.872-0.66-1.13-1.175c-0.258-0.514-0.387-1.133-0.387-1.856v-5.891h1.517v5.935
		c0,0.601,0.156,1.066,0.466,1.396c0.312,0.33,0.75,0.495,1.317,0.495c0.571,0,1.014-0.165,1.327-0.495s0.47-0.795,0.47-1.396
		v-5.935h1.517v5.891c0,0.724-0.13,1.343-0.391,1.856c-0.26,0.515-0.638,0.906-1.133,1.175c-0.495,0.269-1.092,0.403-1.79,0.403
		C69.592,24.095,68.997,23.961,68.502,23.692z"/>
	<path class="st1" d="M82.067,18.935v1.708c0,0.686-0.137,1.29-0.409,1.812c-0.273,0.523-0.658,0.927-1.155,1.213
		c-0.498,0.285-1.074,0.428-1.73,0.428c-0.66,0-1.242-0.134-1.746-0.403c-0.503-0.269-0.894-0.649-1.171-1.14
		c-0.277-0.491-0.416-1.06-0.416-1.708v-2.723c0-0.686,0.137-1.289,0.409-1.809c0.273-0.521,0.658-0.923,1.155-1.209
		c0.498-0.285,1.074-0.428,1.73-0.428c0.538,0,1.035,0.113,1.492,0.339c0.457,0.227,0.838,0.547,1.143,0.962
		s0.512,0.895,0.622,1.441h-1.638c-0.072-0.254-0.189-0.472-0.353-0.654c-0.163-0.182-0.355-0.32-0.577-0.416
		c-0.223-0.095-0.452-0.143-0.689-0.143c-0.347,0-0.651,0.079-0.911,0.238c-0.261,0.158-0.462,0.383-0.606,0.673
		c-0.144,0.29-0.216,0.625-0.216,1.006v2.723c0,0.343,0.073,0.644,0.219,0.905c0.146,0.26,0.354,0.461,0.622,0.603
		c0.269,0.142,0.579,0.213,0.93,0.213c0.347,0,0.652-0.075,0.914-0.226c0.262-0.15,0.464-0.368,0.606-0.653
		c0.142-0.286,0.213-0.625,0.213-1.019v-0.279h-1.638v-1.454H82.067z"/>
	<path class="st1" d="M86.117,24.095c0,0-0.247-0.139-0.739-0.416c-0.493-0.277-0.872-0.674-1.137-1.19
		c-0.264-0.516-0.396-1.128-0.396-1.834v-2.533c0-0.707,0.132-1.318,0.396-1.834c0.265-0.516,0.644-0.914,1.137-1.193
		c0.493-0.279,1.074-0.419,1.742-0.419c0.554,0,1.057,0.119,1.508,0.355c0.45,0.237,0.825,0.579,1.123,1.025
		c0.299,0.447,0.503,0.975,0.613,1.584h-1.562c-0.076-0.296-0.197-0.556-0.362-0.777c-0.165-0.223-0.361-0.393-0.587-0.511
		c-0.227-0.119-0.471-0.178-0.733-0.178c-0.351,0-0.655,0.08-0.911,0.238c-0.256,0.159-0.454,0.384-0.593,0.676
		s-0.209,0.637-0.209,1.035v2.533c0,0.398,0.07,0.743,0.209,1.035s0.337,0.516,0.593,0.673c0.256,0.157,0.56,0.235,0.911,0.235
		c0.267,0,0.513-0.057,0.739-0.171c0.227-0.114,0.422-0.281,0.587-0.501s0.284-0.484,0.355-0.793h1.562
		c-0.114,0.609-0.321,1.137-0.619,1.584c-0.299,0.446-0.673,0.788-1.124,1.025c-0.45,0.237-0.951,0.355-1.501,0.355
		C86.451,24.095,86.117,24.095,86.117,24.095z"/>
	<path class="st1" d="M94.299,14.771h1.65l3.974,7.103l-0.152,0.165v-7.268h1.473v9.223H99.58l-3.961-6.995l0.152-0.165v7.16h-1.473
		V14.771z"/>
	<path class="st1" d="M103.401,14.771h1.517V24h-1.517V14.771z M104.03,14.771h5.427v1.454h-5.427V14.771z M104.03,18.693h4.729
		v1.447h-4.729V18.693z M104.03,22.546h5.427V24h-5.427V22.546z"/>
	<path class="st1" d="M109.901,14.771h6.64v1.454h-6.64V14.771z M112.466,15.526h1.511V24h-1.511V15.526z"/>
	<path class="st1" d="M119.651,14.771h1.517V24h-1.517V14.771z M120.28,14.771h5.427v1.454h-5.427V14.771z M120.28,18.693h4.729
		v1.447h-4.729V18.693z M120.28,22.546h5.427V24h-5.427V22.546z"/>
	<path class="st1" d="M129.071,20.363l0.825,1.193l-1.6,2.444h-1.638L129.071,20.363z M129.249,21.137l-2.488-3.726h1.676
		l1.739,2.806L132.715,24h-1.669L129.249,21.137z M129.604,19.747l1.333-2.336h1.676l-2.228,3.555L129.604,19.747z"/>
	<path class="st1" d="M134.264,23.591c-0.376-0.337-0.565-0.848-0.565-1.533c0-0.652,0.19-1.141,0.571-1.466
		s0.952-0.489,1.714-0.489h1.765l0.089,1.181h-1.847c-0.3,0-0.526,0.063-0.676,0.19c-0.15,0.127-0.225,0.322-0.225,0.584
		c0,0.275,0.097,0.479,0.292,0.612c0.195,0.134,0.489,0.2,0.882,0.2c0.482,0,0.841-0.053,1.076-0.159
		c0.234-0.106,0.352-0.271,0.352-0.495l0.133,0.939c-0.072,0.208-0.198,0.381-0.378,0.521c-0.18,0.14-0.396,0.245-0.65,0.314
		c-0.254,0.07-0.531,0.105-0.832,0.105C135.208,24.095,134.64,23.927,134.264,23.591z M137.691,19.823
		c0-0.368-0.109-0.654-0.327-0.857c-0.218-0.203-0.526-0.305-0.924-0.305c-0.254,0-0.503,0.04-0.749,0.121s-0.465,0.192-0.66,0.336
		l-1.009-0.851c0.258-0.3,0.597-0.534,1.016-0.702c0.419-0.167,0.884-0.25,1.396-0.25c0.559,0,1.037,0.096,1.435,0.289
		c0.398,0.193,0.702,0.472,0.911,0.838c0.21,0.366,0.314,0.808,0.314,1.324V24h-1.403V19.823z"/>
	<path class="st1" d="M140.935,17.411h1.517V24h-1.517V17.411z M144.826,20.103c0-0.427-0.105-0.756-0.314-0.987
		c-0.21-0.23-0.507-0.346-0.892-0.346c-0.373,0-0.66,0.101-0.863,0.302c-0.203,0.201-0.305,0.485-0.305,0.854l-0.133-1.365
		c0.199-0.402,0.453-0.71,0.762-0.923c0.309-0.214,0.662-0.321,1.06-0.321c0.461,0,0.857,0.108,1.187,0.324s0.581,0.532,0.752,0.949
		c0.172,0.417,0.257,0.919,0.257,1.507V24h-1.511V20.103z M148.711,20.103c0-0.427-0.106-0.756-0.317-0.987
		c-0.211-0.23-0.512-0.346-0.901-0.346c-0.368,0-0.653,0.111-0.854,0.333c-0.201,0.223-0.301,0.539-0.301,0.949l-0.292-1.396
		c0.208-0.427,0.479-0.757,0.816-0.99c0.336-0.233,0.709-0.349,1.12-0.349c0.474,0,0.879,0.108,1.216,0.324
		c0.336,0.216,0.592,0.532,0.768,0.949c0.176,0.417,0.264,0.919,0.264,1.507V24h-1.517V20.103z"/>
	<path class="st1" d="M152.024,14.771h1.511v1.517h-1.511V14.771z M152.024,17.411h1.511V24h-1.511V17.411z"/>
	<path class="st1" d="M155.332,17.411h1.517V24h-1.517V17.411z M159.235,20.007c0-0.394-0.106-0.698-0.317-0.914
		s-0.512-0.324-0.901-0.324c-0.373,0-0.66,0.101-0.863,0.302c-0.203,0.201-0.305,0.485-0.305,0.854l-0.133-1.365
		c0.199-0.406,0.45-0.715,0.752-0.927c0.303-0.211,0.659-0.317,1.07-0.317c0.703,0,1.248,0.234,1.634,0.702
		c0.388,0.467,0.581,1.128,0.581,1.983V24h-1.517V20.007z"/>
	<path class="st1" d="M162.841,23.591c-0.376-0.337-0.565-0.848-0.565-1.533c0-0.652,0.19-1.141,0.571-1.466
		s0.952-0.489,1.714-0.489h1.765l0.089,1.181h-1.847c-0.3,0-0.526,0.063-0.676,0.19c-0.15,0.127-0.225,0.322-0.225,0.584
		c0,0.275,0.097,0.479,0.292,0.612c0.195,0.134,0.489,0.2,0.882,0.2c0.482,0,0.841-0.053,1.076-0.159
		c0.234-0.106,0.352-0.271,0.352-0.495l0.133,0.939c-0.072,0.208-0.198,0.381-0.378,0.521c-0.18,0.14-0.396,0.245-0.65,0.314
		c-0.254,0.07-0.531,0.105-0.832,0.105C163.785,24.095,163.217,23.927,162.841,23.591z M166.269,19.823
		c0-0.368-0.109-0.654-0.327-0.857c-0.218-0.203-0.526-0.305-0.924-0.305c-0.254,0-0.503,0.04-0.749,0.121s-0.465,0.192-0.66,0.336
		l-1.009-0.851c0.258-0.3,0.597-0.534,1.016-0.702c0.419-0.167,0.884-0.25,1.396-0.25c0.559,0,1.037,0.096,1.435,0.289
		c0.398,0.193,0.702,0.472,0.911,0.838c0.21,0.366,0.314,0.808,0.314,1.324V24h-1.403V19.823z"/>
	<path class="st1" d="M169.004,17.411h3.098v1.327h-3.098V17.411z M170.071,23.591c-0.258-0.294-0.387-0.729-0.387-1.305v-6.792
		h1.517v6.583c0,0.161,0.032,0.285,0.095,0.372c0.063,0.086,0.157,0.13,0.279,0.13h0.527v1.454h-0.813
		C170.735,24.032,170.329,23.885,170.071,23.591z"/>
	<path class="st1" d="M173.708,14.771h1.511v1.517h-1.511V14.771z M173.708,17.411h1.511V24h-1.511V17.411z"/>
	<path class="st1" d="M178.104,23.759c-0.417-0.224-0.734-0.551-0.952-0.98c-0.218-0.43-0.327-0.947-0.327-1.552v-1.073
		c0-0.597,0.109-1.107,0.327-1.533c0.218-0.425,0.535-0.749,0.952-0.971c0.417-0.223,0.917-0.333,1.501-0.333
		s1.084,0.111,1.501,0.333c0.417,0.222,0.734,0.546,0.952,0.971c0.218,0.426,0.327,0.937,0.327,1.533v1.092
		c0,0.601-0.109,1.114-0.327,1.539c-0.218,0.426-0.535,0.75-0.952,0.975c-0.417,0.224-0.917,0.336-1.501,0.336
		S178.521,23.983,178.104,23.759z M180.538,22.276c0.22-0.243,0.33-0.587,0.33-1.031v-1.092c0-0.44-0.11-0.781-0.33-1.022
		s-0.531-0.362-0.933-0.362s-0.713,0.121-0.933,0.362s-0.33,0.582-0.33,1.022v1.092c0,0.444,0.109,0.788,0.327,1.031
		c0.218,0.244,0.53,0.365,0.937,0.365C180.007,22.642,180.318,22.52,180.538,22.276z"/>
	<path class="st1" d="M184.099,17.411h1.517V24h-1.517V17.411z M188.003,20.007c0-0.394-0.106-0.698-0.317-0.914
		s-0.512-0.324-0.901-0.324c-0.373,0-0.66,0.101-0.863,0.302c-0.203,0.201-0.305,0.485-0.305,0.854l-0.133-1.365
		c0.199-0.406,0.45-0.715,0.752-0.927c0.303-0.211,0.659-0.317,1.07-0.317c0.703,0,1.248,0.234,1.634,0.702
		c0.388,0.467,0.581,1.128,0.581,1.983V24h-1.517V20.007z"/>
	<path class="st1" d="M85.529,35.569v1.447h-4.393v-1.447H85.529z"/>
	<path class="st1" d="M87.373,39.381c-0.425-0.21-0.765-0.505-1.019-0.886l1.238-0.895c0.135,0.199,0.313,0.354,0.533,0.463
		s0.461,0.165,0.724,0.165c0.423,0,0.749-0.137,0.978-0.409c0.229-0.273,0.343-0.659,0.343-1.159v-6.291h1.549v6.297
		c0,0.639-0.114,1.185-0.343,1.638s-0.561,0.798-0.997,1.035s-0.96,0.355-1.574,0.355C88.276,39.695,87.799,39.59,87.373,39.381z"/>
	<path class="st1" d="M95.267,37.017c0,0.389,0.104,0.691,0.311,0.905c0.208,0.213,0.5,0.32,0.876,0.32s0.667-0.101,0.87-0.302
		c0.203-0.201,0.305-0.49,0.305-0.866l0.089,1.409c-0.127,0.343-0.338,0.63-0.635,0.863s-0.658,0.349-1.085,0.349
		c-0.715,0-1.269-0.23-1.66-0.692c-0.391-0.461-0.587-1.113-0.587-1.955v-4.037h1.517V37.017z M97.628,33.011h1.511V39.6h-1.511
		V33.011z"/>
	<path class="st1" d="M102.497,37.664c0,0.161,0.04,0.285,0.121,0.372c0.081,0.086,0.195,0.13,0.343,0.13h0.451v1.454h-0.825
		c-0.508,0-0.902-0.152-1.184-0.457c-0.281-0.305-0.422-0.734-0.422-1.289v-7.503h1.517V37.664z"/>
	<path class="st1" d="M104.045,33.011h1.479l2.12,5.726l-0.908,1.403L104.045,33.011z M110.006,33.011l-2.869,8.131
		c-0.106,0.3-0.24,0.539-0.403,0.714c-0.163,0.175-0.365,0.301-0.606,0.377s-0.538,0.114-0.889,0.114h-0.324v-1.466h0.324
		c0.216,0,0.391-0.044,0.523-0.133c0.134-0.089,0.243-0.239,0.327-0.451l2.438-7.287H110.006z"/>
	<path class="st1" d="M113.04,38.254l3.193-4.228c0.165-0.216,0.293-0.439,0.384-0.67c0.091-0.23,0.136-0.445,0.136-0.644V32.7
		c0-0.309-0.094-0.548-0.283-0.717c-0.188-0.169-0.456-0.254-0.803-0.254c-0.334,0-0.604,0.103-0.81,0.308
		c-0.205,0.206-0.329,0.497-0.371,0.873v0.006h-1.562V32.91c0.059-0.554,0.208-1.028,0.444-1.422s0.55-0.694,0.939-0.901
		s0.838-0.311,1.346-0.311c0.563,0,1.043,0.094,1.441,0.283c0.398,0.188,0.702,0.462,0.911,0.822c0.21,0.36,0.314,0.793,0.314,1.301
		v0.006c0,0.373-0.071,0.75-0.213,1.133c-0.142,0.383-0.337,0.741-0.587,1.076l-2.476,3.25h3.326V39.6h-5.332V38.254z"/>
	<path class="st1" d="M120.584,39.003c-0.459-0.461-0.688-1.104-0.688-1.93v-4.196c0-0.83,0.23-1.474,0.692-1.933
		c0.461-0.459,1.13-0.688,2.006-0.688c0.88,0,1.55,0.229,2.009,0.686c0.459,0.457,0.688,1.103,0.688,1.936v4.196
		c0,0.83-0.23,1.474-0.692,1.933c-0.461,0.459-1.13,0.689-2.006,0.689C121.713,39.695,121.043,39.465,120.584,39.003z
		 M123.488,37.883c0.19-0.239,0.286-0.583,0.286-1.032V33.1c0-0.449-0.095-0.792-0.286-1.031c-0.19-0.239-0.489-0.359-0.895-0.359
		s-0.705,0.12-0.895,0.359c-0.19,0.239-0.286,0.583-0.286,1.031v3.751c0,0.449,0.095,0.792,0.286,1.032
		c0.19,0.239,0.489,0.358,0.895,0.358S123.298,38.122,123.488,37.883z"/>
	<path class="st1" d="M129.423,39.6h-1.517v-7.503l-1.219,0.616V31.12l1.346-0.749h1.39V39.6z"/>
	<path class="st1" d="M132.654,39.378c-0.432-0.211-0.766-0.511-1.003-0.898c-0.237-0.388-0.355-0.837-0.355-1.349v-0.152
		c0-0.461,0.122-0.895,0.365-1.301c0.244-0.406,0.566-0.713,0.968-0.92c-0.343-0.178-0.619-0.434-0.829-0.768
		c-0.209-0.334-0.314-0.688-0.314-1.06V32.7c0-0.482,0.111-0.907,0.333-1.273c0.222-0.366,0.534-0.649,0.936-0.851
		c0.402-0.201,0.87-0.301,1.403-0.301s1.001,0.101,1.403,0.301c0.402,0.201,0.714,0.485,0.936,0.851
		c0.223,0.366,0.333,0.791,0.333,1.273v0.229c0,0.381-0.107,0.737-0.321,1.07c-0.213,0.332-0.494,0.585-0.841,0.758
		c0.406,0.211,0.733,0.52,0.98,0.923c0.248,0.404,0.372,0.837,0.372,1.298v0.152c0,0.512-0.119,0.961-0.355,1.349
		c-0.237,0.387-0.571,0.687-1.003,0.898s-0.933,0.317-1.504,0.317S133.086,39.589,132.654,39.378z M134.867,38.077
		c0.205-0.106,0.364-0.256,0.476-0.451c0.112-0.195,0.168-0.417,0.168-0.667v-0.089c0-0.246-0.056-0.461-0.168-0.647
		c-0.112-0.186-0.27-0.331-0.473-0.435c-0.203-0.104-0.44-0.156-0.711-0.156s-0.508,0.052-0.711,0.156
		c-0.203,0.104-0.361,0.25-0.473,0.438c-0.112,0.188-0.168,0.405-0.168,0.651v0.095c0,0.25,0.056,0.471,0.168,0.663
		c0.112,0.193,0.271,0.341,0.476,0.444c0.206,0.104,0.441,0.156,0.708,0.156S134.661,38.183,134.867,38.077z M134.765,34.024
		c0.175-0.1,0.311-0.241,0.406-0.426c0.095-0.184,0.143-0.396,0.143-0.638v-0.089c0-0.224-0.048-0.423-0.143-0.597
		c-0.096-0.173-0.231-0.307-0.406-0.4c-0.176-0.093-0.378-0.14-0.606-0.14s-0.431,0.046-0.606,0.14
		c-0.175,0.093-0.311,0.227-0.406,0.4c-0.095,0.173-0.143,0.375-0.143,0.603v0.095c0,0.237,0.048,0.446,0.143,0.628
		c0.096,0.182,0.231,0.323,0.406,0.422c0.176,0.099,0.378,0.149,0.606,0.149S134.589,34.123,134.765,34.024z"/>
</g>
</svg>