<!-- Generator: Adobe Illustrator 22.1.0, SVG Export Plug-In  -->
<svg version="1.1"
	 xmlns="http://www.w3.org/2000/svg" xmlns:xlink="http://www.w3.org/1999/xlink" xmlns:a="http://ns.adobe.com/AdobeSVGViewerExtensions/3.0/"
	 x="0px" y="0px" width="260px" height="55px" viewBox="0 0 260 55" style="enable-background:new 0 0 260 55;"
	 xml:space="preserve">
<style type="text/css">
	.st0{fill:#1B1464;}
	.st1{fill:#FFFFFF;}
</style>
<defs>
</defs>
<rect class="st0" width="260" height="55"/>
<g>
	<path class="st1" d="M24,23.762c0,0-0.204-0.043-0.612-0.13c-0.409-0.086-0.792-0.214-1.149-0.384
		c-0.357-0.169-0.684-0.379-0.98-0.628l0.806-1.212c0.355,0.3,0.754,0.528,1.197,0.683c0.442,0.154,0.911,0.231,1.406,0.231
		c0.618,0,1.097-0.11,1.438-0.33c0.34-0.22,0.511-0.531,0.511-0.933v-0.006c0-0.284-0.076-0.509-0.229-0.676
		c-0.152-0.167-0.351-0.29-0.597-0.368c-0.246-0.079-0.561-0.151-0.946-0.219c-0.013-0.004-0.025-0.006-0.038-0.006
		s-0.025-0.002-0.038-0.006l-0.114-0.019c-0.618-0.102-1.125-0.222-1.523-0.362s-0.736-0.389-1.016-0.749s-0.419-0.87-0.419-1.53
		v-0.006c0-0.584,0.131-1.083,0.394-1.498s0.643-0.73,1.143-0.946s1.1-0.324,1.803-0.324c0.33,0,0.661,0.037,0.994,0.111
		c0.332,0.074,0.658,0.182,0.978,0.324c0.319,0.142,0.629,0.318,0.93,0.53l-0.736,1.25c-0.355-0.254-0.717-0.446-1.085-0.578
		s-0.728-0.197-1.079-0.197c-0.584,0-1.036,0.107-1.355,0.32c-0.32,0.214-0.479,0.516-0.479,0.905v0.006
		c0,0.292,0.083,0.522,0.248,0.692s0.372,0.293,0.619,0.372c0.248,0.078,0.594,0.162,1.038,0.25
		c0.017,0.004,0.033,0.007,0.048,0.009c0.015,0.002,0.03,0.005,0.047,0.01c0.021,0.004,0.044,0.008,0.07,0.013
		s0.049,0.008,0.07,0.013c0.571,0.114,1.048,0.252,1.431,0.413c0.383,0.161,0.704,0.419,0.962,0.774s0.387,0.84,0.387,1.454v0.013
		c0,0.576-0.135,1.068-0.406,1.479s-0.665,0.723-1.181,0.936c-0.516,0.214-1.138,0.321-1.866,0.321
		C24.223,23.762,24,23.762,24,23.762z"/>
	<path class="st1" d="M31.535,23.762c0,0-0.22-0.114-0.66-0.343s-0.776-0.564-1.009-1.006c-0.233-0.442-0.349-0.976-0.349-1.603
		v-0.743c0-0.652,0.111-1.208,0.333-1.669c0.223-0.461,0.546-0.813,0.972-1.054c0.425-0.241,0.936-0.362,1.533-0.362
		c0.563,0,1.044,0.141,1.444,0.422c0.4,0.281,0.705,0.688,0.914,1.222c0.21,0.533,0.314,1.176,0.314,1.93v0.432h-4.475v-1.111h3.066
		l-0.006-0.07c-0.042-0.461-0.171-0.819-0.387-1.073s-0.506-0.381-0.87-0.381c-0.457,0-0.811,0.143-1.06,0.428
		c-0.25,0.286-0.375,0.691-0.375,1.216v0.838c0,0.5,0.135,0.883,0.406,1.152c0.271,0.269,0.652,0.403,1.143,0.403
		c0.25,0,0.496-0.047,0.74-0.143c0.243-0.095,0.462-0.227,0.657-0.396l0.99,0.927c-0.334,0.313-0.71,0.556-1.126,0.727
		c-0.417,0.172-0.837,0.257-1.26,0.257C31.846,23.762,31.535,23.762,31.535,23.762z"/>
	<path class="st1" d="M38.479,23.762c0,0-0.218-0.115-0.654-0.346c-0.436-0.23-0.768-0.567-0.997-1.009
		c-0.229-0.442-0.343-0.977-0.343-1.603v-0.895c0-0.618,0.114-1.146,0.343-1.584c0.229-0.438,0.561-0.771,0.997-1
		s0.96-0.343,1.574-0.343c0.351,0,0.682,0.042,0.994,0.124c0.311,0.083,0.59,0.202,0.838,0.359c0.247,0.157,0.454,0.347,0.619,0.571
		l-1.028,0.965c-0.173-0.182-0.376-0.322-0.609-0.419s-0.476-0.146-0.73-0.146c-0.47,0-0.833,0.128-1.092,0.384
		c-0.258,0.256-0.387,0.619-0.387,1.089v0.895c0,0.482,0.128,0.854,0.384,1.114c0.256,0.261,0.621,0.391,1.095,0.391
		c0.258,0,0.503-0.053,0.736-0.159s0.434-0.256,0.603-0.451l1.028,1.028c-0.169,0.22-0.377,0.407-0.625,0.562
		c-0.247,0.155-0.526,0.272-0.838,0.353c-0.311,0.081-0.64,0.121-0.987,0.121C38.786,23.762,38.479,23.762,38.479,23.762z"/>
	<path class="st1" d="M44.24,23.425c-0.417-0.224-0.734-0.551-0.952-0.98c-0.218-0.43-0.327-0.947-0.327-1.552V19.82
		c0-0.597,0.109-1.107,0.327-1.533c0.218-0.425,0.535-0.749,0.952-0.971c0.417-0.223,0.917-0.333,1.501-0.333
		s1.084,0.111,1.501,0.333c0.417,0.222,0.734,0.546,0.952,0.971c0.218,0.426,0.327,0.937,0.327,1.533v1.092
		c0,0.601-0.109,1.114-0.327,1.539c-0.218,0.426-0.535,0.75-0.952,0.975c-0.417,0.224-0.917,0.336-1.501,0.336
		S44.657,23.649,44.24,23.425z M46.674,21.943c0.22-0.243,0.33-0.587,0.33-1.031V19.82c0-0.44-0.11-0.781-0.33-1.022
		s-0.531-0.362-0.933-0.362s-0.713,0.121-0.933,0.362s-0.33,0.582-0.33,1.022v1.092c0,0.444,0.109,0.788,0.327,1.031
		c0.218,0.244,0.53,0.365,0.937,0.365C46.143,22.308,46.454,22.187,46.674,21.943z"/>
	<path class="st1" d="M50.235,17.078h1.517v6.589h-1.517V17.078z M54.139,19.674c0-0.394-0.106-0.698-0.317-0.914
		s-0.512-0.324-0.901-0.324c-0.373,0-0.66,0.101-0.863,0.302c-0.203,0.201-0.305,0.485-0.305,0.854l-0.133-1.365
		c0.199-0.406,0.45-0.715,0.752-0.927c0.303-0.211,0.659-0.317,1.07-0.317c0.703,0,1.248,0.234,1.634,0.702
		c0.388,0.467,0.581,1.128,0.581,1.983v3.999h-1.517V19.674z"/>
	<path class="st1" d="M58.338,23.448c-0.336-0.218-0.592-0.533-0.768-0.946c-0.176-0.412-0.264-0.911-0.264-1.495V19.75
		c0-0.584,0.087-1.084,0.26-1.501c0.173-0.417,0.426-0.734,0.758-0.952c0.333-0.218,0.731-0.327,1.197-0.327
		c0.373,0,0.712,0.104,1.019,0.311c0.307,0.208,0.553,0.5,0.739,0.876l-0.133,1.403c0-0.254-0.044-0.47-0.133-0.647
		s-0.218-0.313-0.387-0.406s-0.375-0.14-0.616-0.14c-0.376,0-0.668,0.123-0.876,0.368s-0.311,0.588-0.311,1.028v1.244
		c0,0.436,0.104,0.773,0.311,1.012c0.208,0.239,0.5,0.359,0.876,0.359c0.241,0,0.446-0.047,0.616-0.143
		c0.169-0.095,0.298-0.231,0.387-0.409s0.133-0.392,0.133-0.641l0.089,1.447c-0.131,0.343-0.342,0.619-0.631,0.829
		c-0.29,0.209-0.64,0.314-1.051,0.314C59.08,23.774,58.675,23.666,58.338,23.448z M61.147,14.437h1.517v9.229h-1.517V14.437z"/>
	<path class="st1" d="M64.752,23.257c-0.376-0.337-0.565-0.848-0.565-1.533c0-0.652,0.19-1.141,0.571-1.466s0.952-0.489,1.714-0.489
		h1.765l0.089,1.181h-1.847c-0.3,0-0.526,0.063-0.676,0.19c-0.15,0.127-0.225,0.322-0.225,0.584c0,0.275,0.097,0.479,0.292,0.612
		c0.195,0.134,0.489,0.2,0.882,0.2c0.482,0,0.841-0.053,1.076-0.159c0.234-0.106,0.352-0.271,0.352-0.495l0.133,0.939
		c-0.072,0.208-0.198,0.381-0.378,0.521c-0.18,0.14-0.396,0.245-0.65,0.314c-0.254,0.07-0.531,0.105-0.832,0.105
		C65.696,23.762,65.129,23.593,64.752,23.257z M68.18,19.49c0-0.368-0.109-0.654-0.327-0.857c-0.218-0.203-0.526-0.305-0.924-0.305
		c-0.254,0-0.503,0.04-0.749,0.121s-0.465,0.192-0.66,0.336l-1.009-0.851c0.258-0.3,0.597-0.534,1.016-0.702
		c0.419-0.167,0.884-0.25,1.396-0.25c0.559,0,1.037,0.096,1.435,0.289c0.398,0.193,0.702,0.472,0.911,0.838
		c0.21,0.366,0.314,0.808,0.314,1.324v4.234H68.18V19.49z"/>
	<path class="st1" d="M71.424,17.078h1.581v6.589h-1.581V17.078z M74.718,18.522c-0.148-0.058-0.319-0.086-0.514-0.086
		c-0.381,0-0.676,0.113-0.886,0.34c-0.209,0.226-0.314,0.541-0.314,0.942l-0.133-1.492c0.19-0.394,0.439-0.699,0.746-0.917
		c0.307-0.218,0.644-0.327,1.012-0.327c0.288,0,0.548,0.043,0.781,0.13c0.233,0.086,0.436,0.214,0.609,0.384l-0.927,1.276
		C74.991,18.663,74.866,18.579,74.718,18.522z"/>
	<path class="st1" d="M76.273,17.078h1.479l2.12,5.726l-0.908,1.403L76.273,17.078z M82.234,17.078l-2.869,8.131
		c-0.106,0.3-0.24,0.539-0.403,0.714c-0.163,0.175-0.365,0.301-0.606,0.377s-0.538,0.114-0.889,0.114h-0.324v-1.466h0.324
		c0.216,0,0.391-0.044,0.523-0.133c0.134-0.089,0.243-0.239,0.327-0.451l2.438-7.287H82.234z"/>
	<path class="st1" d="M87.769,23.762c0,0-0.204-0.043-0.612-0.13c-0.409-0.086-0.792-0.214-1.149-0.384
		c-0.357-0.169-0.684-0.379-0.98-0.628l0.806-1.212c0.355,0.3,0.754,0.528,1.197,0.683c0.442,0.154,0.911,0.231,1.406,0.231
		c0.618,0,1.097-0.11,1.438-0.33c0.34-0.22,0.511-0.531,0.511-0.933v-0.006c0-0.284-0.076-0.509-0.229-0.676
		c-0.152-0.167-0.351-0.29-0.597-0.368c-0.246-0.079-0.561-0.151-0.946-0.219c-0.013-0.004-0.025-0.006-0.038-0.006
		s-0.025-0.002-0.038-0.006l-0.114-0.019c-0.618-0.102-1.125-0.222-1.523-0.362s-0.736-0.389-1.016-0.749s-0.419-0.87-0.419-1.53
		v-0.006c0-0.584,0.131-1.083,0.394-1.498s0.643-0.73,1.143-0.946s1.1-0.324,1.803-0.324c0.33,0,0.661,0.037,0.994,0.111
		c0.332,0.074,0.658,0.182,0.978,0.324c0.319,0.142,0.629,0.318,0.93,0.53l-0.736,1.25c-0.355-0.254-0.717-0.446-1.085-0.578
		s-0.728-0.197-1.079-0.197c-0.584,0-1.036,0.107-1.355,0.32c-0.32,0.214-0.479,0.516-0.479,0.905v0.006
		c0,0.292,0.083,0.522,0.248,0.692s0.372,0.293,0.619,0.372c0.248,0.078,0.594,0.162,1.038,0.25
		c0.017,0.004,0.033,0.007,0.048,0.009c0.015,0.002,0.03,0.005,0.047,0.01c0.021,0.004,0.044,0.008,0.07,0.013
		s0.049,0.008,0.07,0.013c0.571,0.114,1.048,0.252,1.431,0.413c0.383,0.161,0.704,0.419,0.962,0.774s0.387,0.84,0.387,1.454v0.013
		c0,0.576-0.135,1.068-0.406,1.479s-0.665,0.723-1.181,0.936c-0.516,0.214-1.138,0.321-1.866,0.321
		C87.991,23.762,87.769,23.762,87.769,23.762z"/>
	<path class="st1" d="M95.278,23.762c0,0-0.218-0.115-0.654-0.346c-0.436-0.23-0.768-0.567-0.997-1.009
		c-0.229-0.442-0.343-0.977-0.343-1.603v-0.895c0-0.618,0.114-1.146,0.343-1.584c0.229-0.438,0.561-0.771,0.997-1
		s0.96-0.343,1.574-0.343c0.351,0,0.682,0.042,0.994,0.124c0.311,0.083,0.59,0.202,0.838,0.359c0.247,0.157,0.454,0.347,0.619,0.571
		l-1.028,0.965c-0.173-0.182-0.376-0.322-0.609-0.419s-0.476-0.146-0.73-0.146c-0.47,0-0.833,0.128-1.092,0.384
		c-0.258,0.256-0.387,0.619-0.387,1.089v0.895c0,0.482,0.128,0.854,0.384,1.114c0.256,0.261,0.621,0.391,1.095,0.391
		c0.258,0,0.503-0.053,0.736-0.159s0.434-0.256,0.603-0.451l1.028,1.028c-0.169,0.22-0.377,0.407-0.625,0.562
		c-0.247,0.155-0.526,0.272-0.838,0.353c-0.311,0.081-0.64,0.121-0.987,0.121C95.585,23.762,95.278,23.762,95.278,23.762z"/>
	<path class="st1" d="M99.95,14.437h1.517v9.229H99.95V14.437z M103.854,19.674c0-0.394-0.106-0.698-0.317-0.914
		s-0.512-0.324-0.901-0.324c-0.373,0-0.66,0.1-0.863,0.298s-0.305,0.48-0.305,0.844l-0.133-1.365
		c0.199-0.398,0.45-0.703,0.752-0.914c0.303-0.211,0.659-0.317,1.07-0.317c0.703,0,1.248,0.234,1.634,0.702
		c0.388,0.467,0.581,1.128,0.581,1.983v3.999h-1.517V19.674z"/>
	<path class="st1" d="M108.301,23.425c-0.417-0.224-0.734-0.551-0.952-0.98c-0.218-0.43-0.327-0.947-0.327-1.552V19.82
		c0-0.597,0.109-1.107,0.327-1.533c0.218-0.425,0.535-0.749,0.952-0.971c0.417-0.223,0.917-0.333,1.501-0.333
		s1.084,0.111,1.501,0.333c0.417,0.222,0.734,0.546,0.952,0.971c0.218,0.426,0.327,0.937,0.327,1.533v1.092
		c0,0.601-0.109,1.114-0.327,1.539c-0.218,0.426-0.535,0.75-0.952,0.975c-0.417,0.224-0.917,0.336-1.501,0.336
		S108.717,23.649,108.301,23.425z M110.735,21.943c0.22-0.243,0.33-0.587,0.33-1.031V19.82c0-0.44-0.11-0.781-0.33-1.022
		s-0.531-0.362-0.933-0.362s-0.713,0.121-0.933,0.362s-0.33,0.582-0.33,1.022v1.092c0,0.444,0.109,0.788,0.327,1.031
		c0.218,0.244,0.53,0.365,0.937,0.365C110.204,22.308,110.515,22.187,110.735,21.943z"/>
	<path class="st1" d="M115.385,23.425c-0.417-0.224-0.734-0.551-0.952-0.98c-0.218-0.43-0.327-0.947-0.327-1.552V19.82
		c0-0.597,0.109-1.107,0.327-1.533c0.218-0.425,0.535-0.749,0.952-0.971c0.417-0.223,0.917-0.333,1.501-0.333
		s1.084,0.111,1.501,0.333c0.417,0.222,0.734,0.546,0.952,0.971c0.218,0.426,0.327,0.937,0.327,1.533v1.092
		c0,0.601-0.109,1.114-0.327,1.539c-0.218,0.426-0.535,0.75-0.952,0.975c-0.417,0.224-0.917,0.336-1.501,0.336
		S115.801,23.649,115.385,23.425z M117.819,21.943c0.22-0.243,0.33-0.587,0.33-1.031V19.82c0-0.44-0.11-0.781-0.33-1.022
		s-0.531-0.362-0.933-0.362s-0.713,0.121-0.933,0.362s-0.33,0.582-0.33,1.022v1.092c0,0.444,0.109,0.788,0.327,1.031
		c0.218,0.244,0.53,0.365,0.937,0.365C117.288,22.308,117.599,22.187,117.819,21.943z"/>
	<path class="st1" d="M122.897,21.73c0,0.161,0.04,0.285,0.121,0.372c0.081,0.086,0.195,0.13,0.343,0.13h0.451v1.454h-0.825
		c-0.508,0-0.902-0.152-1.184-0.457c-0.281-0.305-0.422-0.734-0.422-1.289v-7.503h1.517V21.73z"/>
	<path class="st1" d="M127.493,14.437h1.517v9.229h-1.517V14.437z M128.121,14.437h5.427v1.454h-5.427V14.437z M128.121,18.36h4.729
		v1.447h-4.729V18.36z M128.121,22.213h5.427v1.454h-5.427V22.213z"/>
	<path class="st1" d="M136.913,20.029l0.825,1.193l-1.6,2.444H134.5L136.913,20.029z M137.09,20.804l-2.488-3.726h1.676l1.739,2.806
		l2.539,3.783h-1.669L137.09,20.804z M137.446,19.414l1.333-2.336h1.676l-2.228,3.555L137.446,19.414z"/>
	<path class="st1" d="M142.105,23.257c-0.376-0.337-0.565-0.848-0.565-1.533c0-0.652,0.19-1.141,0.571-1.466
		s0.952-0.489,1.714-0.489h1.765l0.089,1.181h-1.847c-0.3,0-0.526,0.063-0.676,0.19c-0.15,0.127-0.225,0.322-0.225,0.584
		c0,0.275,0.097,0.479,0.292,0.612c0.195,0.134,0.489,0.2,0.882,0.2c0.482,0,0.841-0.053,1.076-0.159
		c0.234-0.106,0.352-0.271,0.352-0.495l0.133,0.939c-0.072,0.208-0.198,0.381-0.378,0.521c-0.18,0.14-0.396,0.245-0.65,0.314
		c-0.254,0.07-0.531,0.105-0.832,0.105C143.049,23.762,142.481,23.593,142.105,23.257z M145.533,19.49
		c0-0.368-0.109-0.654-0.327-0.857c-0.218-0.203-0.526-0.305-0.924-0.305c-0.254,0-0.503,0.04-0.749,0.121s-0.465,0.192-0.66,0.336
		l-1.009-0.851c0.258-0.3,0.597-0.534,1.016-0.702c0.419-0.167,0.884-0.25,1.396-0.25c0.559,0,1.037,0.096,1.435,0.289
		c0.398,0.193,0.702,0.472,0.911,0.838c0.21,0.366,0.314,0.808,0.314,1.324v4.234h-1.403V19.49z"/>
	<path class="st1" d="M148.776,17.078h1.517v6.589h-1.517V17.078z M152.667,19.769c0-0.427-0.105-0.756-0.314-0.987
		c-0.21-0.23-0.507-0.346-0.892-0.346c-0.373,0-0.66,0.101-0.863,0.302c-0.203,0.201-0.305,0.485-0.305,0.854l-0.133-1.365
		c0.199-0.402,0.453-0.71,0.762-0.923c0.309-0.214,0.662-0.321,1.06-0.321c0.461,0,0.857,0.108,1.187,0.324s0.581,0.532,0.752,0.949
		c0.172,0.417,0.257,0.919,0.257,1.507v3.904h-1.511V19.769z M156.552,19.769c0-0.427-0.106-0.756-0.317-0.987
		c-0.211-0.23-0.512-0.346-0.901-0.346c-0.368,0-0.653,0.111-0.854,0.333c-0.201,0.223-0.301,0.539-0.301,0.949l-0.292-1.396
		c0.208-0.427,0.479-0.757,0.816-0.99c0.336-0.233,0.709-0.349,1.12-0.349c0.474,0,0.879,0.108,1.216,0.324
		c0.336,0.216,0.592,0.532,0.768,0.949c0.176,0.417,0.264,0.919,0.264,1.507v3.904h-1.517V19.769z"/>
	<path class="st1" d="M159.866,14.437h1.511v1.517h-1.511V14.437z M159.866,17.078h1.511v6.589h-1.511V17.078z"/>
	<path class="st1" d="M163.173,17.078h1.517v6.589h-1.517V17.078z M167.077,19.674c0-0.394-0.106-0.698-0.317-0.914
		s-0.512-0.324-0.901-0.324c-0.373,0-0.66,0.101-0.863,0.302c-0.203,0.201-0.305,0.485-0.305,0.854l-0.133-1.365
		c0.199-0.406,0.45-0.715,0.752-0.927c0.303-0.211,0.659-0.317,1.07-0.317c0.703,0,1.248,0.234,1.634,0.702
		c0.388,0.467,0.581,1.128,0.581,1.983v3.999h-1.517V19.674z"/>
	<path class="st1" d="M170.682,23.257c-0.376-0.337-0.565-0.848-0.565-1.533c0-0.652,0.19-1.141,0.571-1.466
		s0.952-0.489,1.714-0.489h1.765l0.089,1.181h-1.847c-0.3,0-0.526,0.063-0.676,0.19c-0.15,0.127-0.225,0.322-0.225,0.584
		c0,0.275,0.097,0.479,0.292,0.612c0.195,0.134,0.489,0.2,0.882,0.2c0.482,0,0.841-0.053,1.076-0.159
		c0.234-0.106,0.352-0.271,0.352-0.495l0.133,0.939c-0.072,0.208-0.198,0.381-0.378,0.521c-0.18,0.14-0.396,0.245-0.65,0.314
		c-0.254,0.07-0.531,0.105-0.832,0.105C171.626,23.762,171.059,23.593,170.682,23.257z M174.11,19.49
		c0-0.368-0.109-0.654-0.327-0.857c-0.218-0.203-0.526-0.305-0.924-0.305c-0.254,0-0.503,0.04-0.749,0.121s-0.465,0.192-0.66,0.336
		l-1.009-0.851c0.258-0.3,0.597-0.534,1.016-0.702c0.419-0.167,0.884-0.25,1.396-0.25c0.559,0,1.037,0.096,1.435,0.289
		c0.398,0.193,0.702,0.472,0.911,0.838c0.21,0.366,0.314,0.808,0.314,1.324v4.234h-1.403V19.49z"/>
	<path class="st1" d="M176.846,17.078h3.098v1.327h-3.098V17.078z M177.912,23.257c-0.258-0.294-0.387-0.729-0.387-1.305v-6.792
		h1.517v6.583c0,0.161,0.032,0.285,0.095,0.372c0.063,0.086,0.157,0.13,0.279,0.13h0.527v1.454h-0.813
		C178.577,23.698,178.17,23.551,177.912,23.257z"/>
	<path class="st1" d="M181.549,14.437h1.511v1.517h-1.511V14.437z M181.549,17.078h1.511v6.589h-1.511V17.078z"/>
	<path class="st1" d="M185.945,23.425c-0.417-0.224-0.734-0.551-0.952-0.98c-0.218-0.43-0.327-0.947-0.327-1.552V19.82
		c0-0.597,0.109-1.107,0.327-1.533c0.218-0.425,0.535-0.749,0.952-0.971c0.417-0.223,0.917-0.333,1.501-0.333
		s1.084,0.111,1.501,0.333c0.417,0.222,0.734,0.546,0.952,0.971c0.218,0.426,0.327,0.937,0.327,1.533v1.092
		c0,0.601-0.109,1.114-0.327,1.539c-0.218,0.426-0.535,0.75-0.952,0.975c-0.417,0.224-0.917,0.336-1.501,0.336
		S186.362,23.649,185.945,23.425z M188.379,21.943c0.22-0.243,0.33-0.587,0.33-1.031V19.82c0-0.44-0.11-0.781-0.33-1.022
		s-0.531-0.362-0.933-0.362s-0.713,0.121-0.933,0.362s-0.33,0.582-0.33,1.022v1.092c0,0.444,0.109,0.788,0.327,1.031
		c0.218,0.244,0.53,0.365,0.937,0.365C187.848,22.308,188.159,22.187,188.379,21.943z"/>
	<path class="st1" d="M191.94,17.078h1.517v6.589h-1.517V17.078z M195.844,19.674c0-0.394-0.106-0.698-0.317-0.914
		s-0.512-0.324-0.901-0.324c-0.373,0-0.66,0.101-0.863,0.302c-0.203,0.201-0.305,0.485-0.305,0.854l-0.133-1.365
		c0.199-0.406,0.45-0.715,0.752-0.927c0.303-0.211,0.659-0.317,1.07-0.317c0.703,0,1.248,0.234,1.634,0.702
		c0.388,0.467,0.581,1.128,0.581,1.983v3.999h-1.517V19.674z"/>
	<path class="st1" d="M202.128,22.908c-0.385-1.013-0.578-2.131-0.578-3.354s0.192-2.341,0.578-3.354
		c0.385-1.014,0.965-1.929,1.739-2.746l0.952,1.028c-0.609,0.681-1.064,1.443-1.365,2.285s-0.451,1.771-0.451,2.787
		s0.15,1.944,0.451,2.787s0.755,1.606,1.365,2.292l-0.952,1.022C203.093,24.836,202.514,23.921,202.128,22.908z"/>
	<path class="st1" d="M208.044,23.762c0,0-0.247-0.139-0.739-0.416c-0.493-0.277-0.872-0.674-1.137-1.19
		c-0.264-0.516-0.396-1.128-0.396-1.834v-2.533c0-0.707,0.132-1.318,0.396-1.834c0.265-0.516,0.644-0.914,1.137-1.193
		c0.493-0.279,1.074-0.419,1.742-0.419c0.554,0,1.057,0.119,1.508,0.355c0.45,0.237,0.825,0.579,1.123,1.025
		c0.299,0.447,0.503,0.975,0.613,1.584h-1.562c-0.076-0.296-0.197-0.556-0.362-0.777c-0.165-0.223-0.361-0.393-0.587-0.511
		c-0.227-0.119-0.471-0.178-0.733-0.178c-0.351,0-0.655,0.08-0.911,0.238c-0.256,0.159-0.454,0.384-0.593,0.676
		s-0.209,0.637-0.209,1.035v2.533c0,0.398,0.07,0.743,0.209,1.035s0.337,0.516,0.593,0.673c0.256,0.157,0.56,0.235,0.911,0.235
		c0.267,0,0.513-0.057,0.739-0.171c0.227-0.114,0.422-0.281,0.587-0.501s0.284-0.484,0.355-0.793h1.562
		c-0.114,0.609-0.321,1.137-0.619,1.584c-0.299,0.446-0.673,0.788-1.124,1.025c-0.45,0.237-0.951,0.355-1.501,0.355
		C208.379,23.762,208.044,23.762,208.044,23.762z"/>
	<path class="st1" d="M215.395,21.73c0,0.161,0.04,0.285,0.121,0.372c0.081,0.086,0.195,0.13,0.343,0.13h0.451v1.454h-0.825
		c-0.508,0-0.902-0.152-1.184-0.457c-0.281-0.305-0.422-0.734-0.422-1.289v-7.503h1.517V21.73z"/>
	<path class="st1" d="M217.826,23.257c-0.376-0.337-0.565-0.848-0.565-1.533c0-0.652,0.19-1.141,0.571-1.466
		s0.952-0.489,1.714-0.489h1.765l0.089,1.181h-1.847c-0.3,0-0.526,0.063-0.676,0.19c-0.15,0.127-0.225,0.322-0.225,0.584
		c0,0.275,0.097,0.479,0.292,0.612c0.195,0.134,0.489,0.2,0.882,0.2c0.482,0,0.841-0.053,1.076-0.159
		c0.234-0.106,0.352-0.271,0.352-0.495l0.133,0.939c-0.072,0.208-0.198,0.381-0.378,0.521c-0.18,0.14-0.396,0.245-0.65,0.314
		c-0.254,0.07-0.531,0.105-0.832,0.105C218.77,23.762,218.203,23.593,217.826,23.257z M221.254,19.49
		c0-0.368-0.109-0.654-0.327-0.857c-0.218-0.203-0.526-0.305-0.924-0.305c-0.254,0-0.503,0.04-0.749,0.121s-0.465,0.192-0.66,0.336
		l-1.009-0.851c0.258-0.3,0.597-0.534,1.016-0.702c0.419-0.167,0.884-0.25,1.396-0.25c0.559,0,1.037,0.096,1.435,0.289
		c0.398,0.193,0.702,0.472,0.911,0.838c0.21,0.366,0.314,0.808,0.314,1.324v4.234h-1.403V19.49z"/>
	<path class="st1" d="M226.332,23.762c0,0-0.178-0.037-0.533-0.111c-0.355-0.074-0.689-0.183-1-0.327
		c-0.312-0.144-0.592-0.319-0.841-0.527l0.92-1.143c0.334,0.237,0.676,0.417,1.025,0.54c0.349,0.123,0.688,0.184,1.019,0.184
		c0.461,0,0.812-0.063,1.051-0.187c0.239-0.125,0.358-0.306,0.358-0.543c0-0.182-0.059-0.318-0.178-0.409
		c-0.119-0.091-0.268-0.154-0.447-0.188c-0.18-0.034-0.433-0.065-0.759-0.095c-0.055-0.004-0.112-0.008-0.171-0.013
		s-0.116-0.011-0.171-0.019c-0.017,0-0.034-0.001-0.051-0.003c-0.017-0.002-0.034-0.003-0.051-0.003
		c-0.461-0.051-0.84-0.122-1.136-0.212c-0.296-0.091-0.545-0.266-0.746-0.524c-0.201-0.258-0.302-0.628-0.302-1.111
		c0-0.453,0.101-0.835,0.302-1.146c0.201-0.312,0.496-0.546,0.885-0.705c0.389-0.158,0.868-0.238,1.435-0.238
		c0.338,0,0.668,0.033,0.99,0.098c0.322,0.066,0.629,0.161,0.923,0.286c0.294,0.125,0.573,0.28,0.835,0.466l-0.908,1.104
		c-0.309-0.186-0.621-0.328-0.936-0.425c-0.315-0.097-0.621-0.146-0.917-0.146c-0.398,0-0.7,0.057-0.908,0.171
		s-0.311,0.284-0.311,0.508c0,0.144,0.057,0.254,0.171,0.33s0.257,0.128,0.429,0.155c0.171,0.028,0.42,0.056,0.746,0.086
		c0.034,0.004,0.067,0.007,0.098,0.01c0.032,0.002,0.065,0.005,0.099,0.009c0.013,0,0.027,0,0.044,0s0.034,0.002,0.051,0.006
		c0.487,0.046,0.891,0.116,1.212,0.209s0.595,0.278,0.819,0.555c0.224,0.277,0.336,0.681,0.336,1.209
		c0,0.465-0.106,0.858-0.317,1.177c-0.211,0.32-0.526,0.561-0.942,0.724c-0.417,0.163-0.928,0.245-1.533,0.245
		C226.529,23.762,226.332,23.762,226.332,23.762z"/>
	<path class="st1" d="M233.073,23.762c0,0-0.178-0.037-0.533-0.111c-0.355-0.074-0.689-0.183-1-0.327
		c-0.312-0.144-0.592-0.319-0.841-0.527l0.92-1.143c0.334,0.237,0.676,0.417,1.025,0.54c0.349,0.123,0.688,0.184,1.019,0.184
		c0.461,0,0.812-0.063,1.051-0.187c0.239-0.125,0.358-0.306,0.358-0.543c0-0.182-0.059-0.318-0.178-0.409
		c-0.119-0.091-0.268-0.154-0.447-0.188c-0.18-0.034-0.433-0.065-0.759-0.095c-0.055-0.004-0.112-0.008-0.171-0.013
		s-0.116-0.011-0.171-0.019c-0.017,0-0.034-0.001-0.051-0.003c-0.017-0.002-0.034-0.003-0.051-0.003
		c-0.461-0.051-0.84-0.122-1.136-0.212c-0.296-0.091-0.545-0.266-0.746-0.524c-0.201-0.258-0.302-0.628-0.302-1.111
		c0-0.453,0.101-0.835,0.302-1.146c0.201-0.312,0.496-0.546,0.885-0.705c0.389-0.158,0.868-0.238,1.435-0.238
		c0.338,0,0.668,0.033,0.99,0.098c0.322,0.066,0.629,0.161,0.923,0.286c0.294,0.125,0.573,0.28,0.835,0.466l-0.908,1.104
		c-0.309-0.186-0.621-0.328-0.936-0.425c-0.315-0.097-0.621-0.146-0.917-0.146c-0.398,0-0.7,0.057-0.908,0.171
		s-0.311,0.284-0.311,0.508c0,0.144,0.057,0.254,0.171,0.33s0.257,0.128,0.429,0.155c0.171,0.028,0.42,0.056,0.746,0.086
		c0.034,0.004,0.067,0.007,0.098,0.01c0.032,0.002,0.065,0.005,0.099,0.009c0.013,0,0.027,0,0.044,0s0.034,0.002,0.051,0.006
		c0.487,0.046,0.891,0.116,1.212,0.209s0.595,0.278,0.819,0.555c0.224,0.277,0.336,0.681,0.336,1.209
		c0,0.465-0.106,0.858-0.317,1.177c-0.211,0.32-0.526,0.561-0.942,0.724c-0.417,0.163-0.928,0.245-1.533,0.245
		C233.27,23.762,233.073,23.762,233.073,23.762z"/>
	<path class="st1" d="M8.122,35.629l0.825,1.193l-1.6,2.444H5.71L8.122,35.629z M8.3,36.404l-2.488-3.726h1.676l1.739,2.806
		l2.539,3.783h-1.669L8.3,36.404z M8.655,35.014l1.333-2.336h1.676l-2.228,3.555L8.655,35.014z"/>
	<path class="st1" d="M12.178,40.231c0.609-0.686,1.064-1.449,1.365-2.292s0.451-1.771,0.451-2.787s-0.15-1.944-0.451-2.787
		s-0.755-1.604-1.365-2.285l0.952-1.028c0.774,0.817,1.354,1.732,1.739,2.746c0.385,1.013,0.578,2.131,0.578,3.354
		s-0.192,2.341-0.578,3.354c-0.385,1.014-0.965,1.929-1.739,2.746L12.178,40.231z"/>
	<path class="st1" d="M19.497,37.921l3.193-4.228c0.165-0.216,0.293-0.439,0.384-0.67c0.091-0.23,0.136-0.445,0.136-0.644v-0.013
		c0-0.309-0.094-0.548-0.283-0.717c-0.188-0.169-0.456-0.254-0.803-0.254c-0.334,0-0.604,0.103-0.81,0.308
		c-0.205,0.206-0.329,0.497-0.371,0.873v0.006h-1.562v-0.006c0.059-0.554,0.208-1.028,0.444-1.422s0.55-0.694,0.939-0.901
		s0.838-0.311,1.346-0.311c0.563,0,1.043,0.094,1.441,0.283c0.398,0.188,0.702,0.462,0.911,0.822c0.21,0.36,0.314,0.793,0.314,1.301
		v0.006c0,0.373-0.071,0.75-0.213,1.133c-0.142,0.383-0.337,0.741-0.587,1.076l-2.476,3.25h3.326v1.454h-5.332V37.921z"/>
	<path class="st1" d="M27.041,38.67c-0.459-0.461-0.688-1.104-0.688-1.93v-4.196c0-0.83,0.23-1.474,0.692-1.933
		c0.461-0.459,1.13-0.688,2.006-0.688c0.88,0,1.55,0.229,2.009,0.686c0.459,0.457,0.688,1.103,0.688,1.936v4.196
		c0,0.83-0.23,1.474-0.692,1.933c-0.461,0.459-1.13,0.689-2.006,0.689C28.17,39.362,27.5,39.131,27.041,38.67z M29.945,37.55
		c0.19-0.239,0.286-0.583,0.286-1.032v-3.751c0-0.449-0.095-0.792-0.286-1.031c-0.19-0.239-0.489-0.359-0.895-0.359
		s-0.705,0.12-0.895,0.359c-0.19,0.239-0.286,0.583-0.286,1.031v3.751c0,0.449,0.095,0.792,0.286,1.032
		c0.19,0.239,0.489,0.358,0.895,0.358S29.755,37.789,29.945,37.55z"/>
	<path class="st1" d="M35.88,39.267h-1.517v-7.503l-1.219,0.616v-1.593l1.346-0.749h1.39V39.267z"/>
	<path class="st1" d="M39.111,39.044c-0.432-0.211-0.766-0.511-1.003-0.898c-0.237-0.388-0.355-0.837-0.355-1.349v-0.152
		c0-0.461,0.122-0.895,0.365-1.301c0.244-0.406,0.566-0.713,0.968-0.92c-0.343-0.178-0.619-0.434-0.829-0.768
		c-0.209-0.334-0.314-0.688-0.314-1.06v-0.229c0-0.482,0.111-0.907,0.333-1.273c0.222-0.366,0.534-0.649,0.936-0.851
		c0.402-0.201,0.87-0.301,1.403-0.301s1.001,0.101,1.403,0.301c0.402,0.201,0.714,0.485,0.936,0.851
		c0.223,0.366,0.333,0.791,0.333,1.273v0.229c0,0.381-0.107,0.737-0.321,1.07c-0.213,0.332-0.494,0.585-0.841,0.758
		c0.406,0.211,0.733,0.52,0.98,0.923c0.248,0.404,0.372,0.837,0.372,1.298v0.152c0,0.512-0.119,0.961-0.355,1.349
		c-0.237,0.387-0.571,0.687-1.003,0.898s-0.933,0.317-1.504,0.317S39.543,39.256,39.111,39.044z M41.324,37.743
		c0.205-0.106,0.364-0.256,0.476-0.451c0.112-0.195,0.168-0.417,0.168-0.667v-0.089c0-0.246-0.056-0.461-0.168-0.647
		c-0.112-0.186-0.27-0.331-0.473-0.435c-0.203-0.104-0.44-0.156-0.711-0.156s-0.508,0.052-0.711,0.156
		c-0.203,0.104-0.361,0.25-0.473,0.438c-0.112,0.188-0.168,0.405-0.168,0.651v0.095c0,0.25,0.056,0.471,0.168,0.663
		c0.112,0.193,0.271,0.341,0.476,0.444c0.206,0.104,0.441,0.156,0.708,0.156S41.118,37.849,41.324,37.743z M41.222,33.69
		c0.175-0.1,0.311-0.241,0.406-0.426c0.095-0.184,0.143-0.396,0.143-0.638v-0.089c0-0.224-0.048-0.423-0.143-0.597
		c-0.096-0.173-0.231-0.307-0.406-0.4c-0.176-0.093-0.378-0.14-0.606-0.14s-0.431,0.046-0.606,0.14
		c-0.175,0.093-0.311,0.227-0.406,0.4c-0.095,0.173-0.143,0.375-0.143,0.603v0.095c0,0.237,0.048,0.446,0.143,0.628
		c0.096,0.182,0.231,0.323,0.406,0.422c0.176,0.099,0.378,0.149,0.606,0.149S41.046,33.79,41.222,33.69z"/>
	<path class="st1" d="M49.617,35.236v1.447h-4.393v-1.447H49.617z"/>
	<path class="st1" d="M53.667,39.362c0,0-0.247-0.139-0.739-0.416c-0.493-0.277-0.872-0.674-1.137-1.19
		c-0.264-0.516-0.396-1.128-0.396-1.834v-2.533c0-0.707,0.132-1.318,0.396-1.834c0.265-0.516,0.644-0.914,1.137-1.193
		c0.493-0.279,1.074-0.419,1.742-0.419c0.554,0,1.057,0.119,1.508,0.355c0.45,0.237,0.825,0.579,1.123,1.025
		c0.299,0.447,0.503,0.975,0.613,1.584h-1.562c-0.076-0.296-0.197-0.556-0.362-0.777c-0.165-0.223-0.361-0.393-0.587-0.511
		c-0.227-0.119-0.471-0.178-0.733-0.178c-0.351,0-0.655,0.08-0.911,0.238c-0.256,0.159-0.454,0.384-0.593,0.676
		s-0.209,0.637-0.209,1.035v2.533c0,0.398,0.07,0.743,0.209,1.035s0.337,0.516,0.593,0.673c0.256,0.157,0.56,0.235,0.911,0.235
		c0.267,0,0.513-0.057,0.739-0.171c0.227-0.114,0.422-0.281,0.587-0.501s0.284-0.484,0.355-0.793h1.562
		c-0.114,0.609-0.321,1.137-0.619,1.584c-0.299,0.446-0.673,0.788-1.124,1.025c-0.45,0.237-0.951,0.355-1.501,0.355
		C54.001,39.362,53.667,39.362,53.667,39.362z"/>
	<path class="st1" d="M60.589,39.025c-0.417-0.224-0.734-0.551-0.952-0.98c-0.218-0.43-0.327-0.947-0.327-1.552V35.42
		c0-0.597,0.109-1.107,0.327-1.533c0.218-0.425,0.535-0.749,0.952-0.971c0.417-0.223,0.917-0.333,1.501-0.333
		s1.084,0.111,1.501,0.333c0.417,0.222,0.734,0.546,0.952,0.971c0.218,0.426,0.327,0.937,0.327,1.533v1.092
		c0,0.601-0.109,1.114-0.327,1.539c-0.218,0.426-0.535,0.75-0.952,0.975c-0.417,0.224-0.917,0.336-1.501,0.336
		S61.005,39.25,60.589,39.025z M63.023,37.543c0.22-0.243,0.33-0.587,0.33-1.031V35.42c0-0.44-0.11-0.781-0.33-1.022
		s-0.531-0.362-0.933-0.362s-0.713,0.121-0.933,0.362s-0.33,0.582-0.33,1.022v1.092c0,0.444,0.109,0.788,0.327,1.031
		c0.218,0.244,0.53,0.365,0.937,0.365C62.492,37.908,62.803,37.787,63.023,37.543z"/>
	<path class="st1" d="M66.584,32.678h1.517v6.589h-1.517V32.678z M70.475,35.369c0-0.427-0.105-0.756-0.314-0.987
		c-0.21-0.23-0.507-0.346-0.892-0.346c-0.373,0-0.66,0.101-0.863,0.302c-0.203,0.201-0.305,0.485-0.305,0.854l-0.133-1.365
		c0.199-0.402,0.453-0.71,0.762-0.923c0.309-0.214,0.662-0.321,1.06-0.321c0.461,0,0.857,0.108,1.187,0.324s0.581,0.532,0.752,0.949
		c0.172,0.417,0.257,0.919,0.257,1.507v3.904h-1.511V35.369z M74.36,35.369c0-0.427-0.106-0.756-0.317-0.987
		c-0.211-0.23-0.512-0.346-0.901-0.346c-0.368,0-0.653,0.111-0.854,0.333c-0.201,0.223-0.301,0.539-0.301,0.949l-0.292-1.396
		c0.208-0.427,0.479-0.757,0.816-0.99c0.336-0.233,0.709-0.349,1.12-0.349c0.474,0,0.879,0.108,1.216,0.324
		c0.336,0.216,0.592,0.532,0.768,0.949c0.176,0.417,0.264,0.919,0.264,1.507v3.904H74.36V35.369z"/>
	<path class="st1" d="M77.718,32.678h1.517v9.268h-1.517V32.678z M79.793,39.066c-0.292-0.196-0.508-0.475-0.647-0.834l0.089-1.441
		c0,0.25,0.044,0.462,0.133,0.638c0.089,0.176,0.218,0.31,0.387,0.403s0.375,0.14,0.616,0.14c0.376,0,0.668-0.119,0.876-0.355
		s0.311-0.573,0.311-1.009v-1.238c0-0.444-0.104-0.788-0.311-1.031c-0.208-0.244-0.5-0.365-0.876-0.365
		c-0.241,0-0.446,0.045-0.616,0.137c-0.169,0.091-0.298,0.225-0.387,0.403s-0.133,0.392-0.133,0.641l-0.133-1.365
		c0.186-0.385,0.433-0.682,0.739-0.892c0.307-0.209,0.646-0.314,1.019-0.314c0.465,0,0.864,0.108,1.197,0.324
		c0.332,0.216,0.585,0.532,0.758,0.949c0.173,0.417,0.26,0.919,0.26,1.507v1.244c0,0.58-0.088,1.076-0.264,1.489
		c-0.175,0.412-0.433,0.727-0.771,0.942s-0.743,0.324-1.212,0.324C80.43,39.362,80.085,39.264,79.793,39.066z"/>
	<path class="st1" d="M85.037,38.857c-0.376-0.337-0.565-0.848-0.565-1.533c0-0.652,0.19-1.141,0.571-1.466s0.952-0.489,1.714-0.489
		h1.765l0.089,1.181h-1.847c-0.3,0-0.526,0.063-0.676,0.19c-0.15,0.127-0.225,0.322-0.225,0.584c0,0.275,0.097,0.479,0.292,0.612
		c0.195,0.134,0.489,0.2,0.882,0.2c0.482,0,0.841-0.053,1.076-0.159c0.234-0.106,0.352-0.271,0.352-0.495l0.133,0.939
		c-0.072,0.208-0.198,0.381-0.378,0.521c-0.18,0.14-0.396,0.245-0.65,0.314c-0.254,0.07-0.531,0.105-0.832,0.105
		C85.98,39.362,85.413,39.193,85.037,38.857z M88.464,35.09c0-0.368-0.109-0.654-0.327-0.857c-0.218-0.203-0.526-0.305-0.924-0.305
		c-0.254,0-0.503,0.04-0.749,0.121s-0.465,0.192-0.66,0.336l-1.009-0.851c0.258-0.3,0.597-0.534,1.016-0.702
		c0.419-0.167,0.884-0.25,1.396-0.25c0.559,0,1.037,0.096,1.435,0.289c0.398,0.193,0.702,0.472,0.911,0.838
		c0.21,0.366,0.314,0.808,0.314,1.324v4.234h-1.403V35.09z"/>
	<path class="st1" d="M91.708,32.678h1.581v6.589h-1.581V32.678z M95.002,34.122c-0.148-0.058-0.319-0.086-0.514-0.086
		c-0.381,0-0.676,0.113-0.886,0.34c-0.209,0.226-0.314,0.541-0.314,0.942l-0.133-1.492c0.19-0.394,0.439-0.699,0.746-0.917
		c0.307-0.218,0.644-0.327,1.012-0.327c0.288,0,0.548,0.043,0.781,0.13c0.233,0.086,0.436,0.214,0.609,0.384l-0.927,1.276
		C95.275,34.263,95.15,34.179,95.002,34.122z"/>
	<path class="st1" d="M96.748,32.678h3.098v1.327h-3.098V32.678z M97.814,38.857c-0.258-0.294-0.387-0.729-0.387-1.305v-6.792h1.517
		v6.583c0,0.161,0.032,0.285,0.095,0.372c0.063,0.086,0.157,0.13,0.279,0.13h0.527v1.454h-0.813
		C98.479,39.298,98.073,39.151,97.814,38.857z"/>
	<path class="st1" d="M101.496,32.678h1.517v6.589h-1.517V32.678z M105.387,35.369c0-0.427-0.105-0.756-0.314-0.987
		c-0.21-0.23-0.507-0.346-0.892-0.346c-0.373,0-0.66,0.101-0.863,0.302c-0.203,0.201-0.305,0.485-0.305,0.854l-0.133-1.365
		c0.199-0.402,0.453-0.71,0.762-0.923c0.309-0.214,0.662-0.321,1.06-0.321c0.461,0,0.857,0.108,1.187,0.324s0.581,0.532,0.752,0.949
		c0.172,0.417,0.257,0.919,0.257,1.507v3.904h-1.511V35.369z M109.272,35.369c0-0.427-0.106-0.756-0.317-0.987
		c-0.211-0.23-0.512-0.346-0.901-0.346c-0.368,0-0.653,0.111-0.854,0.333c-0.201,0.223-0.301,0.539-0.301,0.949l-0.292-1.396
		c0.208-0.427,0.479-0.757,0.816-0.99c0.336-0.233,0.709-0.349,1.12-0.349c0.474,0,0.879,0.108,1.216,0.324
		c0.336,0.216,0.592,0.532,0.768,0.949c0.176,0.417,0.264,0.919,0.264,1.507v3.904h-1.517V35.369z"/>
	<path class="st1" d="M114.458,39.362c0,0-0.22-0.114-0.66-0.343s-0.776-0.564-1.009-1.006c-0.233-0.442-0.349-0.976-0.349-1.603
		v-0.743c0-0.652,0.111-1.208,0.333-1.669c0.223-0.461,0.546-0.813,0.972-1.054c0.425-0.241,0.936-0.362,1.533-0.362
		c0.563,0,1.044,0.141,1.444,0.422c0.4,0.281,0.705,0.688,0.914,1.222c0.21,0.533,0.314,1.176,0.314,1.93v0.432h-4.475v-1.111h3.066
		l-0.006-0.07c-0.042-0.461-0.171-0.819-0.387-1.073s-0.506-0.381-0.87-0.381c-0.457,0-0.811,0.143-1.06,0.428
		c-0.25,0.286-0.375,0.691-0.375,1.216v0.838c0,0.5,0.135,0.883,0.406,1.152c0.271,0.269,0.652,0.403,1.143,0.403
		c0.25,0,0.496-0.047,0.74-0.143c0.243-0.095,0.462-0.227,0.657-0.396l0.99,0.927c-0.334,0.313-0.71,0.556-1.126,0.727
		c-0.417,0.172-0.837,0.257-1.26,0.257C114.769,39.362,114.458,39.362,114.458,39.362z"/>
	<path class="st1" d="M119.6,32.678h1.517v6.589H119.6V32.678z M123.503,35.274c0-0.394-0.106-0.698-0.317-0.914
		s-0.512-0.324-0.901-0.324c-0.373,0-0.66,0.101-0.863,0.302c-0.203,0.201-0.305,0.485-0.305,0.854l-0.133-1.365
		c0.199-0.406,0.45-0.715,0.752-0.927c0.303-0.211,0.659-0.317,1.07-0.317c0.703,0,1.248,0.234,1.634,0.702
		c0.388,0.467,0.581,1.128,0.581,1.983v3.999h-1.517V35.274z"/>
	<path class="st1" d="M126.354,32.678h3.098v1.327h-3.098V32.678z M127.42,38.857c-0.258-0.294-0.387-0.729-0.387-1.305v-6.792
		h1.517v6.583c0,0.161,0.032,0.285,0.095,0.372c0.063,0.086,0.157,0.13,0.279,0.13h0.527v1.454h-0.813
		C128.084,39.298,127.678,39.151,127.42,38.857z"/>
	<path class="st1" d="M135.494,35.236v1.447h-4.393v-1.447H135.494z"/>
	<path class="st1" d="M141.854,39.362c0,0-0.204-0.043-0.612-0.13c-0.409-0.086-0.792-0.214-1.149-0.384
		c-0.357-0.169-0.684-0.379-0.98-0.628l0.806-1.212c0.355,0.3,0.754,0.528,1.197,0.683c0.442,0.154,0.911,0.231,1.406,0.231
		c0.618,0,1.097-0.11,1.438-0.33c0.34-0.22,0.511-0.531,0.511-0.933v-0.006c0-0.284-0.076-0.509-0.229-0.676
		c-0.152-0.167-0.351-0.29-0.597-0.368c-0.246-0.079-0.561-0.151-0.946-0.219c-0.013-0.004-0.025-0.006-0.038-0.006
		s-0.025-0.002-0.038-0.006l-0.114-0.019c-0.618-0.102-1.125-0.222-1.523-0.362s-0.736-0.389-1.016-0.749s-0.419-0.87-0.419-1.53
		v-0.006c0-0.584,0.131-1.083,0.394-1.498s0.643-0.73,1.143-0.946s1.1-0.324,1.803-0.324c0.33,0,0.661,0.037,0.994,0.111
		c0.332,0.074,0.658,0.182,0.978,0.324c0.319,0.142,0.629,0.318,0.93,0.53l-0.736,1.25c-0.355-0.254-0.717-0.446-1.085-0.578
		s-0.728-0.197-1.079-0.197c-0.584,0-1.036,0.107-1.355,0.32c-0.32,0.214-0.479,0.516-0.479,0.905v0.006
		c0,0.292,0.083,0.522,0.248,0.692s0.372,0.293,0.619,0.372c0.248,0.078,0.594,0.162,1.038,0.25
		c0.017,0.004,0.033,0.007,0.048,0.009c0.015,0.002,0.03,0.005,0.047,0.01c0.021,0.004,0.044,0.008,0.07,0.013
		s0.049,0.008,0.07,0.013c0.571,0.114,1.048,0.252,1.431,0.413c0.383,0.161,0.704,0.419,0.962,0.774s0.387,0.84,0.387,1.454v0.013
		c0,0.576-0.135,1.068-0.406,1.479s-0.665,0.723-1.181,0.936c-0.516,0.214-1.138,0.321-1.866,0.321
		C142.077,39.362,141.854,39.362,141.854,39.362z"/>
	<path class="st1" d="M149.364,39.362c0,0-0.218-0.115-0.654-0.346c-0.436-0.23-0.768-0.567-0.997-1.009
		c-0.229-0.442-0.343-0.977-0.343-1.603v-0.895c0-0.618,0.114-1.146,0.343-1.584c0.229-0.438,0.561-0.771,0.997-1
		s0.96-0.343,1.574-0.343c0.351,0,0.682,0.042,0.994,0.124c0.311,0.083,0.59,0.202,0.838,0.359c0.247,0.157,0.454,0.347,0.619,0.571
		l-1.028,0.965c-0.173-0.182-0.376-0.322-0.609-0.419s-0.476-0.146-0.73-0.146c-0.47,0-0.833,0.128-1.092,0.384
		c-0.258,0.256-0.387,0.619-0.387,1.089v0.895c0,0.482,0.128,0.854,0.384,1.114c0.256,0.261,0.621,0.391,1.095,0.391
		c0.258,0,0.503-0.053,0.736-0.159s0.434-0.256,0.603-0.451l1.028,1.028c-0.169,0.22-0.377,0.407-0.625,0.562
		c-0.247,0.155-0.526,0.272-0.838,0.353c-0.311,0.081-0.64,0.121-0.987,0.121C149.67,39.362,149.364,39.362,149.364,39.362z"/>
	<path class="st1" d="M154.036,30.037h1.517v9.229h-1.517V30.037z M157.939,35.274c0-0.394-0.106-0.698-0.317-0.914
		s-0.512-0.324-0.901-0.324c-0.373,0-0.66,0.1-0.863,0.298s-0.305,0.48-0.305,0.844l-0.133-1.365
		c0.199-0.398,0.45-0.703,0.752-0.914c0.303-0.211,0.659-0.317,1.07-0.317c0.703,0,1.248,0.234,1.634,0.702
		c0.388,0.467,0.581,1.128,0.581,1.983v3.999h-1.517V35.274z"/>
	<path class="st1" d="M162.386,39.025c-0.417-0.224-0.734-0.551-0.952-0.98c-0.218-0.43-0.327-0.947-0.327-1.552V35.42
		c0-0.597,0.109-1.107,0.327-1.533c0.218-0.425,0.535-0.749,0.952-0.971c0.417-0.223,0.917-0.333,1.501-0.333
		s1.084,0.111,1.501,0.333c0.417,0.222,0.734,0.546,0.952,0.971c0.218,0.426,0.327,0.937,0.327,1.533v1.092
		c0,0.601-0.109,1.114-0.327,1.539c-0.218,0.426-0.535,0.75-0.952,0.975c-0.417,0.224-0.917,0.336-1.501,0.336
		S162.803,39.25,162.386,39.025z M164.82,37.543c0.22-0.243,0.33-0.587,0.33-1.031V35.42c0-0.44-0.11-0.781-0.33-1.022
		s-0.531-0.362-0.933-0.362s-0.713,0.121-0.933,0.362s-0.33,0.582-0.33,1.022v1.092c0,0.444,0.109,0.788,0.327,1.031
		c0.218,0.244,0.53,0.365,0.937,0.365C164.289,37.908,164.6,37.787,164.82,37.543z"/>
	<path class="st1" d="M169.47,39.025c-0.417-0.224-0.734-0.551-0.952-0.98c-0.218-0.43-0.327-0.947-0.327-1.552V35.42
		c0-0.597,0.109-1.107,0.327-1.533c0.218-0.425,0.535-0.749,0.952-0.971c0.417-0.223,0.917-0.333,1.501-0.333
		s1.084,0.111,1.501,0.333c0.417,0.222,0.734,0.546,0.952,0.971c0.218,0.426,0.327,0.937,0.327,1.533v1.092
		c0,0.601-0.109,1.114-0.327,1.539c-0.218,0.426-0.535,0.75-0.952,0.975c-0.417,0.224-0.917,0.336-1.501,0.336
		S169.887,39.25,169.47,39.025z M171.904,37.543c0.22-0.243,0.33-0.587,0.33-1.031V35.42c0-0.44-0.11-0.781-0.33-1.022
		s-0.531-0.362-0.933-0.362s-0.713,0.121-0.933,0.362s-0.33,0.582-0.33,1.022v1.092c0,0.444,0.109,0.788,0.327,1.031
		c0.218,0.244,0.53,0.365,0.937,0.365C171.373,37.908,171.684,37.787,171.904,37.543z"/>
	<path class="st1" d="M176.982,37.331c0,0.161,0.04,0.285,0.121,0.372c0.081,0.086,0.195,0.13,0.343,0.13h0.451v1.454h-0.825
		c-0.508,0-0.902-0.152-1.184-0.457c-0.281-0.305-0.422-0.734-0.422-1.289v-7.503h1.517V37.331z"/>
	<path class="st1" d="M185.431,30.037h1.143l1.828,6.697l1.409-6.697h1.568l-2.19,9.229h-1.479l-1.669-6.449l-1.746,6.449h-1.479
		l-2.19-9.229h1.568l1.409,6.697L185.431,30.037z"/>
	<path class="st1" d="M192.414,30.037h1.511v1.517h-1.511V30.037z M192.414,32.678h1.511v6.589h-1.511V32.678z"/>
	<path class="st1" d="M197.555,39.362c0,0-0.178-0.037-0.533-0.111c-0.355-0.074-0.689-0.183-1-0.327
		c-0.312-0.144-0.592-0.319-0.841-0.527l0.92-1.143c0.334,0.237,0.676,0.417,1.025,0.54c0.349,0.123,0.688,0.184,1.019,0.184
		c0.461,0,0.812-0.063,1.051-0.187c0.239-0.125,0.358-0.306,0.358-0.543c0-0.182-0.059-0.318-0.178-0.409
		c-0.119-0.091-0.268-0.154-0.447-0.188c-0.18-0.034-0.433-0.065-0.759-0.095c-0.055-0.004-0.112-0.008-0.171-0.013
		s-0.116-0.011-0.171-0.019c-0.017,0-0.034-0.001-0.051-0.003c-0.017-0.002-0.034-0.003-0.051-0.003
		c-0.461-0.051-0.84-0.122-1.136-0.212c-0.296-0.091-0.545-0.266-0.746-0.524c-0.201-0.258-0.302-0.628-0.302-1.111
		c0-0.453,0.101-0.835,0.302-1.146c0.201-0.312,0.496-0.546,0.885-0.705c0.389-0.158,0.868-0.238,1.435-0.238
		c0.338,0,0.668,0.033,0.99,0.098c0.322,0.066,0.629,0.161,0.923,0.286c0.294,0.125,0.573,0.28,0.835,0.466l-0.908,1.104
		c-0.309-0.186-0.621-0.328-0.936-0.425c-0.315-0.097-0.621-0.146-0.917-0.146c-0.398,0-0.7,0.057-0.908,0.171
		s-0.311,0.284-0.311,0.508c0,0.144,0.057,0.254,0.171,0.33s0.257,0.128,0.429,0.155c0.171,0.028,0.42,0.056,0.746,0.086
		c0.034,0.004,0.067,0.007,0.098,0.01c0.032,0.002,0.065,0.005,0.099,0.009c0.013,0,0.027,0,0.044,0s0.034,0.002,0.051,0.006
		c0.487,0.046,0.891,0.116,1.212,0.209s0.595,0.278,0.819,0.555c0.224,0.277,0.336,0.681,0.336,1.209
		c0,0.465-0.106,0.858-0.317,1.177c-0.211,0.32-0.526,0.561-0.942,0.724c-0.417,0.163-0.928,0.245-1.533,0.245
		C197.752,39.362,197.555,39.362,197.555,39.362z"/>
	<path class="st1" d="M204.29,39.362c0,0-0.22-0.114-0.66-0.343s-0.776-0.564-1.009-1.006c-0.233-0.442-0.349-0.976-0.349-1.603
		v-0.743c0-0.652,0.111-1.208,0.333-1.669c0.223-0.461,0.546-0.813,0.972-1.054c0.425-0.241,0.936-0.362,1.533-0.362
		c0.563,0,1.044,0.141,1.444,0.422c0.4,0.281,0.705,0.688,0.914,1.222c0.21,0.533,0.314,1.176,0.314,1.93v0.432h-4.475v-1.111h3.066
		l-0.006-0.07c-0.042-0.461-0.171-0.819-0.387-1.073s-0.506-0.381-0.87-0.381c-0.457,0-0.811,0.143-1.06,0.428
		c-0.25,0.286-0.375,0.691-0.375,1.216v0.838c0,0.5,0.135,0.883,0.406,1.152c0.271,0.269,0.652,0.403,1.143,0.403
		c0.25,0,0.496-0.047,0.74-0.143c0.243-0.095,0.462-0.227,0.657-0.396l0.99,0.927c-0.334,0.313-0.71,0.556-1.126,0.727
		c-0.417,0.172-0.837,0.257-1.26,0.257C204.601,39.362,204.29,39.362,204.29,39.362z"/>
	<path class="st1" d="M211.78,30.031h1.517v9.236h-1.517V30.031z M212.409,34.004h3.18c0.211,0,0.399-0.052,0.562-0.156
		c0.163-0.104,0.289-0.25,0.378-0.441s0.135-0.413,0.14-0.667c0-0.25-0.044-0.47-0.133-0.66s-0.215-0.337-0.377-0.441
		c-0.163-0.104-0.353-0.155-0.568-0.155h-3.18v-1.454h3.225c0.521,0,0.978,0.112,1.371,0.336s0.699,0.542,0.917,0.952
		c0.218,0.411,0.327,0.884,0.327,1.422c0,0.542-0.109,1.018-0.327,1.428c-0.218,0.411-0.525,0.728-0.921,0.952
		c-0.396,0.224-0.852,0.336-1.368,0.336h-3.225V34.004z M214.637,35.172l1.574-0.292l2.425,4.386h-1.822L214.637,35.172z"/>
	<path class="st1" d="M221.702,39.362c0,0-0.22-0.114-0.66-0.343s-0.776-0.564-1.009-1.006c-0.233-0.442-0.349-0.976-0.349-1.603
		v-0.743c0-0.652,0.111-1.208,0.333-1.669c0.223-0.461,0.546-0.813,0.972-1.054c0.425-0.241,0.936-0.362,1.533-0.362
		c0.563,0,1.044,0.141,1.444,0.422c0.4,0.281,0.705,0.688,0.914,1.222c0.21,0.533,0.314,1.176,0.314,1.93v0.432h-4.475v-1.111h3.066
		l-0.006-0.07c-0.042-0.461-0.171-0.819-0.387-1.073s-0.506-0.381-0.87-0.381c-0.457,0-0.811,0.143-1.06,0.428
		c-0.25,0.286-0.375,0.691-0.375,1.216v0.838c0,0.5,0.135,0.883,0.406,1.152c0.271,0.269,0.652,0.403,1.143,0.403
		c0.25,0,0.496-0.047,0.74-0.143c0.243-0.095,0.462-0.227,0.657-0.396l0.99,0.927c-0.334,0.313-0.71,0.556-1.126,0.727
		c-0.417,0.172-0.837,0.257-1.26,0.257C222.013,39.362,221.702,39.362,221.702,39.362z"/>
	<path class="st1" d="M228.678,39.362c0,0-0.178-0.037-0.533-0.111c-0.355-0.074-0.689-0.183-1-0.327
		c-0.312-0.144-0.592-0.319-0.841-0.527l0.92-1.143c0.334,0.237,0.676,0.417,1.025,0.54c0.349,0.123,0.688,0.184,1.019,0.184
		c0.461,0,0.812-0.063,1.051-0.187c0.239-0.125,0.358-0.306,0.358-0.543c0-0.182-0.059-0.318-0.178-0.409
		c-0.119-0.091-0.268-0.154-0.447-0.188c-0.18-0.034-0.433-0.065-0.759-0.095c-0.055-0.004-0.112-0.008-0.171-0.013
		s-0.116-0.011-0.171-0.019c-0.017,0-0.034-0.001-0.051-0.003c-0.017-0.002-0.034-0.003-0.051-0.003
		c-0.461-0.051-0.84-0.122-1.136-0.212c-0.296-0.091-0.545-0.266-0.746-0.524c-0.201-0.258-0.302-0.628-0.302-1.111
		c0-0.453,0.101-0.835,0.302-1.146c0.201-0.312,0.496-0.546,0.885-0.705c0.389-0.158,0.868-0.238,1.435-0.238
		c0.338,0,0.668,0.033,0.99,0.098c0.322,0.066,0.629,0.161,0.923,0.286c0.294,0.125,0.573,0.28,0.835,0.466l-0.908,1.104
		c-0.309-0.186-0.621-0.328-0.936-0.425c-0.315-0.097-0.621-0.146-0.917-0.146c-0.398,0-0.7,0.057-0.908,0.171
		s-0.311,0.284-0.311,0.508c0,0.144,0.057,0.254,0.171,0.33s0.257,0.128,0.429,0.155c0.171,0.028,0.42,0.056,0.746,0.086
		c0.034,0.004,0.067,0.007,0.098,0.01c0.032,0.002,0.065,0.005,0.099,0.009c0.013,0,0.027,0,0.044,0s0.034,0.002,0.051,0.006
		c0.487,0.046,0.891,0.116,1.212,0.209s0.595,0.278,0.819,0.555c0.224,0.277,0.336,0.681,0.336,1.209
		c0,0.465-0.106,0.858-0.317,1.177c-0.211,0.32-0.526,0.561-0.942,0.724c-0.417,0.163-0.928,0.245-1.533,0.245
		C228.875,39.362,228.678,39.362,228.678,39.362z"/>
	<path class="st1" d="M235.102,36.683c0,0.389,0.104,0.691,0.311,0.905c0.208,0.213,0.5,0.32,0.876,0.32s0.667-0.101,0.87-0.302
		c0.203-0.201,0.305-0.49,0.305-0.866l0.089,1.409c-0.127,0.343-0.338,0.63-0.635,0.863s-0.658,0.349-1.085,0.349
		c-0.715,0-1.269-0.23-1.66-0.692c-0.391-0.461-0.587-1.113-0.587-1.955v-4.037h1.517V36.683z M237.463,32.678h1.511v6.589h-1.511
		V32.678z"/>
	<path class="st1" d="M242.332,37.331c0,0.161,0.04,0.285,0.121,0.372c0.081,0.086,0.195,0.13,0.343,0.13h0.451v1.454h-0.825
		c-0.508,0-0.902-0.152-1.184-0.457c-0.281-0.305-0.422-0.734-0.422-1.289v-7.503h1.517V37.331z"/>
	<path class="st1" d="M244.071,32.678h3.098v1.327h-3.098V32.678z M245.137,38.857c-0.258-0.294-0.387-0.729-0.387-1.305v-6.792
		h1.517v6.583c0,0.161,0.032,0.285,0.095,0.372c0.063,0.086,0.157,0.13,0.279,0.13h0.527v1.454h-0.813
		C245.802,39.298,245.396,39.151,245.137,38.857z"/>
	<path class="st1" d="M250.653,39.362c0,0-0.178-0.037-0.533-0.111c-0.355-0.074-0.689-0.183-1-0.327
		c-0.312-0.144-0.592-0.319-0.841-0.527l0.92-1.143c0.334,0.237,0.676,0.417,1.025,0.54c0.349,0.123,0.688,0.184,1.019,0.184
		c0.461,0,0.812-0.063,1.051-0.187c0.239-0.125,0.358-0.306,0.358-0.543c0-0.182-0.059-0.318-0.178-0.409
		c-0.119-0.091-0.268-0.154-0.447-0.188c-0.18-0.034-0.433-0.065-0.759-0.095c-0.055-0.004-0.112-0.008-0.171-0.013
		s-0.116-0.011-0.171-0.019c-0.017,0-0.034-0.001-0.051-0.003c-0.017-0.002-0.034-0.003-0.051-0.003
		c-0.461-0.051-0.84-0.122-1.136-0.212c-0.296-0.091-0.545-0.266-0.746-0.524c-0.201-0.258-0.302-0.628-0.302-1.111
		c0-0.453,0.101-0.835,0.302-1.146c0.201-0.312,0.496-0.546,0.885-0.705c0.389-0.158,0.868-0.238,1.435-0.238
		c0.338,0,0.668,0.033,0.99,0.098c0.322,0.066,0.629,0.161,0.923,0.286c0.294,0.125,0.573,0.28,0.835,0.466l-0.908,1.104
		c-0.309-0.186-0.621-0.328-0.936-0.425c-0.315-0.097-0.621-0.146-0.917-0.146c-0.398,0-0.7,0.057-0.908,0.171
		s-0.311,0.284-0.311,0.508c0,0.144,0.057,0.254,0.171,0.33s0.257,0.128,0.429,0.155c0.171,0.028,0.42,0.056,0.746,0.086
		c0.034,0.004,0.067,0.007,0.098,0.01c0.032,0.002,0.065,0.005,0.099,0.009c0.013,0,0.027,0,0.044,0s0.034,0.002,0.051,0.006
		c0.487,0.046,0.891,0.116,1.212,0.209s0.595,0.278,0.819,0.555c0.224,0.277,0.336,0.681,0.336,1.209
		c0,0.465-0.106,0.858-0.317,1.177c-0.211,0.32-0.526,0.561-0.942,0.724c-0.417,0.163-0.928,0.245-1.533,0.245
		C250.85,39.362,250.653,39.362,250.653,39.362z"/>
</g>
</svg>