<!-- Generator: Adobe Illustrator 22.1.0, SVG Export Plug-In  -->
<svg version="1.1"
	 xmlns="http://www.w3.org/2000/svg" xmlns:xlink="http://www.w3.org/1999/xlink" xmlns:a="http://ns.adobe.com/AdobeSVGViewerExtensions/3.0/"
	 x="0px" y="0px" width="260px" height="55px" viewBox="0 0 260 55" style="enable-background:new 0 0 260 55;"
	 xml:space="preserve">
<style type="text/css">
	.st0{fill:#1B1464;}
	.st1{fill:#FFFFFF;}
</style>
<defs>
</defs>
<rect class="st0" width="260" height="55"/>
<g>
	<path class="st1" d="M53.752,24.096c0,0-0.247-0.139-0.739-0.416c-0.493-0.277-0.872-0.674-1.137-1.19
		c-0.264-0.517-0.396-1.128-0.396-1.835v-2.532c0-0.706,0.132-1.318,0.396-1.835c0.265-0.516,0.644-0.914,1.137-1.193
		c0.493-0.279,1.074-0.418,1.742-0.418c0.554,0,1.057,0.118,1.508,0.355c0.45,0.236,0.825,0.578,1.123,1.024
		c0.299,0.446,0.503,0.975,0.613,1.584h-1.562c-0.076-0.296-0.197-0.556-0.362-0.777c-0.165-0.223-0.361-0.393-0.587-0.511
		c-0.227-0.119-0.471-0.178-0.733-0.178c-0.351,0-0.655,0.079-0.911,0.237c-0.256,0.159-0.454,0.384-0.593,0.677
		c-0.14,0.291-0.209,0.637-0.209,1.034v2.532c0,0.398,0.07,0.743,0.209,1.035s0.337,0.516,0.593,0.673
		c0.256,0.157,0.56,0.235,0.911,0.235c0.267,0,0.513-0.058,0.739-0.172c0.227-0.114,0.422-0.281,0.587-0.502
		c0.165-0.22,0.284-0.484,0.355-0.793h1.562c-0.114,0.609-0.321,1.137-0.619,1.584c-0.299,0.446-0.673,0.788-1.124,1.025
		c-0.45,0.236-0.951,0.355-1.501,0.355C54.087,24.096,53.752,24.096,53.752,24.096z"/>
	<path class="st1" d="M61.884,24.096c0,0-0.204-0.044-0.612-0.131c-0.409-0.086-0.792-0.215-1.149-0.384
		c-0.357-0.169-0.684-0.379-0.98-0.628l0.806-1.213c0.355,0.301,0.754,0.527,1.197,0.683c0.442,0.154,0.911,0.231,1.406,0.231
		c0.618,0,1.097-0.109,1.438-0.33c0.34-0.221,0.511-0.531,0.511-0.934v-0.006c0-0.283-0.076-0.509-0.229-0.676
		c-0.152-0.168-0.351-0.29-0.597-0.368c-0.246-0.079-0.561-0.151-0.946-0.22c-0.013-0.004-0.025-0.006-0.038-0.006
		s-0.025-0.002-0.038-0.006l-0.114-0.02c-0.618-0.102-1.125-0.223-1.523-0.361c-0.398-0.141-0.736-0.39-1.016-0.75
		c-0.279-0.359-0.419-0.869-0.419-1.529v-0.006c0-0.584,0.131-1.084,0.394-1.498c0.262-0.415,0.643-0.73,1.143-0.946
		s1.1-0.323,1.803-0.323c0.33,0,0.661,0.037,0.994,0.11c0.332,0.074,0.658,0.183,0.978,0.324c0.319,0.142,0.629,0.318,0.93,0.53
		l-0.736,1.25c-0.355-0.254-0.717-0.446-1.085-0.578c-0.368-0.131-0.728-0.196-1.079-0.196c-0.584,0-1.036,0.106-1.355,0.32
		c-0.32,0.214-0.479,0.516-0.479,0.905v0.006c0,0.292,0.083,0.522,0.248,0.691c0.165,0.17,0.372,0.293,0.619,0.372
		c0.248,0.078,0.594,0.161,1.038,0.251c0.017,0.004,0.033,0.007,0.048,0.009c0.015,0.003,0.03,0.005,0.047,0.01
		c0.021,0.005,0.044,0.009,0.07,0.013s0.049,0.008,0.07,0.013c0.571,0.114,1.048,0.252,1.431,0.413
		c0.383,0.16,0.704,0.418,0.962,0.773s0.387,0.84,0.387,1.454v0.013c0,0.576-0.135,1.068-0.406,1.479
		c-0.271,0.411-0.665,0.723-1.181,0.937s-1.138,0.321-1.866,0.321C62.106,24.096,61.884,24.096,61.884,24.096z"/>
	<path class="st1" d="M67.717,14.771h1.511V24h-1.511V14.771z M68.479,22.565h2.723c0.529,0,0.922-0.111,1.181-0.333
		c0.258-0.223,0.387-0.532,0.387-0.93v-0.02c0-0.275-0.051-0.51-0.152-0.705c-0.102-0.194-0.258-0.344-0.47-0.447
		s-0.474-0.155-0.787-0.155h-2.882v-1.422h2.882c0.419,0,0.738-0.102,0.958-0.305s0.33-0.497,0.33-0.882
		c0-0.381-0.116-0.67-0.349-0.867c-0.233-0.196-0.576-0.295-1.028-0.295h-2.793v-1.435h2.939c0.597,0,1.101,0.101,1.514,0.302
		c0.412,0.201,0.724,0.487,0.933,0.859c0.21,0.373,0.314,0.819,0.314,1.34c0,0.338-0.066,0.646-0.2,0.924
		c-0.133,0.277-0.33,0.509-0.59,0.695c-0.261,0.186-0.579,0.313-0.956,0.381c0.389,0.055,0.724,0.183,1.003,0.384
		c0.279,0.2,0.493,0.457,0.641,0.768c0.148,0.312,0.222,0.659,0.222,1.044v0.02c0,0.512-0.111,0.957-0.333,1.336
		c-0.222,0.379-0.542,0.67-0.958,0.873C72.591,23.898,72.097,24,71.526,24h-3.047V22.565z"/>
	<path class="st1" d="M76.109,14.771h1.517V24h-1.517V14.771z M76.737,14.771h5.427v1.454h-5.427V14.771z M76.737,18.693h4.729
		v1.447h-4.729V18.693z M76.737,22.547h5.427V24h-5.427V22.547z"/>
	<path class="st1" d="M88.144,19.969v1.447h-4.393v-1.447H88.144z"/>
	<path class="st1" d="M91.502,23.692c-0.495-0.269-0.872-0.66-1.13-1.175c-0.258-0.514-0.387-1.133-0.387-1.856v-5.891h1.517v5.935
		c0,0.602,0.156,1.066,0.466,1.396c0.312,0.33,0.75,0.496,1.317,0.496c0.571,0,1.014-0.166,1.327-0.496s0.47-0.795,0.47-1.396
		v-5.935h1.517v5.891c0,0.724-0.13,1.343-0.391,1.856c-0.26,0.515-0.638,0.906-1.133,1.175s-1.092,0.403-1.79,0.403
		C92.592,24.096,91.997,23.961,91.502,23.692z"/>
	<path class="st1" d="M105.067,18.935v1.708c0,0.686-0.137,1.289-0.409,1.812c-0.273,0.522-0.658,0.927-1.155,1.213
		c-0.498,0.285-1.074,0.429-1.73,0.429c-0.66,0-1.242-0.135-1.746-0.403s-0.894-0.649-1.171-1.14
		c-0.277-0.49-0.416-1.061-0.416-1.707v-2.724c0-0.686,0.137-1.288,0.409-1.81c0.273-0.52,0.658-0.923,1.155-1.209
		c0.498-0.285,1.074-0.428,1.73-0.428c0.538,0,1.035,0.113,1.492,0.339c0.457,0.227,0.838,0.548,1.143,0.962
		s0.512,0.895,0.622,1.441h-1.638c-0.072-0.254-0.189-0.473-0.353-0.654c-0.163-0.182-0.355-0.32-0.577-0.416
		c-0.223-0.095-0.452-0.143-0.689-0.143c-0.347,0-0.651,0.079-0.911,0.238c-0.261,0.158-0.462,0.383-0.606,0.673
		s-0.216,0.625-0.216,1.006v2.724c0,0.342,0.073,0.644,0.219,0.904c0.146,0.26,0.354,0.461,0.622,0.603
		c0.269,0.142,0.579,0.213,0.93,0.213c0.347,0,0.652-0.075,0.914-0.226s0.464-0.368,0.606-0.653
		c0.142-0.286,0.213-0.626,0.213-1.019v-0.279h-1.638v-1.454H105.067z"/>
	<path class="st1" d="M109.117,24.096c0,0-0.247-0.139-0.739-0.416c-0.493-0.277-0.872-0.674-1.137-1.19
		c-0.264-0.517-0.396-1.128-0.396-1.835v-2.532c0-0.706,0.132-1.318,0.396-1.835c0.265-0.516,0.644-0.914,1.137-1.193
		c0.493-0.279,1.074-0.418,1.742-0.418c0.554,0,1.057,0.118,1.508,0.355c0.45,0.236,0.825,0.578,1.123,1.024
		c0.299,0.446,0.503,0.975,0.613,1.584h-1.562c-0.076-0.296-0.197-0.556-0.362-0.777c-0.165-0.223-0.361-0.393-0.587-0.511
		c-0.227-0.119-0.471-0.178-0.733-0.178c-0.351,0-0.655,0.079-0.911,0.237c-0.256,0.159-0.454,0.384-0.593,0.677
		c-0.14,0.291-0.209,0.637-0.209,1.034v2.532c0,0.398,0.07,0.743,0.209,1.035s0.337,0.516,0.593,0.673
		c0.256,0.157,0.56,0.235,0.911,0.235c0.267,0,0.513-0.058,0.739-0.172c0.227-0.114,0.422-0.281,0.587-0.502
		c0.165-0.22,0.284-0.484,0.355-0.793h1.562c-0.114,0.609-0.321,1.137-0.619,1.584c-0.299,0.446-0.673,0.788-1.124,1.025
		c-0.45,0.236-0.951,0.355-1.501,0.355C109.451,24.096,109.117,24.096,109.117,24.096z"/>
	<path class="st1" d="M117.299,14.771h1.65l3.974,7.103l-0.152,0.166v-7.269h1.473v9.224h-1.663l-3.961-6.996l0.152-0.164v7.16
		h-1.473V14.771z"/>
	<path class="st1" d="M126.401,14.771h1.517V24h-1.517V14.771z M127.03,14.771h5.427v1.454h-5.427V14.771z M127.03,18.693h4.729
		v1.447h-4.729V18.693z M127.03,22.547h5.427V24h-5.427V22.547z"/>
	<path class="st1" d="M132.901,14.771h6.64v1.454h-6.64V14.771z M135.466,15.525h1.511V24h-1.511V15.525z"/>
	<path class="st1" d="M142.651,14.771h1.517V24h-1.517V14.771z M143.28,14.771h5.427v1.454h-5.427V14.771z M143.28,18.693h4.729
		v1.447h-4.729V18.693z M143.28,22.547h5.427V24h-5.427V22.547z"/>
	<path class="st1" d="M152.071,20.363l0.825,1.193l-1.6,2.443h-1.638L152.071,20.363z M152.249,21.137l-2.488-3.726h1.676
		l1.739,2.806L155.715,24h-1.669L152.249,21.137z M152.604,19.747l1.333-2.336h1.676l-2.228,3.555L152.604,19.747z"/>
	<path class="st1" d="M157.264,23.591c-0.376-0.337-0.565-0.848-0.565-1.533c0-0.651,0.19-1.141,0.571-1.466
		c0.381-0.326,0.952-0.489,1.714-0.489h1.765l0.089,1.181h-1.847c-0.3,0-0.526,0.063-0.676,0.19
		c-0.15,0.127-0.225,0.321-0.225,0.584c0,0.274,0.097,0.479,0.292,0.612c0.195,0.134,0.489,0.2,0.882,0.2
		c0.482,0,0.841-0.053,1.076-0.159c0.234-0.105,0.352-0.271,0.352-0.494l0.133,0.939c-0.072,0.207-0.198,0.381-0.378,0.52
		c-0.18,0.141-0.396,0.245-0.65,0.314c-0.254,0.07-0.531,0.105-0.832,0.105C158.208,24.096,157.64,23.927,157.264,23.591z
		 M160.691,19.823c0-0.368-0.109-0.653-0.327-0.856c-0.218-0.203-0.526-0.305-0.924-0.305c-0.254,0-0.503,0.039-0.749,0.12
		s-0.465,0.192-0.66,0.337l-1.009-0.852c0.258-0.3,0.597-0.533,1.016-0.701c0.419-0.167,0.884-0.25,1.396-0.25
		c0.559,0,1.037,0.096,1.435,0.288s0.702,0.472,0.911,0.838c0.21,0.366,0.314,0.808,0.314,1.323V24h-1.402V19.823z"/>
	<path class="st1" d="M163.936,17.411h1.517V24h-1.517V17.411z M167.826,20.103c0-0.427-0.105-0.757-0.314-0.987
		s-0.506-0.346-0.892-0.346c-0.372,0-0.66,0.101-0.863,0.302c-0.203,0.2-0.305,0.485-0.305,0.854l-0.134-1.364
		c0.199-0.402,0.453-0.711,0.762-0.924c0.31-0.214,0.662-0.32,1.061-0.32c0.461,0,0.857,0.107,1.188,0.323s0.58,0.532,0.752,0.949
		s0.257,0.919,0.257,1.507V24h-1.511V20.103z M171.711,20.103c0-0.427-0.105-0.757-0.317-0.987s-0.513-0.346-0.901-0.346
		c-0.368,0-0.652,0.111-0.854,0.333c-0.201,0.223-0.302,0.538-0.302,0.949l-0.292-1.396c0.207-0.427,0.479-0.757,0.816-0.99
		c0.336-0.233,0.709-0.349,1.119-0.349c0.475,0,0.879,0.107,1.217,0.323c0.336,0.216,0.592,0.532,0.768,0.949
		s0.264,0.919,0.264,1.507V24h-1.518V20.103z"/>
	<path class="st1" d="M175.024,14.771h1.511v1.517h-1.511V14.771z M175.024,17.411h1.511V24h-1.511V17.411z"/>
	<path class="st1" d="M178.332,17.411h1.517V24h-1.517V17.411z M182.235,20.008c0-0.395-0.106-0.699-0.317-0.914
		c-0.211-0.217-0.512-0.324-0.901-0.324c-0.372,0-0.66,0.101-0.863,0.302c-0.203,0.2-0.305,0.485-0.305,0.854l-0.134-1.364
		c0.199-0.406,0.45-0.716,0.752-0.928c0.303-0.211,0.66-0.316,1.07-0.316c0.703,0,1.248,0.233,1.635,0.701
		c0.387,0.467,0.58,1.129,0.58,1.983V24h-1.517V20.008z"/>
	<path class="st1" d="M185.841,23.591c-0.376-0.337-0.565-0.848-0.565-1.533c0-0.651,0.191-1.141,0.572-1.466
		c0.381-0.326,0.951-0.489,1.713-0.489h1.766l0.088,1.181h-1.847c-0.3,0-0.526,0.063-0.677,0.19
		c-0.149,0.127-0.225,0.321-0.225,0.584c0,0.274,0.098,0.479,0.292,0.612c0.194,0.134,0.489,0.2,0.882,0.2
		c0.482,0,0.842-0.053,1.076-0.159c0.234-0.105,0.353-0.271,0.353-0.494l0.134,0.939c-0.072,0.207-0.198,0.381-0.379,0.52
		c-0.18,0.141-0.396,0.245-0.65,0.314c-0.254,0.07-0.531,0.105-0.831,0.105C186.785,24.096,186.217,23.927,185.841,23.591z
		 M189.269,19.823c0-0.368-0.108-0.653-0.327-0.856c-0.218-0.203-0.525-0.305-0.924-0.305c-0.254,0-0.503,0.039-0.748,0.12
		c-0.246,0.081-0.466,0.192-0.66,0.337l-1.01-0.852c0.258-0.3,0.597-0.533,1.016-0.701c0.419-0.167,0.885-0.25,1.396-0.25
		c0.559,0,1.037,0.096,1.435,0.288s0.702,0.472,0.911,0.838s0.314,0.808,0.314,1.323V24h-1.403V19.823z"/>
	<path class="st1" d="M192.004,17.411h3.098v1.327h-3.098V17.411z M193.07,23.591c-0.258-0.294-0.387-0.729-0.387-1.305v-6.792
		h1.518v6.582c0,0.161,0.031,0.285,0.095,0.372s0.157,0.13,0.279,0.13h0.526v1.453h-0.813
		C193.735,24.031,193.329,23.885,193.07,23.591z"/>
	<path class="st1" d="M196.708,14.771h1.511v1.517h-1.511V14.771z M196.708,17.411h1.511V24h-1.511V17.411z"/>
	<path class="st1" d="M201.104,23.759c-0.416-0.224-0.734-0.552-0.951-0.98c-0.219-0.43-0.328-0.947-0.328-1.552v-1.073
		c0-0.597,0.109-1.107,0.328-1.533c0.217-0.425,0.535-0.749,0.951-0.971c0.417-0.223,0.918-0.333,1.502-0.333s1.084,0.11,1.5,0.333
		c0.418,0.222,0.734,0.546,0.953,0.971c0.218,0.426,0.326,0.937,0.326,1.533v1.092c0,0.601-0.108,1.114-0.326,1.539
		c-0.219,0.426-0.535,0.751-0.953,0.975c-0.416,0.224-0.916,0.337-1.5,0.337S201.521,23.982,201.104,23.759z M203.538,22.276
		c0.22-0.243,0.33-0.587,0.33-1.031v-1.092c0-0.44-0.11-0.78-0.33-1.022c-0.22-0.24-0.531-0.361-0.933-0.361
		c-0.402,0-0.713,0.121-0.934,0.361c-0.221,0.242-0.33,0.582-0.33,1.022v1.092c0,0.444,0.109,0.788,0.326,1.031
		c0.219,0.243,0.531,0.365,0.938,0.365C203.007,22.642,203.318,22.52,203.538,22.276z"/>
	<path class="st1" d="M207.1,17.411h1.517V24H207.1V17.411z M211.003,20.008c0-0.395-0.106-0.699-0.317-0.914
		c-0.211-0.217-0.512-0.324-0.901-0.324c-0.372,0-0.66,0.101-0.863,0.302c-0.203,0.2-0.305,0.485-0.305,0.854l-0.134-1.364
		c0.199-0.406,0.45-0.716,0.752-0.928c0.303-0.211,0.66-0.316,1.07-0.316c0.703,0,1.248,0.233,1.635,0.701
		c0.387,0.467,0.58,1.129,0.58,1.983V24h-1.517V20.008z"/>
	<path class="st1" d="M90.677,35.569v1.447h-4.393v-1.447H90.677z"/>
	<path class="st1" d="M92.645,30.371h1.65l3.974,7.103l-0.152,0.165v-7.268h1.473v9.223h-1.663l-3.961-6.995l0.152-0.165v7.16
		h-1.473V30.371z"/>
	<path class="st1" d="M102.709,39.359c-0.417-0.225-0.734-0.552-0.952-0.98c-0.218-0.43-0.327-0.947-0.327-1.553v-1.072
		c0-0.598,0.109-1.107,0.327-1.533c0.218-0.426,0.535-0.75,0.952-0.971c0.417-0.223,0.917-0.334,1.501-0.334
		s1.084,0.111,1.501,0.334c0.417,0.221,0.734,0.545,0.952,0.971c0.218,0.426,0.327,0.936,0.327,1.533v1.092
		c0,0.601-0.109,1.113-0.327,1.539c-0.218,0.426-0.535,0.75-0.952,0.975c-0.417,0.224-0.917,0.336-1.501,0.336
		S103.125,39.583,102.709,39.359z M105.143,37.877c0.22-0.244,0.33-0.588,0.33-1.031v-1.092c0-0.44-0.11-0.781-0.33-1.022
		s-0.531-0.362-0.933-0.362s-0.713,0.121-0.933,0.362s-0.33,0.582-0.33,1.022v1.092c0,0.443,0.109,0.787,0.327,1.031
		c0.218,0.243,0.53,0.365,0.937,0.365C104.612,38.242,104.923,38.12,105.143,37.877z"/>
	<path class="st1" d="M112.392,33.012h1.542l-2.476,6.588h-1.104l-2.476-6.588h1.542l1.485,4.418L112.392,33.012z"/>
	<path class="st1" d="M116.778,39.695c0,0-0.22-0.114-0.66-0.343s-0.776-0.563-1.009-1.007c-0.233-0.441-0.349-0.976-0.349-1.602
		v-0.743c0-0.651,0.111-1.208,0.333-1.669c0.223-0.462,0.546-0.813,0.972-1.055c0.425-0.24,0.936-0.361,1.533-0.361
		c0.563,0,1.044,0.141,1.444,0.422c0.4,0.281,0.705,0.689,0.914,1.223c0.21,0.533,0.314,1.176,0.314,1.93v0.432h-4.475v-1.111h3.066
		l-0.006-0.07c-0.042-0.461-0.171-0.818-0.387-1.072s-0.506-0.381-0.87-0.381c-0.457,0-0.811,0.143-1.06,0.428
		c-0.25,0.287-0.375,0.691-0.375,1.217v0.838c0,0.499,0.135,0.883,0.406,1.152c0.271,0.268,0.652,0.402,1.143,0.402
		c0.25,0,0.496-0.047,0.74-0.143c0.243-0.096,0.462-0.228,0.657-0.396l0.99,0.926c-0.334,0.313-0.71,0.557-1.126,0.727
		c-0.417,0.172-0.837,0.258-1.26,0.258C117.089,39.695,116.778,39.695,116.778,39.695z"/>
	<path class="st1" d="M121.92,33.012h1.517V39.6h-1.517V33.012z M125.811,35.703c0-0.428-0.105-0.757-0.314-0.988
		c-0.21-0.23-0.507-0.346-0.892-0.346c-0.373,0-0.66,0.102-0.863,0.303c-0.203,0.2-0.305,0.484-0.305,0.854l-0.133-1.365
		c0.199-0.402,0.453-0.71,0.762-0.924c0.309-0.213,0.662-0.32,1.06-0.32c0.461,0,0.857,0.107,1.187,0.324
		c0.33,0.215,0.581,0.531,0.752,0.949c0.172,0.416,0.257,0.918,0.257,1.507V39.6h-1.511V35.703z M129.696,35.703
		c0-0.428-0.106-0.757-0.317-0.988c-0.211-0.23-0.512-0.346-0.901-0.346c-0.368,0-0.653,0.111-0.854,0.334
		c-0.201,0.223-0.301,0.538-0.301,0.949l-0.292-1.396c0.208-0.428,0.479-0.758,0.816-0.99c0.336-0.233,0.709-0.35,1.12-0.35
		c0.474,0,0.879,0.107,1.216,0.324c0.336,0.215,0.592,0.531,0.768,0.949c0.176,0.416,0.264,0.918,0.264,1.507V39.6h-1.517V35.703z"
		/>
	<path class="st1" d="M133.054,30.371h1.517V39.6h-1.517V30.371z M135.129,39.4c-0.292-0.197-0.508-0.475-0.647-0.835l0.089-1.44
		c0,0.249,0.044,0.462,0.133,0.637c0.089,0.176,0.218,0.311,0.387,0.404c0.169,0.093,0.375,0.139,0.616,0.139
		c0.376,0,0.668-0.118,0.876-0.355c0.208-0.236,0.311-0.572,0.311-1.009v-1.237c0-0.445-0.104-0.789-0.311-1.031
		c-0.208-0.244-0.5-0.365-0.876-0.365c-0.241,0-0.446,0.045-0.616,0.137c-0.169,0.09-0.298,0.225-0.387,0.402
		s-0.133,0.392-0.133,0.641l-0.133-1.364c0.186-0.386,0.433-0.683,0.739-0.892c0.307-0.209,0.646-0.314,1.019-0.314
		c0.465,0,0.864,0.107,1.197,0.324c0.332,0.215,0.585,0.531,0.758,0.949c0.173,0.416,0.26,0.918,0.26,1.507v1.244
		c0,0.579-0.088,1.075-0.264,1.489c-0.175,0.412-0.433,0.727-0.771,0.941c-0.338,0.217-0.743,0.324-1.212,0.324
		C135.766,39.695,135.421,39.598,135.129,39.4z"/>
	<path class="st1" d="M141.953,39.695c0,0-0.22-0.114-0.66-0.343s-0.776-0.563-1.009-1.007c-0.233-0.441-0.349-0.976-0.349-1.602
		v-0.743c0-0.651,0.111-1.208,0.333-1.669c0.223-0.462,0.546-0.813,0.972-1.055c0.425-0.24,0.936-0.361,1.533-0.361
		c0.563,0,1.044,0.141,1.444,0.422c0.4,0.281,0.705,0.689,0.914,1.223c0.21,0.533,0.314,1.176,0.314,1.93v0.432h-4.475v-1.111h3.066
		l-0.006-0.07c-0.042-0.461-0.171-0.818-0.387-1.072s-0.506-0.381-0.87-0.381c-0.457,0-0.811,0.143-1.06,0.428
		c-0.25,0.287-0.375,0.691-0.375,1.217v0.838c0,0.499,0.135,0.883,0.406,1.152c0.271,0.268,0.652,0.402,1.143,0.402
		c0.25,0,0.496-0.047,0.74-0.143c0.243-0.096,0.462-0.228,0.657-0.396l0.99,0.926c-0.334,0.313-0.71,0.557-1.126,0.727
		c-0.417,0.172-0.837,0.258-1.26,0.258C142.264,39.695,141.953,39.695,141.953,39.695z"/>
	<path class="st1" d="M147.095,33.012h1.581V39.6h-1.581V33.012z M150.389,34.455c-0.148-0.057-0.319-0.086-0.514-0.086
		c-0.381,0-0.676,0.113-0.886,0.34c-0.209,0.227-0.314,0.541-0.314,0.943l-0.133-1.492c0.19-0.394,0.439-0.699,0.746-0.918
		c0.307-0.217,0.644-0.326,1.012-0.326c0.288,0,0.548,0.043,0.781,0.131c0.233,0.086,0.436,0.214,0.609,0.383l-0.927,1.276
		C150.662,34.596,150.537,34.512,150.389,34.455z"/>
	<path class="st1" d="M154.661,38.254l3.193-4.227c0.165-0.217,0.293-0.439,0.384-0.67c0.091-0.23,0.136-0.445,0.136-0.645V32.7
		c0-0.31-0.094-0.548-0.283-0.718c-0.188-0.169-0.456-0.254-0.803-0.254c-0.334,0-0.604,0.104-0.81,0.309
		c-0.205,0.205-0.329,0.496-0.371,0.873v0.006h-1.562V32.91c0.059-0.555,0.208-1.029,0.444-1.422
		c0.237-0.395,0.55-0.694,0.939-0.902c0.389-0.207,0.838-0.311,1.346-0.311c0.563,0,1.043,0.094,1.441,0.283
		c0.398,0.188,0.702,0.461,0.911,0.821c0.21,0.36,0.314,0.794,0.314,1.302v0.006c0,0.373-0.071,0.75-0.213,1.133
		c-0.142,0.383-0.337,0.742-0.587,1.076l-2.476,3.25h3.326V39.6h-5.332V38.254z"/>
	<path class="st1" d="M162.205,39.004c-0.459-0.462-0.688-1.105-0.688-1.93v-4.196c0-0.829,0.23-1.474,0.692-1.933
		c0.461-0.459,1.129-0.689,2.006-0.689c0.88,0,1.549,0.229,2.009,0.686c0.459,0.457,0.688,1.104,0.688,1.937v4.196
		c0,0.829-0.23,1.473-0.691,1.932c-0.462,0.46-1.131,0.689-2.006,0.689C163.334,39.695,162.664,39.465,162.205,39.004z
		 M165.109,37.883c0.19-0.238,0.285-0.582,0.285-1.031V33.1c0-0.448-0.095-0.792-0.285-1.031c-0.19-0.238-0.488-0.358-0.895-0.358
		s-0.705,0.12-0.896,0.358c-0.19,0.239-0.286,0.583-0.286,1.031v3.752c0,0.449,0.096,0.793,0.286,1.031
		c0.19,0.239,0.489,0.359,0.896,0.359S164.919,38.122,165.109,37.883z"/>
	<path class="st1" d="M171.045,39.6h-1.518v-7.502l-1.219,0.615v-1.594l1.346-0.748h1.391V39.6z"/>
	<path class="st1" d="M177.906,31.525l-2.229,8.074h-1.631l2.196-7.775h-1.968v1.358h-1.518v-2.812h5.148V31.525z"/>
</g>
</svg>